%TF.GenerationSoftware,KiCad,Pcbnew,8.99.0-unknown*%
%TF.CreationDate,2024-06-21T10:07:29-04:00*%
%TF.ProjectId,solderingStationPCB,736f6c64-6572-4696-9e67-53746174696f,rev?*%
%TF.SameCoordinates,PX33f2570PY4a915b0*%
%TF.FileFunction,Drillmap*%
%TF.FilePolarity,Positive*%
%FSLAX45Y45*%
G04 Gerber Fmt 4.5, Leading zero omitted, Abs format (unit mm)*
G04 Created by KiCad (PCBNEW 8.99.0-unknown) date 2024-06-21 10:07:29*
%MOMM*%
%LPD*%
G01*
G04 APERTURE LIST*
%ADD10C,0.050000*%
%ADD11C,0.200000*%
G04 APERTURE END LIST*
D10*
X6606852Y770D02*
G75*
G02*
X7419650Y-812030I-2J-812800D01*
G01*
X2852Y-812030D02*
X2852Y-2107430D01*
X815652Y-2920230D02*
X6606852Y-2920230D01*
X7419652Y-2107430D02*
X7419652Y-812030D01*
X815652Y-2920230D02*
G75*
G02*
X2850Y-2107430I-2J812800D01*
G01*
X2852Y-812030D02*
G75*
G02*
X815652Y768I812798J0D01*
G01*
X6986582Y-1749290D02*
G75*
G02*
X6846882Y-1749290I-69850J0D01*
G01*
X6846882Y-1749290D02*
G75*
G02*
X6986582Y-1749290I69850J0D01*
G01*
X7419652Y-2107430D02*
G75*
G02*
X6606852Y-2920232I-812802J0D01*
G01*
X6606852Y770D02*
X815652Y770D01*
D11*
X261129Y-3234214D02*
X261129Y-3034214D01*
X261129Y-3034214D02*
X308748Y-3034214D01*
X308748Y-3034214D02*
X337319Y-3043738D01*
X337319Y-3043738D02*
X356367Y-3062785D01*
X356367Y-3062785D02*
X365891Y-3081833D01*
X365891Y-3081833D02*
X375415Y-3119928D01*
X375415Y-3119928D02*
X375415Y-3148499D01*
X375415Y-3148499D02*
X365891Y-3186595D01*
X365891Y-3186595D02*
X356367Y-3205642D01*
X356367Y-3205642D02*
X337319Y-3224690D01*
X337319Y-3224690D02*
X308748Y-3234214D01*
X308748Y-3234214D02*
X261129Y-3234214D01*
X461129Y-3234214D02*
X461129Y-3100880D01*
X461129Y-3138976D02*
X470653Y-3119928D01*
X470653Y-3119928D02*
X480176Y-3110404D01*
X480176Y-3110404D02*
X499224Y-3100880D01*
X499224Y-3100880D02*
X518272Y-3100880D01*
X584938Y-3234214D02*
X584938Y-3100880D01*
X584938Y-3034214D02*
X575415Y-3043738D01*
X575415Y-3043738D02*
X584938Y-3053261D01*
X584938Y-3053261D02*
X594462Y-3043738D01*
X594462Y-3043738D02*
X584938Y-3034214D01*
X584938Y-3034214D02*
X584938Y-3053261D01*
X708748Y-3234214D02*
X689700Y-3224690D01*
X689700Y-3224690D02*
X680177Y-3205642D01*
X680177Y-3205642D02*
X680177Y-3034214D01*
X813510Y-3234214D02*
X794462Y-3224690D01*
X794462Y-3224690D02*
X784938Y-3205642D01*
X784938Y-3205642D02*
X784938Y-3034214D01*
X1042081Y-3234214D02*
X1042081Y-3034214D01*
X1042081Y-3034214D02*
X1108748Y-3177071D01*
X1108748Y-3177071D02*
X1175415Y-3034214D01*
X1175415Y-3034214D02*
X1175415Y-3234214D01*
X1356367Y-3234214D02*
X1356367Y-3129452D01*
X1356367Y-3129452D02*
X1346843Y-3110404D01*
X1346843Y-3110404D02*
X1327796Y-3100880D01*
X1327796Y-3100880D02*
X1289700Y-3100880D01*
X1289700Y-3100880D02*
X1270653Y-3110404D01*
X1356367Y-3224690D02*
X1337319Y-3234214D01*
X1337319Y-3234214D02*
X1289700Y-3234214D01*
X1289700Y-3234214D02*
X1270653Y-3224690D01*
X1270653Y-3224690D02*
X1261129Y-3205642D01*
X1261129Y-3205642D02*
X1261129Y-3186595D01*
X1261129Y-3186595D02*
X1270653Y-3167547D01*
X1270653Y-3167547D02*
X1289700Y-3158023D01*
X1289700Y-3158023D02*
X1337319Y-3158023D01*
X1337319Y-3158023D02*
X1356367Y-3148499D01*
X1451605Y-3100880D02*
X1451605Y-3300880D01*
X1451605Y-3110404D02*
X1470653Y-3100880D01*
X1470653Y-3100880D02*
X1508748Y-3100880D01*
X1508748Y-3100880D02*
X1527796Y-3110404D01*
X1527796Y-3110404D02*
X1537319Y-3119928D01*
X1537319Y-3119928D02*
X1546843Y-3138976D01*
X1546843Y-3138976D02*
X1546843Y-3196118D01*
X1546843Y-3196118D02*
X1537319Y-3215166D01*
X1537319Y-3215166D02*
X1527796Y-3224690D01*
X1527796Y-3224690D02*
X1508748Y-3234214D01*
X1508748Y-3234214D02*
X1470653Y-3234214D01*
X1470653Y-3234214D02*
X1451605Y-3224690D01*
X1632557Y-3215166D02*
X1642081Y-3224690D01*
X1642081Y-3224690D02*
X1632557Y-3234214D01*
X1632557Y-3234214D02*
X1623034Y-3224690D01*
X1623034Y-3224690D02*
X1632557Y-3215166D01*
X1632557Y-3215166D02*
X1632557Y-3234214D01*
X1632557Y-3110404D02*
X1642081Y-3119928D01*
X1642081Y-3119928D02*
X1632557Y-3129452D01*
X1632557Y-3129452D02*
X1623034Y-3119928D01*
X1623034Y-3119928D02*
X1632557Y-3110404D01*
X1632557Y-3110404D02*
X1632557Y-3129452D01*
M02*
