%TF.GenerationSoftware,KiCad,Pcbnew,8.99.0-unknown*%
%TF.CreationDate,2024-05-01T22:11:17-04:00*%
%TF.ProjectId,solderingStationPCB,736f6c64-6572-4696-9e67-53746174696f,rev?*%
%TF.SameCoordinates,PX33f2570PY4a915b0*%
%TF.FileFunction,Soldermask,Bot*%
%TF.FilePolarity,Negative*%
%FSLAX46Y46*%
G04 Gerber Fmt 4.6, Leading zero omitted, Abs format (unit mm)*
G04 Created by KiCad (PCBNEW 8.99.0-unknown) date 2024-05-01 22:11:17*
%MOMM*%
%LPD*%
G01*
G04 APERTURE LIST*
%ADD10R,1.700000X1.700000*%
%ADD11O,1.700000X1.700000*%
%ADD12C,1.244600*%
%ADD13C,1.498600*%
%ADD14C,2.286000*%
%ADD15R,1.371600X1.371600*%
%ADD16C,1.371600*%
%ADD17R,2.000000X2.000000*%
%ADD18O,2.032000X2.540000*%
%ADD19R,2.921000X4.064000*%
%TA.AperFunction,Profile*%
%ADD20C,0.050000*%
%TD*%
G04 APERTURE END LIST*
D10*
%TO.C,J1*%
X44326121Y-2786300D03*
D11*
X41786121Y-2786300D03*
X39246121Y-2786300D03*
X36706121Y-2786300D03*
X34166121Y-2786300D03*
X31626121Y-2786300D03*
%TD*%
D12*
%TO.C,JP1*%
X16203300Y-27513700D03*
X17703302Y-27513700D03*
%TD*%
D13*
%TO.C,J4*%
X62809600Y-2790599D03*
X60309600Y-2790599D03*
%TD*%
D14*
%TO.C,J5*%
X55387000Y-3095000D03*
%TD*%
D12*
%TO.C,J6*%
X7020300Y-26317801D03*
X7020300Y-24817799D03*
%TD*%
D10*
%TO.C,J13*%
X58048200Y-23459600D03*
%TD*%
%TO.C,J11*%
X67426600Y-6997800D03*
%TD*%
D15*
%TO.C,LS1*%
X28425200Y-24068300D03*
D16*
X32425200Y-24068300D03*
%TD*%
D10*
%TO.C,J12*%
X62705400Y-27175800D03*
%TD*%
D12*
%TO.C,JP3*%
X42628302Y-27533700D03*
X41128300Y-27533700D03*
%TD*%
%TO.C,JP2*%
X60565301Y-14629299D03*
X60565301Y-16129301D03*
%TD*%
D10*
%TO.C,J10*%
X71173200Y-7004800D03*
%TD*%
%TO.C,J9*%
X62868400Y-11938800D03*
%TD*%
D14*
%TO.C,J7*%
X67760000Y-3115200D03*
%TD*%
D10*
%TO.C,J2*%
X15215000Y-2585000D03*
D11*
X17755000Y-2585000D03*
X20295000Y-2585000D03*
X22835000Y-2585000D03*
%TD*%
D10*
%TO.C,J3*%
X62873200Y-8335200D03*
%TD*%
D17*
%TO.C,J8*%
X67672147Y-15440197D03*
X66749438Y-18280003D03*
X69165121Y-20035100D03*
X71580804Y-18280003D03*
X70658095Y-15440197D03*
%TD*%
D18*
%TO.C,SW1*%
X9314400Y-6504000D03*
X4314400Y-6504000D03*
X9314400Y-21003996D03*
X6814400Y-21003996D03*
X4314400Y-21003996D03*
D19*
X12514401Y-13503999D03*
X1114399Y-13503999D03*
%TD*%
D20*
X66068521Y7700D02*
G75*
G02*
X74196500Y-8120300I-21J-8128000D01*
G01*
X28521Y-8120300D02*
X28521Y-21074300D01*
X8156521Y-29202300D02*
X66068521Y-29202300D01*
X74196521Y-21074300D02*
X74196521Y-8120300D01*
X8156521Y-29202300D02*
G75*
G02*
X28500Y-21074300I-21J8128000D01*
G01*
X28521Y-8120300D02*
G75*
G02*
X8156521Y7679I8127979J0D01*
G01*
X69865821Y-17492900D02*
G75*
G02*
X68468821Y-17492900I-698500J0D01*
G01*
X68468821Y-17492900D02*
G75*
G02*
X69865821Y-17492900I698500J0D01*
G01*
X74196521Y-21074300D02*
G75*
G02*
X66068521Y-29202321I-8128021J0D01*
G01*
X66068521Y7700D02*
X8156521Y7700D01*
M02*
