M48
; DRILL file {KiCad 8.99.0-unknown} date 2024-05-01T22:11:10-0400
; FORMAT={-:-/ absolute / inch / decimal}
; #@! TF.CreationDate,2024-05-01T22:11:10-04:00
; #@! TF.GenerationSoftware,Kicad,Pcbnew,8.99.0-unknown
; #@! TF.FileFunction,Plated,1,2,PTH
FMAT,2
INCH
; #@! TA.AperFunction,Plated,PTH,ViaDrill
T1C0.0118
; #@! TA.AperFunction,Plated,PTH,ComponentDrill
T2C0.0290
; #@! TA.AperFunction,Plated,PTH,ComponentDrill
T3C0.0340
; #@! TA.AperFunction,Plated,PTH,ComponentDrill
T4C0.0390
; #@! TA.AperFunction,Plated,PTH,ComponentDrill
T5C0.0394
; #@! TA.AperFunction,Plated,PTH,ComponentDrill
T6C0.0400
; #@! TA.AperFunction,Plated,PTH,ComponentDrill
T7C0.0500
; #@! TA.AperFunction,Plated,PTH,ComponentDrill
T8C0.0591
; #@! TA.AperFunction,Plated,PTH,ComponentDrill
T9C0.1000
%
G90
G05
T1
X0.0531Y-0.3299
X0.0691Y-0.8026
X0.0752Y-0.2449
X0.0835Y-0.4106
X0.0888Y-0.9079
X0.0984Y-0.6453
X0.1291Y-0.1461
X0.1419Y-0.3764
X0.174Y-0.3311
X0.1833Y-0.9522
X0.2Y-1.0604
X0.2175Y-0.6112
X0.2175Y-0.6673
X0.2335Y-0.0752
X0.2362Y-0.7461
X0.2413Y-0.5585
X0.261Y-0.2465
X0.2866Y-0.1461
X0.3014Y-0.7465
X0.3112Y-0.9098
X0.313Y-0.6112
X0.313Y-0.6673
X0.3781Y-0.0535
X0.39Y-1.0969
X0.3919Y-0.5437
X0.4291Y-0.648
X0.4333Y-0.1333
X0.4333Y-0.3045
X0.4362Y-0.8941
X0.4392Y-0.2327
X0.4961Y-0.2756
X0.4992Y-1.0191
X0.5061Y-0.8144
X0.511Y-0.1805
X0.5159Y-0.0545
X0.5337Y-0.6628
X0.5396Y-0.8882
X0.5907Y-0.2573
X0.5976Y-1.024
X0.6163Y-0.8173
X0.6173Y-0.9443
X0.6407Y-0.5335
X0.6567Y-1.0171
X0.6616Y-0.3646
X0.6646Y-0.7248
X0.6858Y-0.2535
X0.7108Y-0.6933
X0.7118Y-0.9482
X0.7591Y-0.4335
X0.7591Y-0.4835
X0.7591Y-0.5335
X0.7591Y-0.5835
X0.7591Y-0.6335
X0.7638Y-0.2539
X0.8091Y-0.4335
X0.8091Y-0.4835
X0.8091Y-0.5335
X0.8091Y-0.5835
X0.8091Y-0.6335
X0.8142Y-0.1618
X0.8329Y-0.9463
X0.8378Y-0.2396
X0.8591Y-0.4335
X0.8591Y-0.4835
X0.8591Y-0.5335
X0.8591Y-0.5835
X0.8591Y-0.6335
X0.8752Y-0.1736
X0.9057Y-0.8557
X0.9091Y-0.4335
X0.9091Y-0.4835
X0.9091Y-0.5335
X0.9091Y-0.5835
X0.9091Y-0.6335
X0.9154Y-0.9488
X0.9205Y-0.2337
X0.9589Y-0.1835
X0.9591Y-0.4335
X0.9591Y-0.4835
X0.9591Y-0.5335
X0.9591Y-0.5835
X0.9591Y-0.6335
X1.013Y-0.8104
X1.0157Y-0.8848
X1.0167Y-0.9537
X1.0297Y-0.1087
X1.0386Y-0.3469
X1.0868Y-0.6943
X1.1142Y-0.2402
X1.1429Y-0.7504
X1.1498Y-0.2957
X1.1524Y-0.3398
X1.1646Y-0.439
X1.1703Y-0.2396
X1.1909Y-0.3406
X1.1909Y-0.5354
X1.1941Y-0.8035
X1.2226Y-0.9896
X1.2265Y-0.2396
X1.2266Y-0.2809
X1.2287Y-0.3421
X1.2362Y-0.5368
X1.2362Y-0.5768
X1.2551Y-0.8695
X1.2748Y-0.3969
X1.2748Y-0.4369
X1.2748Y-0.4769
X1.2748Y-0.5169
X1.2748Y-0.5569
X1.2748Y-0.5969
X1.2826Y-0.2406
X1.2906Y-0.6402
X1.3148Y-0.3969
X1.3148Y-0.4369
X1.3148Y-0.4769
X1.3148Y-0.5169
X1.3306Y-0.6402
X1.3339Y-0.6982
X1.3388Y-0.2406
X1.3407Y-0.9384
X1.3476Y-0.7691
X1.3494Y-0.8425
X1.3548Y-0.3969
X1.3548Y-0.4369
X1.3548Y-0.4769
X1.3548Y-0.5169
X1.3706Y-0.6402
X1.3948Y-0.3969
X1.3948Y-0.4369
X1.3948Y-0.4769
X1.3948Y-0.5169
X1.4045Y-0.8711
X1.4106Y-0.6402
X1.4116Y-0.7681
X1.4156Y-0.6982
X1.4173Y-0.2598
X1.4348Y-0.3969
X1.4348Y-0.4369
X1.4348Y-0.4769
X1.4348Y-0.5169
X1.4506Y-0.6402
X1.4748Y-0.3969
X1.4748Y-0.4369
X1.4748Y-0.4769
X1.4748Y-0.5169
X1.4748Y-0.5569
X1.4748Y-0.5969
X1.4906Y-0.6402
X1.5148Y-0.3969
X1.5148Y-0.4369
X1.5148Y-0.4769
X1.5148Y-0.5169
X1.5148Y-0.5569
X1.5148Y-0.5969
X1.5159Y-0.9118
X1.5306Y-0.6402
X1.531Y-0.6748
X1.5706Y-0.6402
X1.571Y-0.6748
X1.5748Y-0.3278
X1.5829Y-0.5329
X1.6106Y-0.6402
X1.611Y-0.6748
X1.6142Y-0.2087
X1.6429Y-0.9778
X1.6457Y-0.1772
X1.6535Y-0.8307
X1.6656Y-0.8931
X1.7126Y-0.7677
X1.7126Y-0.8307
X1.7472Y-0.648
X1.748Y-0.8927
X1.752Y-0.1929
X1.7559Y-0.7992
X1.7659Y-0.9778
X1.7709Y-1.1136
X1.811Y-0.0394
X1.811Y-0.1142
X1.811Y-0.1772
X1.8368Y-0.6451
X1.8673Y-0.9797
X1.9215Y-0.6913
X1.9224Y-1.1126
X1.9736Y-0.0417
X1.9805Y-0.6421
X2.0652Y-0.7031
X2.1045Y-1.1116
X2.1085Y-0.5476
X2.1193Y-0.9669
X2.1557Y-0.0388
X2.198Y-0.9659
X2.2234Y-0.4665
X2.2433Y-0.7258
X2.2472Y-1.1116
X2.3201Y-0.0407
X2.3319Y-0.7248
X2.3386Y-0.5122
X2.3663Y-0.9148
X2.3949Y-1.1146
X2.3976Y-0.2215
X2.3976Y-1.0433
X2.4156Y-0.0467
X2.4274Y-0.8478
X2.4283Y-0.7661
X2.4313Y-0.6726
X2.4331Y-0.9606
X2.4333Y-0.5427
X2.4734Y-0.1703
X2.4734Y-0.2307
X2.4774Y-0.0463
X2.5Y-0.8976
X2.5039Y-0.6313
X2.5039Y-0.7022
X2.5039Y-0.8183
X2.51Y-0.5427
X2.5157Y-0.9724
X2.5583Y-0.0841
X2.5583Y-0.7593
X2.5839Y-1.028
X2.5846Y-0.1476
X2.5848Y-0.2711
X2.5858Y-0.5752
X2.5878Y-0.648
X2.5898Y-1.0949
X2.5947Y-0.902
X2.5967Y-0.8272
X2.622Y-0.1988
X2.6242Y-0.0506
X2.6469Y-0.9768
X2.6774Y-1.0742
X2.6793Y-0.3537
X2.7049Y-0.9089
X2.7177Y-0.2297
X2.7394Y-0.3488
X2.7522Y-1.0289
X2.7561Y-0.1146
X2.7561Y-0.4374
X2.7945Y-0.3498
X2.8043Y-0.4915
X2.8073Y-0.4266
X2.8073Y-0.9472
X2.8339Y-0.8508
X2.8358Y-0.2031
X2.8565Y-0.4187
X2.8575Y-0.4866
X2.8585Y-0.3478
X2.8604Y-0.5575
T2
X0.2764Y-0.9771
X0.2764Y-1.0361
X0.6379Y-1.0832
X0.697Y-1.0832
X1.6192Y-1.084
X1.6783Y-1.084
X2.3845Y-0.576
X2.3845Y-0.635
T3
X1.1191Y-0.9476
X1.2766Y-0.9476
T4
X2.3744Y-0.1099
X2.4728Y-0.1099
T5
X0.599Y-0.1018
X0.699Y-0.1018
X0.799Y-0.1018
X0.899Y-0.1018
X1.2451Y-0.1097
X1.3451Y-0.1097
X1.4451Y-0.1097
X1.5451Y-0.1097
X1.6451Y-0.1097
X1.7451Y-0.1097
X2.2854Y-0.9236
X2.4687Y-1.0699
X2.4751Y-0.47
X2.4753Y-0.3282
X2.6546Y-0.2755
X2.8021Y-0.2758
T6
X2.1806Y-0.1219
X2.6677Y-0.1226
T7
X0.1699Y-0.2561
X0.1699Y-0.8269
X0.2683Y-0.8269
X0.3667Y-0.2561
X0.3667Y-0.8269
T8
X2.6279Y-0.7197
X2.6643Y-0.6079
X2.723Y-0.7888
X2.7818Y-0.6079
X2.8181Y-0.7197
T9
X0.0439Y-0.5317
X0.4927Y-0.5317
M30
