%TF.GenerationSoftware,KiCad,Pcbnew,8.99.0-unknown*%
%TF.CreationDate,2024-06-21T10:07:29-04:00*%
%TF.ProjectId,solderingStationPCB,736f6c64-6572-4696-9e67-53746174696f,rev?*%
%TF.SameCoordinates,PX33f2570PY4a915b0*%
%TF.FileFunction,Drillmap*%
%TF.FilePolarity,Positive*%
%FSLAX45Y45*%
G04 Gerber Fmt 4.5, Leading zero omitted, Abs format (unit mm)*
G04 Created by KiCad (PCBNEW 8.99.0-unknown) date 2024-06-21 10:07:29*
%MOMM*%
%LPD*%
G01*
G04 APERTURE LIST*
%ADD10C,0.050000*%
%ADD11C,0.200000*%
%ADD12C,0.100000*%
%ADD13C,0.127000*%
%ADD14C,0.177800*%
%ADD15C,0.254000*%
G04 APERTURE END LIST*
D10*
X6606852Y770D02*
G75*
G02*
X7419650Y-812030I-2J-812800D01*
G01*
X2852Y-812030D02*
X2852Y-2107430D01*
X815652Y-2920230D02*
X6606852Y-2920230D01*
X7419652Y-2107430D02*
X7419652Y-812030D01*
X815652Y-2920230D02*
G75*
G02*
X2850Y-2107430I-2J812800D01*
G01*
X2852Y-812030D02*
G75*
G02*
X815652Y768I812798J0D01*
G01*
X6986582Y-1749290D02*
G75*
G02*
X6846882Y-1749290I-69850J0D01*
G01*
X6846882Y-1749290D02*
G75*
G02*
X6986582Y-1749290I69850J0D01*
G01*
X7419652Y-2107430D02*
G75*
G02*
X6606852Y-2920232I-812802J0D01*
G01*
X6606852Y770D02*
X815652Y770D01*
D11*
D12*
X120000Y-823000D02*
X150000Y-853000D01*
X150000Y-823000D02*
X120000Y-853000D01*
X160500Y-2023500D02*
X190500Y-2053500D01*
X190500Y-2023500D02*
X160500Y-2053500D01*
X176000Y-607000D02*
X206000Y-637000D01*
X206000Y-607000D02*
X176000Y-637000D01*
X197000Y-1028000D02*
X227000Y-1058000D01*
X227000Y-1028000D02*
X197000Y-1058000D01*
X210500Y-2291000D02*
X240500Y-2321000D01*
X240500Y-2291000D02*
X210500Y-2321000D01*
X235000Y-1624000D02*
X265000Y-1654000D01*
X265000Y-1624000D02*
X235000Y-1654000D01*
X313000Y-356000D02*
X343000Y-386000D01*
X343000Y-356000D02*
X313000Y-386000D01*
X345500Y-941000D02*
X375500Y-971000D01*
X375500Y-941000D02*
X345500Y-971000D01*
X427000Y-826000D02*
X457000Y-856000D01*
X457000Y-826000D02*
X427000Y-856000D01*
X493000Y-2678500D02*
X523000Y-2708500D01*
X523000Y-2678500D02*
X493000Y-2708500D01*
X495000Y-2400000D02*
X525000Y-2430000D01*
X525000Y-2400000D02*
X495000Y-2430000D01*
X537500Y-1537500D02*
X567500Y-1567500D01*
X567500Y-1537500D02*
X537500Y-1567500D01*
X537500Y-1680000D02*
X567500Y-1710000D01*
X567500Y-1680000D02*
X537500Y-1710000D01*
X578000Y-176000D02*
X608000Y-206000D01*
X608000Y-176000D02*
X578000Y-206000D01*
X585000Y-1880000D02*
X615000Y-1910000D01*
X615000Y-1880000D02*
X585000Y-1910000D01*
X598000Y-1403500D02*
X628000Y-1433500D01*
X628000Y-1403500D02*
X598000Y-1433500D01*
X648000Y-611000D02*
X678000Y-641000D01*
X678000Y-611000D02*
X648000Y-641000D01*
X713000Y-356000D02*
X743000Y-386000D01*
X743000Y-356000D02*
X713000Y-386000D01*
X750500Y-1881000D02*
X780500Y-1911000D01*
X780500Y-1881000D02*
X750500Y-1911000D01*
X775500Y-2296000D02*
X805500Y-2326000D01*
X805500Y-2296000D02*
X775500Y-2326000D01*
X780000Y-1537500D02*
X810000Y-1567500D01*
X810000Y-1537500D02*
X780000Y-1567500D01*
X780000Y-1680000D02*
X810000Y-1710000D01*
X810000Y-1680000D02*
X780000Y-1710000D01*
X945500Y-121000D02*
X975500Y-151000D01*
X975500Y-121000D02*
X945500Y-151000D01*
X975500Y-2771000D02*
X1005500Y-2801000D01*
X1005500Y-2771000D02*
X975500Y-2801000D01*
X980500Y-1366000D02*
X1010500Y-1396000D01*
X1010500Y-1366000D02*
X980500Y-1396000D01*
X1075000Y-1631000D02*
X1105000Y-1661000D01*
X1105000Y-1631000D02*
X1075000Y-1661000D01*
X1085500Y-323500D02*
X1115500Y-353500D01*
X1115500Y-323500D02*
X1085500Y-353500D01*
X1085500Y-758500D02*
X1115500Y-788500D01*
X1115500Y-758500D02*
X1085500Y-788500D01*
X1093000Y-2256000D02*
X1123000Y-2286000D01*
X1123000Y-2256000D02*
X1093000Y-2286000D01*
X1100500Y-576000D02*
X1130500Y-606000D01*
X1130500Y-576000D02*
X1100500Y-606000D01*
X1253000Y-2573500D02*
X1283000Y-2603500D01*
X1283000Y-2573500D02*
X1253000Y-2603500D01*
X1270500Y-2053500D02*
X1300500Y-2083500D01*
X1300500Y-2053500D02*
X1270500Y-2083500D01*
X1283000Y-443500D02*
X1313000Y-473500D01*
X1313000Y-443500D02*
X1283000Y-473500D01*
X1295000Y-572500D02*
X1325000Y-602500D01*
X1325000Y-572500D02*
X1295000Y-602500D01*
X1295500Y-123500D02*
X1325500Y-153500D01*
X1325500Y-123500D02*
X1295500Y-153500D01*
X1340500Y-1668500D02*
X1370500Y-1698500D01*
X1370500Y-1668500D02*
X1340500Y-1698500D01*
X1355500Y-2241000D02*
X1385500Y-2271000D01*
X1385500Y-2241000D02*
X1355500Y-2271000D01*
X1485500Y-638500D02*
X1515500Y-668500D01*
X1515500Y-638500D02*
X1485500Y-668500D01*
X1503000Y-2586000D02*
X1533000Y-2616000D01*
X1533000Y-2586000D02*
X1503000Y-2616000D01*
X1550500Y-2061000D02*
X1580500Y-2091000D01*
X1580500Y-2061000D02*
X1550500Y-2091000D01*
X1553000Y-2383500D02*
X1583000Y-2413500D01*
X1583000Y-2383500D02*
X1553000Y-2413500D01*
X1612500Y-1340000D02*
X1642500Y-1370000D01*
X1642500Y-1340000D02*
X1612500Y-1370000D01*
X1653000Y-2568500D02*
X1683000Y-2598500D01*
X1683000Y-2568500D02*
X1653000Y-2598500D01*
X1665500Y-911000D02*
X1695500Y-941000D01*
X1695500Y-911000D02*
X1665500Y-941000D01*
X1673000Y-1826000D02*
X1703000Y-1856000D01*
X1703000Y-1826000D02*
X1673000Y-1856000D01*
X1727000Y-629000D02*
X1757000Y-659000D01*
X1757000Y-629000D02*
X1727000Y-659000D01*
X1790500Y-1746000D02*
X1820500Y-1776000D01*
X1820500Y-1746000D02*
X1790500Y-1776000D01*
X1793000Y-2393500D02*
X1823000Y-2423500D01*
X1823000Y-2393500D02*
X1793000Y-2423500D01*
X1913000Y-1086000D02*
X1943000Y-1116000D01*
X1943000Y-1086000D02*
X1913000Y-1116000D01*
X1913000Y-1213000D02*
X1943000Y-1243000D01*
X1943000Y-1213000D02*
X1913000Y-1243000D01*
X1913000Y-1340000D02*
X1943000Y-1370000D01*
X1943000Y-1340000D02*
X1913000Y-1370000D01*
X1913000Y-1467000D02*
X1943000Y-1497000D01*
X1943000Y-1467000D02*
X1913000Y-1497000D01*
X1913000Y-1594000D02*
X1943000Y-1624000D01*
X1943000Y-1594000D02*
X1913000Y-1624000D01*
X1925000Y-630000D02*
X1955000Y-660000D01*
X1955000Y-630000D02*
X1925000Y-660000D01*
X2040000Y-1086000D02*
X2070000Y-1116000D01*
X2070000Y-1086000D02*
X2040000Y-1116000D01*
X2040000Y-1213000D02*
X2070000Y-1243000D01*
X2070000Y-1213000D02*
X2040000Y-1243000D01*
X2040000Y-1340000D02*
X2070000Y-1370000D01*
X2070000Y-1340000D02*
X2040000Y-1370000D01*
X2040000Y-1467000D02*
X2070000Y-1497000D01*
X2070000Y-1467000D02*
X2040000Y-1497000D01*
X2040000Y-1594000D02*
X2070000Y-1624000D01*
X2070000Y-1594000D02*
X2040000Y-1624000D01*
X2100500Y-2388500D02*
X2130500Y-2418500D01*
X2130500Y-2388500D02*
X2100500Y-2418500D01*
X2102500Y-470000D02*
X2132500Y-500000D01*
X2132500Y-470000D02*
X2102500Y-500000D01*
X2110000Y-625000D02*
X2140000Y-655000D01*
X2140000Y-625000D02*
X2110000Y-655000D01*
X2167000Y-1086000D02*
X2197000Y-1116000D01*
X2197000Y-1086000D02*
X2167000Y-1116000D01*
X2167000Y-1213000D02*
X2197000Y-1243000D01*
X2197000Y-1213000D02*
X2167000Y-1243000D01*
X2167000Y-1340000D02*
X2197000Y-1370000D01*
X2197000Y-1340000D02*
X2167000Y-1370000D01*
X2167000Y-1467000D02*
X2197000Y-1497000D01*
X2197000Y-1467000D02*
X2167000Y-1497000D01*
X2167000Y-1594000D02*
X2197000Y-1624000D01*
X2197000Y-1594000D02*
X2167000Y-1624000D01*
X2237500Y-552500D02*
X2267500Y-582500D01*
X2267500Y-552500D02*
X2237500Y-582500D01*
X2285500Y-2158500D02*
X2315500Y-2188500D01*
X2315500Y-2158500D02*
X2285500Y-2188500D01*
X2294000Y-1086000D02*
X2324000Y-1116000D01*
X2324000Y-1086000D02*
X2294000Y-1116000D01*
X2294000Y-1213000D02*
X2324000Y-1243000D01*
X2324000Y-1213000D02*
X2294000Y-1243000D01*
X2294000Y-1340000D02*
X2324000Y-1370000D01*
X2324000Y-1340000D02*
X2294000Y-1370000D01*
X2294000Y-1467000D02*
X2324000Y-1497000D01*
X2324000Y-1467000D02*
X2294000Y-1497000D01*
X2294000Y-1594000D02*
X2324000Y-1624000D01*
X2324000Y-1594000D02*
X2294000Y-1624000D01*
X2310000Y-2395000D02*
X2340000Y-2425000D01*
X2340000Y-2395000D02*
X2310000Y-2425000D01*
X2392500Y-470000D02*
X2422500Y-500000D01*
X2422500Y-470000D02*
X2392500Y-500000D01*
X2421000Y-1086000D02*
X2451000Y-1116000D01*
X2451000Y-1086000D02*
X2421000Y-1116000D01*
X2421000Y-1213000D02*
X2451000Y-1243000D01*
X2451000Y-1213000D02*
X2421000Y-1243000D01*
X2421000Y-1340000D02*
X2451000Y-1370000D01*
X2451000Y-1340000D02*
X2421000Y-1370000D01*
X2421000Y-1467000D02*
X2451000Y-1497000D01*
X2451000Y-1467000D02*
X2421000Y-1497000D01*
X2421000Y-1594000D02*
X2451000Y-1624000D01*
X2451000Y-1594000D02*
X2421000Y-1624000D01*
X2492500Y-367500D02*
X2522500Y-397500D01*
X2522500Y-367500D02*
X2492500Y-397500D01*
X2497500Y-215000D02*
X2527500Y-245000D01*
X2527500Y-215000D02*
X2497500Y-245000D01*
X2558000Y-2043500D02*
X2588000Y-2073500D01*
X2588000Y-2043500D02*
X2558000Y-2073500D01*
X2565000Y-2232500D02*
X2595000Y-2262500D01*
X2595000Y-2232500D02*
X2565000Y-2262500D01*
X2567500Y-2407500D02*
X2597500Y-2437500D01*
X2597500Y-2407500D02*
X2567500Y-2437500D01*
X2623000Y-866000D02*
X2653000Y-896000D01*
X2653000Y-866000D02*
X2623000Y-896000D01*
X2725000Y-1197500D02*
X2755000Y-1227500D01*
X2755000Y-1197500D02*
X2725000Y-1227500D01*
X2745500Y-1748500D02*
X2775500Y-1778500D01*
X2775500Y-1748500D02*
X2745500Y-1778500D01*
X2815000Y-595000D02*
X2845000Y-625000D01*
X2845000Y-595000D02*
X2815000Y-625000D01*
X2888000Y-1891000D02*
X2918000Y-1921000D01*
X2918000Y-1891000D02*
X2888000Y-1921000D01*
X2905500Y-736000D02*
X2935500Y-766000D01*
X2935500Y-736000D02*
X2905500Y-766000D01*
X2912000Y-848000D02*
X2942000Y-878000D01*
X2942000Y-848000D02*
X2912000Y-878000D01*
X2943000Y-1100000D02*
X2973000Y-1130000D01*
X2973000Y-1100000D02*
X2943000Y-1130000D01*
X2952500Y-1315000D02*
X2982500Y-1345000D01*
X2982500Y-1315000D02*
X2952500Y-1345000D01*
X2957625Y-593500D02*
X2987625Y-623500D01*
X2987625Y-593500D02*
X2957625Y-623500D01*
X3010000Y-850000D02*
X3040000Y-880000D01*
X3040000Y-850000D02*
X3010000Y-880000D01*
X3018000Y-2026000D02*
X3048000Y-2056000D01*
X3048000Y-2026000D02*
X3018000Y-2056000D01*
X3072500Y-1317500D02*
X3102500Y-1347500D01*
X3102500Y-1317500D02*
X3072500Y-1347500D01*
X3090500Y-2498500D02*
X3120500Y-2528500D01*
X3120500Y-2498500D02*
X3090500Y-2528500D01*
X3100250Y-593500D02*
X3130250Y-623500D01*
X3130250Y-593500D02*
X3100250Y-623500D01*
X3100500Y-698500D02*
X3130500Y-728500D01*
X3130500Y-698500D02*
X3100500Y-728500D01*
X3106000Y-854000D02*
X3136000Y-884000D01*
X3136000Y-854000D02*
X3106000Y-884000D01*
X3152500Y-1399400D02*
X3182500Y-1429400D01*
X3182500Y-1399400D02*
X3152500Y-1429400D01*
X3152500Y-1505000D02*
X3182500Y-1535000D01*
X3182500Y-1505000D02*
X3152500Y-1535000D01*
X3173000Y-2193500D02*
X3203000Y-2223500D01*
X3203000Y-2193500D02*
X3173000Y-2223500D01*
X3223000Y-993000D02*
X3253000Y-1023000D01*
X3253000Y-993000D02*
X3223000Y-1023000D01*
X3223000Y-1094600D02*
X3253000Y-1124600D01*
X3253000Y-1094600D02*
X3223000Y-1124600D01*
X3223000Y-1196200D02*
X3253000Y-1226200D01*
X3253000Y-1196200D02*
X3223000Y-1226200D01*
X3223000Y-1297800D02*
X3253000Y-1327800D01*
X3253000Y-1297800D02*
X3223000Y-1327800D01*
X3242875Y-596000D02*
X3272875Y-626000D01*
X3272875Y-596000D02*
X3242875Y-626000D01*
X3255000Y-1399400D02*
X3285000Y-1429400D01*
X3285000Y-1399400D02*
X3255000Y-1429400D01*
X3255000Y-1505000D02*
X3285000Y-1535000D01*
X3285000Y-1505000D02*
X3255000Y-1535000D01*
X3263000Y-1611000D02*
X3293000Y-1641000D01*
X3293000Y-1611000D02*
X3263000Y-1641000D01*
X3324600Y-993000D02*
X3354600Y-1023000D01*
X3354600Y-993000D02*
X3324600Y-1023000D01*
X3324600Y-1094600D02*
X3354600Y-1124600D01*
X3354600Y-1094600D02*
X3324600Y-1124600D01*
X3324600Y-1196200D02*
X3354600Y-1226200D01*
X3354600Y-1196200D02*
X3324600Y-1226200D01*
X3324600Y-1297800D02*
X3354600Y-1327800D01*
X3354600Y-1297800D02*
X3324600Y-1327800D01*
X3364600Y-1611000D02*
X3394600Y-1641000D01*
X3394600Y-1611000D02*
X3364600Y-1641000D01*
X3373000Y-1758500D02*
X3403000Y-1788500D01*
X3403000Y-1758500D02*
X3373000Y-1788500D01*
X3385500Y-596000D02*
X3415500Y-626000D01*
X3415500Y-596000D02*
X3385500Y-626000D01*
X3390500Y-2368500D02*
X3420500Y-2398500D01*
X3420500Y-2368500D02*
X3390500Y-2398500D01*
X3408000Y-1938500D02*
X3438000Y-1968500D01*
X3438000Y-1938500D02*
X3408000Y-1968500D01*
X3412500Y-2125000D02*
X3442500Y-2155000D01*
X3442500Y-2125000D02*
X3412500Y-2155000D01*
X3426200Y-993000D02*
X3456200Y-1023000D01*
X3456200Y-993000D02*
X3426200Y-1023000D01*
X3426200Y-1094600D02*
X3456200Y-1124600D01*
X3456200Y-1094600D02*
X3426200Y-1124600D01*
X3426200Y-1196200D02*
X3456200Y-1226200D01*
X3456200Y-1196200D02*
X3426200Y-1226200D01*
X3426200Y-1297800D02*
X3456200Y-1327800D01*
X3456200Y-1297800D02*
X3426200Y-1327800D01*
X3466200Y-1611000D02*
X3496200Y-1641000D01*
X3496200Y-1611000D02*
X3466200Y-1641000D01*
X3527800Y-993000D02*
X3557800Y-1023000D01*
X3557800Y-993000D02*
X3527800Y-1023000D01*
X3527800Y-1094600D02*
X3557800Y-1124600D01*
X3557800Y-1094600D02*
X3527800Y-1124600D01*
X3527800Y-1196200D02*
X3557800Y-1226200D01*
X3557800Y-1196200D02*
X3527800Y-1226200D01*
X3527800Y-1297800D02*
X3557800Y-1327800D01*
X3557800Y-1297800D02*
X3527800Y-1327800D01*
X3552500Y-2197500D02*
X3582500Y-2227500D01*
X3582500Y-2197500D02*
X3552500Y-2227500D01*
X3567800Y-1611000D02*
X3597800Y-1641000D01*
X3597800Y-1611000D02*
X3567800Y-1641000D01*
X3570500Y-1936000D02*
X3600500Y-1966000D01*
X3600500Y-1936000D02*
X3570500Y-1966000D01*
X3580500Y-1758500D02*
X3610500Y-1788500D01*
X3610500Y-1758500D02*
X3580500Y-1788500D01*
X3585000Y-645000D02*
X3615000Y-675000D01*
X3615000Y-645000D02*
X3585000Y-675000D01*
X3629400Y-993000D02*
X3659400Y-1023000D01*
X3659400Y-993000D02*
X3629400Y-1023000D01*
X3629400Y-1094600D02*
X3659400Y-1124600D01*
X3659400Y-1094600D02*
X3629400Y-1124600D01*
X3629400Y-1196200D02*
X3659400Y-1226200D01*
X3659400Y-1196200D02*
X3629400Y-1226200D01*
X3629400Y-1297800D02*
X3659400Y-1327800D01*
X3659400Y-1297800D02*
X3629400Y-1327800D01*
X3669400Y-1611000D02*
X3699400Y-1641000D01*
X3699400Y-1611000D02*
X3669400Y-1641000D01*
X3731000Y-993000D02*
X3761000Y-1023000D01*
X3761000Y-993000D02*
X3731000Y-1023000D01*
X3731000Y-1094600D02*
X3761000Y-1124600D01*
X3761000Y-1094600D02*
X3731000Y-1124600D01*
X3731000Y-1196200D02*
X3761000Y-1226200D01*
X3761000Y-1196200D02*
X3731000Y-1226200D01*
X3731000Y-1297800D02*
X3761000Y-1327800D01*
X3761000Y-1297800D02*
X3731000Y-1327800D01*
X3731000Y-1399400D02*
X3761000Y-1429400D01*
X3761000Y-1399400D02*
X3731000Y-1429400D01*
X3731000Y-1505000D02*
X3761000Y-1535000D01*
X3761000Y-1505000D02*
X3731000Y-1535000D01*
X3771000Y-1611000D02*
X3801000Y-1641000D01*
X3801000Y-1611000D02*
X3771000Y-1641000D01*
X3782500Y-647500D02*
X3812500Y-677500D01*
X3812500Y-647500D02*
X3782500Y-677500D01*
X3832600Y-993000D02*
X3862600Y-1023000D01*
X3862600Y-993000D02*
X3832600Y-1023000D01*
X3832600Y-1094600D02*
X3862600Y-1124600D01*
X3862600Y-1094600D02*
X3832600Y-1124600D01*
X3832600Y-1196200D02*
X3862600Y-1226200D01*
X3862600Y-1196200D02*
X3832600Y-1226200D01*
X3832600Y-1297800D02*
X3862600Y-1327800D01*
X3862600Y-1297800D02*
X3832600Y-1327800D01*
X3832600Y-1399400D02*
X3862600Y-1429400D01*
X3862600Y-1399400D02*
X3832600Y-1429400D01*
X3832600Y-1505000D02*
X3862600Y-1535000D01*
X3862600Y-1505000D02*
X3832600Y-1535000D01*
X3835500Y-2301000D02*
X3865500Y-2331000D01*
X3865500Y-2301000D02*
X3835500Y-2331000D01*
X3872600Y-1611000D02*
X3902600Y-1641000D01*
X3902600Y-1611000D02*
X3872600Y-1641000D01*
X3873800Y-1699000D02*
X3903800Y-1729000D01*
X3903800Y-1699000D02*
X3873800Y-1729000D01*
X3974200Y-1611000D02*
X4004200Y-1641000D01*
X4004200Y-1611000D02*
X3974200Y-1641000D01*
X3975400Y-1699000D02*
X4005400Y-1729000D01*
X4005400Y-1699000D02*
X3975400Y-1729000D01*
X3982500Y-545000D02*
X4012500Y-575000D01*
X4012500Y-545000D02*
X3982500Y-575000D01*
X3987500Y-1340000D02*
X4017500Y-1370000D01*
X4017500Y-1340000D02*
X3987500Y-1370000D01*
X3997500Y-787500D02*
X4027500Y-817500D01*
X4027500Y-787500D02*
X3997500Y-817500D01*
X4041100Y-2492500D02*
X4071100Y-2522500D01*
X4071100Y-2492500D02*
X4041100Y-2522500D01*
X4062500Y-2815000D02*
X4092500Y-2845000D01*
X4092500Y-2815000D02*
X4062500Y-2845000D01*
X4075800Y-1611000D02*
X4105800Y-1641000D01*
X4105800Y-1611000D02*
X4075800Y-1641000D01*
X4077000Y-1699000D02*
X4107000Y-1729000D01*
X4107000Y-1699000D02*
X4077000Y-1729000D01*
X4130000Y-662500D02*
X4160000Y-692500D01*
X4160000Y-662500D02*
X4130000Y-692500D01*
X4165000Y-435000D02*
X4195000Y-465000D01*
X4195000Y-435000D02*
X4165000Y-465000D01*
X4244300Y-2492500D02*
X4274300Y-2522500D01*
X4274300Y-2492500D02*
X4244300Y-2522500D01*
X4422500Y-1525000D02*
X4452500Y-1555000D01*
X4452500Y-1525000D02*
X4422500Y-1555000D01*
X4423000Y-1623500D02*
X4453000Y-1653500D01*
X4453000Y-1623500D02*
X4423000Y-1653500D01*
X4435000Y-475000D02*
X4465000Y-505000D01*
X4465000Y-475000D02*
X4435000Y-505000D01*
X4442500Y-2815000D02*
X4472500Y-2845000D01*
X4472500Y-2815000D02*
X4442500Y-2845000D01*
X4447500Y-2492500D02*
X4477500Y-2522500D01*
X4477500Y-2492500D02*
X4447500Y-2522500D01*
X4585000Y-85000D02*
X4615000Y-115000D01*
X4615000Y-85000D02*
X4585000Y-115000D01*
X4585000Y-275000D02*
X4615000Y-305000D01*
X4615000Y-275000D02*
X4585000Y-305000D01*
X4585000Y-435000D02*
X4615000Y-465000D01*
X4615000Y-435000D02*
X4585000Y-465000D01*
X4650000Y-1525000D02*
X4680000Y-1555000D01*
X4680000Y-1525000D02*
X4650000Y-1555000D01*
X4650500Y-1623500D02*
X4680500Y-1653500D01*
X4680500Y-1623500D02*
X4650500Y-1653500D01*
X4700000Y-2522500D02*
X4730000Y-2552500D01*
X4730000Y-2522500D02*
X4700000Y-2552500D01*
X4805000Y-2277500D02*
X4835000Y-2307500D01*
X4835000Y-2277500D02*
X4805000Y-2307500D01*
X4822500Y-2815000D02*
X4852500Y-2845000D01*
X4852500Y-2815000D02*
X4822500Y-2845000D01*
X4920000Y-1245000D02*
X4950000Y-1275000D01*
X4950000Y-1245000D02*
X4920000Y-1275000D01*
X4942500Y-2372500D02*
X4972500Y-2402500D01*
X4972500Y-2372500D02*
X4942500Y-2402500D01*
X4942500Y-2522500D02*
X4972500Y-2552500D01*
X4972500Y-2522500D02*
X4942500Y-2552500D01*
X4998000Y-91000D02*
X5028000Y-121000D01*
X5028000Y-91000D02*
X4998000Y-121000D01*
X5202500Y-2815000D02*
X5232500Y-2845000D01*
X5232500Y-2815000D02*
X5202500Y-2845000D01*
X5252500Y-1810000D02*
X5282500Y-1840000D01*
X5282500Y-1810000D02*
X5252500Y-1840000D01*
X5287500Y-2255000D02*
X5317500Y-2285000D01*
X5317500Y-2255000D02*
X5287500Y-2285000D01*
X5455500Y-67500D02*
X5485500Y-97500D01*
X5485500Y-67500D02*
X5455500Y-97500D01*
X5485000Y-1230000D02*
X5515000Y-1260000D01*
X5515000Y-1230000D02*
X5485000Y-1260000D01*
X5582500Y-2815000D02*
X5612500Y-2845000D01*
X5612500Y-2815000D02*
X5582500Y-2845000D01*
X5685000Y-1807500D02*
X5715000Y-1837500D01*
X5715000Y-1807500D02*
X5685000Y-1837500D01*
X5795000Y-65000D02*
X5825000Y-95000D01*
X5825000Y-65000D02*
X5795000Y-95000D01*
X5840000Y-2720000D02*
X5870000Y-2750000D01*
X5870000Y-2720000D02*
X5840000Y-2750000D01*
X6112500Y-65000D02*
X6142500Y-95000D01*
X6142500Y-65000D02*
X6112500Y-95000D01*
X6112500Y-227500D02*
X6142500Y-257500D01*
X6142500Y-227500D02*
X6112500Y-257500D01*
X6120000Y-2280000D02*
X6150000Y-2310000D01*
X6150000Y-2280000D02*
X6120000Y-2310000D01*
X6235000Y-2175000D02*
X6265000Y-2205000D01*
X6265000Y-2175000D02*
X6235000Y-2205000D01*
X6242500Y-578000D02*
X6272500Y-608000D01*
X6272500Y-578000D02*
X6242500Y-608000D01*
X6272500Y-2442500D02*
X6302500Y-2472500D01*
X6302500Y-2442500D02*
X6272500Y-2472500D01*
X6335000Y-2085000D02*
X6365000Y-2115000D01*
X6365000Y-2085000D02*
X6335000Y-2115000D01*
X6395000Y-2335000D02*
X6425000Y-2365000D01*
X6425000Y-2335000D02*
X6395000Y-2365000D01*
X6487500Y-2240000D02*
X6517500Y-2270000D01*
X6517500Y-2240000D02*
X6487500Y-2270000D01*
X6487500Y-2748000D02*
X6517500Y-2778000D01*
X6517500Y-2748000D02*
X6487500Y-2778000D01*
X6496500Y-578000D02*
X6526500Y-608000D01*
X6526500Y-578000D02*
X6496500Y-608000D01*
X6741500Y-2494000D02*
X6771500Y-2524000D01*
X6771500Y-2494000D02*
X6741500Y-2524000D01*
X6741500Y-2748000D02*
X6771500Y-2778000D01*
X6771500Y-2748000D02*
X6741500Y-2778000D01*
X6750500Y-324000D02*
X6780500Y-354000D01*
X6780500Y-324000D02*
X6750500Y-354000D01*
X6750500Y-578000D02*
X6780500Y-608000D01*
X6780500Y-578000D02*
X6750500Y-608000D01*
X6750500Y-832000D02*
X6780500Y-862000D01*
X6780500Y-832000D02*
X6750500Y-862000D01*
X6995500Y-2240000D02*
X7025500Y-2270000D01*
X7025500Y-2240000D02*
X6995500Y-2270000D01*
X6995500Y-2494000D02*
X7025500Y-2524000D01*
X7025500Y-2494000D02*
X6995500Y-2524000D01*
X7004500Y-324000D02*
X7034500Y-354000D01*
X7034500Y-324000D02*
X7004500Y-354000D01*
X7004500Y-578000D02*
X7034500Y-608000D01*
X7034500Y-578000D02*
X7004500Y-608000D01*
X7004500Y-832000D02*
X7034500Y-862000D01*
X7034500Y-832000D02*
X7004500Y-862000D01*
X7004500Y-1086000D02*
X7034500Y-1116000D01*
X7034500Y-1086000D02*
X7004500Y-1116000D01*
X7249500Y-2240000D02*
X7279500Y-2270000D01*
X7279500Y-2240000D02*
X7249500Y-2270000D01*
X7258500Y-578000D02*
X7288500Y-608000D01*
X7288500Y-578000D02*
X7258500Y-608000D01*
X7258500Y-832000D02*
X7288500Y-862000D01*
X7288500Y-832000D02*
X7258500Y-862000D01*
X7258500Y-1086000D02*
X7288500Y-1116000D01*
X7288500Y-1086000D02*
X7258500Y-1116000D01*
X738860Y-2481780D02*
G75*
G02*
X665200Y-2481780I-36830J0D01*
G01*
X665200Y-2481780D02*
G75*
G02*
X738860Y-2481780I36830J0D01*
G01*
X738860Y-2631780D02*
G75*
G02*
X665200Y-2631780I-36830J0D01*
G01*
X665200Y-2631780D02*
G75*
G02*
X738860Y-2631780I36830J0D01*
G01*
X1640230Y-2750000D02*
G75*
G02*
X1566570Y-2750000I-36830J0D01*
G01*
X1566570Y-2750000D02*
G75*
G02*
X1640230Y-2750000I36830J0D01*
G01*
X1843430Y-2750000D02*
G75*
G02*
X1769770Y-2750000I-36830J0D01*
G01*
X1769770Y-2750000D02*
G75*
G02*
X1843430Y-2750000I36830J0D01*
G01*
X5959330Y-2270900D02*
G75*
G02*
X5885670Y-2270900I-36830J0D01*
G01*
X5885670Y-2270900D02*
G75*
G02*
X5959330Y-2270900I36830J0D01*
G01*
X5959330Y-2474100D02*
G75*
G02*
X5885670Y-2474100I-36830J0D01*
G01*
X5885670Y-2474100D02*
G75*
G02*
X5959330Y-2474100I36830J0D01*
G01*
X5964330Y-1850000D02*
G75*
G02*
X5890670Y-1850000I-36830J0D01*
G01*
X5890670Y-1850000D02*
G75*
G02*
X5964330Y-1850000I36830J0D01*
G01*
X5964330Y-2053200D02*
G75*
G02*
X5890670Y-2053200I-36830J0D01*
G01*
X5890670Y-2053200D02*
G75*
G02*
X5964330Y-2053200I36830J0D01*
G01*
X2842520Y-2363650D02*
X2842520Y-2450010D01*
X2799340Y-2406830D02*
X2885700Y-2406830D01*
X3242520Y-2363650D02*
X3242520Y-2450010D01*
X3199340Y-2406830D02*
X3285700Y-2406830D01*
X5695023Y-320023D02*
X5695023Y-249977D01*
X5624977Y-249977D01*
X5624977Y-320023D01*
X5695023Y-320023D01*
X5945023Y-320023D02*
X5945023Y-249977D01*
X5874977Y-249977D01*
X5874977Y-320023D01*
X5945023Y-320023D01*
X1521500Y-308500D02*
X1571500Y-258500D01*
X1521500Y-208500D01*
X1471500Y-258500D01*
X1521500Y-308500D01*
X1775500Y-308500D02*
X1825500Y-258500D01*
X1775500Y-208500D01*
X1725500Y-258500D01*
X1775500Y-308500D01*
X2029500Y-308500D02*
X2079500Y-258500D01*
X2029500Y-208500D01*
X1979500Y-258500D01*
X2029500Y-308500D01*
X2283500Y-308500D02*
X2333500Y-258500D01*
X2283500Y-208500D01*
X2233500Y-258500D01*
X2283500Y-308500D01*
X3162612Y-328630D02*
X3212612Y-278630D01*
X3162612Y-228630D01*
X3112612Y-278630D01*
X3162612Y-328630D01*
X3416612Y-328630D02*
X3466612Y-278630D01*
X3416612Y-228630D01*
X3366612Y-278630D01*
X3416612Y-328630D01*
X3670612Y-328630D02*
X3720612Y-278630D01*
X3670612Y-228630D01*
X3620612Y-278630D01*
X3670612Y-328630D01*
X3924612Y-328630D02*
X3974612Y-278630D01*
X3924612Y-228630D01*
X3874612Y-278630D01*
X3924612Y-328630D01*
X4178612Y-328630D02*
X4228612Y-278630D01*
X4178612Y-228630D01*
X4128612Y-278630D01*
X4178612Y-328630D01*
X4432612Y-328630D02*
X4482612Y-278630D01*
X4432612Y-228630D01*
X4382612Y-278630D01*
X4432612Y-328630D01*
D13*
X367940Y-586900D02*
X494940Y-713900D01*
X494940Y-586900D02*
X367940Y-713900D01*
X494940Y-650400D02*
G75*
G02*
X367940Y-650400I-63500J0D01*
G01*
X367940Y-650400D02*
G75*
G02*
X494940Y-650400I63500J0D01*
G01*
X367940Y-2036900D02*
X494940Y-2163900D01*
X494940Y-2036900D02*
X367940Y-2163900D01*
X494940Y-2100400D02*
G75*
G02*
X367940Y-2100400I-63500J0D01*
G01*
X367940Y-2100400D02*
G75*
G02*
X494940Y-2100400I63500J0D01*
G01*
X617940Y-2036900D02*
X744940Y-2163900D01*
X744940Y-2036900D02*
X617940Y-2163900D01*
X744940Y-2100400D02*
G75*
G02*
X617940Y-2100400I-63500J0D01*
G01*
X617940Y-2100400D02*
G75*
G02*
X744940Y-2100400I63500J0D01*
G01*
X867940Y-586900D02*
X994940Y-713900D01*
X994940Y-586900D02*
X867940Y-713900D01*
X994940Y-650400D02*
G75*
G02*
X867940Y-650400I-63500J0D01*
G01*
X867940Y-650400D02*
G75*
G02*
X994940Y-650400I63500J0D01*
G01*
X867940Y-2036900D02*
X994940Y-2163900D01*
X994940Y-2036900D02*
X867940Y-2163900D01*
X994940Y-2100400D02*
G75*
G02*
X867940Y-2100400I-63500J0D01*
G01*
X867940Y-2100400D02*
G75*
G02*
X994940Y-2100400I63500J0D01*
G01*
X5134000Y-2491500D02*
X5261000Y-2618500D01*
X5261000Y-2491500D02*
X5134000Y-2618500D01*
X5261000Y-2555000D02*
G75*
G02*
X5134000Y-2555000I-63500J0D01*
G01*
X5134000Y-2555000D02*
G75*
G02*
X5261000Y-2555000I63500J0D01*
G01*
X5514000Y-426500D02*
X5641000Y-553500D01*
X5641000Y-426500D02*
X5514000Y-553500D01*
X5641000Y-490000D02*
G75*
G02*
X5514000Y-490000I-63500J0D01*
G01*
X5514000Y-490000D02*
G75*
G02*
X5641000Y-490000I63500J0D01*
G01*
X5514000Y-2316500D02*
X5641000Y-2443500D01*
X5641000Y-2316500D02*
X5514000Y-2443500D01*
X5641000Y-2380000D02*
G75*
G02*
X5514000Y-2380000I-63500J0D01*
G01*
X5514000Y-2380000D02*
G75*
G02*
X5641000Y-2380000I63500J0D01*
G01*
X5941500Y-429000D02*
X6068500Y-556000D01*
X6068500Y-429000D02*
X5941500Y-556000D01*
X6068500Y-492500D02*
G75*
G02*
X5941500Y-492500I-63500J0D01*
G01*
X5941500Y-492500D02*
G75*
G02*
X6068500Y-492500I63500J0D01*
G01*
X6071500Y-2649000D02*
X6198500Y-2776000D01*
X6198500Y-2649000D02*
X6071500Y-2776000D01*
X6198500Y-2712500D02*
G75*
G02*
X6071500Y-2712500I-63500J0D01*
G01*
X6071500Y-2712500D02*
G75*
G02*
X6198500Y-2712500I63500J0D01*
G01*
X6079000Y-1319000D02*
X6206000Y-1446000D01*
X6206000Y-1319000D02*
X6079000Y-1446000D01*
X6206000Y-1382500D02*
G75*
G02*
X6079000Y-1382500I-63500J0D01*
G01*
X6079000Y-1382500D02*
G75*
G02*
X6206000Y-1382500I63500J0D01*
G01*
X6314000Y-141500D02*
X6441000Y-268500D01*
X6441000Y-141500D02*
X6314000Y-268500D01*
X6441000Y-205000D02*
G75*
G02*
X6314000Y-205000I-63500J0D01*
G01*
X6314000Y-205000D02*
G75*
G02*
X6441000Y-205000I63500J0D01*
G01*
D14*
X6586044Y-1739100D02*
X6763844Y-1916900D01*
X6763844Y-1739100D02*
X6586044Y-1916900D01*
X6674944Y-1739100D02*
X6674944Y-1916900D01*
X6586044Y-1828000D02*
X6763844Y-1828000D01*
X6678315Y-1455120D02*
X6856115Y-1632920D01*
X6856115Y-1455120D02*
X6678315Y-1632920D01*
X6767215Y-1455120D02*
X6767215Y-1632920D01*
X6678315Y-1544020D02*
X6856115Y-1544020D01*
X6827612Y-1914610D02*
X7005412Y-2092410D01*
X7005412Y-1914610D02*
X6827612Y-2092410D01*
X6916512Y-1914610D02*
X6916512Y-2092410D01*
X6827612Y-2003510D02*
X7005412Y-2003510D01*
X6976909Y-1455120D02*
X7154709Y-1632920D01*
X7154709Y-1455120D02*
X6976909Y-1632920D01*
X7065809Y-1455120D02*
X7065809Y-1632920D01*
X6976909Y-1544020D02*
X7154709Y-1544020D01*
X7069180Y-1739100D02*
X7246980Y-1916900D01*
X7246980Y-1739100D02*
X7069180Y-1916900D01*
X7158080Y-1739100D02*
X7158080Y-1916900D01*
X7069180Y-1828000D02*
X7246980Y-1828000D01*
D15*
X-15560Y-1223400D02*
X238440Y-1477400D01*
X238440Y-1223400D02*
X-15560Y-1477400D01*
X201243Y-1440203D02*
X201243Y-1260597D01*
X21637Y-1260597D01*
X21637Y-1440203D01*
X201243Y-1440203D01*
X1124440Y-1223400D02*
X1378440Y-1477400D01*
X1378440Y-1223400D02*
X1124440Y-1477400D01*
X1341244Y-1440203D02*
X1341244Y-1260597D01*
X1161637Y-1260597D01*
X1161637Y-1440203D01*
X1341244Y-1440203D01*
D11*
X261129Y-3234214D02*
X261129Y-3034214D01*
X261129Y-3034214D02*
X308748Y-3034214D01*
X308748Y-3034214D02*
X337319Y-3043738D01*
X337319Y-3043738D02*
X356367Y-3062785D01*
X356367Y-3062785D02*
X365891Y-3081833D01*
X365891Y-3081833D02*
X375415Y-3119928D01*
X375415Y-3119928D02*
X375415Y-3148499D01*
X375415Y-3148499D02*
X365891Y-3186595D01*
X365891Y-3186595D02*
X356367Y-3205642D01*
X356367Y-3205642D02*
X337319Y-3224690D01*
X337319Y-3224690D02*
X308748Y-3234214D01*
X308748Y-3234214D02*
X261129Y-3234214D01*
X461129Y-3234214D02*
X461129Y-3100880D01*
X461129Y-3138976D02*
X470653Y-3119928D01*
X470653Y-3119928D02*
X480176Y-3110404D01*
X480176Y-3110404D02*
X499224Y-3100880D01*
X499224Y-3100880D02*
X518272Y-3100880D01*
X584938Y-3234214D02*
X584938Y-3100880D01*
X584938Y-3034214D02*
X575415Y-3043738D01*
X575415Y-3043738D02*
X584938Y-3053261D01*
X584938Y-3053261D02*
X594462Y-3043738D01*
X594462Y-3043738D02*
X584938Y-3034214D01*
X584938Y-3034214D02*
X584938Y-3053261D01*
X708748Y-3234214D02*
X689700Y-3224690D01*
X689700Y-3224690D02*
X680177Y-3205642D01*
X680177Y-3205642D02*
X680177Y-3034214D01*
X813510Y-3234214D02*
X794462Y-3224690D01*
X794462Y-3224690D02*
X784938Y-3205642D01*
X784938Y-3205642D02*
X784938Y-3034214D01*
X1042081Y-3234214D02*
X1042081Y-3034214D01*
X1042081Y-3034214D02*
X1108748Y-3177071D01*
X1108748Y-3177071D02*
X1175415Y-3034214D01*
X1175415Y-3034214D02*
X1175415Y-3234214D01*
X1356367Y-3234214D02*
X1356367Y-3129452D01*
X1356367Y-3129452D02*
X1346843Y-3110404D01*
X1346843Y-3110404D02*
X1327796Y-3100880D01*
X1327796Y-3100880D02*
X1289700Y-3100880D01*
X1289700Y-3100880D02*
X1270653Y-3110404D01*
X1356367Y-3224690D02*
X1337319Y-3234214D01*
X1337319Y-3234214D02*
X1289700Y-3234214D01*
X1289700Y-3234214D02*
X1270653Y-3224690D01*
X1270653Y-3224690D02*
X1261129Y-3205642D01*
X1261129Y-3205642D02*
X1261129Y-3186595D01*
X1261129Y-3186595D02*
X1270653Y-3167547D01*
X1270653Y-3167547D02*
X1289700Y-3158023D01*
X1289700Y-3158023D02*
X1337319Y-3158023D01*
X1337319Y-3158023D02*
X1356367Y-3148499D01*
X1451605Y-3100880D02*
X1451605Y-3300880D01*
X1451605Y-3110404D02*
X1470653Y-3100880D01*
X1470653Y-3100880D02*
X1508748Y-3100880D01*
X1508748Y-3100880D02*
X1527796Y-3110404D01*
X1527796Y-3110404D02*
X1537319Y-3119928D01*
X1537319Y-3119928D02*
X1546843Y-3138976D01*
X1546843Y-3138976D02*
X1546843Y-3196118D01*
X1546843Y-3196118D02*
X1537319Y-3215166D01*
X1537319Y-3215166D02*
X1527796Y-3224690D01*
X1527796Y-3224690D02*
X1508748Y-3234214D01*
X1508748Y-3234214D02*
X1470653Y-3234214D01*
X1470653Y-3234214D02*
X1451605Y-3224690D01*
X1632557Y-3215166D02*
X1642081Y-3224690D01*
X1642081Y-3224690D02*
X1632557Y-3234214D01*
X1632557Y-3234214D02*
X1623034Y-3224690D01*
X1623034Y-3224690D02*
X1632557Y-3215166D01*
X1632557Y-3215166D02*
X1632557Y-3234214D01*
X1632557Y-3110404D02*
X1642081Y-3119928D01*
X1642081Y-3119928D02*
X1632557Y-3129452D01*
X1632557Y-3129452D02*
X1623034Y-3119928D01*
X1623034Y-3119928D02*
X1632557Y-3110404D01*
X1632557Y-3110404D02*
X1632557Y-3129452D01*
D12*
X-29648Y-3547730D02*
X352Y-3577730D01*
X352Y-3547730D02*
X-29648Y-3577730D01*
D11*
X299224Y-3454214D02*
X318272Y-3454214D01*
X318272Y-3454214D02*
X337319Y-3463738D01*
X337319Y-3463738D02*
X346843Y-3473261D01*
X346843Y-3473261D02*
X356367Y-3492309D01*
X356367Y-3492309D02*
X365891Y-3530404D01*
X365891Y-3530404D02*
X365891Y-3578023D01*
X365891Y-3578023D02*
X356367Y-3616118D01*
X356367Y-3616118D02*
X346843Y-3635166D01*
X346843Y-3635166D02*
X337319Y-3644690D01*
X337319Y-3644690D02*
X318272Y-3654214D01*
X318272Y-3654214D02*
X299224Y-3654214D01*
X299224Y-3654214D02*
X280177Y-3644690D01*
X280177Y-3644690D02*
X270653Y-3635166D01*
X270653Y-3635166D02*
X261129Y-3616118D01*
X261129Y-3616118D02*
X251605Y-3578023D01*
X251605Y-3578023D02*
X251605Y-3530404D01*
X251605Y-3530404D02*
X261129Y-3492309D01*
X261129Y-3492309D02*
X270653Y-3473261D01*
X270653Y-3473261D02*
X280177Y-3463738D01*
X280177Y-3463738D02*
X299224Y-3454214D01*
X451605Y-3635166D02*
X461129Y-3644690D01*
X461129Y-3644690D02*
X451605Y-3654214D01*
X451605Y-3654214D02*
X442081Y-3644690D01*
X442081Y-3644690D02*
X451605Y-3635166D01*
X451605Y-3635166D02*
X451605Y-3654214D01*
X527796Y-3454214D02*
X651605Y-3454214D01*
X651605Y-3454214D02*
X584938Y-3530404D01*
X584938Y-3530404D02*
X613510Y-3530404D01*
X613510Y-3530404D02*
X632558Y-3539928D01*
X632558Y-3539928D02*
X642081Y-3549452D01*
X642081Y-3549452D02*
X651605Y-3568499D01*
X651605Y-3568499D02*
X651605Y-3616118D01*
X651605Y-3616118D02*
X642081Y-3635166D01*
X642081Y-3635166D02*
X632558Y-3644690D01*
X632558Y-3644690D02*
X613510Y-3654214D01*
X613510Y-3654214D02*
X556367Y-3654214D01*
X556367Y-3654214D02*
X537319Y-3644690D01*
X537319Y-3644690D02*
X527796Y-3635166D01*
X775415Y-3454214D02*
X794462Y-3454214D01*
X794462Y-3454214D02*
X813510Y-3463738D01*
X813510Y-3463738D02*
X823034Y-3473261D01*
X823034Y-3473261D02*
X832557Y-3492309D01*
X832557Y-3492309D02*
X842081Y-3530404D01*
X842081Y-3530404D02*
X842081Y-3578023D01*
X842081Y-3578023D02*
X832557Y-3616118D01*
X832557Y-3616118D02*
X823034Y-3635166D01*
X823034Y-3635166D02*
X813510Y-3644690D01*
X813510Y-3644690D02*
X794462Y-3654214D01*
X794462Y-3654214D02*
X775415Y-3654214D01*
X775415Y-3654214D02*
X756367Y-3644690D01*
X756367Y-3644690D02*
X746843Y-3635166D01*
X746843Y-3635166D02*
X737319Y-3616118D01*
X737319Y-3616118D02*
X727796Y-3578023D01*
X727796Y-3578023D02*
X727796Y-3530404D01*
X727796Y-3530404D02*
X737319Y-3492309D01*
X737319Y-3492309D02*
X746843Y-3473261D01*
X746843Y-3473261D02*
X756367Y-3463738D01*
X756367Y-3463738D02*
X775415Y-3454214D01*
X965891Y-3454214D02*
X984938Y-3454214D01*
X984938Y-3454214D02*
X1003986Y-3463738D01*
X1003986Y-3463738D02*
X1013510Y-3473261D01*
X1013510Y-3473261D02*
X1023034Y-3492309D01*
X1023034Y-3492309D02*
X1032557Y-3530404D01*
X1032557Y-3530404D02*
X1032557Y-3578023D01*
X1032557Y-3578023D02*
X1023034Y-3616118D01*
X1023034Y-3616118D02*
X1013510Y-3635166D01*
X1013510Y-3635166D02*
X1003986Y-3644690D01*
X1003986Y-3644690D02*
X984938Y-3654214D01*
X984938Y-3654214D02*
X965891Y-3654214D01*
X965891Y-3654214D02*
X946843Y-3644690D01*
X946843Y-3644690D02*
X937319Y-3635166D01*
X937319Y-3635166D02*
X927796Y-3616118D01*
X927796Y-3616118D02*
X918272Y-3578023D01*
X918272Y-3578023D02*
X918272Y-3530404D01*
X918272Y-3530404D02*
X927796Y-3492309D01*
X927796Y-3492309D02*
X937319Y-3473261D01*
X937319Y-3473261D02*
X946843Y-3463738D01*
X946843Y-3463738D02*
X965891Y-3454214D01*
X1118272Y-3654214D02*
X1118272Y-3520880D01*
X1118272Y-3539928D02*
X1127796Y-3530404D01*
X1127796Y-3530404D02*
X1146843Y-3520880D01*
X1146843Y-3520880D02*
X1175415Y-3520880D01*
X1175415Y-3520880D02*
X1194462Y-3530404D01*
X1194462Y-3530404D02*
X1203986Y-3549452D01*
X1203986Y-3549452D02*
X1203986Y-3654214D01*
X1203986Y-3549452D02*
X1213510Y-3530404D01*
X1213510Y-3530404D02*
X1232558Y-3520880D01*
X1232558Y-3520880D02*
X1261129Y-3520880D01*
X1261129Y-3520880D02*
X1280177Y-3530404D01*
X1280177Y-3530404D02*
X1289700Y-3549452D01*
X1289700Y-3549452D02*
X1289700Y-3654214D01*
X1384939Y-3654214D02*
X1384939Y-3520880D01*
X1384939Y-3539928D02*
X1394462Y-3530404D01*
X1394462Y-3530404D02*
X1413510Y-3520880D01*
X1413510Y-3520880D02*
X1442081Y-3520880D01*
X1442081Y-3520880D02*
X1461129Y-3530404D01*
X1461129Y-3530404D02*
X1470653Y-3549452D01*
X1470653Y-3549452D02*
X1470653Y-3654214D01*
X1470653Y-3549452D02*
X1480177Y-3530404D01*
X1480177Y-3530404D02*
X1499224Y-3520880D01*
X1499224Y-3520880D02*
X1527796Y-3520880D01*
X1527796Y-3520880D02*
X1546843Y-3530404D01*
X1546843Y-3530404D02*
X1556367Y-3549452D01*
X1556367Y-3549452D02*
X1556367Y-3654214D01*
X1946843Y-3444690D02*
X1775415Y-3701833D01*
X2203986Y-3454214D02*
X2223034Y-3454214D01*
X2223034Y-3454214D02*
X2242082Y-3463738D01*
X2242082Y-3463738D02*
X2251605Y-3473261D01*
X2251605Y-3473261D02*
X2261129Y-3492309D01*
X2261129Y-3492309D02*
X2270653Y-3530404D01*
X2270653Y-3530404D02*
X2270653Y-3578023D01*
X2270653Y-3578023D02*
X2261129Y-3616118D01*
X2261129Y-3616118D02*
X2251605Y-3635166D01*
X2251605Y-3635166D02*
X2242082Y-3644690D01*
X2242082Y-3644690D02*
X2223034Y-3654214D01*
X2223034Y-3654214D02*
X2203986Y-3654214D01*
X2203986Y-3654214D02*
X2184939Y-3644690D01*
X2184939Y-3644690D02*
X2175415Y-3635166D01*
X2175415Y-3635166D02*
X2165891Y-3616118D01*
X2165891Y-3616118D02*
X2156367Y-3578023D01*
X2156367Y-3578023D02*
X2156367Y-3530404D01*
X2156367Y-3530404D02*
X2165891Y-3492309D01*
X2165891Y-3492309D02*
X2175415Y-3473261D01*
X2175415Y-3473261D02*
X2184939Y-3463738D01*
X2184939Y-3463738D02*
X2203986Y-3454214D01*
X2356367Y-3635166D02*
X2365891Y-3644690D01*
X2365891Y-3644690D02*
X2356367Y-3654214D01*
X2356367Y-3654214D02*
X2346843Y-3644690D01*
X2346843Y-3644690D02*
X2356367Y-3635166D01*
X2356367Y-3635166D02*
X2356367Y-3654214D01*
X2489701Y-3454214D02*
X2508748Y-3454214D01*
X2508748Y-3454214D02*
X2527796Y-3463738D01*
X2527796Y-3463738D02*
X2537320Y-3473261D01*
X2537320Y-3473261D02*
X2546843Y-3492309D01*
X2546843Y-3492309D02*
X2556367Y-3530404D01*
X2556367Y-3530404D02*
X2556367Y-3578023D01*
X2556367Y-3578023D02*
X2546843Y-3616118D01*
X2546843Y-3616118D02*
X2537320Y-3635166D01*
X2537320Y-3635166D02*
X2527796Y-3644690D01*
X2527796Y-3644690D02*
X2508748Y-3654214D01*
X2508748Y-3654214D02*
X2489701Y-3654214D01*
X2489701Y-3654214D02*
X2470653Y-3644690D01*
X2470653Y-3644690D02*
X2461129Y-3635166D01*
X2461129Y-3635166D02*
X2451605Y-3616118D01*
X2451605Y-3616118D02*
X2442082Y-3578023D01*
X2442082Y-3578023D02*
X2442082Y-3530404D01*
X2442082Y-3530404D02*
X2451605Y-3492309D01*
X2451605Y-3492309D02*
X2461129Y-3473261D01*
X2461129Y-3473261D02*
X2470653Y-3463738D01*
X2470653Y-3463738D02*
X2489701Y-3454214D01*
X2746843Y-3654214D02*
X2632558Y-3654214D01*
X2689701Y-3654214D02*
X2689701Y-3454214D01*
X2689701Y-3454214D02*
X2670653Y-3482785D01*
X2670653Y-3482785D02*
X2651605Y-3501833D01*
X2651605Y-3501833D02*
X2632558Y-3511357D01*
X2937320Y-3654214D02*
X2823034Y-3654214D01*
X2880177Y-3654214D02*
X2880177Y-3454214D01*
X2880177Y-3454214D02*
X2861129Y-3482785D01*
X2861129Y-3482785D02*
X2842081Y-3501833D01*
X2842081Y-3501833D02*
X2823034Y-3511357D01*
X3051605Y-3539928D02*
X3032558Y-3530404D01*
X3032558Y-3530404D02*
X3023034Y-3520880D01*
X3023034Y-3520880D02*
X3013510Y-3501833D01*
X3013510Y-3501833D02*
X3013510Y-3492309D01*
X3013510Y-3492309D02*
X3023034Y-3473261D01*
X3023034Y-3473261D02*
X3032558Y-3463738D01*
X3032558Y-3463738D02*
X3051605Y-3454214D01*
X3051605Y-3454214D02*
X3089701Y-3454214D01*
X3089701Y-3454214D02*
X3108748Y-3463738D01*
X3108748Y-3463738D02*
X3118272Y-3473261D01*
X3118272Y-3473261D02*
X3127796Y-3492309D01*
X3127796Y-3492309D02*
X3127796Y-3501833D01*
X3127796Y-3501833D02*
X3118272Y-3520880D01*
X3118272Y-3520880D02*
X3108748Y-3530404D01*
X3108748Y-3530404D02*
X3089701Y-3539928D01*
X3089701Y-3539928D02*
X3051605Y-3539928D01*
X3051605Y-3539928D02*
X3032558Y-3549452D01*
X3032558Y-3549452D02*
X3023034Y-3558976D01*
X3023034Y-3558976D02*
X3013510Y-3578023D01*
X3013510Y-3578023D02*
X3013510Y-3616118D01*
X3013510Y-3616118D02*
X3023034Y-3635166D01*
X3023034Y-3635166D02*
X3032558Y-3644690D01*
X3032558Y-3644690D02*
X3051605Y-3654214D01*
X3051605Y-3654214D02*
X3089701Y-3654214D01*
X3089701Y-3654214D02*
X3108748Y-3644690D01*
X3108748Y-3644690D02*
X3118272Y-3635166D01*
X3118272Y-3635166D02*
X3127796Y-3616118D01*
X3127796Y-3616118D02*
X3127796Y-3578023D01*
X3127796Y-3578023D02*
X3118272Y-3558976D01*
X3118272Y-3558976D02*
X3108748Y-3549452D01*
X3108748Y-3549452D02*
X3089701Y-3539928D01*
X3203986Y-3454214D02*
X3203986Y-3492309D01*
X3280177Y-3454214D02*
X3280177Y-3492309D01*
X3575415Y-3730404D02*
X3565891Y-3720880D01*
X3565891Y-3720880D02*
X3546843Y-3692309D01*
X3546843Y-3692309D02*
X3537320Y-3673261D01*
X3537320Y-3673261D02*
X3527796Y-3644690D01*
X3527796Y-3644690D02*
X3518272Y-3597071D01*
X3518272Y-3597071D02*
X3518272Y-3558976D01*
X3518272Y-3558976D02*
X3527796Y-3511357D01*
X3527796Y-3511357D02*
X3537320Y-3482785D01*
X3537320Y-3482785D02*
X3546843Y-3463738D01*
X3546843Y-3463738D02*
X3565891Y-3435166D01*
X3565891Y-3435166D02*
X3575415Y-3425642D01*
X3642082Y-3473261D02*
X3651605Y-3463738D01*
X3651605Y-3463738D02*
X3670653Y-3454214D01*
X3670653Y-3454214D02*
X3718272Y-3454214D01*
X3718272Y-3454214D02*
X3737320Y-3463738D01*
X3737320Y-3463738D02*
X3746843Y-3473261D01*
X3746843Y-3473261D02*
X3756367Y-3492309D01*
X3756367Y-3492309D02*
X3756367Y-3511357D01*
X3756367Y-3511357D02*
X3746843Y-3539928D01*
X3746843Y-3539928D02*
X3632558Y-3654214D01*
X3632558Y-3654214D02*
X3756367Y-3654214D01*
X3832558Y-3473261D02*
X3842082Y-3463738D01*
X3842082Y-3463738D02*
X3861129Y-3454214D01*
X3861129Y-3454214D02*
X3908748Y-3454214D01*
X3908748Y-3454214D02*
X3927796Y-3463738D01*
X3927796Y-3463738D02*
X3937320Y-3473261D01*
X3937320Y-3473261D02*
X3946843Y-3492309D01*
X3946843Y-3492309D02*
X3946843Y-3511357D01*
X3946843Y-3511357D02*
X3937320Y-3539928D01*
X3937320Y-3539928D02*
X3823034Y-3654214D01*
X3823034Y-3654214D02*
X3946843Y-3654214D01*
X4118272Y-3520880D02*
X4118272Y-3654214D01*
X4070653Y-3444690D02*
X4023034Y-3587547D01*
X4023034Y-3587547D02*
X4146843Y-3587547D01*
X4375415Y-3654214D02*
X4375415Y-3454214D01*
X4461129Y-3654214D02*
X4461129Y-3549452D01*
X4461129Y-3549452D02*
X4451606Y-3530404D01*
X4451606Y-3530404D02*
X4432558Y-3520880D01*
X4432558Y-3520880D02*
X4403986Y-3520880D01*
X4403986Y-3520880D02*
X4384939Y-3530404D01*
X4384939Y-3530404D02*
X4375415Y-3539928D01*
X4584939Y-3654214D02*
X4565891Y-3644690D01*
X4565891Y-3644690D02*
X4556367Y-3635166D01*
X4556367Y-3635166D02*
X4546844Y-3616118D01*
X4546844Y-3616118D02*
X4546844Y-3558976D01*
X4546844Y-3558976D02*
X4556367Y-3539928D01*
X4556367Y-3539928D02*
X4565891Y-3530404D01*
X4565891Y-3530404D02*
X4584939Y-3520880D01*
X4584939Y-3520880D02*
X4613510Y-3520880D01*
X4613510Y-3520880D02*
X4632558Y-3530404D01*
X4632558Y-3530404D02*
X4642082Y-3539928D01*
X4642082Y-3539928D02*
X4651606Y-3558976D01*
X4651606Y-3558976D02*
X4651606Y-3616118D01*
X4651606Y-3616118D02*
X4642082Y-3635166D01*
X4642082Y-3635166D02*
X4632558Y-3644690D01*
X4632558Y-3644690D02*
X4613510Y-3654214D01*
X4613510Y-3654214D02*
X4584939Y-3654214D01*
X4765891Y-3654214D02*
X4746844Y-3644690D01*
X4746844Y-3644690D02*
X4737320Y-3625642D01*
X4737320Y-3625642D02*
X4737320Y-3454214D01*
X4918272Y-3644690D02*
X4899225Y-3654214D01*
X4899225Y-3654214D02*
X4861129Y-3654214D01*
X4861129Y-3654214D02*
X4842082Y-3644690D01*
X4842082Y-3644690D02*
X4832558Y-3625642D01*
X4832558Y-3625642D02*
X4832558Y-3549452D01*
X4832558Y-3549452D02*
X4842082Y-3530404D01*
X4842082Y-3530404D02*
X4861129Y-3520880D01*
X4861129Y-3520880D02*
X4899225Y-3520880D01*
X4899225Y-3520880D02*
X4918272Y-3530404D01*
X4918272Y-3530404D02*
X4927796Y-3549452D01*
X4927796Y-3549452D02*
X4927796Y-3568499D01*
X4927796Y-3568499D02*
X4832558Y-3587547D01*
X5003987Y-3644690D02*
X5023034Y-3654214D01*
X5023034Y-3654214D02*
X5061129Y-3654214D01*
X5061129Y-3654214D02*
X5080177Y-3644690D01*
X5080177Y-3644690D02*
X5089701Y-3625642D01*
X5089701Y-3625642D02*
X5089701Y-3616118D01*
X5089701Y-3616118D02*
X5080177Y-3597071D01*
X5080177Y-3597071D02*
X5061129Y-3587547D01*
X5061129Y-3587547D02*
X5032558Y-3587547D01*
X5032558Y-3587547D02*
X5013510Y-3578023D01*
X5013510Y-3578023D02*
X5003987Y-3558976D01*
X5003987Y-3558976D02*
X5003987Y-3549452D01*
X5003987Y-3549452D02*
X5013510Y-3530404D01*
X5013510Y-3530404D02*
X5032558Y-3520880D01*
X5032558Y-3520880D02*
X5061129Y-3520880D01*
X5061129Y-3520880D02*
X5080177Y-3530404D01*
X5156368Y-3730404D02*
X5165891Y-3720880D01*
X5165891Y-3720880D02*
X5184939Y-3692309D01*
X5184939Y-3692309D02*
X5194463Y-3673261D01*
X5194463Y-3673261D02*
X5203987Y-3644690D01*
X5203987Y-3644690D02*
X5213510Y-3597071D01*
X5213510Y-3597071D02*
X5213510Y-3558976D01*
X5213510Y-3558976D02*
X5203987Y-3511357D01*
X5203987Y-3511357D02*
X5194463Y-3482785D01*
X5194463Y-3482785D02*
X5184939Y-3463738D01*
X5184939Y-3463738D02*
X5165891Y-3435166D01*
X5165891Y-3435166D02*
X5156368Y-3425642D01*
D12*
X352Y-3826730D02*
G75*
G02*
X-73308Y-3826730I-36830J0D01*
G01*
X-73308Y-3826730D02*
G75*
G02*
X352Y-3826730I36830J0D01*
G01*
D11*
X299224Y-3718214D02*
X318272Y-3718214D01*
X318272Y-3718214D02*
X337319Y-3727738D01*
X337319Y-3727738D02*
X346843Y-3737261D01*
X346843Y-3737261D02*
X356367Y-3756309D01*
X356367Y-3756309D02*
X365891Y-3794404D01*
X365891Y-3794404D02*
X365891Y-3842023D01*
X365891Y-3842023D02*
X356367Y-3880118D01*
X356367Y-3880118D02*
X346843Y-3899166D01*
X346843Y-3899166D02*
X337319Y-3908690D01*
X337319Y-3908690D02*
X318272Y-3918214D01*
X318272Y-3918214D02*
X299224Y-3918214D01*
X299224Y-3918214D02*
X280177Y-3908690D01*
X280177Y-3908690D02*
X270653Y-3899166D01*
X270653Y-3899166D02*
X261129Y-3880118D01*
X261129Y-3880118D02*
X251605Y-3842023D01*
X251605Y-3842023D02*
X251605Y-3794404D01*
X251605Y-3794404D02*
X261129Y-3756309D01*
X261129Y-3756309D02*
X270653Y-3737261D01*
X270653Y-3737261D02*
X280177Y-3727738D01*
X280177Y-3727738D02*
X299224Y-3718214D01*
X451605Y-3899166D02*
X461129Y-3908690D01*
X461129Y-3908690D02*
X451605Y-3918214D01*
X451605Y-3918214D02*
X442081Y-3908690D01*
X442081Y-3908690D02*
X451605Y-3899166D01*
X451605Y-3899166D02*
X451605Y-3918214D01*
X527796Y-3718214D02*
X661129Y-3718214D01*
X661129Y-3718214D02*
X575415Y-3918214D01*
X718272Y-3718214D02*
X842081Y-3718214D01*
X842081Y-3718214D02*
X775415Y-3794404D01*
X775415Y-3794404D02*
X803986Y-3794404D01*
X803986Y-3794404D02*
X823034Y-3803928D01*
X823034Y-3803928D02*
X832557Y-3813452D01*
X832557Y-3813452D02*
X842081Y-3832499D01*
X842081Y-3832499D02*
X842081Y-3880118D01*
X842081Y-3880118D02*
X832557Y-3899166D01*
X832557Y-3899166D02*
X823034Y-3908690D01*
X823034Y-3908690D02*
X803986Y-3918214D01*
X803986Y-3918214D02*
X746843Y-3918214D01*
X746843Y-3918214D02*
X727796Y-3908690D01*
X727796Y-3908690D02*
X718272Y-3899166D01*
X908748Y-3718214D02*
X1042081Y-3718214D01*
X1042081Y-3718214D02*
X956367Y-3918214D01*
X1118272Y-3918214D02*
X1118272Y-3784880D01*
X1118272Y-3803928D02*
X1127796Y-3794404D01*
X1127796Y-3794404D02*
X1146843Y-3784880D01*
X1146843Y-3784880D02*
X1175415Y-3784880D01*
X1175415Y-3784880D02*
X1194462Y-3794404D01*
X1194462Y-3794404D02*
X1203986Y-3813452D01*
X1203986Y-3813452D02*
X1203986Y-3918214D01*
X1203986Y-3813452D02*
X1213510Y-3794404D01*
X1213510Y-3794404D02*
X1232558Y-3784880D01*
X1232558Y-3784880D02*
X1261129Y-3784880D01*
X1261129Y-3784880D02*
X1280177Y-3794404D01*
X1280177Y-3794404D02*
X1289700Y-3813452D01*
X1289700Y-3813452D02*
X1289700Y-3918214D01*
X1384939Y-3918214D02*
X1384939Y-3784880D01*
X1384939Y-3803928D02*
X1394462Y-3794404D01*
X1394462Y-3794404D02*
X1413510Y-3784880D01*
X1413510Y-3784880D02*
X1442081Y-3784880D01*
X1442081Y-3784880D02*
X1461129Y-3794404D01*
X1461129Y-3794404D02*
X1470653Y-3813452D01*
X1470653Y-3813452D02*
X1470653Y-3918214D01*
X1470653Y-3813452D02*
X1480177Y-3794404D01*
X1480177Y-3794404D02*
X1499224Y-3784880D01*
X1499224Y-3784880D02*
X1527796Y-3784880D01*
X1527796Y-3784880D02*
X1546843Y-3794404D01*
X1546843Y-3794404D02*
X1556367Y-3813452D01*
X1556367Y-3813452D02*
X1556367Y-3918214D01*
X1946843Y-3708690D02*
X1775415Y-3965833D01*
X2203986Y-3718214D02*
X2223034Y-3718214D01*
X2223034Y-3718214D02*
X2242082Y-3727738D01*
X2242082Y-3727738D02*
X2251605Y-3737261D01*
X2251605Y-3737261D02*
X2261129Y-3756309D01*
X2261129Y-3756309D02*
X2270653Y-3794404D01*
X2270653Y-3794404D02*
X2270653Y-3842023D01*
X2270653Y-3842023D02*
X2261129Y-3880118D01*
X2261129Y-3880118D02*
X2251605Y-3899166D01*
X2251605Y-3899166D02*
X2242082Y-3908690D01*
X2242082Y-3908690D02*
X2223034Y-3918214D01*
X2223034Y-3918214D02*
X2203986Y-3918214D01*
X2203986Y-3918214D02*
X2184939Y-3908690D01*
X2184939Y-3908690D02*
X2175415Y-3899166D01*
X2175415Y-3899166D02*
X2165891Y-3880118D01*
X2165891Y-3880118D02*
X2156367Y-3842023D01*
X2156367Y-3842023D02*
X2156367Y-3794404D01*
X2156367Y-3794404D02*
X2165891Y-3756309D01*
X2165891Y-3756309D02*
X2175415Y-3737261D01*
X2175415Y-3737261D02*
X2184939Y-3727738D01*
X2184939Y-3727738D02*
X2203986Y-3718214D01*
X2356367Y-3899166D02*
X2365891Y-3908690D01*
X2365891Y-3908690D02*
X2356367Y-3918214D01*
X2356367Y-3918214D02*
X2346843Y-3908690D01*
X2346843Y-3908690D02*
X2356367Y-3899166D01*
X2356367Y-3899166D02*
X2356367Y-3918214D01*
X2489701Y-3718214D02*
X2508748Y-3718214D01*
X2508748Y-3718214D02*
X2527796Y-3727738D01*
X2527796Y-3727738D02*
X2537320Y-3737261D01*
X2537320Y-3737261D02*
X2546843Y-3756309D01*
X2546843Y-3756309D02*
X2556367Y-3794404D01*
X2556367Y-3794404D02*
X2556367Y-3842023D01*
X2556367Y-3842023D02*
X2546843Y-3880118D01*
X2546843Y-3880118D02*
X2537320Y-3899166D01*
X2537320Y-3899166D02*
X2527796Y-3908690D01*
X2527796Y-3908690D02*
X2508748Y-3918214D01*
X2508748Y-3918214D02*
X2489701Y-3918214D01*
X2489701Y-3918214D02*
X2470653Y-3908690D01*
X2470653Y-3908690D02*
X2461129Y-3899166D01*
X2461129Y-3899166D02*
X2451605Y-3880118D01*
X2451605Y-3880118D02*
X2442082Y-3842023D01*
X2442082Y-3842023D02*
X2442082Y-3794404D01*
X2442082Y-3794404D02*
X2451605Y-3756309D01*
X2451605Y-3756309D02*
X2461129Y-3737261D01*
X2461129Y-3737261D02*
X2470653Y-3727738D01*
X2470653Y-3727738D02*
X2489701Y-3718214D01*
X2632558Y-3737261D02*
X2642082Y-3727738D01*
X2642082Y-3727738D02*
X2661129Y-3718214D01*
X2661129Y-3718214D02*
X2708748Y-3718214D01*
X2708748Y-3718214D02*
X2727796Y-3727738D01*
X2727796Y-3727738D02*
X2737320Y-3737261D01*
X2737320Y-3737261D02*
X2746843Y-3756309D01*
X2746843Y-3756309D02*
X2746843Y-3775357D01*
X2746843Y-3775357D02*
X2737320Y-3803928D01*
X2737320Y-3803928D02*
X2623034Y-3918214D01*
X2623034Y-3918214D02*
X2746843Y-3918214D01*
X2842081Y-3918214D02*
X2880177Y-3918214D01*
X2880177Y-3918214D02*
X2899224Y-3908690D01*
X2899224Y-3908690D02*
X2908748Y-3899166D01*
X2908748Y-3899166D02*
X2927796Y-3870595D01*
X2927796Y-3870595D02*
X2937320Y-3832499D01*
X2937320Y-3832499D02*
X2937320Y-3756309D01*
X2937320Y-3756309D02*
X2927796Y-3737261D01*
X2927796Y-3737261D02*
X2918272Y-3727738D01*
X2918272Y-3727738D02*
X2899224Y-3718214D01*
X2899224Y-3718214D02*
X2861129Y-3718214D01*
X2861129Y-3718214D02*
X2842081Y-3727738D01*
X2842081Y-3727738D02*
X2832558Y-3737261D01*
X2832558Y-3737261D02*
X2823034Y-3756309D01*
X2823034Y-3756309D02*
X2823034Y-3803928D01*
X2823034Y-3803928D02*
X2832558Y-3822976D01*
X2832558Y-3822976D02*
X2842081Y-3832499D01*
X2842081Y-3832499D02*
X2861129Y-3842023D01*
X2861129Y-3842023D02*
X2899224Y-3842023D01*
X2899224Y-3842023D02*
X2918272Y-3832499D01*
X2918272Y-3832499D02*
X2927796Y-3822976D01*
X2927796Y-3822976D02*
X2937320Y-3803928D01*
X3061129Y-3718214D02*
X3080177Y-3718214D01*
X3080177Y-3718214D02*
X3099224Y-3727738D01*
X3099224Y-3727738D02*
X3108748Y-3737261D01*
X3108748Y-3737261D02*
X3118272Y-3756309D01*
X3118272Y-3756309D02*
X3127796Y-3794404D01*
X3127796Y-3794404D02*
X3127796Y-3842023D01*
X3127796Y-3842023D02*
X3118272Y-3880118D01*
X3118272Y-3880118D02*
X3108748Y-3899166D01*
X3108748Y-3899166D02*
X3099224Y-3908690D01*
X3099224Y-3908690D02*
X3080177Y-3918214D01*
X3080177Y-3918214D02*
X3061129Y-3918214D01*
X3061129Y-3918214D02*
X3042081Y-3908690D01*
X3042081Y-3908690D02*
X3032558Y-3899166D01*
X3032558Y-3899166D02*
X3023034Y-3880118D01*
X3023034Y-3880118D02*
X3013510Y-3842023D01*
X3013510Y-3842023D02*
X3013510Y-3794404D01*
X3013510Y-3794404D02*
X3023034Y-3756309D01*
X3023034Y-3756309D02*
X3032558Y-3737261D01*
X3032558Y-3737261D02*
X3042081Y-3727738D01*
X3042081Y-3727738D02*
X3061129Y-3718214D01*
X3203986Y-3718214D02*
X3203986Y-3756309D01*
X3280177Y-3718214D02*
X3280177Y-3756309D01*
X3575415Y-3994404D02*
X3565891Y-3984880D01*
X3565891Y-3984880D02*
X3546843Y-3956309D01*
X3546843Y-3956309D02*
X3537320Y-3937261D01*
X3537320Y-3937261D02*
X3527796Y-3908690D01*
X3527796Y-3908690D02*
X3518272Y-3861071D01*
X3518272Y-3861071D02*
X3518272Y-3822976D01*
X3518272Y-3822976D02*
X3527796Y-3775357D01*
X3527796Y-3775357D02*
X3537320Y-3746785D01*
X3537320Y-3746785D02*
X3546843Y-3727738D01*
X3546843Y-3727738D02*
X3565891Y-3699166D01*
X3565891Y-3699166D02*
X3575415Y-3689642D01*
X3680177Y-3803928D02*
X3661129Y-3794404D01*
X3661129Y-3794404D02*
X3651605Y-3784880D01*
X3651605Y-3784880D02*
X3642082Y-3765833D01*
X3642082Y-3765833D02*
X3642082Y-3756309D01*
X3642082Y-3756309D02*
X3651605Y-3737261D01*
X3651605Y-3737261D02*
X3661129Y-3727738D01*
X3661129Y-3727738D02*
X3680177Y-3718214D01*
X3680177Y-3718214D02*
X3718272Y-3718214D01*
X3718272Y-3718214D02*
X3737320Y-3727738D01*
X3737320Y-3727738D02*
X3746843Y-3737261D01*
X3746843Y-3737261D02*
X3756367Y-3756309D01*
X3756367Y-3756309D02*
X3756367Y-3765833D01*
X3756367Y-3765833D02*
X3746843Y-3784880D01*
X3746843Y-3784880D02*
X3737320Y-3794404D01*
X3737320Y-3794404D02*
X3718272Y-3803928D01*
X3718272Y-3803928D02*
X3680177Y-3803928D01*
X3680177Y-3803928D02*
X3661129Y-3813452D01*
X3661129Y-3813452D02*
X3651605Y-3822976D01*
X3651605Y-3822976D02*
X3642082Y-3842023D01*
X3642082Y-3842023D02*
X3642082Y-3880118D01*
X3642082Y-3880118D02*
X3651605Y-3899166D01*
X3651605Y-3899166D02*
X3661129Y-3908690D01*
X3661129Y-3908690D02*
X3680177Y-3918214D01*
X3680177Y-3918214D02*
X3718272Y-3918214D01*
X3718272Y-3918214D02*
X3737320Y-3908690D01*
X3737320Y-3908690D02*
X3746843Y-3899166D01*
X3746843Y-3899166D02*
X3756367Y-3880118D01*
X3756367Y-3880118D02*
X3756367Y-3842023D01*
X3756367Y-3842023D02*
X3746843Y-3822976D01*
X3746843Y-3822976D02*
X3737320Y-3813452D01*
X3737320Y-3813452D02*
X3718272Y-3803928D01*
X3994463Y-3918214D02*
X3994463Y-3718214D01*
X4080177Y-3918214D02*
X4080177Y-3813452D01*
X4080177Y-3813452D02*
X4070653Y-3794404D01*
X4070653Y-3794404D02*
X4051605Y-3784880D01*
X4051605Y-3784880D02*
X4023034Y-3784880D01*
X4023034Y-3784880D02*
X4003986Y-3794404D01*
X4003986Y-3794404D02*
X3994463Y-3803928D01*
X4203986Y-3918214D02*
X4184939Y-3908690D01*
X4184939Y-3908690D02*
X4175415Y-3899166D01*
X4175415Y-3899166D02*
X4165891Y-3880118D01*
X4165891Y-3880118D02*
X4165891Y-3822976D01*
X4165891Y-3822976D02*
X4175415Y-3803928D01*
X4175415Y-3803928D02*
X4184939Y-3794404D01*
X4184939Y-3794404D02*
X4203986Y-3784880D01*
X4203986Y-3784880D02*
X4232558Y-3784880D01*
X4232558Y-3784880D02*
X4251606Y-3794404D01*
X4251606Y-3794404D02*
X4261129Y-3803928D01*
X4261129Y-3803928D02*
X4270653Y-3822976D01*
X4270653Y-3822976D02*
X4270653Y-3880118D01*
X4270653Y-3880118D02*
X4261129Y-3899166D01*
X4261129Y-3899166D02*
X4251606Y-3908690D01*
X4251606Y-3908690D02*
X4232558Y-3918214D01*
X4232558Y-3918214D02*
X4203986Y-3918214D01*
X4384939Y-3918214D02*
X4365891Y-3908690D01*
X4365891Y-3908690D02*
X4356367Y-3889642D01*
X4356367Y-3889642D02*
X4356367Y-3718214D01*
X4537320Y-3908690D02*
X4518272Y-3918214D01*
X4518272Y-3918214D02*
X4480177Y-3918214D01*
X4480177Y-3918214D02*
X4461129Y-3908690D01*
X4461129Y-3908690D02*
X4451606Y-3889642D01*
X4451606Y-3889642D02*
X4451606Y-3813452D01*
X4451606Y-3813452D02*
X4461129Y-3794404D01*
X4461129Y-3794404D02*
X4480177Y-3784880D01*
X4480177Y-3784880D02*
X4518272Y-3784880D01*
X4518272Y-3784880D02*
X4537320Y-3794404D01*
X4537320Y-3794404D02*
X4546844Y-3813452D01*
X4546844Y-3813452D02*
X4546844Y-3832499D01*
X4546844Y-3832499D02*
X4451606Y-3851547D01*
X4623034Y-3908690D02*
X4642082Y-3918214D01*
X4642082Y-3918214D02*
X4680177Y-3918214D01*
X4680177Y-3918214D02*
X4699225Y-3908690D01*
X4699225Y-3908690D02*
X4708748Y-3889642D01*
X4708748Y-3889642D02*
X4708748Y-3880118D01*
X4708748Y-3880118D02*
X4699225Y-3861071D01*
X4699225Y-3861071D02*
X4680177Y-3851547D01*
X4680177Y-3851547D02*
X4651606Y-3851547D01*
X4651606Y-3851547D02*
X4632558Y-3842023D01*
X4632558Y-3842023D02*
X4623034Y-3822976D01*
X4623034Y-3822976D02*
X4623034Y-3813452D01*
X4623034Y-3813452D02*
X4632558Y-3794404D01*
X4632558Y-3794404D02*
X4651606Y-3784880D01*
X4651606Y-3784880D02*
X4680177Y-3784880D01*
X4680177Y-3784880D02*
X4699225Y-3794404D01*
X4775415Y-3994404D02*
X4784939Y-3984880D01*
X4784939Y-3984880D02*
X4803987Y-3956309D01*
X4803987Y-3956309D02*
X4813510Y-3937261D01*
X4813510Y-3937261D02*
X4823034Y-3908690D01*
X4823034Y-3908690D02*
X4832558Y-3861071D01*
X4832558Y-3861071D02*
X4832558Y-3822976D01*
X4832558Y-3822976D02*
X4823034Y-3775357D01*
X4823034Y-3775357D02*
X4813510Y-3746785D01*
X4813510Y-3746785D02*
X4803987Y-3727738D01*
X4803987Y-3727738D02*
X4784939Y-3699166D01*
X4784939Y-3699166D02*
X4775415Y-3689642D01*
D12*
X-42828Y-4047550D02*
X-42828Y-4133910D01*
X-86008Y-4090730D02*
X352Y-4090730D01*
D11*
X299224Y-3982214D02*
X318272Y-3982214D01*
X318272Y-3982214D02*
X337319Y-3991738D01*
X337319Y-3991738D02*
X346843Y-4001261D01*
X346843Y-4001261D02*
X356367Y-4020309D01*
X356367Y-4020309D02*
X365891Y-4058404D01*
X365891Y-4058404D02*
X365891Y-4106023D01*
X365891Y-4106023D02*
X356367Y-4144118D01*
X356367Y-4144118D02*
X346843Y-4163166D01*
X346843Y-4163166D02*
X337319Y-4172690D01*
X337319Y-4172690D02*
X318272Y-4182214D01*
X318272Y-4182214D02*
X299224Y-4182214D01*
X299224Y-4182214D02*
X280177Y-4172690D01*
X280177Y-4172690D02*
X270653Y-4163166D01*
X270653Y-4163166D02*
X261129Y-4144118D01*
X261129Y-4144118D02*
X251605Y-4106023D01*
X251605Y-4106023D02*
X251605Y-4058404D01*
X251605Y-4058404D02*
X261129Y-4020309D01*
X261129Y-4020309D02*
X270653Y-4001261D01*
X270653Y-4001261D02*
X280177Y-3991738D01*
X280177Y-3991738D02*
X299224Y-3982214D01*
X451605Y-4163166D02*
X461129Y-4172690D01*
X461129Y-4172690D02*
X451605Y-4182214D01*
X451605Y-4182214D02*
X442081Y-4172690D01*
X442081Y-4172690D02*
X451605Y-4163166D01*
X451605Y-4163166D02*
X451605Y-4182214D01*
X575415Y-4067928D02*
X556367Y-4058404D01*
X556367Y-4058404D02*
X546843Y-4048880D01*
X546843Y-4048880D02*
X537319Y-4029833D01*
X537319Y-4029833D02*
X537319Y-4020309D01*
X537319Y-4020309D02*
X546843Y-4001261D01*
X546843Y-4001261D02*
X556367Y-3991738D01*
X556367Y-3991738D02*
X575415Y-3982214D01*
X575415Y-3982214D02*
X613510Y-3982214D01*
X613510Y-3982214D02*
X632558Y-3991738D01*
X632558Y-3991738D02*
X642081Y-4001261D01*
X642081Y-4001261D02*
X651605Y-4020309D01*
X651605Y-4020309D02*
X651605Y-4029833D01*
X651605Y-4029833D02*
X642081Y-4048880D01*
X642081Y-4048880D02*
X632558Y-4058404D01*
X632558Y-4058404D02*
X613510Y-4067928D01*
X613510Y-4067928D02*
X575415Y-4067928D01*
X575415Y-4067928D02*
X556367Y-4077452D01*
X556367Y-4077452D02*
X546843Y-4086976D01*
X546843Y-4086976D02*
X537319Y-4106023D01*
X537319Y-4106023D02*
X537319Y-4144118D01*
X537319Y-4144118D02*
X546843Y-4163166D01*
X546843Y-4163166D02*
X556367Y-4172690D01*
X556367Y-4172690D02*
X575415Y-4182214D01*
X575415Y-4182214D02*
X613510Y-4182214D01*
X613510Y-4182214D02*
X632558Y-4172690D01*
X632558Y-4172690D02*
X642081Y-4163166D01*
X642081Y-4163166D02*
X651605Y-4144118D01*
X651605Y-4144118D02*
X651605Y-4106023D01*
X651605Y-4106023D02*
X642081Y-4086976D01*
X642081Y-4086976D02*
X632558Y-4077452D01*
X632558Y-4077452D02*
X613510Y-4067928D01*
X823034Y-3982214D02*
X784938Y-3982214D01*
X784938Y-3982214D02*
X765891Y-3991738D01*
X765891Y-3991738D02*
X756367Y-4001261D01*
X756367Y-4001261D02*
X737319Y-4029833D01*
X737319Y-4029833D02*
X727796Y-4067928D01*
X727796Y-4067928D02*
X727796Y-4144118D01*
X727796Y-4144118D02*
X737319Y-4163166D01*
X737319Y-4163166D02*
X746843Y-4172690D01*
X746843Y-4172690D02*
X765891Y-4182214D01*
X765891Y-4182214D02*
X803986Y-4182214D01*
X803986Y-4182214D02*
X823034Y-4172690D01*
X823034Y-4172690D02*
X832557Y-4163166D01*
X832557Y-4163166D02*
X842081Y-4144118D01*
X842081Y-4144118D02*
X842081Y-4096499D01*
X842081Y-4096499D02*
X832557Y-4077452D01*
X832557Y-4077452D02*
X823034Y-4067928D01*
X823034Y-4067928D02*
X803986Y-4058404D01*
X803986Y-4058404D02*
X765891Y-4058404D01*
X765891Y-4058404D02*
X746843Y-4067928D01*
X746843Y-4067928D02*
X737319Y-4077452D01*
X737319Y-4077452D02*
X727796Y-4096499D01*
X1013510Y-4048880D02*
X1013510Y-4182214D01*
X965891Y-3972690D02*
X918272Y-4115547D01*
X918272Y-4115547D02*
X1042081Y-4115547D01*
X1118272Y-4182214D02*
X1118272Y-4048880D01*
X1118272Y-4067928D02*
X1127796Y-4058404D01*
X1127796Y-4058404D02*
X1146843Y-4048880D01*
X1146843Y-4048880D02*
X1175415Y-4048880D01*
X1175415Y-4048880D02*
X1194462Y-4058404D01*
X1194462Y-4058404D02*
X1203986Y-4077452D01*
X1203986Y-4077452D02*
X1203986Y-4182214D01*
X1203986Y-4077452D02*
X1213510Y-4058404D01*
X1213510Y-4058404D02*
X1232558Y-4048880D01*
X1232558Y-4048880D02*
X1261129Y-4048880D01*
X1261129Y-4048880D02*
X1280177Y-4058404D01*
X1280177Y-4058404D02*
X1289700Y-4077452D01*
X1289700Y-4077452D02*
X1289700Y-4182214D01*
X1384939Y-4182214D02*
X1384939Y-4048880D01*
X1384939Y-4067928D02*
X1394462Y-4058404D01*
X1394462Y-4058404D02*
X1413510Y-4048880D01*
X1413510Y-4048880D02*
X1442081Y-4048880D01*
X1442081Y-4048880D02*
X1461129Y-4058404D01*
X1461129Y-4058404D02*
X1470653Y-4077452D01*
X1470653Y-4077452D02*
X1470653Y-4182214D01*
X1470653Y-4077452D02*
X1480177Y-4058404D01*
X1480177Y-4058404D02*
X1499224Y-4048880D01*
X1499224Y-4048880D02*
X1527796Y-4048880D01*
X1527796Y-4048880D02*
X1546843Y-4058404D01*
X1546843Y-4058404D02*
X1556367Y-4077452D01*
X1556367Y-4077452D02*
X1556367Y-4182214D01*
X1946843Y-3972690D02*
X1775415Y-4229833D01*
X2203986Y-3982214D02*
X2223034Y-3982214D01*
X2223034Y-3982214D02*
X2242082Y-3991738D01*
X2242082Y-3991738D02*
X2251605Y-4001261D01*
X2251605Y-4001261D02*
X2261129Y-4020309D01*
X2261129Y-4020309D02*
X2270653Y-4058404D01*
X2270653Y-4058404D02*
X2270653Y-4106023D01*
X2270653Y-4106023D02*
X2261129Y-4144118D01*
X2261129Y-4144118D02*
X2251605Y-4163166D01*
X2251605Y-4163166D02*
X2242082Y-4172690D01*
X2242082Y-4172690D02*
X2223034Y-4182214D01*
X2223034Y-4182214D02*
X2203986Y-4182214D01*
X2203986Y-4182214D02*
X2184939Y-4172690D01*
X2184939Y-4172690D02*
X2175415Y-4163166D01*
X2175415Y-4163166D02*
X2165891Y-4144118D01*
X2165891Y-4144118D02*
X2156367Y-4106023D01*
X2156367Y-4106023D02*
X2156367Y-4058404D01*
X2156367Y-4058404D02*
X2165891Y-4020309D01*
X2165891Y-4020309D02*
X2175415Y-4001261D01*
X2175415Y-4001261D02*
X2184939Y-3991738D01*
X2184939Y-3991738D02*
X2203986Y-3982214D01*
X2356367Y-4163166D02*
X2365891Y-4172690D01*
X2365891Y-4172690D02*
X2356367Y-4182214D01*
X2356367Y-4182214D02*
X2346843Y-4172690D01*
X2346843Y-4172690D02*
X2356367Y-4163166D01*
X2356367Y-4163166D02*
X2356367Y-4182214D01*
X2489701Y-3982214D02*
X2508748Y-3982214D01*
X2508748Y-3982214D02*
X2527796Y-3991738D01*
X2527796Y-3991738D02*
X2537320Y-4001261D01*
X2537320Y-4001261D02*
X2546843Y-4020309D01*
X2546843Y-4020309D02*
X2556367Y-4058404D01*
X2556367Y-4058404D02*
X2556367Y-4106023D01*
X2556367Y-4106023D02*
X2546843Y-4144118D01*
X2546843Y-4144118D02*
X2537320Y-4163166D01*
X2537320Y-4163166D02*
X2527796Y-4172690D01*
X2527796Y-4172690D02*
X2508748Y-4182214D01*
X2508748Y-4182214D02*
X2489701Y-4182214D01*
X2489701Y-4182214D02*
X2470653Y-4172690D01*
X2470653Y-4172690D02*
X2461129Y-4163166D01*
X2461129Y-4163166D02*
X2451605Y-4144118D01*
X2451605Y-4144118D02*
X2442082Y-4106023D01*
X2442082Y-4106023D02*
X2442082Y-4058404D01*
X2442082Y-4058404D02*
X2451605Y-4020309D01*
X2451605Y-4020309D02*
X2461129Y-4001261D01*
X2461129Y-4001261D02*
X2470653Y-3991738D01*
X2470653Y-3991738D02*
X2489701Y-3982214D01*
X2623034Y-3982214D02*
X2746843Y-3982214D01*
X2746843Y-3982214D02*
X2680177Y-4058404D01*
X2680177Y-4058404D02*
X2708748Y-4058404D01*
X2708748Y-4058404D02*
X2727796Y-4067928D01*
X2727796Y-4067928D02*
X2737320Y-4077452D01*
X2737320Y-4077452D02*
X2746843Y-4096499D01*
X2746843Y-4096499D02*
X2746843Y-4144118D01*
X2746843Y-4144118D02*
X2737320Y-4163166D01*
X2737320Y-4163166D02*
X2727796Y-4172690D01*
X2727796Y-4172690D02*
X2708748Y-4182214D01*
X2708748Y-4182214D02*
X2651605Y-4182214D01*
X2651605Y-4182214D02*
X2632558Y-4172690D01*
X2632558Y-4172690D02*
X2623034Y-4163166D01*
X2918272Y-4048880D02*
X2918272Y-4182214D01*
X2870653Y-3972690D02*
X2823034Y-4115547D01*
X2823034Y-4115547D02*
X2946843Y-4115547D01*
X3061129Y-3982214D02*
X3080177Y-3982214D01*
X3080177Y-3982214D02*
X3099224Y-3991738D01*
X3099224Y-3991738D02*
X3108748Y-4001261D01*
X3108748Y-4001261D02*
X3118272Y-4020309D01*
X3118272Y-4020309D02*
X3127796Y-4058404D01*
X3127796Y-4058404D02*
X3127796Y-4106023D01*
X3127796Y-4106023D02*
X3118272Y-4144118D01*
X3118272Y-4144118D02*
X3108748Y-4163166D01*
X3108748Y-4163166D02*
X3099224Y-4172690D01*
X3099224Y-4172690D02*
X3080177Y-4182214D01*
X3080177Y-4182214D02*
X3061129Y-4182214D01*
X3061129Y-4182214D02*
X3042081Y-4172690D01*
X3042081Y-4172690D02*
X3032558Y-4163166D01*
X3032558Y-4163166D02*
X3023034Y-4144118D01*
X3023034Y-4144118D02*
X3013510Y-4106023D01*
X3013510Y-4106023D02*
X3013510Y-4058404D01*
X3013510Y-4058404D02*
X3023034Y-4020309D01*
X3023034Y-4020309D02*
X3032558Y-4001261D01*
X3032558Y-4001261D02*
X3042081Y-3991738D01*
X3042081Y-3991738D02*
X3061129Y-3982214D01*
X3203986Y-3982214D02*
X3203986Y-4020309D01*
X3280177Y-3982214D02*
X3280177Y-4020309D01*
X3575415Y-4258404D02*
X3565891Y-4248880D01*
X3565891Y-4248880D02*
X3546843Y-4220309D01*
X3546843Y-4220309D02*
X3537320Y-4201261D01*
X3537320Y-4201261D02*
X3527796Y-4172690D01*
X3527796Y-4172690D02*
X3518272Y-4125071D01*
X3518272Y-4125071D02*
X3518272Y-4086976D01*
X3518272Y-4086976D02*
X3527796Y-4039357D01*
X3527796Y-4039357D02*
X3537320Y-4010785D01*
X3537320Y-4010785D02*
X3546843Y-3991738D01*
X3546843Y-3991738D02*
X3565891Y-3963166D01*
X3565891Y-3963166D02*
X3575415Y-3953642D01*
X3642082Y-4001261D02*
X3651605Y-3991738D01*
X3651605Y-3991738D02*
X3670653Y-3982214D01*
X3670653Y-3982214D02*
X3718272Y-3982214D01*
X3718272Y-3982214D02*
X3737320Y-3991738D01*
X3737320Y-3991738D02*
X3746843Y-4001261D01*
X3746843Y-4001261D02*
X3756367Y-4020309D01*
X3756367Y-4020309D02*
X3756367Y-4039357D01*
X3756367Y-4039357D02*
X3746843Y-4067928D01*
X3746843Y-4067928D02*
X3632558Y-4182214D01*
X3632558Y-4182214D02*
X3756367Y-4182214D01*
X3994463Y-4182214D02*
X3994463Y-3982214D01*
X4080177Y-4182214D02*
X4080177Y-4077452D01*
X4080177Y-4077452D02*
X4070653Y-4058404D01*
X4070653Y-4058404D02*
X4051605Y-4048880D01*
X4051605Y-4048880D02*
X4023034Y-4048880D01*
X4023034Y-4048880D02*
X4003986Y-4058404D01*
X4003986Y-4058404D02*
X3994463Y-4067928D01*
X4203986Y-4182214D02*
X4184939Y-4172690D01*
X4184939Y-4172690D02*
X4175415Y-4163166D01*
X4175415Y-4163166D02*
X4165891Y-4144118D01*
X4165891Y-4144118D02*
X4165891Y-4086976D01*
X4165891Y-4086976D02*
X4175415Y-4067928D01*
X4175415Y-4067928D02*
X4184939Y-4058404D01*
X4184939Y-4058404D02*
X4203986Y-4048880D01*
X4203986Y-4048880D02*
X4232558Y-4048880D01*
X4232558Y-4048880D02*
X4251606Y-4058404D01*
X4251606Y-4058404D02*
X4261129Y-4067928D01*
X4261129Y-4067928D02*
X4270653Y-4086976D01*
X4270653Y-4086976D02*
X4270653Y-4144118D01*
X4270653Y-4144118D02*
X4261129Y-4163166D01*
X4261129Y-4163166D02*
X4251606Y-4172690D01*
X4251606Y-4172690D02*
X4232558Y-4182214D01*
X4232558Y-4182214D02*
X4203986Y-4182214D01*
X4384939Y-4182214D02*
X4365891Y-4172690D01*
X4365891Y-4172690D02*
X4356367Y-4153642D01*
X4356367Y-4153642D02*
X4356367Y-3982214D01*
X4537320Y-4172690D02*
X4518272Y-4182214D01*
X4518272Y-4182214D02*
X4480177Y-4182214D01*
X4480177Y-4182214D02*
X4461129Y-4172690D01*
X4461129Y-4172690D02*
X4451606Y-4153642D01*
X4451606Y-4153642D02*
X4451606Y-4077452D01*
X4451606Y-4077452D02*
X4461129Y-4058404D01*
X4461129Y-4058404D02*
X4480177Y-4048880D01*
X4480177Y-4048880D02*
X4518272Y-4048880D01*
X4518272Y-4048880D02*
X4537320Y-4058404D01*
X4537320Y-4058404D02*
X4546844Y-4077452D01*
X4546844Y-4077452D02*
X4546844Y-4096499D01*
X4546844Y-4096499D02*
X4451606Y-4115547D01*
X4623034Y-4172690D02*
X4642082Y-4182214D01*
X4642082Y-4182214D02*
X4680177Y-4182214D01*
X4680177Y-4182214D02*
X4699225Y-4172690D01*
X4699225Y-4172690D02*
X4708748Y-4153642D01*
X4708748Y-4153642D02*
X4708748Y-4144118D01*
X4708748Y-4144118D02*
X4699225Y-4125071D01*
X4699225Y-4125071D02*
X4680177Y-4115547D01*
X4680177Y-4115547D02*
X4651606Y-4115547D01*
X4651606Y-4115547D02*
X4632558Y-4106023D01*
X4632558Y-4106023D02*
X4623034Y-4086976D01*
X4623034Y-4086976D02*
X4623034Y-4077452D01*
X4623034Y-4077452D02*
X4632558Y-4058404D01*
X4632558Y-4058404D02*
X4651606Y-4048880D01*
X4651606Y-4048880D02*
X4680177Y-4048880D01*
X4680177Y-4048880D02*
X4699225Y-4058404D01*
X4775415Y-4258404D02*
X4784939Y-4248880D01*
X4784939Y-4248880D02*
X4803987Y-4220309D01*
X4803987Y-4220309D02*
X4813510Y-4201261D01*
X4813510Y-4201261D02*
X4823034Y-4172690D01*
X4823034Y-4172690D02*
X4832558Y-4125071D01*
X4832558Y-4125071D02*
X4832558Y-4086976D01*
X4832558Y-4086976D02*
X4823034Y-4039357D01*
X4823034Y-4039357D02*
X4813510Y-4010785D01*
X4813510Y-4010785D02*
X4803987Y-3991738D01*
X4803987Y-3991738D02*
X4784939Y-3963166D01*
X4784939Y-3963166D02*
X4775415Y-3953642D01*
D12*
X-14155Y-4389753D02*
X-14155Y-4319707D01*
X-84201Y-4319707D01*
X-84201Y-4389753D01*
X-14155Y-4389753D01*
D11*
X299224Y-4246214D02*
X318272Y-4246214D01*
X318272Y-4246214D02*
X337319Y-4255738D01*
X337319Y-4255738D02*
X346843Y-4265261D01*
X346843Y-4265261D02*
X356367Y-4284309D01*
X356367Y-4284309D02*
X365891Y-4322404D01*
X365891Y-4322404D02*
X365891Y-4370023D01*
X365891Y-4370023D02*
X356367Y-4408119D01*
X356367Y-4408119D02*
X346843Y-4427166D01*
X346843Y-4427166D02*
X337319Y-4436690D01*
X337319Y-4436690D02*
X318272Y-4446214D01*
X318272Y-4446214D02*
X299224Y-4446214D01*
X299224Y-4446214D02*
X280177Y-4436690D01*
X280177Y-4436690D02*
X270653Y-4427166D01*
X270653Y-4427166D02*
X261129Y-4408119D01*
X261129Y-4408119D02*
X251605Y-4370023D01*
X251605Y-4370023D02*
X251605Y-4322404D01*
X251605Y-4322404D02*
X261129Y-4284309D01*
X261129Y-4284309D02*
X270653Y-4265261D01*
X270653Y-4265261D02*
X280177Y-4255738D01*
X280177Y-4255738D02*
X299224Y-4246214D01*
X451605Y-4427166D02*
X461129Y-4436690D01*
X461129Y-4436690D02*
X451605Y-4446214D01*
X451605Y-4446214D02*
X442081Y-4436690D01*
X442081Y-4436690D02*
X451605Y-4427166D01*
X451605Y-4427166D02*
X451605Y-4446214D01*
X556367Y-4446214D02*
X594462Y-4446214D01*
X594462Y-4446214D02*
X613510Y-4436690D01*
X613510Y-4436690D02*
X623034Y-4427166D01*
X623034Y-4427166D02*
X642081Y-4398595D01*
X642081Y-4398595D02*
X651605Y-4360500D01*
X651605Y-4360500D02*
X651605Y-4284309D01*
X651605Y-4284309D02*
X642081Y-4265261D01*
X642081Y-4265261D02*
X632558Y-4255738D01*
X632558Y-4255738D02*
X613510Y-4246214D01*
X613510Y-4246214D02*
X575415Y-4246214D01*
X575415Y-4246214D02*
X556367Y-4255738D01*
X556367Y-4255738D02*
X546843Y-4265261D01*
X546843Y-4265261D02*
X537319Y-4284309D01*
X537319Y-4284309D02*
X537319Y-4331928D01*
X537319Y-4331928D02*
X546843Y-4350976D01*
X546843Y-4350976D02*
X556367Y-4360500D01*
X556367Y-4360500D02*
X575415Y-4370023D01*
X575415Y-4370023D02*
X613510Y-4370023D01*
X613510Y-4370023D02*
X632558Y-4360500D01*
X632558Y-4360500D02*
X642081Y-4350976D01*
X642081Y-4350976D02*
X651605Y-4331928D01*
X746843Y-4446214D02*
X784938Y-4446214D01*
X784938Y-4446214D02*
X803986Y-4436690D01*
X803986Y-4436690D02*
X813510Y-4427166D01*
X813510Y-4427166D02*
X832557Y-4398595D01*
X832557Y-4398595D02*
X842081Y-4360500D01*
X842081Y-4360500D02*
X842081Y-4284309D01*
X842081Y-4284309D02*
X832557Y-4265261D01*
X832557Y-4265261D02*
X823034Y-4255738D01*
X823034Y-4255738D02*
X803986Y-4246214D01*
X803986Y-4246214D02*
X765891Y-4246214D01*
X765891Y-4246214D02*
X746843Y-4255738D01*
X746843Y-4255738D02*
X737319Y-4265261D01*
X737319Y-4265261D02*
X727796Y-4284309D01*
X727796Y-4284309D02*
X727796Y-4331928D01*
X727796Y-4331928D02*
X737319Y-4350976D01*
X737319Y-4350976D02*
X746843Y-4360500D01*
X746843Y-4360500D02*
X765891Y-4370023D01*
X765891Y-4370023D02*
X803986Y-4370023D01*
X803986Y-4370023D02*
X823034Y-4360500D01*
X823034Y-4360500D02*
X832557Y-4350976D01*
X832557Y-4350976D02*
X842081Y-4331928D01*
X1032557Y-4446214D02*
X918272Y-4446214D01*
X975415Y-4446214D02*
X975415Y-4246214D01*
X975415Y-4246214D02*
X956367Y-4274785D01*
X956367Y-4274785D02*
X937319Y-4293833D01*
X937319Y-4293833D02*
X918272Y-4303357D01*
X1118272Y-4446214D02*
X1118272Y-4312880D01*
X1118272Y-4331928D02*
X1127796Y-4322404D01*
X1127796Y-4322404D02*
X1146843Y-4312880D01*
X1146843Y-4312880D02*
X1175415Y-4312880D01*
X1175415Y-4312880D02*
X1194462Y-4322404D01*
X1194462Y-4322404D02*
X1203986Y-4341452D01*
X1203986Y-4341452D02*
X1203986Y-4446214D01*
X1203986Y-4341452D02*
X1213510Y-4322404D01*
X1213510Y-4322404D02*
X1232558Y-4312880D01*
X1232558Y-4312880D02*
X1261129Y-4312880D01*
X1261129Y-4312880D02*
X1280177Y-4322404D01*
X1280177Y-4322404D02*
X1289700Y-4341452D01*
X1289700Y-4341452D02*
X1289700Y-4446214D01*
X1384939Y-4446214D02*
X1384939Y-4312880D01*
X1384939Y-4331928D02*
X1394462Y-4322404D01*
X1394462Y-4322404D02*
X1413510Y-4312880D01*
X1413510Y-4312880D02*
X1442081Y-4312880D01*
X1442081Y-4312880D02*
X1461129Y-4322404D01*
X1461129Y-4322404D02*
X1470653Y-4341452D01*
X1470653Y-4341452D02*
X1470653Y-4446214D01*
X1470653Y-4341452D02*
X1480177Y-4322404D01*
X1480177Y-4322404D02*
X1499224Y-4312880D01*
X1499224Y-4312880D02*
X1527796Y-4312880D01*
X1527796Y-4312880D02*
X1546843Y-4322404D01*
X1546843Y-4322404D02*
X1556367Y-4341452D01*
X1556367Y-4341452D02*
X1556367Y-4446214D01*
X1946843Y-4236690D02*
X1775415Y-4493833D01*
X2203986Y-4246214D02*
X2223034Y-4246214D01*
X2223034Y-4246214D02*
X2242082Y-4255738D01*
X2242082Y-4255738D02*
X2251605Y-4265261D01*
X2251605Y-4265261D02*
X2261129Y-4284309D01*
X2261129Y-4284309D02*
X2270653Y-4322404D01*
X2270653Y-4322404D02*
X2270653Y-4370023D01*
X2270653Y-4370023D02*
X2261129Y-4408119D01*
X2261129Y-4408119D02*
X2251605Y-4427166D01*
X2251605Y-4427166D02*
X2242082Y-4436690D01*
X2242082Y-4436690D02*
X2223034Y-4446214D01*
X2223034Y-4446214D02*
X2203986Y-4446214D01*
X2203986Y-4446214D02*
X2184939Y-4436690D01*
X2184939Y-4436690D02*
X2175415Y-4427166D01*
X2175415Y-4427166D02*
X2165891Y-4408119D01*
X2165891Y-4408119D02*
X2156367Y-4370023D01*
X2156367Y-4370023D02*
X2156367Y-4322404D01*
X2156367Y-4322404D02*
X2165891Y-4284309D01*
X2165891Y-4284309D02*
X2175415Y-4265261D01*
X2175415Y-4265261D02*
X2184939Y-4255738D01*
X2184939Y-4255738D02*
X2203986Y-4246214D01*
X2356367Y-4427166D02*
X2365891Y-4436690D01*
X2365891Y-4436690D02*
X2356367Y-4446214D01*
X2356367Y-4446214D02*
X2346843Y-4436690D01*
X2346843Y-4436690D02*
X2356367Y-4427166D01*
X2356367Y-4427166D02*
X2356367Y-4446214D01*
X2489701Y-4246214D02*
X2508748Y-4246214D01*
X2508748Y-4246214D02*
X2527796Y-4255738D01*
X2527796Y-4255738D02*
X2537320Y-4265261D01*
X2537320Y-4265261D02*
X2546843Y-4284309D01*
X2546843Y-4284309D02*
X2556367Y-4322404D01*
X2556367Y-4322404D02*
X2556367Y-4370023D01*
X2556367Y-4370023D02*
X2546843Y-4408119D01*
X2546843Y-4408119D02*
X2537320Y-4427166D01*
X2537320Y-4427166D02*
X2527796Y-4436690D01*
X2527796Y-4436690D02*
X2508748Y-4446214D01*
X2508748Y-4446214D02*
X2489701Y-4446214D01*
X2489701Y-4446214D02*
X2470653Y-4436690D01*
X2470653Y-4436690D02*
X2461129Y-4427166D01*
X2461129Y-4427166D02*
X2451605Y-4408119D01*
X2451605Y-4408119D02*
X2442082Y-4370023D01*
X2442082Y-4370023D02*
X2442082Y-4322404D01*
X2442082Y-4322404D02*
X2451605Y-4284309D01*
X2451605Y-4284309D02*
X2461129Y-4265261D01*
X2461129Y-4265261D02*
X2470653Y-4255738D01*
X2470653Y-4255738D02*
X2489701Y-4246214D01*
X2623034Y-4246214D02*
X2746843Y-4246214D01*
X2746843Y-4246214D02*
X2680177Y-4322404D01*
X2680177Y-4322404D02*
X2708748Y-4322404D01*
X2708748Y-4322404D02*
X2727796Y-4331928D01*
X2727796Y-4331928D02*
X2737320Y-4341452D01*
X2737320Y-4341452D02*
X2746843Y-4360500D01*
X2746843Y-4360500D02*
X2746843Y-4408119D01*
X2746843Y-4408119D02*
X2737320Y-4427166D01*
X2737320Y-4427166D02*
X2727796Y-4436690D01*
X2727796Y-4436690D02*
X2708748Y-4446214D01*
X2708748Y-4446214D02*
X2651605Y-4446214D01*
X2651605Y-4446214D02*
X2632558Y-4436690D01*
X2632558Y-4436690D02*
X2623034Y-4427166D01*
X2842081Y-4446214D02*
X2880177Y-4446214D01*
X2880177Y-4446214D02*
X2899224Y-4436690D01*
X2899224Y-4436690D02*
X2908748Y-4427166D01*
X2908748Y-4427166D02*
X2927796Y-4398595D01*
X2927796Y-4398595D02*
X2937320Y-4360500D01*
X2937320Y-4360500D02*
X2937320Y-4284309D01*
X2937320Y-4284309D02*
X2927796Y-4265261D01*
X2927796Y-4265261D02*
X2918272Y-4255738D01*
X2918272Y-4255738D02*
X2899224Y-4246214D01*
X2899224Y-4246214D02*
X2861129Y-4246214D01*
X2861129Y-4246214D02*
X2842081Y-4255738D01*
X2842081Y-4255738D02*
X2832558Y-4265261D01*
X2832558Y-4265261D02*
X2823034Y-4284309D01*
X2823034Y-4284309D02*
X2823034Y-4331928D01*
X2823034Y-4331928D02*
X2832558Y-4350976D01*
X2832558Y-4350976D02*
X2842081Y-4360500D01*
X2842081Y-4360500D02*
X2861129Y-4370023D01*
X2861129Y-4370023D02*
X2899224Y-4370023D01*
X2899224Y-4370023D02*
X2918272Y-4360500D01*
X2918272Y-4360500D02*
X2927796Y-4350976D01*
X2927796Y-4350976D02*
X2937320Y-4331928D01*
X3061129Y-4246214D02*
X3080177Y-4246214D01*
X3080177Y-4246214D02*
X3099224Y-4255738D01*
X3099224Y-4255738D02*
X3108748Y-4265261D01*
X3108748Y-4265261D02*
X3118272Y-4284309D01*
X3118272Y-4284309D02*
X3127796Y-4322404D01*
X3127796Y-4322404D02*
X3127796Y-4370023D01*
X3127796Y-4370023D02*
X3118272Y-4408119D01*
X3118272Y-4408119D02*
X3108748Y-4427166D01*
X3108748Y-4427166D02*
X3099224Y-4436690D01*
X3099224Y-4436690D02*
X3080177Y-4446214D01*
X3080177Y-4446214D02*
X3061129Y-4446214D01*
X3061129Y-4446214D02*
X3042081Y-4436690D01*
X3042081Y-4436690D02*
X3032558Y-4427166D01*
X3032558Y-4427166D02*
X3023034Y-4408119D01*
X3023034Y-4408119D02*
X3013510Y-4370023D01*
X3013510Y-4370023D02*
X3013510Y-4322404D01*
X3013510Y-4322404D02*
X3023034Y-4284309D01*
X3023034Y-4284309D02*
X3032558Y-4265261D01*
X3032558Y-4265261D02*
X3042081Y-4255738D01*
X3042081Y-4255738D02*
X3061129Y-4246214D01*
X3203986Y-4246214D02*
X3203986Y-4284309D01*
X3280177Y-4246214D02*
X3280177Y-4284309D01*
X3575415Y-4522404D02*
X3565891Y-4512880D01*
X3565891Y-4512880D02*
X3546843Y-4484309D01*
X3546843Y-4484309D02*
X3537320Y-4465261D01*
X3537320Y-4465261D02*
X3527796Y-4436690D01*
X3527796Y-4436690D02*
X3518272Y-4389071D01*
X3518272Y-4389071D02*
X3518272Y-4350976D01*
X3518272Y-4350976D02*
X3527796Y-4303357D01*
X3527796Y-4303357D02*
X3537320Y-4274785D01*
X3537320Y-4274785D02*
X3546843Y-4255738D01*
X3546843Y-4255738D02*
X3565891Y-4227166D01*
X3565891Y-4227166D02*
X3575415Y-4217642D01*
X3642082Y-4265261D02*
X3651605Y-4255738D01*
X3651605Y-4255738D02*
X3670653Y-4246214D01*
X3670653Y-4246214D02*
X3718272Y-4246214D01*
X3718272Y-4246214D02*
X3737320Y-4255738D01*
X3737320Y-4255738D02*
X3746843Y-4265261D01*
X3746843Y-4265261D02*
X3756367Y-4284309D01*
X3756367Y-4284309D02*
X3756367Y-4303357D01*
X3756367Y-4303357D02*
X3746843Y-4331928D01*
X3746843Y-4331928D02*
X3632558Y-4446214D01*
X3632558Y-4446214D02*
X3756367Y-4446214D01*
X3994463Y-4446214D02*
X3994463Y-4246214D01*
X4080177Y-4446214D02*
X4080177Y-4341452D01*
X4080177Y-4341452D02*
X4070653Y-4322404D01*
X4070653Y-4322404D02*
X4051605Y-4312880D01*
X4051605Y-4312880D02*
X4023034Y-4312880D01*
X4023034Y-4312880D02*
X4003986Y-4322404D01*
X4003986Y-4322404D02*
X3994463Y-4331928D01*
X4203986Y-4446214D02*
X4184939Y-4436690D01*
X4184939Y-4436690D02*
X4175415Y-4427166D01*
X4175415Y-4427166D02*
X4165891Y-4408119D01*
X4165891Y-4408119D02*
X4165891Y-4350976D01*
X4165891Y-4350976D02*
X4175415Y-4331928D01*
X4175415Y-4331928D02*
X4184939Y-4322404D01*
X4184939Y-4322404D02*
X4203986Y-4312880D01*
X4203986Y-4312880D02*
X4232558Y-4312880D01*
X4232558Y-4312880D02*
X4251606Y-4322404D01*
X4251606Y-4322404D02*
X4261129Y-4331928D01*
X4261129Y-4331928D02*
X4270653Y-4350976D01*
X4270653Y-4350976D02*
X4270653Y-4408119D01*
X4270653Y-4408119D02*
X4261129Y-4427166D01*
X4261129Y-4427166D02*
X4251606Y-4436690D01*
X4251606Y-4436690D02*
X4232558Y-4446214D01*
X4232558Y-4446214D02*
X4203986Y-4446214D01*
X4384939Y-4446214D02*
X4365891Y-4436690D01*
X4365891Y-4436690D02*
X4356367Y-4417642D01*
X4356367Y-4417642D02*
X4356367Y-4246214D01*
X4537320Y-4436690D02*
X4518272Y-4446214D01*
X4518272Y-4446214D02*
X4480177Y-4446214D01*
X4480177Y-4446214D02*
X4461129Y-4436690D01*
X4461129Y-4436690D02*
X4451606Y-4417642D01*
X4451606Y-4417642D02*
X4451606Y-4341452D01*
X4451606Y-4341452D02*
X4461129Y-4322404D01*
X4461129Y-4322404D02*
X4480177Y-4312880D01*
X4480177Y-4312880D02*
X4518272Y-4312880D01*
X4518272Y-4312880D02*
X4537320Y-4322404D01*
X4537320Y-4322404D02*
X4546844Y-4341452D01*
X4546844Y-4341452D02*
X4546844Y-4360500D01*
X4546844Y-4360500D02*
X4451606Y-4379547D01*
X4623034Y-4436690D02*
X4642082Y-4446214D01*
X4642082Y-4446214D02*
X4680177Y-4446214D01*
X4680177Y-4446214D02*
X4699225Y-4436690D01*
X4699225Y-4436690D02*
X4708748Y-4417642D01*
X4708748Y-4417642D02*
X4708748Y-4408119D01*
X4708748Y-4408119D02*
X4699225Y-4389071D01*
X4699225Y-4389071D02*
X4680177Y-4379547D01*
X4680177Y-4379547D02*
X4651606Y-4379547D01*
X4651606Y-4379547D02*
X4632558Y-4370023D01*
X4632558Y-4370023D02*
X4623034Y-4350976D01*
X4623034Y-4350976D02*
X4623034Y-4341452D01*
X4623034Y-4341452D02*
X4632558Y-4322404D01*
X4632558Y-4322404D02*
X4651606Y-4312880D01*
X4651606Y-4312880D02*
X4680177Y-4312880D01*
X4680177Y-4312880D02*
X4699225Y-4322404D01*
X4775415Y-4522404D02*
X4784939Y-4512880D01*
X4784939Y-4512880D02*
X4803987Y-4484309D01*
X4803987Y-4484309D02*
X4813510Y-4465261D01*
X4813510Y-4465261D02*
X4823034Y-4436690D01*
X4823034Y-4436690D02*
X4832558Y-4389071D01*
X4832558Y-4389071D02*
X4832558Y-4350976D01*
X4832558Y-4350976D02*
X4823034Y-4303357D01*
X4823034Y-4303357D02*
X4813510Y-4274785D01*
X4813510Y-4274785D02*
X4803987Y-4255738D01*
X4803987Y-4255738D02*
X4784939Y-4227166D01*
X4784939Y-4227166D02*
X4775415Y-4217642D01*
D12*
X-49648Y-4668730D02*
X352Y-4618730D01*
X-49648Y-4568730D01*
X-99648Y-4618730D01*
X-49648Y-4668730D01*
D11*
X365891Y-4710214D02*
X251605Y-4710214D01*
X308748Y-4710214D02*
X308748Y-4510214D01*
X308748Y-4510214D02*
X289700Y-4538785D01*
X289700Y-4538785D02*
X270653Y-4557833D01*
X270653Y-4557833D02*
X251605Y-4567357D01*
X451605Y-4691166D02*
X461129Y-4700690D01*
X461129Y-4700690D02*
X451605Y-4710214D01*
X451605Y-4710214D02*
X442081Y-4700690D01*
X442081Y-4700690D02*
X451605Y-4691166D01*
X451605Y-4691166D02*
X451605Y-4710214D01*
X584938Y-4510214D02*
X603986Y-4510214D01*
X603986Y-4510214D02*
X623034Y-4519738D01*
X623034Y-4519738D02*
X632558Y-4529261D01*
X632558Y-4529261D02*
X642081Y-4548309D01*
X642081Y-4548309D02*
X651605Y-4586404D01*
X651605Y-4586404D02*
X651605Y-4634023D01*
X651605Y-4634023D02*
X642081Y-4672119D01*
X642081Y-4672119D02*
X632558Y-4691166D01*
X632558Y-4691166D02*
X623034Y-4700690D01*
X623034Y-4700690D02*
X603986Y-4710214D01*
X603986Y-4710214D02*
X584938Y-4710214D01*
X584938Y-4710214D02*
X565891Y-4700690D01*
X565891Y-4700690D02*
X556367Y-4691166D01*
X556367Y-4691166D02*
X546843Y-4672119D01*
X546843Y-4672119D02*
X537319Y-4634023D01*
X537319Y-4634023D02*
X537319Y-4586404D01*
X537319Y-4586404D02*
X546843Y-4548309D01*
X546843Y-4548309D02*
X556367Y-4529261D01*
X556367Y-4529261D02*
X565891Y-4519738D01*
X565891Y-4519738D02*
X584938Y-4510214D01*
X775415Y-4510214D02*
X794462Y-4510214D01*
X794462Y-4510214D02*
X813510Y-4519738D01*
X813510Y-4519738D02*
X823034Y-4529261D01*
X823034Y-4529261D02*
X832557Y-4548309D01*
X832557Y-4548309D02*
X842081Y-4586404D01*
X842081Y-4586404D02*
X842081Y-4634023D01*
X842081Y-4634023D02*
X832557Y-4672119D01*
X832557Y-4672119D02*
X823034Y-4691166D01*
X823034Y-4691166D02*
X813510Y-4700690D01*
X813510Y-4700690D02*
X794462Y-4710214D01*
X794462Y-4710214D02*
X775415Y-4710214D01*
X775415Y-4710214D02*
X756367Y-4700690D01*
X756367Y-4700690D02*
X746843Y-4691166D01*
X746843Y-4691166D02*
X737319Y-4672119D01*
X737319Y-4672119D02*
X727796Y-4634023D01*
X727796Y-4634023D02*
X727796Y-4586404D01*
X727796Y-4586404D02*
X737319Y-4548309D01*
X737319Y-4548309D02*
X746843Y-4529261D01*
X746843Y-4529261D02*
X756367Y-4519738D01*
X756367Y-4519738D02*
X775415Y-4510214D01*
X965891Y-4510214D02*
X984938Y-4510214D01*
X984938Y-4510214D02*
X1003986Y-4519738D01*
X1003986Y-4519738D02*
X1013510Y-4529261D01*
X1013510Y-4529261D02*
X1023034Y-4548309D01*
X1023034Y-4548309D02*
X1032557Y-4586404D01*
X1032557Y-4586404D02*
X1032557Y-4634023D01*
X1032557Y-4634023D02*
X1023034Y-4672119D01*
X1023034Y-4672119D02*
X1013510Y-4691166D01*
X1013510Y-4691166D02*
X1003986Y-4700690D01*
X1003986Y-4700690D02*
X984938Y-4710214D01*
X984938Y-4710214D02*
X965891Y-4710214D01*
X965891Y-4710214D02*
X946843Y-4700690D01*
X946843Y-4700690D02*
X937319Y-4691166D01*
X937319Y-4691166D02*
X927796Y-4672119D01*
X927796Y-4672119D02*
X918272Y-4634023D01*
X918272Y-4634023D02*
X918272Y-4586404D01*
X918272Y-4586404D02*
X927796Y-4548309D01*
X927796Y-4548309D02*
X937319Y-4529261D01*
X937319Y-4529261D02*
X946843Y-4519738D01*
X946843Y-4519738D02*
X965891Y-4510214D01*
X1118272Y-4710214D02*
X1118272Y-4576880D01*
X1118272Y-4595928D02*
X1127796Y-4586404D01*
X1127796Y-4586404D02*
X1146843Y-4576880D01*
X1146843Y-4576880D02*
X1175415Y-4576880D01*
X1175415Y-4576880D02*
X1194462Y-4586404D01*
X1194462Y-4586404D02*
X1203986Y-4605452D01*
X1203986Y-4605452D02*
X1203986Y-4710214D01*
X1203986Y-4605452D02*
X1213510Y-4586404D01*
X1213510Y-4586404D02*
X1232558Y-4576880D01*
X1232558Y-4576880D02*
X1261129Y-4576880D01*
X1261129Y-4576880D02*
X1280177Y-4586404D01*
X1280177Y-4586404D02*
X1289700Y-4605452D01*
X1289700Y-4605452D02*
X1289700Y-4710214D01*
X1384939Y-4710214D02*
X1384939Y-4576880D01*
X1384939Y-4595928D02*
X1394462Y-4586404D01*
X1394462Y-4586404D02*
X1413510Y-4576880D01*
X1413510Y-4576880D02*
X1442081Y-4576880D01*
X1442081Y-4576880D02*
X1461129Y-4586404D01*
X1461129Y-4586404D02*
X1470653Y-4605452D01*
X1470653Y-4605452D02*
X1470653Y-4710214D01*
X1470653Y-4605452D02*
X1480177Y-4586404D01*
X1480177Y-4586404D02*
X1499224Y-4576880D01*
X1499224Y-4576880D02*
X1527796Y-4576880D01*
X1527796Y-4576880D02*
X1546843Y-4586404D01*
X1546843Y-4586404D02*
X1556367Y-4605452D01*
X1556367Y-4605452D02*
X1556367Y-4710214D01*
X1946843Y-4500690D02*
X1775415Y-4757833D01*
X2203986Y-4510214D02*
X2223034Y-4510214D01*
X2223034Y-4510214D02*
X2242082Y-4519738D01*
X2242082Y-4519738D02*
X2251605Y-4529261D01*
X2251605Y-4529261D02*
X2261129Y-4548309D01*
X2261129Y-4548309D02*
X2270653Y-4586404D01*
X2270653Y-4586404D02*
X2270653Y-4634023D01*
X2270653Y-4634023D02*
X2261129Y-4672119D01*
X2261129Y-4672119D02*
X2251605Y-4691166D01*
X2251605Y-4691166D02*
X2242082Y-4700690D01*
X2242082Y-4700690D02*
X2223034Y-4710214D01*
X2223034Y-4710214D02*
X2203986Y-4710214D01*
X2203986Y-4710214D02*
X2184939Y-4700690D01*
X2184939Y-4700690D02*
X2175415Y-4691166D01*
X2175415Y-4691166D02*
X2165891Y-4672119D01*
X2165891Y-4672119D02*
X2156367Y-4634023D01*
X2156367Y-4634023D02*
X2156367Y-4586404D01*
X2156367Y-4586404D02*
X2165891Y-4548309D01*
X2165891Y-4548309D02*
X2175415Y-4529261D01*
X2175415Y-4529261D02*
X2184939Y-4519738D01*
X2184939Y-4519738D02*
X2203986Y-4510214D01*
X2356367Y-4691166D02*
X2365891Y-4700690D01*
X2365891Y-4700690D02*
X2356367Y-4710214D01*
X2356367Y-4710214D02*
X2346843Y-4700690D01*
X2346843Y-4700690D02*
X2356367Y-4691166D01*
X2356367Y-4691166D02*
X2356367Y-4710214D01*
X2489701Y-4510214D02*
X2508748Y-4510214D01*
X2508748Y-4510214D02*
X2527796Y-4519738D01*
X2527796Y-4519738D02*
X2537320Y-4529261D01*
X2537320Y-4529261D02*
X2546843Y-4548309D01*
X2546843Y-4548309D02*
X2556367Y-4586404D01*
X2556367Y-4586404D02*
X2556367Y-4634023D01*
X2556367Y-4634023D02*
X2546843Y-4672119D01*
X2546843Y-4672119D02*
X2537320Y-4691166D01*
X2537320Y-4691166D02*
X2527796Y-4700690D01*
X2527796Y-4700690D02*
X2508748Y-4710214D01*
X2508748Y-4710214D02*
X2489701Y-4710214D01*
X2489701Y-4710214D02*
X2470653Y-4700690D01*
X2470653Y-4700690D02*
X2461129Y-4691166D01*
X2461129Y-4691166D02*
X2451605Y-4672119D01*
X2451605Y-4672119D02*
X2442082Y-4634023D01*
X2442082Y-4634023D02*
X2442082Y-4586404D01*
X2442082Y-4586404D02*
X2451605Y-4548309D01*
X2451605Y-4548309D02*
X2461129Y-4529261D01*
X2461129Y-4529261D02*
X2470653Y-4519738D01*
X2470653Y-4519738D02*
X2489701Y-4510214D01*
X2623034Y-4510214D02*
X2746843Y-4510214D01*
X2746843Y-4510214D02*
X2680177Y-4586404D01*
X2680177Y-4586404D02*
X2708748Y-4586404D01*
X2708748Y-4586404D02*
X2727796Y-4595928D01*
X2727796Y-4595928D02*
X2737320Y-4605452D01*
X2737320Y-4605452D02*
X2746843Y-4624500D01*
X2746843Y-4624500D02*
X2746843Y-4672119D01*
X2746843Y-4672119D02*
X2737320Y-4691166D01*
X2737320Y-4691166D02*
X2727796Y-4700690D01*
X2727796Y-4700690D02*
X2708748Y-4710214D01*
X2708748Y-4710214D02*
X2651605Y-4710214D01*
X2651605Y-4710214D02*
X2632558Y-4700690D01*
X2632558Y-4700690D02*
X2623034Y-4691166D01*
X2842081Y-4710214D02*
X2880177Y-4710214D01*
X2880177Y-4710214D02*
X2899224Y-4700690D01*
X2899224Y-4700690D02*
X2908748Y-4691166D01*
X2908748Y-4691166D02*
X2927796Y-4662595D01*
X2927796Y-4662595D02*
X2937320Y-4624500D01*
X2937320Y-4624500D02*
X2937320Y-4548309D01*
X2937320Y-4548309D02*
X2927796Y-4529261D01*
X2927796Y-4529261D02*
X2918272Y-4519738D01*
X2918272Y-4519738D02*
X2899224Y-4510214D01*
X2899224Y-4510214D02*
X2861129Y-4510214D01*
X2861129Y-4510214D02*
X2842081Y-4519738D01*
X2842081Y-4519738D02*
X2832558Y-4529261D01*
X2832558Y-4529261D02*
X2823034Y-4548309D01*
X2823034Y-4548309D02*
X2823034Y-4595928D01*
X2823034Y-4595928D02*
X2832558Y-4614976D01*
X2832558Y-4614976D02*
X2842081Y-4624500D01*
X2842081Y-4624500D02*
X2861129Y-4634023D01*
X2861129Y-4634023D02*
X2899224Y-4634023D01*
X2899224Y-4634023D02*
X2918272Y-4624500D01*
X2918272Y-4624500D02*
X2927796Y-4614976D01*
X2927796Y-4614976D02*
X2937320Y-4595928D01*
X3108748Y-4576880D02*
X3108748Y-4710214D01*
X3061129Y-4500690D02*
X3013510Y-4643547D01*
X3013510Y-4643547D02*
X3137320Y-4643547D01*
X3203986Y-4510214D02*
X3203986Y-4548309D01*
X3280177Y-4510214D02*
X3280177Y-4548309D01*
X3575415Y-4786404D02*
X3565891Y-4776880D01*
X3565891Y-4776880D02*
X3546843Y-4748309D01*
X3546843Y-4748309D02*
X3537320Y-4729261D01*
X3537320Y-4729261D02*
X3527796Y-4700690D01*
X3527796Y-4700690D02*
X3518272Y-4653071D01*
X3518272Y-4653071D02*
X3518272Y-4614976D01*
X3518272Y-4614976D02*
X3527796Y-4567357D01*
X3527796Y-4567357D02*
X3537320Y-4538785D01*
X3537320Y-4538785D02*
X3546843Y-4519738D01*
X3546843Y-4519738D02*
X3565891Y-4491166D01*
X3565891Y-4491166D02*
X3575415Y-4481642D01*
X3756367Y-4710214D02*
X3642082Y-4710214D01*
X3699224Y-4710214D02*
X3699224Y-4510214D01*
X3699224Y-4510214D02*
X3680177Y-4538785D01*
X3680177Y-4538785D02*
X3661129Y-4557833D01*
X3661129Y-4557833D02*
X3642082Y-4567357D01*
X3880177Y-4510214D02*
X3899224Y-4510214D01*
X3899224Y-4510214D02*
X3918272Y-4519738D01*
X3918272Y-4519738D02*
X3927796Y-4529261D01*
X3927796Y-4529261D02*
X3937320Y-4548309D01*
X3937320Y-4548309D02*
X3946843Y-4586404D01*
X3946843Y-4586404D02*
X3946843Y-4634023D01*
X3946843Y-4634023D02*
X3937320Y-4672119D01*
X3937320Y-4672119D02*
X3927796Y-4691166D01*
X3927796Y-4691166D02*
X3918272Y-4700690D01*
X3918272Y-4700690D02*
X3899224Y-4710214D01*
X3899224Y-4710214D02*
X3880177Y-4710214D01*
X3880177Y-4710214D02*
X3861129Y-4700690D01*
X3861129Y-4700690D02*
X3851605Y-4691166D01*
X3851605Y-4691166D02*
X3842082Y-4672119D01*
X3842082Y-4672119D02*
X3832558Y-4634023D01*
X3832558Y-4634023D02*
X3832558Y-4586404D01*
X3832558Y-4586404D02*
X3842082Y-4548309D01*
X3842082Y-4548309D02*
X3851605Y-4529261D01*
X3851605Y-4529261D02*
X3861129Y-4519738D01*
X3861129Y-4519738D02*
X3880177Y-4510214D01*
X4184939Y-4710214D02*
X4184939Y-4510214D01*
X4270653Y-4710214D02*
X4270653Y-4605452D01*
X4270653Y-4605452D02*
X4261129Y-4586404D01*
X4261129Y-4586404D02*
X4242082Y-4576880D01*
X4242082Y-4576880D02*
X4213510Y-4576880D01*
X4213510Y-4576880D02*
X4194463Y-4586404D01*
X4194463Y-4586404D02*
X4184939Y-4595928D01*
X4394463Y-4710214D02*
X4375415Y-4700690D01*
X4375415Y-4700690D02*
X4365891Y-4691166D01*
X4365891Y-4691166D02*
X4356367Y-4672119D01*
X4356367Y-4672119D02*
X4356367Y-4614976D01*
X4356367Y-4614976D02*
X4365891Y-4595928D01*
X4365891Y-4595928D02*
X4375415Y-4586404D01*
X4375415Y-4586404D02*
X4394463Y-4576880D01*
X4394463Y-4576880D02*
X4423034Y-4576880D01*
X4423034Y-4576880D02*
X4442082Y-4586404D01*
X4442082Y-4586404D02*
X4451606Y-4595928D01*
X4451606Y-4595928D02*
X4461129Y-4614976D01*
X4461129Y-4614976D02*
X4461129Y-4672119D01*
X4461129Y-4672119D02*
X4451606Y-4691166D01*
X4451606Y-4691166D02*
X4442082Y-4700690D01*
X4442082Y-4700690D02*
X4423034Y-4710214D01*
X4423034Y-4710214D02*
X4394463Y-4710214D01*
X4575415Y-4710214D02*
X4556367Y-4700690D01*
X4556367Y-4700690D02*
X4546844Y-4681642D01*
X4546844Y-4681642D02*
X4546844Y-4510214D01*
X4727796Y-4700690D02*
X4708748Y-4710214D01*
X4708748Y-4710214D02*
X4670653Y-4710214D01*
X4670653Y-4710214D02*
X4651606Y-4700690D01*
X4651606Y-4700690D02*
X4642082Y-4681642D01*
X4642082Y-4681642D02*
X4642082Y-4605452D01*
X4642082Y-4605452D02*
X4651606Y-4586404D01*
X4651606Y-4586404D02*
X4670653Y-4576880D01*
X4670653Y-4576880D02*
X4708748Y-4576880D01*
X4708748Y-4576880D02*
X4727796Y-4586404D01*
X4727796Y-4586404D02*
X4737320Y-4605452D01*
X4737320Y-4605452D02*
X4737320Y-4624500D01*
X4737320Y-4624500D02*
X4642082Y-4643547D01*
X4813510Y-4700690D02*
X4832558Y-4710214D01*
X4832558Y-4710214D02*
X4870653Y-4710214D01*
X4870653Y-4710214D02*
X4889701Y-4700690D01*
X4889701Y-4700690D02*
X4899225Y-4681642D01*
X4899225Y-4681642D02*
X4899225Y-4672119D01*
X4899225Y-4672119D02*
X4889701Y-4653071D01*
X4889701Y-4653071D02*
X4870653Y-4643547D01*
X4870653Y-4643547D02*
X4842082Y-4643547D01*
X4842082Y-4643547D02*
X4823034Y-4634023D01*
X4823034Y-4634023D02*
X4813510Y-4614976D01*
X4813510Y-4614976D02*
X4813510Y-4605452D01*
X4813510Y-4605452D02*
X4823034Y-4586404D01*
X4823034Y-4586404D02*
X4842082Y-4576880D01*
X4842082Y-4576880D02*
X4870653Y-4576880D01*
X4870653Y-4576880D02*
X4889701Y-4586404D01*
X4965891Y-4786404D02*
X4975415Y-4776880D01*
X4975415Y-4776880D02*
X4994463Y-4748309D01*
X4994463Y-4748309D02*
X5003987Y-4729261D01*
X5003987Y-4729261D02*
X5013510Y-4700690D01*
X5013510Y-4700690D02*
X5023034Y-4653071D01*
X5023034Y-4653071D02*
X5023034Y-4614976D01*
X5023034Y-4614976D02*
X5013510Y-4567357D01*
X5013510Y-4567357D02*
X5003987Y-4538785D01*
X5003987Y-4538785D02*
X4994463Y-4519738D01*
X4994463Y-4519738D02*
X4975415Y-4491166D01*
X4975415Y-4491166D02*
X4965891Y-4481642D01*
D13*
X-126648Y-4819230D02*
X352Y-4946230D01*
X352Y-4819230D02*
X-126648Y-4946230D01*
X352Y-4882730D02*
G75*
G02*
X-126648Y-4882730I-63500J0D01*
G01*
X-126648Y-4882730D02*
G75*
G02*
X352Y-4882730I63500J0D01*
G01*
D11*
X365891Y-4974214D02*
X251605Y-4974214D01*
X308748Y-4974214D02*
X308748Y-4774214D01*
X308748Y-4774214D02*
X289700Y-4802785D01*
X289700Y-4802785D02*
X270653Y-4821833D01*
X270653Y-4821833D02*
X251605Y-4831357D01*
X451605Y-4955166D02*
X461129Y-4964690D01*
X461129Y-4964690D02*
X451605Y-4974214D01*
X451605Y-4974214D02*
X442081Y-4964690D01*
X442081Y-4964690D02*
X451605Y-4955166D01*
X451605Y-4955166D02*
X451605Y-4974214D01*
X537319Y-4793261D02*
X546843Y-4783738D01*
X546843Y-4783738D02*
X565891Y-4774214D01*
X565891Y-4774214D02*
X613510Y-4774214D01*
X613510Y-4774214D02*
X632558Y-4783738D01*
X632558Y-4783738D02*
X642081Y-4793261D01*
X642081Y-4793261D02*
X651605Y-4812309D01*
X651605Y-4812309D02*
X651605Y-4831357D01*
X651605Y-4831357D02*
X642081Y-4859928D01*
X642081Y-4859928D02*
X527796Y-4974214D01*
X527796Y-4974214D02*
X651605Y-4974214D01*
X718272Y-4774214D02*
X851605Y-4774214D01*
X851605Y-4774214D02*
X765891Y-4974214D01*
X965891Y-4774214D02*
X984938Y-4774214D01*
X984938Y-4774214D02*
X1003986Y-4783738D01*
X1003986Y-4783738D02*
X1013510Y-4793261D01*
X1013510Y-4793261D02*
X1023034Y-4812309D01*
X1023034Y-4812309D02*
X1032557Y-4850404D01*
X1032557Y-4850404D02*
X1032557Y-4898023D01*
X1032557Y-4898023D02*
X1023034Y-4936119D01*
X1023034Y-4936119D02*
X1013510Y-4955166D01*
X1013510Y-4955166D02*
X1003986Y-4964690D01*
X1003986Y-4964690D02*
X984938Y-4974214D01*
X984938Y-4974214D02*
X965891Y-4974214D01*
X965891Y-4974214D02*
X946843Y-4964690D01*
X946843Y-4964690D02*
X937319Y-4955166D01*
X937319Y-4955166D02*
X927796Y-4936119D01*
X927796Y-4936119D02*
X918272Y-4898023D01*
X918272Y-4898023D02*
X918272Y-4850404D01*
X918272Y-4850404D02*
X927796Y-4812309D01*
X927796Y-4812309D02*
X937319Y-4793261D01*
X937319Y-4793261D02*
X946843Y-4783738D01*
X946843Y-4783738D02*
X965891Y-4774214D01*
X1118272Y-4974214D02*
X1118272Y-4840880D01*
X1118272Y-4859928D02*
X1127796Y-4850404D01*
X1127796Y-4850404D02*
X1146843Y-4840880D01*
X1146843Y-4840880D02*
X1175415Y-4840880D01*
X1175415Y-4840880D02*
X1194462Y-4850404D01*
X1194462Y-4850404D02*
X1203986Y-4869452D01*
X1203986Y-4869452D02*
X1203986Y-4974214D01*
X1203986Y-4869452D02*
X1213510Y-4850404D01*
X1213510Y-4850404D02*
X1232558Y-4840880D01*
X1232558Y-4840880D02*
X1261129Y-4840880D01*
X1261129Y-4840880D02*
X1280177Y-4850404D01*
X1280177Y-4850404D02*
X1289700Y-4869452D01*
X1289700Y-4869452D02*
X1289700Y-4974214D01*
X1384939Y-4974214D02*
X1384939Y-4840880D01*
X1384939Y-4859928D02*
X1394462Y-4850404D01*
X1394462Y-4850404D02*
X1413510Y-4840880D01*
X1413510Y-4840880D02*
X1442081Y-4840880D01*
X1442081Y-4840880D02*
X1461129Y-4850404D01*
X1461129Y-4850404D02*
X1470653Y-4869452D01*
X1470653Y-4869452D02*
X1470653Y-4974214D01*
X1470653Y-4869452D02*
X1480177Y-4850404D01*
X1480177Y-4850404D02*
X1499224Y-4840880D01*
X1499224Y-4840880D02*
X1527796Y-4840880D01*
X1527796Y-4840880D02*
X1546843Y-4850404D01*
X1546843Y-4850404D02*
X1556367Y-4869452D01*
X1556367Y-4869452D02*
X1556367Y-4974214D01*
X1946843Y-4764690D02*
X1775415Y-5021833D01*
X2203986Y-4774214D02*
X2223034Y-4774214D01*
X2223034Y-4774214D02*
X2242082Y-4783738D01*
X2242082Y-4783738D02*
X2251605Y-4793261D01*
X2251605Y-4793261D02*
X2261129Y-4812309D01*
X2261129Y-4812309D02*
X2270653Y-4850404D01*
X2270653Y-4850404D02*
X2270653Y-4898023D01*
X2270653Y-4898023D02*
X2261129Y-4936119D01*
X2261129Y-4936119D02*
X2251605Y-4955166D01*
X2251605Y-4955166D02*
X2242082Y-4964690D01*
X2242082Y-4964690D02*
X2223034Y-4974214D01*
X2223034Y-4974214D02*
X2203986Y-4974214D01*
X2203986Y-4974214D02*
X2184939Y-4964690D01*
X2184939Y-4964690D02*
X2175415Y-4955166D01*
X2175415Y-4955166D02*
X2165891Y-4936119D01*
X2165891Y-4936119D02*
X2156367Y-4898023D01*
X2156367Y-4898023D02*
X2156367Y-4850404D01*
X2156367Y-4850404D02*
X2165891Y-4812309D01*
X2165891Y-4812309D02*
X2175415Y-4793261D01*
X2175415Y-4793261D02*
X2184939Y-4783738D01*
X2184939Y-4783738D02*
X2203986Y-4774214D01*
X2356367Y-4955166D02*
X2365891Y-4964690D01*
X2365891Y-4964690D02*
X2356367Y-4974214D01*
X2356367Y-4974214D02*
X2346843Y-4964690D01*
X2346843Y-4964690D02*
X2356367Y-4955166D01*
X2356367Y-4955166D02*
X2356367Y-4974214D01*
X2489701Y-4774214D02*
X2508748Y-4774214D01*
X2508748Y-4774214D02*
X2527796Y-4783738D01*
X2527796Y-4783738D02*
X2537320Y-4793261D01*
X2537320Y-4793261D02*
X2546843Y-4812309D01*
X2546843Y-4812309D02*
X2556367Y-4850404D01*
X2556367Y-4850404D02*
X2556367Y-4898023D01*
X2556367Y-4898023D02*
X2546843Y-4936119D01*
X2546843Y-4936119D02*
X2537320Y-4955166D01*
X2537320Y-4955166D02*
X2527796Y-4964690D01*
X2527796Y-4964690D02*
X2508748Y-4974214D01*
X2508748Y-4974214D02*
X2489701Y-4974214D01*
X2489701Y-4974214D02*
X2470653Y-4964690D01*
X2470653Y-4964690D02*
X2461129Y-4955166D01*
X2461129Y-4955166D02*
X2451605Y-4936119D01*
X2451605Y-4936119D02*
X2442082Y-4898023D01*
X2442082Y-4898023D02*
X2442082Y-4850404D01*
X2442082Y-4850404D02*
X2451605Y-4812309D01*
X2451605Y-4812309D02*
X2461129Y-4793261D01*
X2461129Y-4793261D02*
X2470653Y-4783738D01*
X2470653Y-4783738D02*
X2489701Y-4774214D01*
X2737320Y-4774214D02*
X2642082Y-4774214D01*
X2642082Y-4774214D02*
X2632558Y-4869452D01*
X2632558Y-4869452D02*
X2642082Y-4859928D01*
X2642082Y-4859928D02*
X2661129Y-4850404D01*
X2661129Y-4850404D02*
X2708748Y-4850404D01*
X2708748Y-4850404D02*
X2727796Y-4859928D01*
X2727796Y-4859928D02*
X2737320Y-4869452D01*
X2737320Y-4869452D02*
X2746843Y-4888500D01*
X2746843Y-4888500D02*
X2746843Y-4936119D01*
X2746843Y-4936119D02*
X2737320Y-4955166D01*
X2737320Y-4955166D02*
X2727796Y-4964690D01*
X2727796Y-4964690D02*
X2708748Y-4974214D01*
X2708748Y-4974214D02*
X2661129Y-4974214D01*
X2661129Y-4974214D02*
X2642082Y-4964690D01*
X2642082Y-4964690D02*
X2632558Y-4955166D01*
X2870653Y-4774214D02*
X2889701Y-4774214D01*
X2889701Y-4774214D02*
X2908748Y-4783738D01*
X2908748Y-4783738D02*
X2918272Y-4793261D01*
X2918272Y-4793261D02*
X2927796Y-4812309D01*
X2927796Y-4812309D02*
X2937320Y-4850404D01*
X2937320Y-4850404D02*
X2937320Y-4898023D01*
X2937320Y-4898023D02*
X2927796Y-4936119D01*
X2927796Y-4936119D02*
X2918272Y-4955166D01*
X2918272Y-4955166D02*
X2908748Y-4964690D01*
X2908748Y-4964690D02*
X2889701Y-4974214D01*
X2889701Y-4974214D02*
X2870653Y-4974214D01*
X2870653Y-4974214D02*
X2851605Y-4964690D01*
X2851605Y-4964690D02*
X2842081Y-4955166D01*
X2842081Y-4955166D02*
X2832558Y-4936119D01*
X2832558Y-4936119D02*
X2823034Y-4898023D01*
X2823034Y-4898023D02*
X2823034Y-4850404D01*
X2823034Y-4850404D02*
X2832558Y-4812309D01*
X2832558Y-4812309D02*
X2842081Y-4793261D01*
X2842081Y-4793261D02*
X2851605Y-4783738D01*
X2851605Y-4783738D02*
X2870653Y-4774214D01*
X3061129Y-4774214D02*
X3080177Y-4774214D01*
X3080177Y-4774214D02*
X3099224Y-4783738D01*
X3099224Y-4783738D02*
X3108748Y-4793261D01*
X3108748Y-4793261D02*
X3118272Y-4812309D01*
X3118272Y-4812309D02*
X3127796Y-4850404D01*
X3127796Y-4850404D02*
X3127796Y-4898023D01*
X3127796Y-4898023D02*
X3118272Y-4936119D01*
X3118272Y-4936119D02*
X3108748Y-4955166D01*
X3108748Y-4955166D02*
X3099224Y-4964690D01*
X3099224Y-4964690D02*
X3080177Y-4974214D01*
X3080177Y-4974214D02*
X3061129Y-4974214D01*
X3061129Y-4974214D02*
X3042081Y-4964690D01*
X3042081Y-4964690D02*
X3032558Y-4955166D01*
X3032558Y-4955166D02*
X3023034Y-4936119D01*
X3023034Y-4936119D02*
X3013510Y-4898023D01*
X3013510Y-4898023D02*
X3013510Y-4850404D01*
X3013510Y-4850404D02*
X3023034Y-4812309D01*
X3023034Y-4812309D02*
X3032558Y-4793261D01*
X3032558Y-4793261D02*
X3042081Y-4783738D01*
X3042081Y-4783738D02*
X3061129Y-4774214D01*
X3203986Y-4774214D02*
X3203986Y-4812309D01*
X3280177Y-4774214D02*
X3280177Y-4812309D01*
X3575415Y-5050404D02*
X3565891Y-5040880D01*
X3565891Y-5040880D02*
X3546843Y-5012309D01*
X3546843Y-5012309D02*
X3537320Y-4993261D01*
X3537320Y-4993261D02*
X3527796Y-4964690D01*
X3527796Y-4964690D02*
X3518272Y-4917071D01*
X3518272Y-4917071D02*
X3518272Y-4878976D01*
X3518272Y-4878976D02*
X3527796Y-4831357D01*
X3527796Y-4831357D02*
X3537320Y-4802785D01*
X3537320Y-4802785D02*
X3546843Y-4783738D01*
X3546843Y-4783738D02*
X3565891Y-4755166D01*
X3565891Y-4755166D02*
X3575415Y-4745642D01*
X3756367Y-4974214D02*
X3642082Y-4974214D01*
X3699224Y-4974214D02*
X3699224Y-4774214D01*
X3699224Y-4774214D02*
X3680177Y-4802785D01*
X3680177Y-4802785D02*
X3661129Y-4821833D01*
X3661129Y-4821833D02*
X3642082Y-4831357D01*
X3832558Y-4793261D02*
X3842082Y-4783738D01*
X3842082Y-4783738D02*
X3861129Y-4774214D01*
X3861129Y-4774214D02*
X3908748Y-4774214D01*
X3908748Y-4774214D02*
X3927796Y-4783738D01*
X3927796Y-4783738D02*
X3937320Y-4793261D01*
X3937320Y-4793261D02*
X3946843Y-4812309D01*
X3946843Y-4812309D02*
X3946843Y-4831357D01*
X3946843Y-4831357D02*
X3937320Y-4859928D01*
X3937320Y-4859928D02*
X3823034Y-4974214D01*
X3823034Y-4974214D02*
X3946843Y-4974214D01*
X4184939Y-4974214D02*
X4184939Y-4774214D01*
X4270653Y-4974214D02*
X4270653Y-4869452D01*
X4270653Y-4869452D02*
X4261129Y-4850404D01*
X4261129Y-4850404D02*
X4242082Y-4840880D01*
X4242082Y-4840880D02*
X4213510Y-4840880D01*
X4213510Y-4840880D02*
X4194463Y-4850404D01*
X4194463Y-4850404D02*
X4184939Y-4859928D01*
X4394463Y-4974214D02*
X4375415Y-4964690D01*
X4375415Y-4964690D02*
X4365891Y-4955166D01*
X4365891Y-4955166D02*
X4356367Y-4936119D01*
X4356367Y-4936119D02*
X4356367Y-4878976D01*
X4356367Y-4878976D02*
X4365891Y-4859928D01*
X4365891Y-4859928D02*
X4375415Y-4850404D01*
X4375415Y-4850404D02*
X4394463Y-4840880D01*
X4394463Y-4840880D02*
X4423034Y-4840880D01*
X4423034Y-4840880D02*
X4442082Y-4850404D01*
X4442082Y-4850404D02*
X4451606Y-4859928D01*
X4451606Y-4859928D02*
X4461129Y-4878976D01*
X4461129Y-4878976D02*
X4461129Y-4936119D01*
X4461129Y-4936119D02*
X4451606Y-4955166D01*
X4451606Y-4955166D02*
X4442082Y-4964690D01*
X4442082Y-4964690D02*
X4423034Y-4974214D01*
X4423034Y-4974214D02*
X4394463Y-4974214D01*
X4575415Y-4974214D02*
X4556367Y-4964690D01*
X4556367Y-4964690D02*
X4546844Y-4945642D01*
X4546844Y-4945642D02*
X4546844Y-4774214D01*
X4727796Y-4964690D02*
X4708748Y-4974214D01*
X4708748Y-4974214D02*
X4670653Y-4974214D01*
X4670653Y-4974214D02*
X4651606Y-4964690D01*
X4651606Y-4964690D02*
X4642082Y-4945642D01*
X4642082Y-4945642D02*
X4642082Y-4869452D01*
X4642082Y-4869452D02*
X4651606Y-4850404D01*
X4651606Y-4850404D02*
X4670653Y-4840880D01*
X4670653Y-4840880D02*
X4708748Y-4840880D01*
X4708748Y-4840880D02*
X4727796Y-4850404D01*
X4727796Y-4850404D02*
X4737320Y-4869452D01*
X4737320Y-4869452D02*
X4737320Y-4888500D01*
X4737320Y-4888500D02*
X4642082Y-4907547D01*
X4813510Y-4964690D02*
X4832558Y-4974214D01*
X4832558Y-4974214D02*
X4870653Y-4974214D01*
X4870653Y-4974214D02*
X4889701Y-4964690D01*
X4889701Y-4964690D02*
X4899225Y-4945642D01*
X4899225Y-4945642D02*
X4899225Y-4936119D01*
X4899225Y-4936119D02*
X4889701Y-4917071D01*
X4889701Y-4917071D02*
X4870653Y-4907547D01*
X4870653Y-4907547D02*
X4842082Y-4907547D01*
X4842082Y-4907547D02*
X4823034Y-4898023D01*
X4823034Y-4898023D02*
X4813510Y-4878976D01*
X4813510Y-4878976D02*
X4813510Y-4869452D01*
X4813510Y-4869452D02*
X4823034Y-4850404D01*
X4823034Y-4850404D02*
X4842082Y-4840880D01*
X4842082Y-4840880D02*
X4870653Y-4840880D01*
X4870653Y-4840880D02*
X4889701Y-4850404D01*
X4965891Y-5050404D02*
X4975415Y-5040880D01*
X4975415Y-5040880D02*
X4994463Y-5012309D01*
X4994463Y-5012309D02*
X5003987Y-4993261D01*
X5003987Y-4993261D02*
X5013510Y-4964690D01*
X5013510Y-4964690D02*
X5023034Y-4917071D01*
X5023034Y-4917071D02*
X5023034Y-4878976D01*
X5023034Y-4878976D02*
X5013510Y-4831357D01*
X5013510Y-4831357D02*
X5003987Y-4802785D01*
X5003987Y-4802785D02*
X4994463Y-4783738D01*
X4994463Y-4783738D02*
X4975415Y-4755166D01*
X4975415Y-4755166D02*
X4965891Y-4745642D01*
D14*
X-177448Y-5057830D02*
X352Y-5235630D01*
X352Y-5057830D02*
X-177448Y-5235630D01*
X-88548Y-5057830D02*
X-88548Y-5235630D01*
X-177448Y-5146730D02*
X352Y-5146730D01*
D11*
X365891Y-5238214D02*
X251605Y-5238214D01*
X308748Y-5238214D02*
X308748Y-5038214D01*
X308748Y-5038214D02*
X289700Y-5066785D01*
X289700Y-5066785D02*
X270653Y-5085833D01*
X270653Y-5085833D02*
X251605Y-5095357D01*
X451605Y-5219166D02*
X461129Y-5228690D01*
X461129Y-5228690D02*
X451605Y-5238214D01*
X451605Y-5238214D02*
X442081Y-5228690D01*
X442081Y-5228690D02*
X451605Y-5219166D01*
X451605Y-5219166D02*
X451605Y-5238214D01*
X527796Y-5038214D02*
X661129Y-5038214D01*
X661129Y-5038214D02*
X575415Y-5238214D01*
X718272Y-5038214D02*
X851605Y-5038214D01*
X851605Y-5038214D02*
X765891Y-5238214D01*
X956367Y-5123928D02*
X937319Y-5114404D01*
X937319Y-5114404D02*
X927796Y-5104880D01*
X927796Y-5104880D02*
X918272Y-5085833D01*
X918272Y-5085833D02*
X918272Y-5076309D01*
X918272Y-5076309D02*
X927796Y-5057261D01*
X927796Y-5057261D02*
X937319Y-5047738D01*
X937319Y-5047738D02*
X956367Y-5038214D01*
X956367Y-5038214D02*
X994462Y-5038214D01*
X994462Y-5038214D02*
X1013510Y-5047738D01*
X1013510Y-5047738D02*
X1023034Y-5057261D01*
X1023034Y-5057261D02*
X1032557Y-5076309D01*
X1032557Y-5076309D02*
X1032557Y-5085833D01*
X1032557Y-5085833D02*
X1023034Y-5104880D01*
X1023034Y-5104880D02*
X1013510Y-5114404D01*
X1013510Y-5114404D02*
X994462Y-5123928D01*
X994462Y-5123928D02*
X956367Y-5123928D01*
X956367Y-5123928D02*
X937319Y-5133452D01*
X937319Y-5133452D02*
X927796Y-5142976D01*
X927796Y-5142976D02*
X918272Y-5162023D01*
X918272Y-5162023D02*
X918272Y-5200119D01*
X918272Y-5200119D02*
X927796Y-5219166D01*
X927796Y-5219166D02*
X937319Y-5228690D01*
X937319Y-5228690D02*
X956367Y-5238214D01*
X956367Y-5238214D02*
X994462Y-5238214D01*
X994462Y-5238214D02*
X1013510Y-5228690D01*
X1013510Y-5228690D02*
X1023034Y-5219166D01*
X1023034Y-5219166D02*
X1032557Y-5200119D01*
X1032557Y-5200119D02*
X1032557Y-5162023D01*
X1032557Y-5162023D02*
X1023034Y-5142976D01*
X1023034Y-5142976D02*
X1013510Y-5133452D01*
X1013510Y-5133452D02*
X994462Y-5123928D01*
X1118272Y-5238214D02*
X1118272Y-5104880D01*
X1118272Y-5123928D02*
X1127796Y-5114404D01*
X1127796Y-5114404D02*
X1146843Y-5104880D01*
X1146843Y-5104880D02*
X1175415Y-5104880D01*
X1175415Y-5104880D02*
X1194462Y-5114404D01*
X1194462Y-5114404D02*
X1203986Y-5133452D01*
X1203986Y-5133452D02*
X1203986Y-5238214D01*
X1203986Y-5133452D02*
X1213510Y-5114404D01*
X1213510Y-5114404D02*
X1232558Y-5104880D01*
X1232558Y-5104880D02*
X1261129Y-5104880D01*
X1261129Y-5104880D02*
X1280177Y-5114404D01*
X1280177Y-5114404D02*
X1289700Y-5133452D01*
X1289700Y-5133452D02*
X1289700Y-5238214D01*
X1384939Y-5238214D02*
X1384939Y-5104880D01*
X1384939Y-5123928D02*
X1394462Y-5114404D01*
X1394462Y-5114404D02*
X1413510Y-5104880D01*
X1413510Y-5104880D02*
X1442081Y-5104880D01*
X1442081Y-5104880D02*
X1461129Y-5114404D01*
X1461129Y-5114404D02*
X1470653Y-5133452D01*
X1470653Y-5133452D02*
X1470653Y-5238214D01*
X1470653Y-5133452D02*
X1480177Y-5114404D01*
X1480177Y-5114404D02*
X1499224Y-5104880D01*
X1499224Y-5104880D02*
X1527796Y-5104880D01*
X1527796Y-5104880D02*
X1546843Y-5114404D01*
X1546843Y-5114404D02*
X1556367Y-5133452D01*
X1556367Y-5133452D02*
X1556367Y-5238214D01*
X1946843Y-5028690D02*
X1775415Y-5285833D01*
X2203986Y-5038214D02*
X2223034Y-5038214D01*
X2223034Y-5038214D02*
X2242082Y-5047738D01*
X2242082Y-5047738D02*
X2251605Y-5057261D01*
X2251605Y-5057261D02*
X2261129Y-5076309D01*
X2261129Y-5076309D02*
X2270653Y-5114404D01*
X2270653Y-5114404D02*
X2270653Y-5162023D01*
X2270653Y-5162023D02*
X2261129Y-5200119D01*
X2261129Y-5200119D02*
X2251605Y-5219166D01*
X2251605Y-5219166D02*
X2242082Y-5228690D01*
X2242082Y-5228690D02*
X2223034Y-5238214D01*
X2223034Y-5238214D02*
X2203986Y-5238214D01*
X2203986Y-5238214D02*
X2184939Y-5228690D01*
X2184939Y-5228690D02*
X2175415Y-5219166D01*
X2175415Y-5219166D02*
X2165891Y-5200119D01*
X2165891Y-5200119D02*
X2156367Y-5162023D01*
X2156367Y-5162023D02*
X2156367Y-5114404D01*
X2156367Y-5114404D02*
X2165891Y-5076309D01*
X2165891Y-5076309D02*
X2175415Y-5057261D01*
X2175415Y-5057261D02*
X2184939Y-5047738D01*
X2184939Y-5047738D02*
X2203986Y-5038214D01*
X2356367Y-5219166D02*
X2365891Y-5228690D01*
X2365891Y-5228690D02*
X2356367Y-5238214D01*
X2356367Y-5238214D02*
X2346843Y-5228690D01*
X2346843Y-5228690D02*
X2356367Y-5219166D01*
X2356367Y-5219166D02*
X2356367Y-5238214D01*
X2489701Y-5038214D02*
X2508748Y-5038214D01*
X2508748Y-5038214D02*
X2527796Y-5047738D01*
X2527796Y-5047738D02*
X2537320Y-5057261D01*
X2537320Y-5057261D02*
X2546843Y-5076309D01*
X2546843Y-5076309D02*
X2556367Y-5114404D01*
X2556367Y-5114404D02*
X2556367Y-5162023D01*
X2556367Y-5162023D02*
X2546843Y-5200119D01*
X2546843Y-5200119D02*
X2537320Y-5219166D01*
X2537320Y-5219166D02*
X2527796Y-5228690D01*
X2527796Y-5228690D02*
X2508748Y-5238214D01*
X2508748Y-5238214D02*
X2489701Y-5238214D01*
X2489701Y-5238214D02*
X2470653Y-5228690D01*
X2470653Y-5228690D02*
X2461129Y-5219166D01*
X2461129Y-5219166D02*
X2451605Y-5200119D01*
X2451605Y-5200119D02*
X2442082Y-5162023D01*
X2442082Y-5162023D02*
X2442082Y-5114404D01*
X2442082Y-5114404D02*
X2451605Y-5076309D01*
X2451605Y-5076309D02*
X2461129Y-5057261D01*
X2461129Y-5057261D02*
X2470653Y-5047738D01*
X2470653Y-5047738D02*
X2489701Y-5038214D01*
X2623034Y-5038214D02*
X2756367Y-5038214D01*
X2756367Y-5038214D02*
X2670653Y-5238214D01*
X2870653Y-5038214D02*
X2889701Y-5038214D01*
X2889701Y-5038214D02*
X2908748Y-5047738D01*
X2908748Y-5047738D02*
X2918272Y-5057261D01*
X2918272Y-5057261D02*
X2927796Y-5076309D01*
X2927796Y-5076309D02*
X2937320Y-5114404D01*
X2937320Y-5114404D02*
X2937320Y-5162023D01*
X2937320Y-5162023D02*
X2927796Y-5200119D01*
X2927796Y-5200119D02*
X2918272Y-5219166D01*
X2918272Y-5219166D02*
X2908748Y-5228690D01*
X2908748Y-5228690D02*
X2889701Y-5238214D01*
X2889701Y-5238214D02*
X2870653Y-5238214D01*
X2870653Y-5238214D02*
X2851605Y-5228690D01*
X2851605Y-5228690D02*
X2842081Y-5219166D01*
X2842081Y-5219166D02*
X2832558Y-5200119D01*
X2832558Y-5200119D02*
X2823034Y-5162023D01*
X2823034Y-5162023D02*
X2823034Y-5114404D01*
X2823034Y-5114404D02*
X2832558Y-5076309D01*
X2832558Y-5076309D02*
X2842081Y-5057261D01*
X2842081Y-5057261D02*
X2851605Y-5047738D01*
X2851605Y-5047738D02*
X2870653Y-5038214D01*
X3061129Y-5038214D02*
X3080177Y-5038214D01*
X3080177Y-5038214D02*
X3099224Y-5047738D01*
X3099224Y-5047738D02*
X3108748Y-5057261D01*
X3108748Y-5057261D02*
X3118272Y-5076309D01*
X3118272Y-5076309D02*
X3127796Y-5114404D01*
X3127796Y-5114404D02*
X3127796Y-5162023D01*
X3127796Y-5162023D02*
X3118272Y-5200119D01*
X3118272Y-5200119D02*
X3108748Y-5219166D01*
X3108748Y-5219166D02*
X3099224Y-5228690D01*
X3099224Y-5228690D02*
X3080177Y-5238214D01*
X3080177Y-5238214D02*
X3061129Y-5238214D01*
X3061129Y-5238214D02*
X3042081Y-5228690D01*
X3042081Y-5228690D02*
X3032558Y-5219166D01*
X3032558Y-5219166D02*
X3023034Y-5200119D01*
X3023034Y-5200119D02*
X3013510Y-5162023D01*
X3013510Y-5162023D02*
X3013510Y-5114404D01*
X3013510Y-5114404D02*
X3023034Y-5076309D01*
X3023034Y-5076309D02*
X3032558Y-5057261D01*
X3032558Y-5057261D02*
X3042081Y-5047738D01*
X3042081Y-5047738D02*
X3061129Y-5038214D01*
X3203986Y-5038214D02*
X3203986Y-5076309D01*
X3280177Y-5038214D02*
X3280177Y-5076309D01*
X3575415Y-5314404D02*
X3565891Y-5304880D01*
X3565891Y-5304880D02*
X3546843Y-5276309D01*
X3546843Y-5276309D02*
X3537320Y-5257261D01*
X3537320Y-5257261D02*
X3527796Y-5228690D01*
X3527796Y-5228690D02*
X3518272Y-5181071D01*
X3518272Y-5181071D02*
X3518272Y-5142976D01*
X3518272Y-5142976D02*
X3527796Y-5095357D01*
X3527796Y-5095357D02*
X3537320Y-5066785D01*
X3537320Y-5066785D02*
X3546843Y-5047738D01*
X3546843Y-5047738D02*
X3565891Y-5019166D01*
X3565891Y-5019166D02*
X3575415Y-5009642D01*
X3746843Y-5038214D02*
X3651605Y-5038214D01*
X3651605Y-5038214D02*
X3642082Y-5133452D01*
X3642082Y-5133452D02*
X3651605Y-5123928D01*
X3651605Y-5123928D02*
X3670653Y-5114404D01*
X3670653Y-5114404D02*
X3718272Y-5114404D01*
X3718272Y-5114404D02*
X3737320Y-5123928D01*
X3737320Y-5123928D02*
X3746843Y-5133452D01*
X3746843Y-5133452D02*
X3756367Y-5152500D01*
X3756367Y-5152500D02*
X3756367Y-5200119D01*
X3756367Y-5200119D02*
X3746843Y-5219166D01*
X3746843Y-5219166D02*
X3737320Y-5228690D01*
X3737320Y-5228690D02*
X3718272Y-5238214D01*
X3718272Y-5238214D02*
X3670653Y-5238214D01*
X3670653Y-5238214D02*
X3651605Y-5228690D01*
X3651605Y-5228690D02*
X3642082Y-5219166D01*
X3994463Y-5238214D02*
X3994463Y-5038214D01*
X4080177Y-5238214D02*
X4080177Y-5133452D01*
X4080177Y-5133452D02*
X4070653Y-5114404D01*
X4070653Y-5114404D02*
X4051605Y-5104880D01*
X4051605Y-5104880D02*
X4023034Y-5104880D01*
X4023034Y-5104880D02*
X4003986Y-5114404D01*
X4003986Y-5114404D02*
X3994463Y-5123928D01*
X4203986Y-5238214D02*
X4184939Y-5228690D01*
X4184939Y-5228690D02*
X4175415Y-5219166D01*
X4175415Y-5219166D02*
X4165891Y-5200119D01*
X4165891Y-5200119D02*
X4165891Y-5142976D01*
X4165891Y-5142976D02*
X4175415Y-5123928D01*
X4175415Y-5123928D02*
X4184939Y-5114404D01*
X4184939Y-5114404D02*
X4203986Y-5104880D01*
X4203986Y-5104880D02*
X4232558Y-5104880D01*
X4232558Y-5104880D02*
X4251606Y-5114404D01*
X4251606Y-5114404D02*
X4261129Y-5123928D01*
X4261129Y-5123928D02*
X4270653Y-5142976D01*
X4270653Y-5142976D02*
X4270653Y-5200119D01*
X4270653Y-5200119D02*
X4261129Y-5219166D01*
X4261129Y-5219166D02*
X4251606Y-5228690D01*
X4251606Y-5228690D02*
X4232558Y-5238214D01*
X4232558Y-5238214D02*
X4203986Y-5238214D01*
X4384939Y-5238214D02*
X4365891Y-5228690D01*
X4365891Y-5228690D02*
X4356367Y-5209642D01*
X4356367Y-5209642D02*
X4356367Y-5038214D01*
X4537320Y-5228690D02*
X4518272Y-5238214D01*
X4518272Y-5238214D02*
X4480177Y-5238214D01*
X4480177Y-5238214D02*
X4461129Y-5228690D01*
X4461129Y-5228690D02*
X4451606Y-5209642D01*
X4451606Y-5209642D02*
X4451606Y-5133452D01*
X4451606Y-5133452D02*
X4461129Y-5114404D01*
X4461129Y-5114404D02*
X4480177Y-5104880D01*
X4480177Y-5104880D02*
X4518272Y-5104880D01*
X4518272Y-5104880D02*
X4537320Y-5114404D01*
X4537320Y-5114404D02*
X4546844Y-5133452D01*
X4546844Y-5133452D02*
X4546844Y-5152500D01*
X4546844Y-5152500D02*
X4451606Y-5171547D01*
X4623034Y-5228690D02*
X4642082Y-5238214D01*
X4642082Y-5238214D02*
X4680177Y-5238214D01*
X4680177Y-5238214D02*
X4699225Y-5228690D01*
X4699225Y-5228690D02*
X4708748Y-5209642D01*
X4708748Y-5209642D02*
X4708748Y-5200119D01*
X4708748Y-5200119D02*
X4699225Y-5181071D01*
X4699225Y-5181071D02*
X4680177Y-5171547D01*
X4680177Y-5171547D02*
X4651606Y-5171547D01*
X4651606Y-5171547D02*
X4632558Y-5162023D01*
X4632558Y-5162023D02*
X4623034Y-5142976D01*
X4623034Y-5142976D02*
X4623034Y-5133452D01*
X4623034Y-5133452D02*
X4632558Y-5114404D01*
X4632558Y-5114404D02*
X4651606Y-5104880D01*
X4651606Y-5104880D02*
X4680177Y-5104880D01*
X4680177Y-5104880D02*
X4699225Y-5114404D01*
X4775415Y-5314404D02*
X4784939Y-5304880D01*
X4784939Y-5304880D02*
X4803987Y-5276309D01*
X4803987Y-5276309D02*
X4813510Y-5257261D01*
X4813510Y-5257261D02*
X4823034Y-5228690D01*
X4823034Y-5228690D02*
X4832558Y-5181071D01*
X4832558Y-5181071D02*
X4832558Y-5142976D01*
X4832558Y-5142976D02*
X4823034Y-5095357D01*
X4823034Y-5095357D02*
X4813510Y-5066785D01*
X4813510Y-5066785D02*
X4803987Y-5047738D01*
X4803987Y-5047738D02*
X4784939Y-5019166D01*
X4784939Y-5019166D02*
X4775415Y-5009642D01*
X-199648Y-5344530D02*
X352Y-5544530D01*
X352Y-5344530D02*
X-199648Y-5544530D01*
X-28936Y-5515241D02*
X-28936Y-5373819D01*
X-170359Y-5373819D01*
X-170359Y-5515241D01*
X-28936Y-5515241D01*
X251605Y-5355061D02*
X261129Y-5345538D01*
X261129Y-5345538D02*
X280177Y-5336014D01*
X280177Y-5336014D02*
X327796Y-5336014D01*
X327796Y-5336014D02*
X346843Y-5345538D01*
X346843Y-5345538D02*
X356367Y-5355061D01*
X356367Y-5355061D02*
X365891Y-5374109D01*
X365891Y-5374109D02*
X365891Y-5393157D01*
X365891Y-5393157D02*
X356367Y-5421728D01*
X356367Y-5421728D02*
X242081Y-5536014D01*
X242081Y-5536014D02*
X365891Y-5536014D01*
X451605Y-5516966D02*
X461129Y-5526490D01*
X461129Y-5526490D02*
X451605Y-5536014D01*
X451605Y-5536014D02*
X442081Y-5526490D01*
X442081Y-5526490D02*
X451605Y-5516966D01*
X451605Y-5516966D02*
X451605Y-5536014D01*
X642081Y-5336014D02*
X546843Y-5336014D01*
X546843Y-5336014D02*
X537319Y-5431252D01*
X537319Y-5431252D02*
X546843Y-5421728D01*
X546843Y-5421728D02*
X565891Y-5412204D01*
X565891Y-5412204D02*
X613510Y-5412204D01*
X613510Y-5412204D02*
X632558Y-5421728D01*
X632558Y-5421728D02*
X642081Y-5431252D01*
X642081Y-5431252D02*
X651605Y-5450300D01*
X651605Y-5450300D02*
X651605Y-5497919D01*
X651605Y-5497919D02*
X642081Y-5516966D01*
X642081Y-5516966D02*
X632558Y-5526490D01*
X632558Y-5526490D02*
X613510Y-5536014D01*
X613510Y-5536014D02*
X565891Y-5536014D01*
X565891Y-5536014D02*
X546843Y-5526490D01*
X546843Y-5526490D02*
X537319Y-5516966D01*
X823034Y-5402680D02*
X823034Y-5536014D01*
X775415Y-5326490D02*
X727796Y-5469347D01*
X727796Y-5469347D02*
X851605Y-5469347D01*
X965891Y-5336014D02*
X984938Y-5336014D01*
X984938Y-5336014D02*
X1003986Y-5345538D01*
X1003986Y-5345538D02*
X1013510Y-5355061D01*
X1013510Y-5355061D02*
X1023034Y-5374109D01*
X1023034Y-5374109D02*
X1032557Y-5412204D01*
X1032557Y-5412204D02*
X1032557Y-5459823D01*
X1032557Y-5459823D02*
X1023034Y-5497919D01*
X1023034Y-5497919D02*
X1013510Y-5516966D01*
X1013510Y-5516966D02*
X1003986Y-5526490D01*
X1003986Y-5526490D02*
X984938Y-5536014D01*
X984938Y-5536014D02*
X965891Y-5536014D01*
X965891Y-5536014D02*
X946843Y-5526490D01*
X946843Y-5526490D02*
X937319Y-5516966D01*
X937319Y-5516966D02*
X927796Y-5497919D01*
X927796Y-5497919D02*
X918272Y-5459823D01*
X918272Y-5459823D02*
X918272Y-5412204D01*
X918272Y-5412204D02*
X927796Y-5374109D01*
X927796Y-5374109D02*
X937319Y-5355061D01*
X937319Y-5355061D02*
X946843Y-5345538D01*
X946843Y-5345538D02*
X965891Y-5336014D01*
X1118272Y-5536014D02*
X1118272Y-5402680D01*
X1118272Y-5421728D02*
X1127796Y-5412204D01*
X1127796Y-5412204D02*
X1146843Y-5402680D01*
X1146843Y-5402680D02*
X1175415Y-5402680D01*
X1175415Y-5402680D02*
X1194462Y-5412204D01*
X1194462Y-5412204D02*
X1203986Y-5431252D01*
X1203986Y-5431252D02*
X1203986Y-5536014D01*
X1203986Y-5431252D02*
X1213510Y-5412204D01*
X1213510Y-5412204D02*
X1232558Y-5402680D01*
X1232558Y-5402680D02*
X1261129Y-5402680D01*
X1261129Y-5402680D02*
X1280177Y-5412204D01*
X1280177Y-5412204D02*
X1289700Y-5431252D01*
X1289700Y-5431252D02*
X1289700Y-5536014D01*
X1384939Y-5536014D02*
X1384939Y-5402680D01*
X1384939Y-5421728D02*
X1394462Y-5412204D01*
X1394462Y-5412204D02*
X1413510Y-5402680D01*
X1413510Y-5402680D02*
X1442081Y-5402680D01*
X1442081Y-5402680D02*
X1461129Y-5412204D01*
X1461129Y-5412204D02*
X1470653Y-5431252D01*
X1470653Y-5431252D02*
X1470653Y-5536014D01*
X1470653Y-5431252D02*
X1480177Y-5412204D01*
X1480177Y-5412204D02*
X1499224Y-5402680D01*
X1499224Y-5402680D02*
X1527796Y-5402680D01*
X1527796Y-5402680D02*
X1546843Y-5412204D01*
X1546843Y-5412204D02*
X1556367Y-5431252D01*
X1556367Y-5431252D02*
X1556367Y-5536014D01*
X1946843Y-5326490D02*
X1775415Y-5583633D01*
X2203986Y-5336014D02*
X2223034Y-5336014D01*
X2223034Y-5336014D02*
X2242082Y-5345538D01*
X2242082Y-5345538D02*
X2251605Y-5355061D01*
X2251605Y-5355061D02*
X2261129Y-5374109D01*
X2261129Y-5374109D02*
X2270653Y-5412204D01*
X2270653Y-5412204D02*
X2270653Y-5459823D01*
X2270653Y-5459823D02*
X2261129Y-5497919D01*
X2261129Y-5497919D02*
X2251605Y-5516966D01*
X2251605Y-5516966D02*
X2242082Y-5526490D01*
X2242082Y-5526490D02*
X2223034Y-5536014D01*
X2223034Y-5536014D02*
X2203986Y-5536014D01*
X2203986Y-5536014D02*
X2184939Y-5526490D01*
X2184939Y-5526490D02*
X2175415Y-5516966D01*
X2175415Y-5516966D02*
X2165891Y-5497919D01*
X2165891Y-5497919D02*
X2156367Y-5459823D01*
X2156367Y-5459823D02*
X2156367Y-5412204D01*
X2156367Y-5412204D02*
X2165891Y-5374109D01*
X2165891Y-5374109D02*
X2175415Y-5355061D01*
X2175415Y-5355061D02*
X2184939Y-5345538D01*
X2184939Y-5345538D02*
X2203986Y-5336014D01*
X2356367Y-5516966D02*
X2365891Y-5526490D01*
X2365891Y-5526490D02*
X2356367Y-5536014D01*
X2356367Y-5536014D02*
X2346843Y-5526490D01*
X2346843Y-5526490D02*
X2356367Y-5516966D01*
X2356367Y-5516966D02*
X2356367Y-5536014D01*
X2556367Y-5536014D02*
X2442082Y-5536014D01*
X2499224Y-5536014D02*
X2499224Y-5336014D01*
X2499224Y-5336014D02*
X2480177Y-5364585D01*
X2480177Y-5364585D02*
X2461129Y-5383633D01*
X2461129Y-5383633D02*
X2442082Y-5393157D01*
X2680177Y-5336014D02*
X2699224Y-5336014D01*
X2699224Y-5336014D02*
X2718272Y-5345538D01*
X2718272Y-5345538D02*
X2727796Y-5355061D01*
X2727796Y-5355061D02*
X2737320Y-5374109D01*
X2737320Y-5374109D02*
X2746843Y-5412204D01*
X2746843Y-5412204D02*
X2746843Y-5459823D01*
X2746843Y-5459823D02*
X2737320Y-5497919D01*
X2737320Y-5497919D02*
X2727796Y-5516966D01*
X2727796Y-5516966D02*
X2718272Y-5526490D01*
X2718272Y-5526490D02*
X2699224Y-5536014D01*
X2699224Y-5536014D02*
X2680177Y-5536014D01*
X2680177Y-5536014D02*
X2661129Y-5526490D01*
X2661129Y-5526490D02*
X2651605Y-5516966D01*
X2651605Y-5516966D02*
X2642082Y-5497919D01*
X2642082Y-5497919D02*
X2632558Y-5459823D01*
X2632558Y-5459823D02*
X2632558Y-5412204D01*
X2632558Y-5412204D02*
X2642082Y-5374109D01*
X2642082Y-5374109D02*
X2651605Y-5355061D01*
X2651605Y-5355061D02*
X2661129Y-5345538D01*
X2661129Y-5345538D02*
X2680177Y-5336014D01*
X2870653Y-5336014D02*
X2889701Y-5336014D01*
X2889701Y-5336014D02*
X2908748Y-5345538D01*
X2908748Y-5345538D02*
X2918272Y-5355061D01*
X2918272Y-5355061D02*
X2927796Y-5374109D01*
X2927796Y-5374109D02*
X2937320Y-5412204D01*
X2937320Y-5412204D02*
X2937320Y-5459823D01*
X2937320Y-5459823D02*
X2927796Y-5497919D01*
X2927796Y-5497919D02*
X2918272Y-5516966D01*
X2918272Y-5516966D02*
X2908748Y-5526490D01*
X2908748Y-5526490D02*
X2889701Y-5536014D01*
X2889701Y-5536014D02*
X2870653Y-5536014D01*
X2870653Y-5536014D02*
X2851605Y-5526490D01*
X2851605Y-5526490D02*
X2842081Y-5516966D01*
X2842081Y-5516966D02*
X2832558Y-5497919D01*
X2832558Y-5497919D02*
X2823034Y-5459823D01*
X2823034Y-5459823D02*
X2823034Y-5412204D01*
X2823034Y-5412204D02*
X2832558Y-5374109D01*
X2832558Y-5374109D02*
X2842081Y-5355061D01*
X2842081Y-5355061D02*
X2851605Y-5345538D01*
X2851605Y-5345538D02*
X2870653Y-5336014D01*
X3061129Y-5336014D02*
X3080177Y-5336014D01*
X3080177Y-5336014D02*
X3099224Y-5345538D01*
X3099224Y-5345538D02*
X3108748Y-5355061D01*
X3108748Y-5355061D02*
X3118272Y-5374109D01*
X3118272Y-5374109D02*
X3127796Y-5412204D01*
X3127796Y-5412204D02*
X3127796Y-5459823D01*
X3127796Y-5459823D02*
X3118272Y-5497919D01*
X3118272Y-5497919D02*
X3108748Y-5516966D01*
X3108748Y-5516966D02*
X3099224Y-5526490D01*
X3099224Y-5526490D02*
X3080177Y-5536014D01*
X3080177Y-5536014D02*
X3061129Y-5536014D01*
X3061129Y-5536014D02*
X3042081Y-5526490D01*
X3042081Y-5526490D02*
X3032558Y-5516966D01*
X3032558Y-5516966D02*
X3023034Y-5497919D01*
X3023034Y-5497919D02*
X3013510Y-5459823D01*
X3013510Y-5459823D02*
X3013510Y-5412204D01*
X3013510Y-5412204D02*
X3023034Y-5374109D01*
X3023034Y-5374109D02*
X3032558Y-5355061D01*
X3032558Y-5355061D02*
X3042081Y-5345538D01*
X3042081Y-5345538D02*
X3061129Y-5336014D01*
X3203986Y-5336014D02*
X3203986Y-5374109D01*
X3280177Y-5336014D02*
X3280177Y-5374109D01*
X3575415Y-5612204D02*
X3565891Y-5602680D01*
X3565891Y-5602680D02*
X3546843Y-5574109D01*
X3546843Y-5574109D02*
X3537320Y-5555061D01*
X3537320Y-5555061D02*
X3527796Y-5526490D01*
X3527796Y-5526490D02*
X3518272Y-5478871D01*
X3518272Y-5478871D02*
X3518272Y-5440776D01*
X3518272Y-5440776D02*
X3527796Y-5393157D01*
X3527796Y-5393157D02*
X3537320Y-5364585D01*
X3537320Y-5364585D02*
X3546843Y-5345538D01*
X3546843Y-5345538D02*
X3565891Y-5316966D01*
X3565891Y-5316966D02*
X3575415Y-5307442D01*
X3642082Y-5355061D02*
X3651605Y-5345538D01*
X3651605Y-5345538D02*
X3670653Y-5336014D01*
X3670653Y-5336014D02*
X3718272Y-5336014D01*
X3718272Y-5336014D02*
X3737320Y-5345538D01*
X3737320Y-5345538D02*
X3746843Y-5355061D01*
X3746843Y-5355061D02*
X3756367Y-5374109D01*
X3756367Y-5374109D02*
X3756367Y-5393157D01*
X3756367Y-5393157D02*
X3746843Y-5421728D01*
X3746843Y-5421728D02*
X3632558Y-5536014D01*
X3632558Y-5536014D02*
X3756367Y-5536014D01*
X3994463Y-5536014D02*
X3994463Y-5336014D01*
X4080177Y-5536014D02*
X4080177Y-5431252D01*
X4080177Y-5431252D02*
X4070653Y-5412204D01*
X4070653Y-5412204D02*
X4051605Y-5402680D01*
X4051605Y-5402680D02*
X4023034Y-5402680D01*
X4023034Y-5402680D02*
X4003986Y-5412204D01*
X4003986Y-5412204D02*
X3994463Y-5421728D01*
X4203986Y-5536014D02*
X4184939Y-5526490D01*
X4184939Y-5526490D02*
X4175415Y-5516966D01*
X4175415Y-5516966D02*
X4165891Y-5497919D01*
X4165891Y-5497919D02*
X4165891Y-5440776D01*
X4165891Y-5440776D02*
X4175415Y-5421728D01*
X4175415Y-5421728D02*
X4184939Y-5412204D01*
X4184939Y-5412204D02*
X4203986Y-5402680D01*
X4203986Y-5402680D02*
X4232558Y-5402680D01*
X4232558Y-5402680D02*
X4251606Y-5412204D01*
X4251606Y-5412204D02*
X4261129Y-5421728D01*
X4261129Y-5421728D02*
X4270653Y-5440776D01*
X4270653Y-5440776D02*
X4270653Y-5497919D01*
X4270653Y-5497919D02*
X4261129Y-5516966D01*
X4261129Y-5516966D02*
X4251606Y-5526490D01*
X4251606Y-5526490D02*
X4232558Y-5536014D01*
X4232558Y-5536014D02*
X4203986Y-5536014D01*
X4384939Y-5536014D02*
X4365891Y-5526490D01*
X4365891Y-5526490D02*
X4356367Y-5507442D01*
X4356367Y-5507442D02*
X4356367Y-5336014D01*
X4537320Y-5526490D02*
X4518272Y-5536014D01*
X4518272Y-5536014D02*
X4480177Y-5536014D01*
X4480177Y-5536014D02*
X4461129Y-5526490D01*
X4461129Y-5526490D02*
X4451606Y-5507442D01*
X4451606Y-5507442D02*
X4451606Y-5431252D01*
X4451606Y-5431252D02*
X4461129Y-5412204D01*
X4461129Y-5412204D02*
X4480177Y-5402680D01*
X4480177Y-5402680D02*
X4518272Y-5402680D01*
X4518272Y-5402680D02*
X4537320Y-5412204D01*
X4537320Y-5412204D02*
X4546844Y-5431252D01*
X4546844Y-5431252D02*
X4546844Y-5450300D01*
X4546844Y-5450300D02*
X4451606Y-5469347D01*
X4623034Y-5526490D02*
X4642082Y-5536014D01*
X4642082Y-5536014D02*
X4680177Y-5536014D01*
X4680177Y-5536014D02*
X4699225Y-5526490D01*
X4699225Y-5526490D02*
X4708748Y-5507442D01*
X4708748Y-5507442D02*
X4708748Y-5497919D01*
X4708748Y-5497919D02*
X4699225Y-5478871D01*
X4699225Y-5478871D02*
X4680177Y-5469347D01*
X4680177Y-5469347D02*
X4651606Y-5469347D01*
X4651606Y-5469347D02*
X4632558Y-5459823D01*
X4632558Y-5459823D02*
X4623034Y-5440776D01*
X4623034Y-5440776D02*
X4623034Y-5431252D01*
X4623034Y-5431252D02*
X4632558Y-5412204D01*
X4632558Y-5412204D02*
X4651606Y-5402680D01*
X4651606Y-5402680D02*
X4680177Y-5402680D01*
X4680177Y-5402680D02*
X4699225Y-5412204D01*
X4775415Y-5612204D02*
X4784939Y-5602680D01*
X4784939Y-5602680D02*
X4803987Y-5574109D01*
X4803987Y-5574109D02*
X4813510Y-5555061D01*
X4813510Y-5555061D02*
X4823034Y-5526490D01*
X4823034Y-5526490D02*
X4832558Y-5478871D01*
X4832558Y-5478871D02*
X4832558Y-5440776D01*
X4832558Y-5440776D02*
X4823034Y-5393157D01*
X4823034Y-5393157D02*
X4813510Y-5364585D01*
X4813510Y-5364585D02*
X4803987Y-5345538D01*
X4803987Y-5345538D02*
X4784939Y-5316966D01*
X4784939Y-5316966D02*
X4775415Y-5307442D01*
M02*
