%TF.GenerationSoftware,KiCad,Pcbnew,8.99.0-unknown*%
%TF.CreationDate,2024-06-21T10:07:37-04:00*%
%TF.ProjectId,solderingStationPCB,736f6c64-6572-4696-9e67-53746174696f,rev?*%
%TF.SameCoordinates,PX33f2570PY4a915b0*%
%TF.FileFunction,Copper,L2,Bot*%
%TF.FilePolarity,Positive*%
%FSLAX46Y46*%
G04 Gerber Fmt 4.6, Leading zero omitted, Abs format (unit mm)*
G04 Created by KiCad (PCBNEW 8.99.0-unknown) date 2024-06-21 10:07:37*
%MOMM*%
%LPD*%
G01*
G04 APERTURE LIST*
G04 Aperture macros list*
%AMHorizOval*
0 Thick line with rounded ends*
0 $1 width*
0 $2 $3 position (X,Y) of the first rounded end (center of the circle)*
0 $4 $5 position (X,Y) of the second rounded end (center of the circle)*
0 Add line between two ends*
20,1,$1,$2,$3,$4,$5,0*
0 Add two circle primitives to create the rounded ends*
1,1,$1,$2,$3*
1,1,$1,$4,$5*%
G04 Aperture macros list end*
%TA.AperFunction,ComponentPad*%
%ADD10R,1.778000X2.032000*%
%TD*%
%TA.AperFunction,ComponentPad*%
%ADD11O,1.778000X2.032000*%
%TD*%
%TA.AperFunction,ComponentPad*%
%ADD12O,1.524000X1.778000*%
%TD*%
%TA.AperFunction,ComponentPad*%
%ADD13C,1.778000*%
%TD*%
%TA.AperFunction,ComponentPad*%
%ADD14O,1.651000X1.244600*%
%TD*%
%TA.AperFunction,ComponentPad*%
%ADD15R,2.794000X2.794000*%
%TD*%
%TA.AperFunction,ComponentPad*%
%ADD16R,1.371600X1.651000*%
%TD*%
%TA.AperFunction,ComponentPad*%
%ADD17O,1.371600X1.651000*%
%TD*%
%TA.AperFunction,ComponentPad*%
%ADD18O,1.778000X1.524000*%
%TD*%
%TA.AperFunction,ComponentPad*%
%ADD19R,1.905000X1.905000*%
%TD*%
%TA.AperFunction,ComponentPad*%
%ADD20HorizOval,2.794000X-0.182111X0.260081X0.182111X-0.260081X0*%
%TD*%
%TA.AperFunction,ComponentPad*%
%ADD21HorizOval,2.794000X0.298352X0.108591X-0.298352X-0.108591X0*%
%TD*%
%TA.AperFunction,ComponentPad*%
%ADD22O,2.794000X3.429000*%
%TD*%
%TA.AperFunction,ComponentPad*%
%ADD23HorizOval,2.794000X-0.298352X0.108591X0.298352X-0.108591X0*%
%TD*%
%TA.AperFunction,ComponentPad*%
%ADD24HorizOval,2.794000X-0.182111X-0.260081X0.182111X0.260081X0*%
%TD*%
%TA.AperFunction,ComponentPad*%
%ADD25O,2.032000X2.540000*%
%TD*%
%TA.AperFunction,ComponentPad*%
%ADD26R,2.921000X4.064000*%
%TD*%
%TA.AperFunction,ViaPad*%
%ADD27C,0.600000*%
%TD*%
%TA.AperFunction,Conductor*%
%ADD28C,0.889000*%
%TD*%
%TA.AperFunction,Profile*%
%ADD29C,0.050000*%
%TD*%
G04 APERTURE END LIST*
D10*
%TO.P,J1,1,Pin_1*%
%TO.N,GND*%
X44326121Y-2786300D03*
D11*
%TO.P,J1,2,Pin_2*%
%TO.N,3V3*%
X41786121Y-2786300D03*
%TO.P,J1,3,Pin_3*%
%TO.N,OLED_SCL*%
X39246121Y-2786300D03*
%TO.P,J1,4,Pin_4*%
%TO.N,OLED_SDA*%
X36706121Y-2786300D03*
%TO.P,J1,5,Pin_5*%
%TO.N,OLED_RST*%
X34166121Y-2786300D03*
%TO.P,J1,6,Pin_6*%
%TO.N,OLED_D{slash}C*%
X31626121Y-2786300D03*
%TD*%
D12*
%TO.P,JP1,1,A*%
%TO.N,Net-(JP1-A)*%
X16034000Y-27500000D03*
%TO.P,JP1,2,B*%
%TO.N,Net-(JP1-B)*%
X18066001Y-27500000D03*
%TD*%
D13*
%TO.P,J4,1,1*%
%TO.N,GND*%
X59100000Y-2850000D03*
%TO.P,J4,2,2*%
%TO.N,V24in*%
X56600000Y-2850000D03*
%TD*%
D14*
%TO.P,J6,1,1*%
%TO.N,GND*%
X7020300Y-26317801D03*
%TO.P,J6,2,2*%
%TO.N,Net-(D4-A)*%
X7020300Y-24817799D03*
%TD*%
D15*
%TO.P,J5,1,Pin_1*%
%TO.N,Earth*%
X61350000Y-27125000D03*
%TD*%
%TO.P,J7,1,Pin_1*%
%TO.N,V24in*%
X55775000Y-4900000D03*
%TD*%
%TO.P,J13,1,Pin_1*%
%TO.N,Net-(J13-Pin_1)*%
X55775000Y-23800000D03*
%TD*%
%TO.P,J11,1,Pin_1*%
%TO.N,GND*%
X63775000Y-2050000D03*
%TD*%
D16*
%TO.P,LS1,1,1*%
%TO.N,3V3*%
X28425200Y-24068300D03*
D17*
%TO.P,LS1,2,2*%
%TO.N,Net-(U3-PA1)*%
X32425200Y-24068300D03*
%TD*%
D18*
%TO.P,JP2,1,A*%
%TO.N,/T12+*%
X59275000Y-18499999D03*
%TO.P,JP2,2,B*%
%TO.N,Net-(J13-Pin_1)*%
X59275000Y-20532000D03*
%TD*%
%TO.P,JP4,1,A*%
%TO.N,Net-(J8-P2)*%
X59225000Y-22709000D03*
%TO.P,JP4,2,B*%
%TO.N,Net-(JP1-B)*%
X59225000Y-24741001D03*
%TD*%
D15*
%TO.P,J9,1,Pin_1*%
%TO.N,Net-(J8-P1)*%
X51975000Y-25550000D03*
%TD*%
%TO.P,J10,1,Pin_1*%
%TO.N,GND*%
X60050000Y-4925000D03*
%TD*%
D19*
%TO.P,J2,1,Pin_1*%
%TO.N,SWD_CLK*%
X15215000Y-2585000D03*
D11*
%TO.P,J2,2,Pin_2*%
%TO.N,SWDIO*%
X17755000Y-2585000D03*
%TO.P,J2,3,Pin_3*%
%TO.N,GND*%
X20295000Y-2585000D03*
%TO.P,J2,4,Pin_4*%
%TO.N,3V3*%
X22835000Y-2585000D03*
%TD*%
D15*
%TO.P,J3,1,Pin_1*%
%TO.N,/T12+*%
X61425000Y-13825000D03*
%TD*%
D20*
%TO.P,J8,1,P1*%
%TO.N,Net-(J8-P1)*%
X67380770Y-15024068D03*
D21*
%TO.P,J8,2,P2*%
%TO.N,Net-(J8-P2)*%
X66272074Y-18453749D03*
D22*
%TO.P,J8,3,P3*%
%TO.N,Earth*%
X69165121Y-20543100D03*
D23*
%TO.P,J8,4,P3*%
%TO.N,GND*%
X72058168Y-18453749D03*
D24*
%TO.P,J8,5,P5*%
%TO.N,/T12+*%
X70949472Y-15024068D03*
%TD*%
D25*
%TO.P,SW1,1,1*%
%TO.N,ENC_PB*%
X9314400Y-6504000D03*
%TO.P,SW1,2,2*%
%TO.N,GND*%
X4314400Y-6504000D03*
%TO.P,SW1,3,A*%
%TO.N,ENC_B*%
X9314400Y-21003996D03*
%TO.P,SW1,4,B*%
%TO.N,GND*%
X6814400Y-21003996D03*
%TO.P,SW1,5,C*%
%TO.N,ENC_A*%
X4314400Y-21003996D03*
D26*
%TO.P,SW1,6,GND*%
%TO.N,GND*%
X12514401Y-13503999D03*
%TO.P,SW1,7,GND*%
X1114399Y-13503999D03*
%TD*%
D27*
%TO.N,GND*%
X61275000Y-2425000D03*
X38476000Y-11096000D03*
X2120000Y-10430000D03*
X39892000Y-16260000D03*
X9955000Y-13810000D03*
X11155000Y-5910000D03*
X38476000Y-10080000D03*
X32578750Y-6110000D03*
X32700000Y-14144000D03*
X24360000Y-14820000D03*
X70195000Y-11010000D03*
X37460000Y-10080000D03*
X27400000Y-12125000D03*
X34812000Y-16260000D03*
X25125000Y-2300000D03*
X38876000Y-16260000D03*
X31152500Y-6085000D03*
X35828000Y-16260000D03*
X13100000Y-5875000D03*
X33396000Y-10080000D03*
X37975000Y-6625000D03*
X36444000Y-10080000D03*
X46000000Y-2900000D03*
X3280000Y-3710000D03*
X21175000Y-4850000D03*
X38505000Y-23160000D03*
X25800000Y-22475000D03*
X10900000Y-16460000D03*
X34055000Y-23835000D03*
X72645000Y-22550000D03*
X48200000Y-22925000D03*
X41450000Y-6775000D03*
X70195000Y-5930000D03*
X23090000Y-12280000D03*
X4420000Y-8410000D03*
X38476000Y-15200000D03*
X33396000Y-12112000D03*
X37460000Y-14144000D03*
X31675000Y-14144000D03*
X5525000Y-15525000D03*
X52675000Y-18250000D03*
X34412000Y-10080000D03*
X54705000Y-825000D03*
X40561000Y-25075000D03*
X1910000Y-6220000D03*
X38476000Y-13128000D03*
X44575000Y-28300000D03*
X24360000Y-13550000D03*
X42593000Y-25075000D03*
X40908000Y-16260000D03*
X55000000Y-12450000D03*
X72735000Y-5930000D03*
X24360000Y-11010000D03*
X25075000Y-3825000D03*
X70105000Y-22550000D03*
X38476000Y-14144000D03*
X62575000Y-5930000D03*
X34005000Y-6110000D03*
X5080000Y-26935000D03*
X11005000Y-3385000D03*
X16805000Y-9260000D03*
X33396000Y-13128000D03*
X40125000Y-8025000D03*
X32380000Y-10080000D03*
X49575000Y-25375000D03*
X19400000Y-6450000D03*
X7655000Y-18960000D03*
X6630000Y-6260000D03*
X70105000Y-25090000D03*
X7280000Y-3710000D03*
X63500000Y-21000000D03*
X39975000Y-5600000D03*
X70195000Y-8470000D03*
X32700000Y-15200000D03*
X24360000Y-12280000D03*
X7950000Y-15525000D03*
X5525000Y-16950000D03*
X21820000Y-12280000D03*
X35428000Y-10080000D03*
X15680000Y-23985000D03*
X17420000Y-6440000D03*
X37860000Y-16260000D03*
X33796000Y-16260000D03*
X6130000Y-14185000D03*
X67565000Y-25090000D03*
X26380000Y-8810000D03*
X19280000Y-13550000D03*
X21820000Y-11010000D03*
X50130000Y-1060000D03*
X9905000Y-27860000D03*
X2255000Y-23060000D03*
X20550000Y-16090000D03*
X21250000Y-6400000D03*
X37460000Y-11096000D03*
X23090000Y-16090000D03*
X1350000Y-8380000D03*
X67655000Y-5930000D03*
X40025000Y-13550000D03*
X35855000Y-19510000D03*
X31155000Y-7135000D03*
X20550000Y-13550000D03*
X64100000Y-23500000D03*
X32780000Y-16260000D03*
X31880000Y-22085000D03*
X5100000Y-24150000D03*
X13105000Y-1385000D03*
X47150000Y-25375000D03*
X33880000Y-17735000D03*
X21820000Y-16090000D03*
X33396000Y-11096000D03*
X21820000Y-14820000D03*
X21820000Y-13550000D03*
X30330000Y-20410000D03*
X67655000Y-8470000D03*
X38888000Y-17140000D03*
X67655000Y-3390000D03*
X20550000Y-12280000D03*
X12980000Y-4585000D03*
X37460000Y-13128000D03*
X2500000Y-16390000D03*
X20550000Y-14820000D03*
X46000000Y-1000000D03*
X13555000Y-16835000D03*
X58100000Y-800000D03*
X34275000Y-21400000D03*
X36444000Y-11096000D03*
X32380000Y-11096000D03*
X19280000Y-16090000D03*
X32380000Y-13128000D03*
X23250000Y-24100000D03*
X62500000Y-21900000D03*
X35675000Y-22125000D03*
X18080000Y-24085000D03*
X36844000Y-16260000D03*
X37460000Y-15200000D03*
X28300000Y-6100000D03*
X24075000Y-4850000D03*
X27605000Y-17635000D03*
X44380000Y-16385000D03*
X22525000Y-5675000D03*
X40920000Y-17140000D03*
X23090000Y-14820000D03*
X11005000Y-7735000D03*
X19280000Y-11010000D03*
X48375000Y-28300000D03*
X44500000Y-4900000D03*
X34412000Y-12112000D03*
X30875000Y-13325000D03*
X35428000Y-11096000D03*
X32380000Y-12112000D03*
X31055000Y-25135000D03*
X65025000Y-22550000D03*
X1755000Y-20385000D03*
X36000000Y-6600000D03*
X11080000Y-22710000D03*
X44375000Y-15400000D03*
X15180000Y-26010000D03*
X25825000Y-24225000D03*
X49350000Y-12600000D03*
X29675000Y-13300000D03*
X44625000Y-25075000D03*
X62875000Y-24575000D03*
X39904000Y-17140000D03*
X6000000Y-18950000D03*
X29726250Y-6085000D03*
X61275000Y-800000D03*
X19280000Y-14820000D03*
X29030000Y-19060000D03*
X20550000Y-11010000D03*
X21155000Y-24035000D03*
X40775000Y-28300000D03*
X23005000Y-21735000D03*
X24360000Y-16090000D03*
X23090000Y-11010000D03*
X61350000Y-22950000D03*
X58550000Y-27350000D03*
X12680000Y-25885000D03*
X9605000Y-1360000D03*
X55975000Y-28300000D03*
X72735000Y-8470000D03*
X35955000Y-17735000D03*
X7905000Y-23110000D03*
X29580000Y-11150000D03*
X46650000Y-15400000D03*
X65115000Y-5930000D03*
X46655000Y-16385000D03*
X38476000Y-12112000D03*
X65025000Y-27630000D03*
X41800000Y-4500000D03*
X52175000Y-28300000D03*
X34230000Y-19535000D03*
X19280000Y-12280000D03*
X53025000Y-22700000D03*
X7950000Y-16950000D03*
X16275000Y-13550000D03*
X35428000Y-12112000D03*
X36444000Y-13128000D03*
X34412000Y-11096000D03*
X57000000Y-18225000D03*
X31675000Y-15200000D03*
X36444000Y-12112000D03*
X12855000Y-20685000D03*
X34412000Y-13128000D03*
X35428000Y-13128000D03*
X37460000Y-12112000D03*
X72735000Y-11010000D03*
X5930000Y-1910000D03*
X49575000Y-23875000D03*
X18055000Y-17610000D03*
X15655000Y-20760000D03*
X46000000Y-4500000D03*
X70195000Y-3390000D03*
X67565000Y-27630000D03*
X23090000Y-13550000D03*
X13705000Y-22560000D03*
%TO.N,3V3*%
X3605000Y-9560000D03*
X29270000Y-8630000D03*
X30250000Y-8650000D03*
X16880000Y-18410000D03*
X16680000Y-25835000D03*
X15005000Y-6535000D03*
X25730000Y-20585000D03*
X29205000Y-7510000D03*
X31210000Y-8690000D03*
%TD*%
D28*
%TO.N,3V3*%
X29220000Y-8690000D02*
X29270000Y-8630000D01*
X15005000Y-6535000D02*
X15005000Y-16460000D01*
X16905000Y-18360000D02*
X16905000Y-18385000D01*
X25730000Y-20585000D02*
X17430000Y-20585000D01*
X16905000Y-18435000D02*
X16905000Y-20060000D01*
X29205000Y-7510000D02*
X29205000Y-8625000D01*
X31210000Y-8690000D02*
X31350000Y-8690000D01*
X29180000Y-8650000D02*
X29220000Y-8690000D01*
X16905000Y-18385000D02*
X16880000Y-18410000D01*
X11980000Y-9560000D02*
X3605000Y-9560000D01*
X16905000Y-20060000D02*
X16905000Y-25610000D01*
X15980000Y-7510000D02*
X15005000Y-6535000D01*
X16880000Y-18410000D02*
X16905000Y-18435000D01*
X16905000Y-25610000D02*
X16680000Y-25835000D01*
X29205000Y-7510000D02*
X15980000Y-7510000D01*
X17430000Y-20585000D02*
X16905000Y-20060000D01*
X29270000Y-8630000D02*
X30250000Y-8650000D01*
X15005000Y-16460000D02*
X16905000Y-18360000D01*
X15005000Y-6535000D02*
X11980000Y-9560000D01*
X29205000Y-8625000D02*
X29180000Y-8650000D01*
X30250000Y-8650000D02*
X31210000Y-8690000D01*
%TD*%
%TA.AperFunction,Conductor*%
%TO.N,GND*%
G36*
X62170762Y-511106D02*
G01*
X62189068Y-555300D01*
X62186657Y-567451D01*
X62187791Y-567677D01*
X62174800Y-632985D01*
X62174800Y-1800000D01*
X63191235Y-1800000D01*
X63164403Y-1864777D01*
X63140000Y-1987458D01*
X63140000Y-2112542D01*
X63164403Y-2235223D01*
X63191235Y-2300000D01*
X62174800Y-2300000D01*
X62174800Y-3467014D01*
X62186589Y-3526284D01*
X62186590Y-3526286D01*
X62231501Y-3593498D01*
X62298713Y-3638409D01*
X62298715Y-3638410D01*
X62357985Y-3650199D01*
X62357986Y-3650200D01*
X63525000Y-3650200D01*
X63525000Y-2633765D01*
X63589777Y-2660597D01*
X63712458Y-2685000D01*
X63837542Y-2685000D01*
X63960223Y-2660597D01*
X64025000Y-2633765D01*
X64025000Y-3650200D01*
X65192014Y-3650200D01*
X65192014Y-3650199D01*
X65251284Y-3638410D01*
X65251286Y-3638409D01*
X65318498Y-3593498D01*
X65363409Y-3526286D01*
X65363410Y-3526284D01*
X65375199Y-3467014D01*
X65375200Y-3467014D01*
X65375200Y-2300000D01*
X64358765Y-2300000D01*
X64385597Y-2235223D01*
X64410000Y-2112542D01*
X64410000Y-1987458D01*
X64385597Y-1864777D01*
X64358765Y-1800000D01*
X65375200Y-1800000D01*
X65375200Y-632986D01*
X65375199Y-632985D01*
X65362209Y-567677D01*
X65365677Y-566986D01*
X65365713Y-531325D01*
X65399572Y-497534D01*
X65423432Y-492800D01*
X66002628Y-492800D01*
X66067440Y-492800D01*
X66069573Y-492835D01*
X66586926Y-510510D01*
X66591160Y-510801D01*
X67105015Y-563627D01*
X67109218Y-564205D01*
X67618291Y-651980D01*
X67622429Y-652839D01*
X68124321Y-775148D01*
X68128413Y-776294D01*
X68620789Y-932569D01*
X68624794Y-933992D01*
X69053118Y-1102903D01*
X69105330Y-1123493D01*
X69109244Y-1125193D01*
X69400483Y-1263701D01*
X69575726Y-1347043D01*
X69579511Y-1349004D01*
X69988360Y-1578889D01*
X70029785Y-1602181D01*
X70033431Y-1604399D01*
X70465349Y-1887695D01*
X70468836Y-1890156D01*
X70880431Y-2202279D01*
X70883741Y-2204972D01*
X71273073Y-2544453D01*
X71276192Y-2547366D01*
X71641447Y-2912622D01*
X71644360Y-2915741D01*
X71983848Y-3305084D01*
X71986523Y-3308370D01*
X72151771Y-3526284D01*
X72298654Y-3719979D01*
X72301115Y-3723466D01*
X72584411Y-4155385D01*
X72586629Y-4159031D01*
X72839802Y-4609301D01*
X72841765Y-4613090D01*
X73063616Y-5079577D01*
X73065316Y-5083492D01*
X73254808Y-5564011D01*
X73256238Y-5568032D01*
X73412508Y-6060397D01*
X73413659Y-6064506D01*
X73535959Y-6566372D01*
X73536827Y-6570551D01*
X73624594Y-7079587D01*
X73625175Y-7083814D01*
X73677999Y-7597647D01*
X73678291Y-7601905D01*
X73683891Y-7765824D01*
X73694599Y-8079300D01*
X73695985Y-8119848D01*
X73696021Y-8121982D01*
X73696021Y-21073219D01*
X73695985Y-21075353D01*
X73678312Y-21592696D01*
X73678020Y-21596954D01*
X73625196Y-22110788D01*
X73624615Y-22115015D01*
X73536848Y-22624052D01*
X73535980Y-22628231D01*
X73413679Y-23130098D01*
X73412528Y-23134207D01*
X73256257Y-23626574D01*
X73254827Y-23630595D01*
X73065336Y-24111115D01*
X73063636Y-24115030D01*
X72841784Y-24581518D01*
X72839821Y-24585307D01*
X72586647Y-25035579D01*
X72584429Y-25039225D01*
X72301132Y-25471145D01*
X72298671Y-25474632D01*
X71986549Y-25886230D01*
X71983856Y-25889540D01*
X71644375Y-26278873D01*
X71641462Y-26281992D01*
X71276206Y-26647249D01*
X71273087Y-26650162D01*
X70883754Y-26989643D01*
X70880444Y-26992336D01*
X70468848Y-27304460D01*
X70465361Y-27306921D01*
X70033441Y-27590218D01*
X70029795Y-27592436D01*
X69579525Y-27845612D01*
X69575736Y-27847575D01*
X69109247Y-28069428D01*
X69105333Y-28071128D01*
X68743153Y-28213954D01*
X68624807Y-28260624D01*
X68620793Y-28262052D01*
X68128426Y-28418322D01*
X68124317Y-28419473D01*
X67622450Y-28541776D01*
X67618272Y-28542644D01*
X67109236Y-28630412D01*
X67105008Y-28630993D01*
X66591173Y-28683818D01*
X66586915Y-28684110D01*
X66070189Y-28701764D01*
X66068055Y-28701800D01*
X63097264Y-28701800D01*
X63053070Y-28683494D01*
X63034764Y-28639300D01*
X63040089Y-28614055D01*
X63049338Y-28593109D01*
X63052300Y-28567579D01*
X63052299Y-25682422D01*
X63049338Y-25656891D01*
X63003234Y-25552475D01*
X62922525Y-25471766D01*
X62818109Y-25425662D01*
X62818107Y-25425661D01*
X62792579Y-25422700D01*
X60297063Y-25422700D01*
X60252869Y-25404394D01*
X60234563Y-25360200D01*
X60245096Y-25325477D01*
X60250274Y-25317728D01*
X60297829Y-25246557D01*
X60378284Y-25052321D01*
X60419300Y-24846121D01*
X60419300Y-24635881D01*
X60378284Y-24429681D01*
X60297829Y-24235445D01*
X60181026Y-24060637D01*
X60032364Y-23911975D01*
X60009604Y-23896767D01*
X59857559Y-23795173D01*
X59827547Y-23782742D01*
X59793723Y-23748917D01*
X59793724Y-23701081D01*
X59827547Y-23667258D01*
X59857556Y-23654829D01*
X60032364Y-23538026D01*
X60181026Y-23389364D01*
X60297829Y-23214556D01*
X60378284Y-23020320D01*
X60419300Y-22814120D01*
X60419300Y-22603880D01*
X60378284Y-22397680D01*
X60297829Y-22203444D01*
X60181026Y-22028636D01*
X60032364Y-21879974D01*
X59925212Y-21808377D01*
X59857558Y-21763172D01*
X59857556Y-21763171D01*
X59666944Y-21684217D01*
X59633120Y-21650393D01*
X59633120Y-21602557D01*
X59666944Y-21568733D01*
X59678666Y-21565177D01*
X59713320Y-21558284D01*
X59907556Y-21477829D01*
X60082364Y-21361026D01*
X60231026Y-21212364D01*
X60347829Y-21037556D01*
X60428284Y-20843320D01*
X60469300Y-20637120D01*
X60469300Y-20426880D01*
X60428284Y-20220680D01*
X60347829Y-20026444D01*
X60231026Y-19851636D01*
X60082364Y-19702974D01*
X60082363Y-19702973D01*
X59907559Y-19586172D01*
X59877547Y-19573741D01*
X59843723Y-19539916D01*
X59843724Y-19492080D01*
X59877547Y-19458257D01*
X59907556Y-19445828D01*
X60082364Y-19329025D01*
X60231026Y-19180363D01*
X60347829Y-19005555D01*
X60428284Y-18811319D01*
X60469300Y-18605119D01*
X60469300Y-18599552D01*
X64268175Y-18599552D01*
X64287621Y-18821842D01*
X64287624Y-18821862D01*
X64335919Y-19039705D01*
X64335922Y-19039715D01*
X64412243Y-19249405D01*
X64412245Y-19249409D01*
X64515276Y-19447333D01*
X64515279Y-19447338D01*
X64515282Y-19447342D01*
X64643275Y-19630135D01*
X64643277Y-19630137D01*
X64794026Y-19794652D01*
X64794037Y-19794663D01*
X64842348Y-19835200D01*
X64964975Y-19938096D01*
X65153177Y-20057994D01*
X65355418Y-20152301D01*
X65355420Y-20152301D01*
X65355421Y-20152302D01*
X65568232Y-20219402D01*
X65568239Y-20219404D01*
X65627413Y-20229838D01*
X65787999Y-20258154D01*
X66010935Y-20267887D01*
X66233236Y-20248439D01*
X66364211Y-20219402D01*
X66451087Y-20200142D01*
X66451091Y-20200140D01*
X66451095Y-20200140D01*
X67257492Y-19906636D01*
X67400744Y-19832063D01*
X67448397Y-19827895D01*
X67485041Y-19858643D01*
X67491568Y-19895659D01*
X67462821Y-20114018D01*
X67462821Y-20972179D01*
X67491947Y-21193418D01*
X67491947Y-21193419D01*
X67549697Y-21408944D01*
X67549701Y-21408955D01*
X67549703Y-21408961D01*
X67578229Y-21477829D01*
X67635096Y-21615120D01*
X67635097Y-21615123D01*
X67720573Y-21763171D01*
X67746673Y-21808377D01*
X67882518Y-21985413D01*
X68040308Y-22143203D01*
X68217344Y-22279048D01*
X68410597Y-22390623D01*
X68616760Y-22476018D01*
X68616768Y-22476020D01*
X68616776Y-22476023D01*
X68832301Y-22533773D01*
X68832303Y-22533773D01*
X68832306Y-22533774D01*
X69053546Y-22562900D01*
X69053552Y-22562900D01*
X69276690Y-22562900D01*
X69276696Y-22562900D01*
X69497936Y-22533774D01*
X69497940Y-22533773D01*
X69713465Y-22476023D01*
X69713469Y-22476021D01*
X69713482Y-22476018D01*
X69919645Y-22390623D01*
X70112898Y-22279048D01*
X70289934Y-22143203D01*
X70447724Y-21985413D01*
X70583569Y-21808377D01*
X70695144Y-21615124D01*
X70780539Y-21408961D01*
X70780587Y-21408785D01*
X70838294Y-21193419D01*
X70838294Y-21193418D01*
X70838295Y-21193415D01*
X70867421Y-20972175D01*
X70867421Y-20114025D01*
X70838295Y-19892785D01*
X70837342Y-19889227D01*
X70780544Y-19677255D01*
X70780540Y-19677244D01*
X70780539Y-19677239D01*
X70695144Y-19471076D01*
X70583569Y-19277823D01*
X70447724Y-19100787D01*
X70289934Y-18942997D01*
X70112898Y-18807152D01*
X69956997Y-18717142D01*
X69919644Y-18695576D01*
X69919641Y-18695575D01*
X69782403Y-18638730D01*
X69748578Y-18604905D01*
X69748577Y-18557070D01*
X69773416Y-18527849D01*
X69892976Y-18453822D01*
X70057189Y-18304122D01*
X70191099Y-18126796D01*
X70290145Y-17927884D01*
X70350955Y-17714160D01*
X70350956Y-17714152D01*
X70371458Y-17492904D01*
X70371458Y-17492895D01*
X70350956Y-17271647D01*
X70350954Y-17271636D01*
X70341115Y-17237057D01*
X70290145Y-17057916D01*
X70272427Y-17022335D01*
X70269116Y-16974615D01*
X70300517Y-16938529D01*
X70341903Y-16933459D01*
X70507839Y-16970246D01*
X70507844Y-16970247D01*
X70730145Y-16989696D01*
X70953082Y-16979962D01*
X71172840Y-16941213D01*
X71172847Y-16941211D01*
X71233938Y-16921949D01*
X71385662Y-16874111D01*
X71385664Y-16874110D01*
X71587894Y-16779810D01*
X71587902Y-16779806D01*
X71587904Y-16779805D01*
X71776106Y-16659907D01*
X71947049Y-16516469D01*
X72097806Y-16351946D01*
X72590022Y-15648990D01*
X72693061Y-15451055D01*
X72769383Y-15241363D01*
X72817681Y-15023504D01*
X72837130Y-14801203D01*
X72827396Y-14578266D01*
X72788647Y-14358508D01*
X72788647Y-14358507D01*
X72788645Y-14358500D01*
X72749339Y-14233840D01*
X72721545Y-14145686D01*
X72721544Y-14145683D01*
X72627244Y-13943453D01*
X72627240Y-13943445D01*
X72507342Y-13755244D01*
X72507341Y-13755242D01*
X72441734Y-13677055D01*
X72363908Y-13584304D01*
X72363897Y-13584293D01*
X72199382Y-13433544D01*
X72199383Y-13433544D01*
X72016591Y-13305551D01*
X72016592Y-13305551D01*
X72016587Y-13305548D01*
X71945082Y-13268325D01*
X71818654Y-13202510D01*
X71818650Y-13202508D01*
X71608961Y-13126187D01*
X71608951Y-13126184D01*
X71391108Y-13077889D01*
X71391087Y-13077886D01*
X71168803Y-13058439D01*
X71031996Y-13064413D01*
X70945862Y-13068174D01*
X70945858Y-13068174D01*
X70945851Y-13068175D01*
X70726103Y-13106922D01*
X70726096Y-13106924D01*
X70513280Y-13174025D01*
X70513279Y-13174025D01*
X70311049Y-13268325D01*
X70311041Y-13268329D01*
X70122840Y-13388227D01*
X69951900Y-13531661D01*
X69951889Y-13531672D01*
X69801140Y-13696187D01*
X69308925Y-14399139D01*
X69220559Y-14568888D01*
X69183915Y-14599635D01*
X69136261Y-14595466D01*
X69109683Y-14568888D01*
X69021316Y-14399139D01*
X68735890Y-13991510D01*
X68529104Y-13696190D01*
X68378347Y-13531667D01*
X68378341Y-13531661D01*
X68226256Y-13404048D01*
X68207404Y-13388229D01*
X68077626Y-13305551D01*
X68019200Y-13268329D01*
X68019192Y-13268325D01*
X67816962Y-13174025D01*
X67604145Y-13106924D01*
X67604138Y-13106922D01*
X67384390Y-13068175D01*
X67384384Y-13068174D01*
X67384380Y-13068174D01*
X67161443Y-13058440D01*
X66939150Y-13077887D01*
X66721279Y-13126187D01*
X66511593Y-13202508D01*
X66511586Y-13202511D01*
X66313649Y-13305551D01*
X66130859Y-13433544D01*
X65966344Y-13584293D01*
X65966333Y-13584304D01*
X65822899Y-13755244D01*
X65703001Y-13943445D01*
X65702997Y-13943453D01*
X65608697Y-14145683D01*
X65608697Y-14145684D01*
X65541596Y-14358500D01*
X65541594Y-14358507D01*
X65502847Y-14578255D01*
X65502846Y-14578262D01*
X65502846Y-14578266D01*
X65497135Y-14709073D01*
X65493112Y-14801202D01*
X65512559Y-15023495D01*
X65560859Y-15241366D01*
X65637180Y-15451052D01*
X65637183Y-15451059D01*
X65740223Y-15648996D01*
X65961687Y-15965277D01*
X66232436Y-16351946D01*
X66232438Y-16351948D01*
X66383187Y-16516463D01*
X66383190Y-16516465D01*
X66383193Y-16516469D01*
X66383198Y-16516473D01*
X66414667Y-16542879D01*
X66436755Y-16585309D01*
X66422371Y-16630931D01*
X66379941Y-16653019D01*
X66310913Y-16659058D01*
X66093060Y-16707355D01*
X66093049Y-16707358D01*
X65286656Y-17000862D01*
X65286652Y-17000863D01*
X65088728Y-17103894D01*
X65088723Y-17103897D01*
X64905924Y-17231895D01*
X64741409Y-17382644D01*
X64741398Y-17382655D01*
X64597964Y-17553595D01*
X64478070Y-17741791D01*
X64478069Y-17741792D01*
X64383759Y-17944039D01*
X64316659Y-18156850D01*
X64316657Y-18156857D01*
X64277909Y-18376606D01*
X64277908Y-18376613D01*
X64277908Y-18376617D01*
X64271353Y-18526756D01*
X64268175Y-18599552D01*
X60469300Y-18599552D01*
X60469300Y-18394879D01*
X60428284Y-18188679D01*
X60347829Y-17994443D01*
X60231026Y-17819635D01*
X60082364Y-17670973D01*
X59944431Y-17578809D01*
X59907558Y-17554171D01*
X59907556Y-17554170D01*
X59713318Y-17473714D01*
X59507120Y-17432699D01*
X59042880Y-17432699D01*
X58836681Y-17473714D01*
X58836680Y-17473714D01*
X58642443Y-17554170D01*
X58642441Y-17554171D01*
X58467636Y-17670972D01*
X58318973Y-17819635D01*
X58202172Y-17994440D01*
X58202171Y-17994442D01*
X58121715Y-18188679D01*
X58121715Y-18188680D01*
X58080700Y-18394878D01*
X58080700Y-18605119D01*
X58121715Y-18811317D01*
X58121715Y-18811318D01*
X58202171Y-19005555D01*
X58202172Y-19005557D01*
X58318973Y-19180362D01*
X58467636Y-19329025D01*
X58642442Y-19445827D01*
X58642444Y-19445828D01*
X58672449Y-19458256D01*
X58706274Y-19492080D01*
X58706275Y-19539916D01*
X58672451Y-19573741D01*
X58642443Y-19586171D01*
X58642442Y-19586172D01*
X58467636Y-19702973D01*
X58318973Y-19851636D01*
X58202172Y-20026441D01*
X58202171Y-20026443D01*
X58121715Y-20220680D01*
X58121715Y-20220681D01*
X58080700Y-20426879D01*
X58080700Y-20637120D01*
X58121715Y-20843318D01*
X58121715Y-20843319D01*
X58202171Y-21037556D01*
X58202172Y-21037558D01*
X58306315Y-21193419D01*
X58318974Y-21212364D01*
X58467636Y-21361026D01*
X58642444Y-21477829D01*
X58833057Y-21556783D01*
X58866879Y-21590606D01*
X58866880Y-21638442D01*
X58833055Y-21672266D01*
X58821331Y-21675823D01*
X58786680Y-21682715D01*
X58592443Y-21763171D01*
X58592441Y-21763172D01*
X58417636Y-21879973D01*
X58268973Y-22028636D01*
X58152172Y-22203441D01*
X58152171Y-22203443D01*
X58071715Y-22397680D01*
X58071715Y-22397681D01*
X58030700Y-22603879D01*
X58030700Y-22814120D01*
X58071715Y-23020318D01*
X58071715Y-23020319D01*
X58152171Y-23214556D01*
X58152172Y-23214558D01*
X58268973Y-23389363D01*
X58417636Y-23538026D01*
X58592442Y-23654828D01*
X58592444Y-23654829D01*
X58622449Y-23667257D01*
X58656274Y-23701081D01*
X58656275Y-23748917D01*
X58622451Y-23782742D01*
X58592443Y-23795172D01*
X58592442Y-23795173D01*
X58417636Y-23911974D01*
X58268973Y-24060637D01*
X58152172Y-24235442D01*
X58152171Y-24235444D01*
X58071715Y-24429681D01*
X58071715Y-24429682D01*
X58030700Y-24635880D01*
X58030700Y-24846121D01*
X58071715Y-25052319D01*
X58071715Y-25052320D01*
X58152171Y-25246557D01*
X58152172Y-25246559D01*
X58268973Y-25421364D01*
X58268974Y-25421365D01*
X58417636Y-25570027D01*
X58592444Y-25686830D01*
X58786680Y-25767285D01*
X58992880Y-25808301D01*
X59457119Y-25808301D01*
X59457120Y-25808301D01*
X59573007Y-25785249D01*
X59619923Y-25794581D01*
X59646499Y-25834354D01*
X59647700Y-25846548D01*
X59647700Y-28567578D01*
X59650662Y-28593109D01*
X59650663Y-28593113D01*
X59659910Y-28614054D01*
X59661016Y-28661877D01*
X59627982Y-28696474D01*
X59602736Y-28701800D01*
X18574401Y-28701800D01*
X18530207Y-28683494D01*
X18511901Y-28639300D01*
X18530207Y-28595106D01*
X18550483Y-28581558D01*
X18571557Y-28572829D01*
X18746365Y-28456026D01*
X18895027Y-28307364D01*
X19011830Y-28132556D01*
X19092285Y-27938320D01*
X19133301Y-27732120D01*
X19133301Y-27267880D01*
X19092285Y-27061680D01*
X19011830Y-26867444D01*
X18895027Y-26692636D01*
X18746365Y-26543974D01*
X18746364Y-26543973D01*
X18571559Y-26427172D01*
X18571557Y-26427171D01*
X18377319Y-26346715D01*
X18171121Y-26305700D01*
X17960881Y-26305700D01*
X17754682Y-26346715D01*
X17754681Y-26346715D01*
X17560444Y-26427171D01*
X17560442Y-26427172D01*
X17385637Y-26543973D01*
X17236974Y-26692636D01*
X17120173Y-26867442D01*
X17120172Y-26867443D01*
X17107742Y-26897451D01*
X17073916Y-26931275D01*
X17026081Y-26931274D01*
X16992257Y-26897449D01*
X16979829Y-26867444D01*
X16979828Y-26867442D01*
X16863026Y-26692636D01*
X16837648Y-26667258D01*
X16819342Y-26623064D01*
X16837648Y-26578870D01*
X16869649Y-26561765D01*
X16898708Y-26555986D01*
X17035163Y-26499465D01*
X17157970Y-26417408D01*
X17487408Y-26087970D01*
X17569465Y-25965164D01*
X17618597Y-25846548D01*
X17625985Y-25828711D01*
X17625985Y-25828710D01*
X17625986Y-25828708D01*
X17654800Y-25683849D01*
X17654800Y-25536151D01*
X17654800Y-23197221D01*
X27434100Y-23197221D01*
X27434100Y-24939378D01*
X27437062Y-24964909D01*
X27437062Y-24964910D01*
X27457419Y-25011014D01*
X27483166Y-25069325D01*
X27563875Y-25150034D01*
X27668291Y-25196138D01*
X27693821Y-25199100D01*
X29156578Y-25199099D01*
X29182109Y-25196138D01*
X29286525Y-25150034D01*
X29367234Y-25069325D01*
X29413338Y-24964909D01*
X29416300Y-24939379D01*
X29416299Y-23830984D01*
X31434100Y-23830984D01*
X31434100Y-24305615D01*
X31472187Y-24497093D01*
X31472189Y-24497101D01*
X31546898Y-24677462D01*
X31546899Y-24677464D01*
X31655361Y-24839789D01*
X31655362Y-24839790D01*
X31793410Y-24977838D01*
X31955738Y-25086302D01*
X32036161Y-25119614D01*
X32136098Y-25161010D01*
X32136102Y-25161011D01*
X32136107Y-25161013D01*
X32327585Y-25199100D01*
X32522815Y-25199100D01*
X32714293Y-25161013D01*
X32714299Y-25161010D01*
X32714301Y-25161010D01*
X32757369Y-25143170D01*
X32894662Y-25086302D01*
X33056990Y-24977838D01*
X33195038Y-24839790D01*
X33303502Y-24677462D01*
X33378213Y-24497093D01*
X33416300Y-24305615D01*
X33416300Y-24107421D01*
X50272700Y-24107421D01*
X50272700Y-26992578D01*
X50275662Y-27018107D01*
X50275662Y-27018109D01*
X50321766Y-27122525D01*
X50402475Y-27203234D01*
X50506891Y-27249338D01*
X50532421Y-27252300D01*
X53417578Y-27252299D01*
X53443109Y-27249338D01*
X53547525Y-27203234D01*
X53628234Y-27122525D01*
X53674338Y-27018109D01*
X53677300Y-26992579D01*
X53677299Y-24107422D01*
X53674338Y-24081891D01*
X53628234Y-23977475D01*
X53547525Y-23896766D01*
X53443109Y-23850662D01*
X53443107Y-23850661D01*
X53420928Y-23848088D01*
X53417579Y-23847700D01*
X53417578Y-23847700D01*
X50532421Y-23847700D01*
X50506890Y-23850662D01*
X50506889Y-23850662D01*
X50402473Y-23896767D01*
X50321767Y-23977473D01*
X50275661Y-24081892D01*
X50272700Y-24107421D01*
X33416300Y-24107421D01*
X33416300Y-23830985D01*
X33378213Y-23639507D01*
X33378211Y-23639502D01*
X33378210Y-23639498D01*
X33336178Y-23538026D01*
X33303502Y-23459138D01*
X33195038Y-23296810D01*
X33056990Y-23158762D01*
X33056989Y-23158761D01*
X32894664Y-23050299D01*
X32894662Y-23050298D01*
X32714301Y-22975589D01*
X32714293Y-22975587D01*
X32522815Y-22937500D01*
X32327585Y-22937500D01*
X32136106Y-22975587D01*
X32136098Y-22975589D01*
X31955737Y-23050298D01*
X31955735Y-23050299D01*
X31793410Y-23158761D01*
X31655361Y-23296810D01*
X31546899Y-23459135D01*
X31546898Y-23459137D01*
X31472189Y-23639498D01*
X31472187Y-23639506D01*
X31434100Y-23830984D01*
X29416299Y-23830984D01*
X29416299Y-23197222D01*
X29413338Y-23171691D01*
X29367234Y-23067275D01*
X29286525Y-22986566D01*
X29182109Y-22940462D01*
X29182107Y-22940461D01*
X29159928Y-22937888D01*
X29156579Y-22937500D01*
X29156578Y-22937500D01*
X27693821Y-22937500D01*
X27668290Y-22940462D01*
X27668289Y-22940462D01*
X27563873Y-22986567D01*
X27483167Y-23067273D01*
X27437061Y-23171692D01*
X27434100Y-23197221D01*
X17654800Y-23197221D01*
X17654800Y-22357421D01*
X54072700Y-22357421D01*
X54072700Y-25242578D01*
X54074395Y-25257184D01*
X54075662Y-25268109D01*
X54121766Y-25372525D01*
X54202475Y-25453234D01*
X54306891Y-25499338D01*
X54332421Y-25502300D01*
X57217578Y-25502299D01*
X57243109Y-25499338D01*
X57347525Y-25453234D01*
X57428234Y-25372525D01*
X57474338Y-25268109D01*
X57477300Y-25242579D01*
X57477299Y-22357422D01*
X57474338Y-22331891D01*
X57428234Y-22227475D01*
X57347525Y-22146766D01*
X57243109Y-22100662D01*
X57243107Y-22100661D01*
X57220928Y-22098088D01*
X57217579Y-22097700D01*
X57217578Y-22097700D01*
X54332421Y-22097700D01*
X54306890Y-22100662D01*
X54306889Y-22100662D01*
X54214681Y-22141376D01*
X54210545Y-22143203D01*
X54202473Y-22146767D01*
X54121767Y-22227473D01*
X54075661Y-22331892D01*
X54072700Y-22357421D01*
X17654800Y-22357421D01*
X17654800Y-21397300D01*
X17673106Y-21353106D01*
X17717300Y-21334800D01*
X25803849Y-21334800D01*
X25948709Y-21305986D01*
X26085164Y-21249464D01*
X26207970Y-21167408D01*
X26312408Y-21062970D01*
X26394464Y-20940164D01*
X26450986Y-20803709D01*
X26479800Y-20658849D01*
X26479800Y-20511151D01*
X26450986Y-20366291D01*
X26399832Y-20242795D01*
X26394465Y-20229838D01*
X26394462Y-20229833D01*
X26312408Y-20107030D01*
X26207969Y-20002591D01*
X26085166Y-19920537D01*
X26085161Y-19920534D01*
X25948710Y-19864014D01*
X25948707Y-19864013D01*
X25803849Y-19835200D01*
X17766466Y-19835200D01*
X17722272Y-19816894D01*
X17673106Y-19767728D01*
X17654800Y-19723534D01*
X17654800Y-18436946D01*
X17654801Y-18436925D01*
X17654801Y-18286151D01*
X17625986Y-18141292D01*
X17610845Y-18104739D01*
X17579820Y-18029837D01*
X17569465Y-18004837D01*
X17562519Y-17994442D01*
X17520817Y-17932030D01*
X17487408Y-17882030D01*
X17380792Y-17775414D01*
X17380781Y-17775404D01*
X15773106Y-16167728D01*
X15754800Y-16123534D01*
X15754800Y-12382421D01*
X59722700Y-12382421D01*
X59722700Y-15267578D01*
X59725662Y-15293107D01*
X59725662Y-15293109D01*
X59771766Y-15397525D01*
X59852475Y-15478234D01*
X59956891Y-15524338D01*
X59982421Y-15527300D01*
X62867578Y-15527299D01*
X62893109Y-15524338D01*
X62997525Y-15478234D01*
X63078234Y-15397525D01*
X63124338Y-15293109D01*
X63127300Y-15267579D01*
X63127299Y-12382422D01*
X63124338Y-12356891D01*
X63078234Y-12252475D01*
X62997525Y-12171766D01*
X62893109Y-12125662D01*
X62893107Y-12125661D01*
X62870928Y-12123088D01*
X62867579Y-12122700D01*
X62867578Y-12122700D01*
X59982421Y-12122700D01*
X59956890Y-12125662D01*
X59956889Y-12125662D01*
X59852473Y-12171767D01*
X59771767Y-12252473D01*
X59725661Y-12356892D01*
X59722700Y-12382421D01*
X15754800Y-12382421D01*
X15754800Y-8305851D01*
X15773106Y-8261657D01*
X15817300Y-8243351D01*
X15829492Y-8244551D01*
X15906151Y-8259800D01*
X28392700Y-8259800D01*
X28436894Y-8278106D01*
X28455200Y-8322300D01*
X28455200Y-8444310D01*
X28453999Y-8456503D01*
X28451058Y-8471292D01*
X28430200Y-8576151D01*
X28430200Y-8723849D01*
X28459014Y-8868708D01*
X28515535Y-9005163D01*
X28515536Y-9005164D01*
X28597591Y-9127969D01*
X28659430Y-9189808D01*
X28663845Y-9194716D01*
X28683254Y-9218732D01*
X28683258Y-9218736D01*
X28711683Y-9242423D01*
X28715866Y-9246243D01*
X28742031Y-9272408D01*
X28767706Y-9289563D01*
X28772994Y-9293516D01*
X28796717Y-9313285D01*
X28796722Y-9313289D01*
X28829224Y-9330977D01*
X28834067Y-9333905D01*
X28864833Y-9354463D01*
X28864837Y-9354465D01*
X28893369Y-9366283D01*
X28899328Y-9369129D01*
X28926453Y-9383891D01*
X28926458Y-9383892D01*
X28926459Y-9383893D01*
X28961777Y-9394896D01*
X28967105Y-9396825D01*
X28990415Y-9406480D01*
X29001292Y-9410986D01*
X29031582Y-9417011D01*
X29037973Y-9418637D01*
X29067465Y-9427826D01*
X29104263Y-9431729D01*
X29109837Y-9432577D01*
X29146152Y-9439801D01*
X29177043Y-9439801D01*
X29183636Y-9440150D01*
X29214337Y-9443407D01*
X29214337Y-9443406D01*
X29214338Y-9443407D01*
X29251177Y-9440057D01*
X29256835Y-9439801D01*
X29293850Y-9439801D01*
X29293850Y-9439800D01*
X29324156Y-9433771D01*
X29330652Y-9432832D01*
X29361429Y-9430035D01*
X29396926Y-9419557D01*
X29402411Y-9418205D01*
X29438708Y-9410986D01*
X29467244Y-9399165D01*
X29473453Y-9396969D01*
X29503085Y-9388224D01*
X29503087Y-9388222D01*
X29504926Y-9387680D01*
X29523890Y-9385137D01*
X30226087Y-9399467D01*
X30227365Y-9399507D01*
X31115882Y-9436528D01*
X31125466Y-9437674D01*
X31136151Y-9439800D01*
X31193087Y-9439800D01*
X31195689Y-9439854D01*
X31252569Y-9442224D01*
X31252569Y-9442223D01*
X31252570Y-9442224D01*
X31263330Y-9440545D01*
X31272960Y-9439800D01*
X31423849Y-9439800D01*
X31568709Y-9410986D01*
X31705164Y-9354464D01*
X31827970Y-9272408D01*
X31932408Y-9167970D01*
X32014464Y-9045164D01*
X32070986Y-8908709D01*
X32099800Y-8763849D01*
X32099800Y-8616151D01*
X32070986Y-8471291D01*
X32014464Y-8334836D01*
X31932408Y-8212030D01*
X31827970Y-8107592D01*
X31785625Y-8079298D01*
X31705166Y-8025537D01*
X31705161Y-8025534D01*
X31568710Y-7969014D01*
X31568707Y-7969013D01*
X31423849Y-7940200D01*
X31226929Y-7940200D01*
X31224327Y-7940146D01*
X30352455Y-7903818D01*
X30341621Y-7902411D01*
X30339132Y-7901863D01*
X30273916Y-7900531D01*
X30272592Y-7900490D01*
X30207428Y-7897775D01*
X30204912Y-7898168D01*
X30194011Y-7898901D01*
X30016025Y-7895268D01*
X29972213Y-7876064D01*
X29954800Y-7832781D01*
X29954800Y-7436151D01*
X29925986Y-7291291D01*
X29869464Y-7154836D01*
X29787408Y-7032030D01*
X29682970Y-6927592D01*
X29682969Y-6927591D01*
X29560166Y-6845537D01*
X29560161Y-6845534D01*
X29423710Y-6789014D01*
X29423707Y-6789013D01*
X29278849Y-6760200D01*
X16316466Y-6760200D01*
X16272272Y-6741894D01*
X15482969Y-5952591D01*
X15360164Y-5870536D01*
X15360163Y-5870535D01*
X15280231Y-5837425D01*
X15223709Y-5814014D01*
X15078849Y-5785200D01*
X14931151Y-5785200D01*
X14786290Y-5814014D01*
X14729769Y-5837425D01*
X14649836Y-5870535D01*
X14649835Y-5870536D01*
X14527030Y-5952591D01*
X14527028Y-5952593D01*
X11687728Y-8791894D01*
X11643534Y-8810200D01*
X3531151Y-8810200D01*
X3386292Y-8839013D01*
X3386289Y-8839014D01*
X3249838Y-8895534D01*
X3249833Y-8895537D01*
X3127030Y-8977591D01*
X3022591Y-9082030D01*
X2940537Y-9204833D01*
X2940534Y-9204838D01*
X2884014Y-9341289D01*
X2884013Y-9341292D01*
X2855200Y-9486150D01*
X2855200Y-9633849D01*
X2884013Y-9778707D01*
X2884014Y-9778710D01*
X2940534Y-9915161D01*
X2940537Y-9915166D01*
X3022591Y-10037969D01*
X3127030Y-10142408D01*
X3249833Y-10224462D01*
X3249838Y-10224465D01*
X3318063Y-10252725D01*
X3386291Y-10280986D01*
X3531151Y-10309800D01*
X12053849Y-10309800D01*
X12198709Y-10280986D01*
X12255230Y-10257574D01*
X12335163Y-10224465D01*
X12457970Y-10142408D01*
X14148506Y-8451872D01*
X14192700Y-8433566D01*
X14236894Y-8451872D01*
X14255200Y-8496066D01*
X14255200Y-11319710D01*
X14236894Y-11363904D01*
X14192700Y-11382210D01*
X14148506Y-11363904D01*
X14140734Y-11354434D01*
X14121400Y-11325500D01*
X14054187Y-11280589D01*
X14054185Y-11280588D01*
X13994915Y-11268799D01*
X12764401Y-11268799D01*
X12764401Y-12257764D01*
X12614352Y-12233999D01*
X12414450Y-12233999D01*
X12264401Y-12257764D01*
X12264401Y-11268799D01*
X11033887Y-11268799D01*
X10974616Y-11280588D01*
X10974614Y-11280589D01*
X10907402Y-11325500D01*
X10862491Y-11392712D01*
X10862490Y-11392714D01*
X10850701Y-11451984D01*
X10850701Y-13253999D01*
X11268167Y-13253999D01*
X11244401Y-13404048D01*
X11244401Y-13603950D01*
X11268167Y-13753999D01*
X10850701Y-13753999D01*
X10850701Y-15556013D01*
X10862490Y-15615283D01*
X10862491Y-15615285D01*
X10907402Y-15682497D01*
X10974614Y-15727408D01*
X10974616Y-15727409D01*
X11033886Y-15739198D01*
X11033887Y-15739199D01*
X12264401Y-15739199D01*
X12264401Y-14750233D01*
X12414450Y-14773999D01*
X12614352Y-14773999D01*
X12764401Y-14750233D01*
X12764401Y-15739199D01*
X13994915Y-15739199D01*
X13994915Y-15739198D01*
X14054185Y-15727409D01*
X14054187Y-15727408D01*
X14121399Y-15682497D01*
X14140733Y-15653564D01*
X14180507Y-15626988D01*
X14227423Y-15636320D01*
X14253999Y-15676094D01*
X14255200Y-15688287D01*
X14255200Y-16533849D01*
X14274510Y-16630931D01*
X14284014Y-16678709D01*
X14295880Y-16707355D01*
X14295881Y-16707358D01*
X14295881Y-16707362D01*
X14340531Y-16815156D01*
X14340535Y-16815164D01*
X14422591Y-16937969D01*
X14422593Y-16937971D01*
X16136894Y-18652271D01*
X16155200Y-18696465D01*
X16155200Y-25273534D01*
X16136894Y-25317728D01*
X16097593Y-25357028D01*
X16097591Y-25357030D01*
X16019013Y-25474632D01*
X16015535Y-25479837D01*
X15959014Y-25616292D01*
X15930200Y-25761151D01*
X15930200Y-25908849D01*
X15959014Y-26053708D01*
X15973205Y-26087969D01*
X16015535Y-26190164D01*
X16027772Y-26208477D01*
X16037104Y-26255393D01*
X16010528Y-26295167D01*
X15975805Y-26305700D01*
X15928880Y-26305700D01*
X15722681Y-26346715D01*
X15722680Y-26346715D01*
X15528443Y-26427171D01*
X15528441Y-26427172D01*
X15353636Y-26543973D01*
X15204973Y-26692636D01*
X15088172Y-26867441D01*
X15088171Y-26867443D01*
X15007715Y-27061680D01*
X15007715Y-27061681D01*
X14966700Y-27267879D01*
X14966700Y-27732120D01*
X15007715Y-27938318D01*
X15007715Y-27938319D01*
X15088171Y-28132556D01*
X15088172Y-28132558D01*
X15174690Y-28262041D01*
X15204974Y-28307364D01*
X15353636Y-28456026D01*
X15528444Y-28572829D01*
X15549518Y-28581558D01*
X15583343Y-28615383D01*
X15583342Y-28663218D01*
X15549517Y-28697043D01*
X15525600Y-28701800D01*
X8157600Y-28701800D01*
X8155466Y-28701764D01*
X7638121Y-28684092D01*
X7633864Y-28683800D01*
X7120032Y-28630978D01*
X7115804Y-28630397D01*
X6606765Y-28542630D01*
X6602586Y-28541762D01*
X6100718Y-28419462D01*
X6096609Y-28418311D01*
X5604242Y-28262041D01*
X5600221Y-28260611D01*
X5119701Y-28071120D01*
X5115786Y-28069420D01*
X4649297Y-27847569D01*
X4645508Y-27845606D01*
X4195236Y-27592432D01*
X4191590Y-27590214D01*
X3759670Y-27306918D01*
X3756183Y-27304457D01*
X3600875Y-27186684D01*
X3344572Y-26992324D01*
X3341286Y-26989650D01*
X2951941Y-26650160D01*
X2948822Y-26647247D01*
X2583565Y-26281991D01*
X2580652Y-26278872D01*
X2241171Y-25889539D01*
X2238478Y-25886229D01*
X1926354Y-25474632D01*
X1923893Y-25471145D01*
X1640596Y-25039225D01*
X1638378Y-25035579D01*
X1464555Y-24726437D01*
X5889500Y-24726437D01*
X5889500Y-24909160D01*
X5925146Y-25088368D01*
X5995070Y-25257179D01*
X5995073Y-25257184D01*
X6096585Y-25409108D01*
X6096586Y-25409109D01*
X6225790Y-25538313D01*
X6284473Y-25577524D01*
X6311049Y-25617296D01*
X6301717Y-25664213D01*
X6292744Y-25674120D01*
X6293046Y-25674422D01*
X6175893Y-25791574D01*
X6175891Y-25791576D01*
X6085553Y-25926776D01*
X6085552Y-25926779D01*
X6027138Y-26067800D01*
X6027139Y-26067801D01*
X6749446Y-26067801D01*
X6725587Y-26091660D01*
X6677099Y-26175643D01*
X6652000Y-26269313D01*
X6652000Y-26366289D01*
X6677099Y-26459959D01*
X6725587Y-26543942D01*
X6749446Y-26567801D01*
X6027138Y-26567801D01*
X6085552Y-26708822D01*
X6085553Y-26708825D01*
X6175891Y-26844025D01*
X6290875Y-26959009D01*
X6426075Y-27049347D01*
X6426078Y-27049348D01*
X6576312Y-27111577D01*
X6735794Y-27143300D01*
X6735795Y-27143301D01*
X6770300Y-27143301D01*
X6770300Y-26588655D01*
X6794159Y-26612514D01*
X6878142Y-26661002D01*
X6971812Y-26686101D01*
X7068788Y-26686101D01*
X7162458Y-26661002D01*
X7246441Y-26612514D01*
X7270300Y-26588655D01*
X7270300Y-27143301D01*
X7304805Y-27143301D01*
X7304805Y-27143300D01*
X7464287Y-27111577D01*
X7464288Y-27111577D01*
X7614521Y-27049348D01*
X7614524Y-27049347D01*
X7749724Y-26959009D01*
X7864708Y-26844025D01*
X7955046Y-26708825D01*
X7955047Y-26708822D01*
X8013461Y-26567801D01*
X7291154Y-26567801D01*
X7315013Y-26543942D01*
X7363501Y-26459959D01*
X7388600Y-26366289D01*
X7388600Y-26269313D01*
X7363501Y-26175643D01*
X7315013Y-26091660D01*
X7291154Y-26067801D01*
X8013461Y-26067801D01*
X8013461Y-26067800D01*
X7955047Y-25926779D01*
X7955046Y-25926776D01*
X7864708Y-25791576D01*
X7747554Y-25674422D01*
X7748750Y-25673225D01*
X7728649Y-25635607D01*
X7742541Y-25589834D01*
X7756124Y-25577525D01*
X7814810Y-25538313D01*
X7944014Y-25409109D01*
X8045528Y-25257182D01*
X8115453Y-25088370D01*
X8151100Y-24909160D01*
X8151100Y-24726438D01*
X8115453Y-24547228D01*
X8045528Y-24378416D01*
X7944014Y-24226489D01*
X7814810Y-24097285D01*
X7791773Y-24081892D01*
X7662885Y-23995772D01*
X7662880Y-23995769D01*
X7494069Y-23925845D01*
X7314861Y-23890199D01*
X6725739Y-23890199D01*
X6546530Y-23925845D01*
X6377719Y-23995769D01*
X6377714Y-23995772D01*
X6225790Y-24097284D01*
X6096585Y-24226489D01*
X5995073Y-24378413D01*
X5995070Y-24378418D01*
X5925146Y-24547229D01*
X5889500Y-24726437D01*
X1464555Y-24726437D01*
X1385202Y-24585308D01*
X1385201Y-24585307D01*
X1385200Y-24585304D01*
X1383239Y-24581519D01*
X1366931Y-24547229D01*
X1252025Y-24305615D01*
X1161387Y-24115030D01*
X1159687Y-24111116D01*
X1154232Y-24097284D01*
X970181Y-23630563D01*
X968771Y-23626599D01*
X812490Y-23134200D01*
X811342Y-23130099D01*
X796032Y-23067275D01*
X689041Y-22628231D01*
X688173Y-22624053D01*
X677629Y-22562899D01*
X600402Y-22114998D01*
X599825Y-22110799D01*
X547000Y-21596940D01*
X546710Y-21592712D01*
X529057Y-21075967D01*
X529021Y-21073833D01*
X529021Y-20646009D01*
X2993100Y-20646009D01*
X2993100Y-21361982D01*
X2993101Y-21361998D01*
X3025634Y-21567398D01*
X3025634Y-21567399D01*
X3089902Y-21765197D01*
X3089903Y-21765200D01*
X3111900Y-21808370D01*
X3184323Y-21950508D01*
X3184326Y-21950512D01*
X3306568Y-22118764D01*
X3306575Y-22118772D01*
X3453623Y-22265820D01*
X3453631Y-22265827D01*
X3621888Y-22388073D01*
X3807197Y-22482493D01*
X4004995Y-22546761D01*
X4091567Y-22560472D01*
X4210397Y-22579294D01*
X4210403Y-22579294D01*
X4210411Y-22579296D01*
X4210413Y-22579296D01*
X4418387Y-22579296D01*
X4418389Y-22579296D01*
X4623805Y-22546761D01*
X4821603Y-22482493D01*
X5006912Y-22388073D01*
X5175169Y-22265827D01*
X5322231Y-22118765D01*
X5444477Y-21950508D01*
X5538897Y-21765199D01*
X5558636Y-21704446D01*
X5589702Y-21668072D01*
X5637390Y-21664319D01*
X5673765Y-21695385D01*
X5677518Y-21704446D01*
X5684522Y-21726004D01*
X5684523Y-21726007D01*
X5771647Y-21896996D01*
X5884452Y-22052258D01*
X6020137Y-22187943D01*
X6175399Y-22300748D01*
X6346388Y-22387872D01*
X6346391Y-22387873D01*
X6528899Y-22447173D01*
X6528906Y-22447175D01*
X6564399Y-22452797D01*
X6564400Y-22452797D01*
X6564400Y-21587761D01*
X6629177Y-21614593D01*
X6751858Y-21638996D01*
X6876942Y-21638996D01*
X6999623Y-21614593D01*
X7064400Y-21587761D01*
X7064400Y-22452797D01*
X7099893Y-22447175D01*
X7099900Y-22447173D01*
X7282408Y-22387873D01*
X7282411Y-22387872D01*
X7453400Y-22300748D01*
X7608662Y-22187943D01*
X7744347Y-22052258D01*
X7857152Y-21896996D01*
X7944276Y-21726007D01*
X7944276Y-21726005D01*
X7951280Y-21704449D01*
X7982346Y-21668073D01*
X8030033Y-21664318D01*
X8066409Y-21695384D01*
X8070163Y-21704446D01*
X8089902Y-21765197D01*
X8089903Y-21765200D01*
X8111900Y-21808370D01*
X8184323Y-21950508D01*
X8184326Y-21950512D01*
X8306568Y-22118764D01*
X8306575Y-22118772D01*
X8453623Y-22265820D01*
X8453631Y-22265827D01*
X8621888Y-22388073D01*
X8807197Y-22482493D01*
X9004995Y-22546761D01*
X9091567Y-22560472D01*
X9210397Y-22579294D01*
X9210403Y-22579294D01*
X9210411Y-22579296D01*
X9210413Y-22579296D01*
X9418387Y-22579296D01*
X9418389Y-22579296D01*
X9623805Y-22546761D01*
X9821603Y-22482493D01*
X10006912Y-22388073D01*
X10175169Y-22265827D01*
X10322231Y-22118765D01*
X10444477Y-21950508D01*
X10538897Y-21765199D01*
X10603165Y-21567401D01*
X10635700Y-21361985D01*
X10635700Y-20646007D01*
X10634292Y-20637120D01*
X10614341Y-20511151D01*
X10603165Y-20440591D01*
X10538897Y-20242793D01*
X10444477Y-20057484D01*
X10322231Y-19889227D01*
X10322224Y-19889219D01*
X10175176Y-19742171D01*
X10175168Y-19742164D01*
X10006916Y-19619922D01*
X10006912Y-19619919D01*
X9849898Y-19539916D01*
X9821604Y-19525499D01*
X9821601Y-19525498D01*
X9623803Y-19461230D01*
X9418402Y-19428697D01*
X9418390Y-19428696D01*
X9418389Y-19428696D01*
X9210411Y-19428696D01*
X9210409Y-19428696D01*
X9210397Y-19428697D01*
X9004997Y-19461230D01*
X9004996Y-19461230D01*
X8807198Y-19525498D01*
X8807195Y-19525499D01*
X8712517Y-19573741D01*
X8621888Y-19619919D01*
X8621885Y-19619920D01*
X8621883Y-19619922D01*
X8453631Y-19742164D01*
X8453623Y-19742171D01*
X8306575Y-19889219D01*
X8306568Y-19889227D01*
X8184326Y-20057479D01*
X8184324Y-20057481D01*
X8184323Y-20057484D01*
X8159078Y-20107030D01*
X8089903Y-20242791D01*
X8089902Y-20242795D01*
X8070163Y-20303545D01*
X8039096Y-20339919D01*
X7991408Y-20343672D01*
X7955034Y-20312605D01*
X7951281Y-20303543D01*
X7944279Y-20281994D01*
X7944276Y-20281984D01*
X7857152Y-20110995D01*
X7744347Y-19955733D01*
X7608662Y-19820048D01*
X7453400Y-19707243D01*
X7282411Y-19620119D01*
X7282408Y-19620118D01*
X7099902Y-19560818D01*
X7099887Y-19560815D01*
X7064400Y-19555193D01*
X7064400Y-20420230D01*
X6999623Y-20393399D01*
X6876942Y-20368996D01*
X6751858Y-20368996D01*
X6629177Y-20393399D01*
X6564400Y-20420230D01*
X6564400Y-19555194D01*
X6564399Y-19555193D01*
X6528912Y-19560815D01*
X6528897Y-19560818D01*
X6346391Y-19620118D01*
X6346388Y-19620119D01*
X6175399Y-19707243D01*
X6020137Y-19820048D01*
X5884452Y-19955733D01*
X5771647Y-20110995D01*
X5684523Y-20281984D01*
X5684522Y-20281988D01*
X5677518Y-20303545D01*
X5646451Y-20339919D01*
X5598763Y-20343672D01*
X5562389Y-20312605D01*
X5558636Y-20303544D01*
X5543887Y-20258152D01*
X5538897Y-20242793D01*
X5444477Y-20057484D01*
X5322231Y-19889227D01*
X5322224Y-19889219D01*
X5175176Y-19742171D01*
X5175168Y-19742164D01*
X5006916Y-19619922D01*
X5006912Y-19619919D01*
X4849898Y-19539916D01*
X4821604Y-19525499D01*
X4821601Y-19525498D01*
X4623803Y-19461230D01*
X4418402Y-19428697D01*
X4418390Y-19428696D01*
X4418389Y-19428696D01*
X4210411Y-19428696D01*
X4210409Y-19428696D01*
X4210397Y-19428697D01*
X4004997Y-19461230D01*
X4004996Y-19461230D01*
X3807198Y-19525498D01*
X3807195Y-19525499D01*
X3712517Y-19573741D01*
X3621888Y-19619919D01*
X3621885Y-19619920D01*
X3621883Y-19619922D01*
X3453631Y-19742164D01*
X3453623Y-19742171D01*
X3306575Y-19889219D01*
X3306568Y-19889227D01*
X3184326Y-20057479D01*
X3184324Y-20057481D01*
X3184323Y-20057484D01*
X3159078Y-20107030D01*
X3089903Y-20242791D01*
X3089902Y-20242794D01*
X3025634Y-20440592D01*
X3025634Y-20440593D01*
X2993101Y-20645993D01*
X2993100Y-20646009D01*
X529021Y-20646009D01*
X529021Y-15801699D01*
X547327Y-15757505D01*
X591521Y-15739199D01*
X864399Y-15739199D01*
X864399Y-14750233D01*
X1014448Y-14773999D01*
X1214350Y-14773999D01*
X1364399Y-14750233D01*
X1364399Y-15739199D01*
X2594913Y-15739199D01*
X2594913Y-15739198D01*
X2654183Y-15727409D01*
X2654185Y-15727408D01*
X2721397Y-15682497D01*
X2766308Y-15615285D01*
X2766309Y-15615283D01*
X2778098Y-15556013D01*
X2778099Y-15556013D01*
X2778099Y-13753999D01*
X2360633Y-13753999D01*
X2384399Y-13603950D01*
X2384399Y-13404048D01*
X2360633Y-13253999D01*
X2778099Y-13253999D01*
X2778099Y-11451985D01*
X2778098Y-11451984D01*
X2766309Y-11392714D01*
X2766308Y-11392712D01*
X2721397Y-11325500D01*
X2654185Y-11280589D01*
X2654183Y-11280588D01*
X2594913Y-11268799D01*
X1364399Y-11268799D01*
X1364399Y-12257764D01*
X1214350Y-12233999D01*
X1014448Y-12233999D01*
X864399Y-12257764D01*
X864399Y-11268799D01*
X591521Y-11268799D01*
X547327Y-11250493D01*
X529021Y-11206299D01*
X529021Y-8121380D01*
X529057Y-8119246D01*
X536954Y-7888073D01*
X546729Y-7601891D01*
X547021Y-7597647D01*
X562147Y-7450516D01*
X599847Y-7083791D01*
X600422Y-7079607D01*
X688194Y-6570545D01*
X689061Y-6566372D01*
X692263Y-6553232D01*
X789542Y-6154049D01*
X3095200Y-6154049D01*
X3095200Y-6254000D01*
X3730635Y-6254000D01*
X3703803Y-6318777D01*
X3679400Y-6441458D01*
X3679400Y-6566542D01*
X3703803Y-6689223D01*
X3730635Y-6754000D01*
X3095200Y-6754000D01*
X3095200Y-6853950D01*
X3095201Y-6853966D01*
X3125220Y-7043494D01*
X3125220Y-7043495D01*
X3184522Y-7226008D01*
X3184523Y-7226011D01*
X3271647Y-7397000D01*
X3384452Y-7552262D01*
X3520137Y-7687947D01*
X3675399Y-7800752D01*
X3846388Y-7887876D01*
X3846391Y-7887877D01*
X4028899Y-7947177D01*
X4028906Y-7947179D01*
X4064399Y-7952801D01*
X4064400Y-7952801D01*
X4064400Y-7087765D01*
X4129177Y-7114597D01*
X4251858Y-7139000D01*
X4376942Y-7139000D01*
X4499623Y-7114597D01*
X4564400Y-7087765D01*
X4564400Y-7952801D01*
X4599893Y-7947179D01*
X4599900Y-7947177D01*
X4782408Y-7887877D01*
X4782411Y-7887876D01*
X4953400Y-7800752D01*
X5108662Y-7687947D01*
X5244347Y-7552262D01*
X5357152Y-7397000D01*
X5444276Y-7226011D01*
X5444277Y-7226008D01*
X5503579Y-7043495D01*
X5503579Y-7043494D01*
X5533598Y-6853966D01*
X5533600Y-6853950D01*
X5533600Y-6754000D01*
X4898165Y-6754000D01*
X4924997Y-6689223D01*
X4949400Y-6566542D01*
X4949400Y-6441458D01*
X4924997Y-6318777D01*
X4898165Y-6254000D01*
X5533600Y-6254000D01*
X5533600Y-6154049D01*
X5533598Y-6154033D01*
X5532328Y-6146013D01*
X7993100Y-6146013D01*
X7993100Y-6861986D01*
X7993101Y-6862002D01*
X8025634Y-7067402D01*
X8025634Y-7067403D01*
X8089902Y-7265201D01*
X8089903Y-7265204D01*
X8103196Y-7291292D01*
X8184323Y-7450512D01*
X8184326Y-7450516D01*
X8306568Y-7618768D01*
X8306575Y-7618776D01*
X8453623Y-7765824D01*
X8453631Y-7765831D01*
X8621888Y-7888077D01*
X8807197Y-7982497D01*
X9004995Y-8046765D01*
X9052752Y-8054329D01*
X9210397Y-8079298D01*
X9210403Y-8079298D01*
X9210411Y-8079300D01*
X9210413Y-8079300D01*
X9418387Y-8079300D01*
X9418389Y-8079300D01*
X9623805Y-8046765D01*
X9821603Y-7982497D01*
X10006912Y-7888077D01*
X10175169Y-7765831D01*
X10322231Y-7618769D01*
X10444477Y-7450512D01*
X10538897Y-7265203D01*
X10603165Y-7067405D01*
X10635700Y-6861989D01*
X10635700Y-6146011D01*
X10603165Y-5940595D01*
X10538897Y-5742797D01*
X10444477Y-5557488D01*
X10322231Y-5389231D01*
X10322224Y-5389223D01*
X10175176Y-5242175D01*
X10175168Y-5242168D01*
X10006916Y-5119926D01*
X10006912Y-5119923D01*
X9879881Y-5055197D01*
X9821604Y-5025503D01*
X9821601Y-5025502D01*
X9623803Y-4961234D01*
X9418402Y-4928701D01*
X9418390Y-4928700D01*
X9418389Y-4928700D01*
X9210411Y-4928700D01*
X9210409Y-4928700D01*
X9210397Y-4928701D01*
X9004997Y-4961234D01*
X9004996Y-4961234D01*
X8807198Y-5025502D01*
X8807195Y-5025503D01*
X8678854Y-5090897D01*
X8621888Y-5119923D01*
X8621885Y-5119924D01*
X8621883Y-5119926D01*
X8453631Y-5242168D01*
X8453623Y-5242175D01*
X8306575Y-5389223D01*
X8306568Y-5389231D01*
X8184326Y-5557483D01*
X8184324Y-5557485D01*
X8184323Y-5557488D01*
X8179981Y-5566010D01*
X8089903Y-5742795D01*
X8089902Y-5742798D01*
X8025634Y-5940596D01*
X8025634Y-5940597D01*
X7993101Y-6145997D01*
X7993100Y-6146013D01*
X5532328Y-6146013D01*
X5503579Y-5964505D01*
X5503579Y-5964504D01*
X5444277Y-5781991D01*
X5444276Y-5781988D01*
X5357152Y-5610999D01*
X5244347Y-5455737D01*
X5108662Y-5320052D01*
X4953400Y-5207247D01*
X4782411Y-5120123D01*
X4782408Y-5120122D01*
X4599902Y-5060822D01*
X4599887Y-5060819D01*
X4564400Y-5055197D01*
X4564400Y-5920234D01*
X4499623Y-5893403D01*
X4376942Y-5869000D01*
X4251858Y-5869000D01*
X4129177Y-5893403D01*
X4064400Y-5920234D01*
X4064400Y-5055198D01*
X4064399Y-5055197D01*
X4028912Y-5060819D01*
X4028897Y-5060822D01*
X3846391Y-5120122D01*
X3846388Y-5120123D01*
X3675399Y-5207247D01*
X3520137Y-5320052D01*
X3384452Y-5455737D01*
X3271647Y-5610999D01*
X3184523Y-5781988D01*
X3184522Y-5781991D01*
X3125220Y-5964504D01*
X3125220Y-5964505D01*
X3095201Y-6154033D01*
X3095200Y-6154049D01*
X789542Y-6154049D01*
X811367Y-6064488D01*
X812514Y-6060397D01*
X968786Y-5568024D01*
X970214Y-5564010D01*
X971796Y-5560000D01*
X1159706Y-5083490D01*
X1161406Y-5079577D01*
X1161545Y-5079285D01*
X1383265Y-4613073D01*
X1385212Y-4609315D01*
X1638403Y-4159015D01*
X1640604Y-4155398D01*
X1923918Y-3723454D01*
X1926362Y-3719991D01*
X2238517Y-3308352D01*
X2241163Y-3305101D01*
X2580680Y-2915726D01*
X2583565Y-2912637D01*
X2948852Y-2547352D01*
X2951941Y-2544467D01*
X3341317Y-2204950D01*
X3344568Y-2202304D01*
X3756206Y-1890150D01*
X3759670Y-1887706D01*
X4191615Y-1604394D01*
X4195232Y-1602193D01*
X4222393Y-1586921D01*
X13957200Y-1586921D01*
X13957200Y-3583078D01*
X13960162Y-3608609D01*
X13960162Y-3608610D01*
X13978526Y-3650199D01*
X14006266Y-3713025D01*
X14086975Y-3793734D01*
X14191391Y-3839838D01*
X14216921Y-3842800D01*
X16213078Y-3842799D01*
X16238609Y-3839838D01*
X16343025Y-3793734D01*
X16423734Y-3713025D01*
X16469838Y-3608609D01*
X16472800Y-3583079D01*
X16472799Y-3025235D01*
X16491105Y-2981043D01*
X16535299Y-2962737D01*
X16579493Y-2981043D01*
X16594740Y-3005923D01*
X16648198Y-3170450D01*
X16648202Y-3170458D01*
X16733544Y-3337952D01*
X16844038Y-3490033D01*
X16844045Y-3490041D01*
X16976958Y-3622954D01*
X16976966Y-3622961D01*
X17115298Y-3723466D01*
X17129050Y-3733457D01*
X17296548Y-3818801D01*
X17475334Y-3876892D01*
X17553585Y-3889285D01*
X17660993Y-3906298D01*
X17660999Y-3906298D01*
X17661007Y-3906300D01*
X17661009Y-3906300D01*
X17848991Y-3906300D01*
X17848993Y-3906300D01*
X18034666Y-3876892D01*
X18213452Y-3818801D01*
X18380950Y-3733457D01*
X18533034Y-3622961D01*
X18665961Y-3490034D01*
X18776457Y-3337950D01*
X18861801Y-3170452D01*
X18919892Y-2991666D01*
X18949300Y-2805993D01*
X18949300Y-2364007D01*
X18944706Y-2334999D01*
X19208666Y-2334999D01*
X19208667Y-2335000D01*
X19861988Y-2335000D01*
X19829075Y-2392007D01*
X19795000Y-2519174D01*
X19795000Y-2650826D01*
X19829075Y-2777993D01*
X19861988Y-2835000D01*
X19208666Y-2835000D01*
X19229693Y-2967754D01*
X19229693Y-2967755D01*
X19282818Y-3131257D01*
X19282822Y-3131265D01*
X19360868Y-3284439D01*
X19461916Y-3423519D01*
X19461923Y-3423527D01*
X19583472Y-3545076D01*
X19583480Y-3545083D01*
X19722560Y-3646131D01*
X19875734Y-3724177D01*
X19875742Y-3724181D01*
X20039241Y-3777305D01*
X20039242Y-3777306D01*
X20045000Y-3778217D01*
X20045000Y-3018012D01*
X20102007Y-3050925D01*
X20229174Y-3085000D01*
X20360826Y-3085000D01*
X20487993Y-3050925D01*
X20545000Y-3018012D01*
X20545000Y-3778216D01*
X20550757Y-3777306D01*
X20550758Y-3777305D01*
X20714257Y-3724181D01*
X20714265Y-3724177D01*
X20867439Y-3646131D01*
X21006519Y-3545083D01*
X21006527Y-3545076D01*
X21128076Y-3423527D01*
X21128083Y-3423519D01*
X21229131Y-3284439D01*
X21307177Y-3131265D01*
X21307181Y-3131257D01*
X21360306Y-2967755D01*
X21360306Y-2967754D01*
X21381333Y-2835000D01*
X20728012Y-2835000D01*
X20760925Y-2777993D01*
X20795000Y-2650826D01*
X20795000Y-2519174D01*
X20760925Y-2392007D01*
X20744760Y-2364009D01*
X21640700Y-2364009D01*
X21640700Y-2805990D01*
X21640701Y-2806006D01*
X21670107Y-2991663D01*
X21670107Y-2991664D01*
X21728198Y-3170450D01*
X21728202Y-3170458D01*
X21813544Y-3337952D01*
X21924038Y-3490033D01*
X21924045Y-3490041D01*
X22056958Y-3622954D01*
X22056966Y-3622961D01*
X22195298Y-3723466D01*
X22209050Y-3733457D01*
X22376548Y-3818801D01*
X22555334Y-3876892D01*
X22633585Y-3889285D01*
X22740993Y-3906298D01*
X22740999Y-3906298D01*
X22741007Y-3906300D01*
X22741009Y-3906300D01*
X22928991Y-3906300D01*
X22928993Y-3906300D01*
X23114666Y-3876892D01*
X23293452Y-3818801D01*
X23460950Y-3733457D01*
X23613034Y-3622961D01*
X23745961Y-3490034D01*
X23856457Y-3337950D01*
X23941801Y-3170452D01*
X23999892Y-2991666D01*
X24029300Y-2805993D01*
X24029300Y-2565309D01*
X30431821Y-2565309D01*
X30431821Y-3007290D01*
X30431822Y-3007306D01*
X30461228Y-3192963D01*
X30461228Y-3192964D01*
X30519319Y-3371750D01*
X30519323Y-3371758D01*
X30604665Y-3539252D01*
X30715159Y-3691333D01*
X30715166Y-3691341D01*
X30848079Y-3824254D01*
X30848087Y-3824261D01*
X31000171Y-3934757D01*
X31167669Y-4020101D01*
X31346455Y-4078192D01*
X31424706Y-4090585D01*
X31532114Y-4107598D01*
X31532120Y-4107598D01*
X31532128Y-4107600D01*
X31532130Y-4107600D01*
X31720112Y-4107600D01*
X31720114Y-4107600D01*
X31905787Y-4078192D01*
X32084573Y-4020101D01*
X32252071Y-3934757D01*
X32404155Y-3824261D01*
X32537082Y-3691334D01*
X32647578Y-3539250D01*
X32732922Y-3371752D01*
X32791013Y-3192966D01*
X32820421Y-3007293D01*
X32820421Y-2565309D01*
X32971821Y-2565309D01*
X32971821Y-3007290D01*
X32971822Y-3007306D01*
X33001228Y-3192963D01*
X33001228Y-3192964D01*
X33059319Y-3371750D01*
X33059323Y-3371758D01*
X33144665Y-3539252D01*
X33255159Y-3691333D01*
X33255166Y-3691341D01*
X33388079Y-3824254D01*
X33388087Y-3824261D01*
X33540171Y-3934757D01*
X33707669Y-4020101D01*
X33886455Y-4078192D01*
X33964706Y-4090585D01*
X34072114Y-4107598D01*
X34072120Y-4107598D01*
X34072128Y-4107600D01*
X34072130Y-4107600D01*
X34260112Y-4107600D01*
X34260114Y-4107600D01*
X34445787Y-4078192D01*
X34624573Y-4020101D01*
X34792071Y-3934757D01*
X34944155Y-3824261D01*
X35077082Y-3691334D01*
X35187578Y-3539250D01*
X35272922Y-3371752D01*
X35331013Y-3192966D01*
X35360421Y-3007293D01*
X35360421Y-2565309D01*
X35511821Y-2565309D01*
X35511821Y-3007290D01*
X35511822Y-3007306D01*
X35541228Y-3192963D01*
X35541228Y-3192964D01*
X35599319Y-3371750D01*
X35599323Y-3371758D01*
X35684665Y-3539252D01*
X35795159Y-3691333D01*
X35795166Y-3691341D01*
X35928079Y-3824254D01*
X35928087Y-3824261D01*
X36080171Y-3934757D01*
X36247669Y-4020101D01*
X36426455Y-4078192D01*
X36504706Y-4090585D01*
X36612114Y-4107598D01*
X36612120Y-4107598D01*
X36612128Y-4107600D01*
X36612130Y-4107600D01*
X36800112Y-4107600D01*
X36800114Y-4107600D01*
X36985787Y-4078192D01*
X37164573Y-4020101D01*
X37332071Y-3934757D01*
X37484155Y-3824261D01*
X37617082Y-3691334D01*
X37727578Y-3539250D01*
X37812922Y-3371752D01*
X37871013Y-3192966D01*
X37900421Y-3007293D01*
X37900421Y-2565309D01*
X38051821Y-2565309D01*
X38051821Y-3007290D01*
X38051822Y-3007306D01*
X38081228Y-3192963D01*
X38081228Y-3192964D01*
X38139319Y-3371750D01*
X38139323Y-3371758D01*
X38224665Y-3539252D01*
X38335159Y-3691333D01*
X38335166Y-3691341D01*
X38468079Y-3824254D01*
X38468087Y-3824261D01*
X38620171Y-3934757D01*
X38787669Y-4020101D01*
X38966455Y-4078192D01*
X39044706Y-4090585D01*
X39152114Y-4107598D01*
X39152120Y-4107598D01*
X39152128Y-4107600D01*
X39152130Y-4107600D01*
X39340112Y-4107600D01*
X39340114Y-4107600D01*
X39525787Y-4078192D01*
X39704573Y-4020101D01*
X39872071Y-3934757D01*
X40024155Y-3824261D01*
X40157082Y-3691334D01*
X40267578Y-3539250D01*
X40352922Y-3371752D01*
X40411013Y-3192966D01*
X40440421Y-3007293D01*
X40440421Y-2565309D01*
X40591821Y-2565309D01*
X40591821Y-3007290D01*
X40591822Y-3007306D01*
X40621228Y-3192963D01*
X40621228Y-3192964D01*
X40679319Y-3371750D01*
X40679323Y-3371758D01*
X40764665Y-3539252D01*
X40875159Y-3691333D01*
X40875166Y-3691341D01*
X41008079Y-3824254D01*
X41008087Y-3824261D01*
X41160171Y-3934757D01*
X41327669Y-4020101D01*
X41506455Y-4078192D01*
X41584706Y-4090585D01*
X41692114Y-4107598D01*
X41692120Y-4107598D01*
X41692128Y-4107600D01*
X41692130Y-4107600D01*
X41880112Y-4107600D01*
X41880114Y-4107600D01*
X42065787Y-4078192D01*
X42244573Y-4020101D01*
X42412071Y-3934757D01*
X42564155Y-3824261D01*
X42697082Y-3691334D01*
X42807578Y-3539250D01*
X42892922Y-3371752D01*
X42951013Y-3192966D01*
X42980421Y-3007293D01*
X42980421Y-2565307D01*
X42977579Y-2547366D01*
X42956887Y-2416720D01*
X42951013Y-2379634D01*
X42892922Y-2200848D01*
X42807578Y-2033350D01*
X42697082Y-1881266D01*
X42697075Y-1881258D01*
X42566102Y-1750285D01*
X43233921Y-1750285D01*
X43233921Y-2536300D01*
X43893109Y-2536300D01*
X43860196Y-2593307D01*
X43826121Y-2720474D01*
X43826121Y-2852126D01*
X43860196Y-2979293D01*
X43893109Y-3036300D01*
X43233921Y-3036300D01*
X43233921Y-3822314D01*
X43245710Y-3881584D01*
X43245711Y-3881586D01*
X43290622Y-3948798D01*
X43357834Y-3993709D01*
X43357836Y-3993710D01*
X43417106Y-4005499D01*
X43417107Y-4005500D01*
X44076121Y-4005500D01*
X44076121Y-3219312D01*
X44133128Y-3252225D01*
X44260295Y-3286300D01*
X44391947Y-3286300D01*
X44519114Y-3252225D01*
X44576121Y-3219312D01*
X44576121Y-4005500D01*
X45235135Y-4005500D01*
X45235135Y-4005499D01*
X45294405Y-3993710D01*
X45294407Y-3993709D01*
X45361619Y-3948798D01*
X45406530Y-3881586D01*
X45406531Y-3881584D01*
X45418320Y-3822314D01*
X45418321Y-3822314D01*
X45418321Y-3457421D01*
X54072700Y-3457421D01*
X54072700Y-6342578D01*
X54075662Y-6368107D01*
X54075662Y-6368109D01*
X54121766Y-6472525D01*
X54202475Y-6553234D01*
X54306891Y-6599338D01*
X54332421Y-6602300D01*
X57217578Y-6602299D01*
X57243109Y-6599338D01*
X57347525Y-6553234D01*
X57428234Y-6472525D01*
X57474338Y-6368109D01*
X57477300Y-6342579D01*
X57477299Y-3691011D01*
X57489922Y-3653348D01*
X57619764Y-3481411D01*
X57718422Y-3283279D01*
X57778994Y-3070392D01*
X57786289Y-2991663D01*
X57799416Y-2850004D01*
X57799416Y-2849996D01*
X58003121Y-2849996D01*
X58003121Y-2850003D01*
X58021795Y-3051543D01*
X58021797Y-3051554D01*
X58077191Y-3246238D01*
X58167417Y-3427436D01*
X58167419Y-3427439D01*
X58168103Y-3428343D01*
X58620874Y-2975572D01*
X58638454Y-3041179D01*
X58703661Y-3154121D01*
X58795879Y-3246339D01*
X58908821Y-3311546D01*
X58974427Y-3329125D01*
X58518263Y-3785289D01*
X58474069Y-3803595D01*
X58463889Y-3799378D01*
X58449800Y-3805214D01*
X58449800Y-4675000D01*
X59466235Y-4675000D01*
X59439403Y-4739777D01*
X59415000Y-4862458D01*
X59415000Y-4987542D01*
X59439403Y-5110223D01*
X59466235Y-5175000D01*
X58449800Y-5175000D01*
X58449800Y-6342014D01*
X58461589Y-6401284D01*
X58461590Y-6401286D01*
X58506501Y-6468498D01*
X58573713Y-6513409D01*
X58573715Y-6513410D01*
X58632985Y-6525199D01*
X58632986Y-6525200D01*
X59800000Y-6525200D01*
X59800000Y-5508765D01*
X59864777Y-5535597D01*
X59987458Y-5560000D01*
X60112542Y-5560000D01*
X60235223Y-5535597D01*
X60300000Y-5508765D01*
X60300000Y-6525200D01*
X61467014Y-6525200D01*
X61467014Y-6525199D01*
X61526284Y-6513410D01*
X61526286Y-6513409D01*
X61593498Y-6468498D01*
X61638409Y-6401286D01*
X61638410Y-6401284D01*
X61650199Y-6342014D01*
X61650200Y-6342014D01*
X61650200Y-5175000D01*
X60633765Y-5175000D01*
X60660597Y-5110223D01*
X60685000Y-4987542D01*
X60685000Y-4862458D01*
X60660597Y-4739777D01*
X60633765Y-4675000D01*
X61650200Y-4675000D01*
X61650200Y-3507986D01*
X61650199Y-3507985D01*
X61638410Y-3448715D01*
X61638409Y-3448713D01*
X61593498Y-3381501D01*
X61526286Y-3336590D01*
X61526284Y-3336589D01*
X61467014Y-3324800D01*
X60183219Y-3324800D01*
X60139025Y-3306494D01*
X60120719Y-3262300D01*
X60123105Y-3245196D01*
X60178202Y-3051554D01*
X60178204Y-3051543D01*
X60196879Y-2850003D01*
X60196879Y-2849996D01*
X60178204Y-2648456D01*
X60178202Y-2648445D01*
X60122808Y-2453761D01*
X60032583Y-2272567D01*
X60031895Y-2271656D01*
X59579125Y-2724426D01*
X59561546Y-2658821D01*
X59496339Y-2545879D01*
X59404121Y-2453661D01*
X59291179Y-2388454D01*
X59225570Y-2370874D01*
X59675020Y-1921425D01*
X59588919Y-1868113D01*
X59400171Y-1794993D01*
X59201211Y-1757800D01*
X58998788Y-1757800D01*
X58799828Y-1794993D01*
X58611080Y-1868113D01*
X58524978Y-1921425D01*
X58974427Y-2370874D01*
X58908821Y-2388454D01*
X58795879Y-2453661D01*
X58703661Y-2545879D01*
X58638454Y-2658821D01*
X58620874Y-2724427D01*
X58168103Y-2271656D01*
X58167415Y-2272568D01*
X58077191Y-2453761D01*
X58021797Y-2648445D01*
X58021795Y-2648456D01*
X58003121Y-2849996D01*
X57799416Y-2849996D01*
X57799416Y-2849995D01*
X57778995Y-2629615D01*
X57778993Y-2629604D01*
X57755171Y-2545879D01*
X57718422Y-2416721D01*
X57619764Y-2218589D01*
X57486379Y-2041959D01*
X57354161Y-1921425D01*
X57322814Y-1892848D01*
X57322811Y-1892846D01*
X57322810Y-1892845D01*
X57134626Y-1776327D01*
X57134624Y-1776326D01*
X57074636Y-1753087D01*
X56928236Y-1696371D01*
X56928233Y-1696370D01*
X56928232Y-1696370D01*
X56710672Y-1655700D01*
X56710668Y-1655700D01*
X56489332Y-1655700D01*
X56489327Y-1655700D01*
X56271767Y-1696370D01*
X56065375Y-1776326D01*
X55877185Y-1892848D01*
X55713619Y-2041961D01*
X55713617Y-2041963D01*
X55580236Y-2218589D01*
X55481578Y-2416720D01*
X55421006Y-2629604D01*
X55421004Y-2629615D01*
X55400584Y-2849995D01*
X55400584Y-2850004D01*
X55421004Y-3070384D01*
X55421007Y-3070399D01*
X55434578Y-3118097D01*
X55429065Y-3165613D01*
X55391567Y-3195314D01*
X55374464Y-3197700D01*
X54332421Y-3197700D01*
X54306890Y-3200662D01*
X54306889Y-3200662D01*
X54202473Y-3246767D01*
X54121767Y-3327473D01*
X54075661Y-3431892D01*
X54072700Y-3457421D01*
X45418321Y-3457421D01*
X45418321Y-3036300D01*
X44759133Y-3036300D01*
X44792046Y-2979293D01*
X44826121Y-2852126D01*
X44826121Y-2720474D01*
X44792046Y-2593307D01*
X44759133Y-2536300D01*
X45418321Y-2536300D01*
X45418321Y-1750286D01*
X45418320Y-1750285D01*
X45406531Y-1691015D01*
X45406530Y-1691013D01*
X45361619Y-1623801D01*
X45294407Y-1578890D01*
X45294405Y-1578889D01*
X45235135Y-1567100D01*
X44576121Y-1567100D01*
X44576121Y-2353288D01*
X44519114Y-2320375D01*
X44391947Y-2286300D01*
X44260295Y-2286300D01*
X44133128Y-2320375D01*
X44076121Y-2353288D01*
X44076121Y-1567100D01*
X43417107Y-1567100D01*
X43357836Y-1578889D01*
X43357834Y-1578890D01*
X43290622Y-1623801D01*
X43245711Y-1691013D01*
X43245710Y-1691015D01*
X43233921Y-1750285D01*
X42566102Y-1750285D01*
X42564162Y-1748345D01*
X42564154Y-1748338D01*
X42412073Y-1637844D01*
X42244579Y-1552502D01*
X42244571Y-1552498D01*
X42065785Y-1494407D01*
X41880127Y-1465001D01*
X41880115Y-1465000D01*
X41880114Y-1465000D01*
X41692128Y-1465000D01*
X41692126Y-1465000D01*
X41692114Y-1465001D01*
X41506457Y-1494407D01*
X41506456Y-1494407D01*
X41327670Y-1552498D01*
X41327662Y-1552502D01*
X41160168Y-1637844D01*
X41008087Y-1748338D01*
X41008079Y-1748345D01*
X40875166Y-1881258D01*
X40875159Y-1881266D01*
X40764665Y-2033347D01*
X40679323Y-2200841D01*
X40679319Y-2200849D01*
X40621228Y-2379635D01*
X40621228Y-2379636D01*
X40591822Y-2565293D01*
X40591821Y-2565309D01*
X40440421Y-2565309D01*
X40440421Y-2565307D01*
X40437579Y-2547366D01*
X40416887Y-2416720D01*
X40411013Y-2379634D01*
X40352922Y-2200848D01*
X40267578Y-2033350D01*
X40157082Y-1881266D01*
X40157075Y-1881258D01*
X40024162Y-1748345D01*
X40024154Y-1748338D01*
X39872073Y-1637844D01*
X39704579Y-1552502D01*
X39704571Y-1552498D01*
X39525785Y-1494407D01*
X39340127Y-1465001D01*
X39340115Y-1465000D01*
X39340114Y-1465000D01*
X39152128Y-1465000D01*
X39152126Y-1465000D01*
X39152114Y-1465001D01*
X38966457Y-1494407D01*
X38966456Y-1494407D01*
X38787670Y-1552498D01*
X38787662Y-1552502D01*
X38620168Y-1637844D01*
X38468087Y-1748338D01*
X38468079Y-1748345D01*
X38335166Y-1881258D01*
X38335159Y-1881266D01*
X38224665Y-2033347D01*
X38139323Y-2200841D01*
X38139319Y-2200849D01*
X38081228Y-2379635D01*
X38081228Y-2379636D01*
X38051822Y-2565293D01*
X38051821Y-2565309D01*
X37900421Y-2565309D01*
X37900421Y-2565307D01*
X37897579Y-2547366D01*
X37876887Y-2416720D01*
X37871013Y-2379634D01*
X37812922Y-2200848D01*
X37727578Y-2033350D01*
X37617082Y-1881266D01*
X37617075Y-1881258D01*
X37484162Y-1748345D01*
X37484154Y-1748338D01*
X37332073Y-1637844D01*
X37164579Y-1552502D01*
X37164571Y-1552498D01*
X36985785Y-1494407D01*
X36800127Y-1465001D01*
X36800115Y-1465000D01*
X36800114Y-1465000D01*
X36612128Y-1465000D01*
X36612126Y-1465000D01*
X36612114Y-1465001D01*
X36426457Y-1494407D01*
X36426456Y-1494407D01*
X36247670Y-1552498D01*
X36247662Y-1552502D01*
X36080168Y-1637844D01*
X35928087Y-1748338D01*
X35928079Y-1748345D01*
X35795166Y-1881258D01*
X35795159Y-1881266D01*
X35684665Y-2033347D01*
X35599323Y-2200841D01*
X35599319Y-2200849D01*
X35541228Y-2379635D01*
X35541228Y-2379636D01*
X35511822Y-2565293D01*
X35511821Y-2565309D01*
X35360421Y-2565309D01*
X35360421Y-2565307D01*
X35357579Y-2547366D01*
X35336887Y-2416720D01*
X35331013Y-2379634D01*
X35272922Y-2200848D01*
X35187578Y-2033350D01*
X35077082Y-1881266D01*
X35077075Y-1881258D01*
X34944162Y-1748345D01*
X34944154Y-1748338D01*
X34792073Y-1637844D01*
X34624579Y-1552502D01*
X34624571Y-1552498D01*
X34445785Y-1494407D01*
X34260127Y-1465001D01*
X34260115Y-1465000D01*
X34260114Y-1465000D01*
X34072128Y-1465000D01*
X34072126Y-1465000D01*
X34072114Y-1465001D01*
X33886457Y-1494407D01*
X33886456Y-1494407D01*
X33707670Y-1552498D01*
X33707662Y-1552502D01*
X33540168Y-1637844D01*
X33388087Y-1748338D01*
X33388079Y-1748345D01*
X33255166Y-1881258D01*
X33255159Y-1881266D01*
X33144665Y-2033347D01*
X33059323Y-2200841D01*
X33059319Y-2200849D01*
X33001228Y-2379635D01*
X33001228Y-2379636D01*
X32971822Y-2565293D01*
X32971821Y-2565309D01*
X32820421Y-2565309D01*
X32820421Y-2565307D01*
X32817579Y-2547366D01*
X32796887Y-2416720D01*
X32791013Y-2379634D01*
X32732922Y-2200848D01*
X32647578Y-2033350D01*
X32537082Y-1881266D01*
X32537075Y-1881258D01*
X32404162Y-1748345D01*
X32404154Y-1748338D01*
X32252073Y-1637844D01*
X32084579Y-1552502D01*
X32084571Y-1552498D01*
X31905785Y-1494407D01*
X31720127Y-1465001D01*
X31720115Y-1465000D01*
X31720114Y-1465000D01*
X31532128Y-1465000D01*
X31532126Y-1465000D01*
X31532114Y-1465001D01*
X31346457Y-1494407D01*
X31346456Y-1494407D01*
X31167670Y-1552498D01*
X31167662Y-1552502D01*
X31000168Y-1637844D01*
X30848087Y-1748338D01*
X30848079Y-1748345D01*
X30715166Y-1881258D01*
X30715159Y-1881266D01*
X30604665Y-2033347D01*
X30519323Y-2200841D01*
X30519319Y-2200849D01*
X30461228Y-2379635D01*
X30461228Y-2379636D01*
X30431822Y-2565293D01*
X30431821Y-2565309D01*
X24029300Y-2565309D01*
X24029300Y-2364007D01*
X23999892Y-2178334D01*
X23941801Y-1999548D01*
X23856457Y-1832050D01*
X23829533Y-1794993D01*
X23745961Y-1679966D01*
X23745954Y-1679958D01*
X23613041Y-1547045D01*
X23613033Y-1547038D01*
X23460952Y-1436544D01*
X23293458Y-1351202D01*
X23293450Y-1351198D01*
X23114664Y-1293107D01*
X22929006Y-1263701D01*
X22928994Y-1263700D01*
X22928993Y-1263700D01*
X22741007Y-1263700D01*
X22741005Y-1263700D01*
X22740993Y-1263701D01*
X22555336Y-1293107D01*
X22555335Y-1293107D01*
X22376549Y-1351198D01*
X22376541Y-1351202D01*
X22209047Y-1436544D01*
X22056966Y-1547038D01*
X22056958Y-1547045D01*
X21924045Y-1679958D01*
X21924038Y-1679966D01*
X21813544Y-1832047D01*
X21728202Y-1999541D01*
X21728198Y-1999549D01*
X21670107Y-2178335D01*
X21670107Y-2178336D01*
X21640701Y-2363993D01*
X21640700Y-2364009D01*
X20744760Y-2364009D01*
X20728012Y-2335000D01*
X21381333Y-2335000D01*
X21381333Y-2334999D01*
X21360306Y-2202245D01*
X21360306Y-2202244D01*
X21307181Y-2038742D01*
X21307177Y-2038734D01*
X21229131Y-1885560D01*
X21128083Y-1746480D01*
X21128076Y-1746472D01*
X21006527Y-1624923D01*
X21006519Y-1624916D01*
X20867439Y-1523868D01*
X20714265Y-1445822D01*
X20714257Y-1445818D01*
X20550758Y-1392694D01*
X20545000Y-1391781D01*
X20545000Y-2151988D01*
X20487993Y-2119075D01*
X20360826Y-2085000D01*
X20229174Y-2085000D01*
X20102007Y-2119075D01*
X20045000Y-2151988D01*
X20045000Y-1391781D01*
X20039241Y-1392694D01*
X19875742Y-1445818D01*
X19875734Y-1445822D01*
X19722560Y-1523868D01*
X19583480Y-1624916D01*
X19583472Y-1624923D01*
X19461923Y-1746472D01*
X19461916Y-1746480D01*
X19360868Y-1885560D01*
X19282822Y-2038734D01*
X19282818Y-2038742D01*
X19229693Y-2202244D01*
X19229693Y-2202245D01*
X19208666Y-2334999D01*
X18944706Y-2334999D01*
X18919892Y-2178334D01*
X18861801Y-1999548D01*
X18776457Y-1832050D01*
X18749533Y-1794993D01*
X18665961Y-1679966D01*
X18665954Y-1679958D01*
X18533041Y-1547045D01*
X18533033Y-1547038D01*
X18380952Y-1436544D01*
X18213458Y-1351202D01*
X18213450Y-1351198D01*
X18034664Y-1293107D01*
X17849006Y-1263701D01*
X17848994Y-1263700D01*
X17848993Y-1263700D01*
X17661007Y-1263700D01*
X17661005Y-1263700D01*
X17660993Y-1263701D01*
X17475336Y-1293107D01*
X17475335Y-1293107D01*
X17296549Y-1351198D01*
X17296541Y-1351202D01*
X17129047Y-1436544D01*
X16976966Y-1547038D01*
X16976958Y-1547045D01*
X16844045Y-1679958D01*
X16844038Y-1679966D01*
X16733544Y-1832047D01*
X16648202Y-1999541D01*
X16648198Y-1999549D01*
X16594740Y-2164077D01*
X16563673Y-2200451D01*
X16515985Y-2204204D01*
X16479611Y-2173137D01*
X16472799Y-2144763D01*
X16472799Y-1586921D01*
X16471867Y-1578889D01*
X16469838Y-1561391D01*
X16423734Y-1456975D01*
X16343025Y-1376266D01*
X16238609Y-1330162D01*
X16238607Y-1330161D01*
X16216428Y-1327588D01*
X16213079Y-1327200D01*
X16213078Y-1327200D01*
X14216921Y-1327200D01*
X14191390Y-1330162D01*
X14191389Y-1330162D01*
X14086973Y-1376267D01*
X14006267Y-1456973D01*
X13960161Y-1561392D01*
X13957200Y-1586921D01*
X4222393Y-1586921D01*
X4645533Y-1349003D01*
X4649291Y-1347057D01*
X5115806Y-1125192D01*
X5119697Y-1123503D01*
X5600235Y-934004D01*
X5604242Y-932579D01*
X6096638Y-776301D01*
X6100699Y-775163D01*
X6602602Y-652854D01*
X6606758Y-651991D01*
X7115823Y-564220D01*
X7120019Y-563644D01*
X7633882Y-510818D01*
X7638106Y-510529D01*
X8156094Y-492835D01*
X8158201Y-492800D01*
X8222412Y-492800D01*
X62126568Y-492800D01*
X62170762Y-511106D01*
G37*
%TD.AperFunction*%
%TD*%
D29*
X66068521Y7700D02*
G75*
G02*
X74196500Y-8120300I-21J-8128000D01*
G01*
X28521Y-8120300D02*
X28521Y-21074300D01*
X8156521Y-29202300D02*
X66068521Y-29202300D01*
X74196521Y-21074300D02*
X74196521Y-8120300D01*
X8156521Y-29202300D02*
G75*
G02*
X28500Y-21074300I-21J8128000D01*
G01*
X28521Y-8120300D02*
G75*
G02*
X8156521Y7679I8127979J0D01*
G01*
X69865821Y-17492900D02*
G75*
G02*
X68468821Y-17492900I-698500J0D01*
G01*
X68468821Y-17492900D02*
G75*
G02*
X69865821Y-17492900I698500J0D01*
G01*
X74196521Y-21074300D02*
G75*
G02*
X66068521Y-29202321I-8128021J0D01*
G01*
X66068521Y7700D02*
X8156521Y7700D01*
M02*
