%TF.GenerationSoftware,KiCad,Pcbnew,8.99.0-unknown*%
%TF.CreationDate,2024-06-21T10:07:37-04:00*%
%TF.ProjectId,solderingStationPCB,736f6c64-6572-4696-9e67-53746174696f,rev?*%
%TF.SameCoordinates,PX33f2570PY4a915b0*%
%TF.FileFunction,Soldermask,Bot*%
%TF.FilePolarity,Negative*%
%FSLAX46Y46*%
G04 Gerber Fmt 4.6, Leading zero omitted, Abs format (unit mm)*
G04 Created by KiCad (PCBNEW 8.99.0-unknown) date 2024-06-21 10:07:37*
%MOMM*%
%LPD*%
G01*
G04 APERTURE LIST*
G04 Aperture macros list*
%AMHorizOval*
0 Thick line with rounded ends*
0 $1 width*
0 $2 $3 position (X,Y) of the first rounded end (center of the circle)*
0 $4 $5 position (X,Y) of the second rounded end (center of the circle)*
0 Add line between two ends*
20,1,$1,$2,$3,$4,$5,0*
0 Add two circle primitives to create the rounded ends*
1,1,$1,$2,$3*
1,1,$1,$4,$5*%
G04 Aperture macros list end*
%ADD10R,1.778000X2.032000*%
%ADD11O,1.778000X2.032000*%
%ADD12O,1.524000X1.778000*%
%ADD13C,1.778000*%
%ADD14O,1.651000X1.244600*%
%ADD15R,2.794000X2.794000*%
%ADD16R,1.371600X1.651000*%
%ADD17O,1.371600X1.651000*%
%ADD18O,1.778000X1.524000*%
%ADD19R,1.905000X1.905000*%
%ADD20HorizOval,2.794000X-0.182111X0.260081X0.182111X-0.260081X0*%
%ADD21HorizOval,2.794000X0.298352X0.108591X-0.298352X-0.108591X0*%
%ADD22O,2.794000X3.429000*%
%ADD23HorizOval,2.794000X-0.298352X0.108591X0.298352X-0.108591X0*%
%ADD24HorizOval,2.794000X-0.182111X-0.260081X0.182111X0.260081X0*%
%ADD25O,2.032000X2.540000*%
%ADD26R,2.921000X4.064000*%
%TA.AperFunction,Profile*%
%ADD27C,0.050000*%
%TD*%
G04 APERTURE END LIST*
D10*
%TO.C,J1*%
X44326121Y-2786300D03*
D11*
X41786121Y-2786300D03*
X39246121Y-2786300D03*
X36706121Y-2786300D03*
X34166121Y-2786300D03*
X31626121Y-2786300D03*
%TD*%
D12*
%TO.C,JP1*%
X16034000Y-27500000D03*
X18066001Y-27500000D03*
%TD*%
D13*
%TO.C,J4*%
X59100000Y-2850000D03*
X56600000Y-2850000D03*
%TD*%
D14*
%TO.C,J6*%
X7020300Y-26317801D03*
X7020300Y-24817799D03*
%TD*%
D15*
%TO.C,J5*%
X61350000Y-27125000D03*
%TD*%
%TO.C,J7*%
X55775000Y-4900000D03*
%TD*%
%TO.C,J13*%
X55775000Y-23800000D03*
%TD*%
%TO.C,J11*%
X63775000Y-2050000D03*
%TD*%
D16*
%TO.C,LS1*%
X28425200Y-24068300D03*
D17*
X32425200Y-24068300D03*
%TD*%
D18*
%TO.C,JP2*%
X59275000Y-18499999D03*
X59275000Y-20532000D03*
%TD*%
%TO.C,JP4*%
X59225000Y-22709000D03*
X59225000Y-24741001D03*
%TD*%
D15*
%TO.C,J9*%
X51975000Y-25550000D03*
%TD*%
%TO.C,J10*%
X60050000Y-4925000D03*
%TD*%
D19*
%TO.C,J2*%
X15215000Y-2585000D03*
D11*
X17755000Y-2585000D03*
X20295000Y-2585000D03*
X22835000Y-2585000D03*
%TD*%
D15*
%TO.C,J3*%
X61425000Y-13825000D03*
%TD*%
D20*
%TO.C,J8*%
X67380770Y-15024068D03*
D21*
X66272074Y-18453749D03*
D22*
X69165121Y-20543100D03*
D23*
X72058168Y-18453749D03*
D24*
X70949472Y-15024068D03*
%TD*%
D25*
%TO.C,SW1*%
X9314400Y-6504000D03*
X4314400Y-6504000D03*
X9314400Y-21003996D03*
X6814400Y-21003996D03*
X4314400Y-21003996D03*
D26*
X12514401Y-13503999D03*
X1114399Y-13503999D03*
%TD*%
D27*
X66068521Y7700D02*
G75*
G02*
X74196500Y-8120300I-21J-8128000D01*
G01*
X28521Y-8120300D02*
X28521Y-21074300D01*
X8156521Y-29202300D02*
X66068521Y-29202300D01*
X74196521Y-21074300D02*
X74196521Y-8120300D01*
X8156521Y-29202300D02*
G75*
G02*
X28500Y-21074300I-21J8128000D01*
G01*
X28521Y-8120300D02*
G75*
G02*
X8156521Y7679I8127979J0D01*
G01*
X69865821Y-17492900D02*
G75*
G02*
X68468821Y-17492900I-698500J0D01*
G01*
X68468821Y-17492900D02*
G75*
G02*
X69865821Y-17492900I698500J0D01*
G01*
X74196521Y-21074300D02*
G75*
G02*
X66068521Y-29202321I-8128021J0D01*
G01*
X66068521Y7700D02*
X8156521Y7700D01*
M02*
