%TF.GenerationSoftware,KiCad,Pcbnew,8.99.0-unknown*%
%TF.CreationDate,2024-05-01T22:11:16-04:00*%
%TF.ProjectId,solderingStationPCB,736f6c64-6572-4696-9e67-53746174696f,rev?*%
%TF.SameCoordinates,PX33f2570PY4a915b0*%
%TF.FileFunction,Copper,L2,Bot*%
%TF.FilePolarity,Positive*%
%FSLAX46Y46*%
G04 Gerber Fmt 4.6, Leading zero omitted, Abs format (unit mm)*
G04 Created by KiCad (PCBNEW 8.99.0-unknown) date 2024-05-01 22:11:16*
%MOMM*%
%LPD*%
G01*
G04 APERTURE LIST*
%TA.AperFunction,ComponentPad*%
%ADD10R,1.700000X1.700000*%
%TD*%
%TA.AperFunction,ComponentPad*%
%ADD11O,1.700000X1.700000*%
%TD*%
%TA.AperFunction,ComponentPad*%
%ADD12C,1.244600*%
%TD*%
%TA.AperFunction,ComponentPad*%
%ADD13C,1.498600*%
%TD*%
%TA.AperFunction,ComponentPad*%
%ADD14C,2.286000*%
%TD*%
%TA.AperFunction,ComponentPad*%
%ADD15R,1.371600X1.371600*%
%TD*%
%TA.AperFunction,ComponentPad*%
%ADD16C,1.371600*%
%TD*%
%TA.AperFunction,ComponentPad*%
%ADD17R,2.000000X2.000000*%
%TD*%
%TA.AperFunction,ComponentPad*%
%ADD18O,2.032000X2.540000*%
%TD*%
%TA.AperFunction,ComponentPad*%
%ADD19R,2.921000X4.064000*%
%TD*%
%TA.AperFunction,ViaPad*%
%ADD20C,0.600000*%
%TD*%
%TA.AperFunction,Conductor*%
%ADD21C,0.889000*%
%TD*%
%TA.AperFunction,Profile*%
%ADD22C,0.050000*%
%TD*%
G04 APERTURE END LIST*
D10*
%TO.P,J1,1,Pin_1*%
%TO.N,GND*%
X44326121Y-2786300D03*
D11*
%TO.P,J1,2,Pin_2*%
%TO.N,3V3*%
X41786121Y-2786300D03*
%TO.P,J1,3,Pin_3*%
%TO.N,OLED_SCL*%
X39246121Y-2786300D03*
%TO.P,J1,4,Pin_4*%
%TO.N,OLED_SDA*%
X36706121Y-2786300D03*
%TO.P,J1,5,Pin_5*%
%TO.N,OLED_RST*%
X34166121Y-2786300D03*
%TO.P,J1,6,Pin_6*%
%TO.N,OLED_D{slash}C*%
X31626121Y-2786300D03*
%TD*%
D12*
%TO.P,JP1,1,A*%
%TO.N,Net-(JP1-A)*%
X16203300Y-27513700D03*
%TO.P,JP1,2,B*%
%TO.N,Net-(JP1-B)*%
X17703302Y-27513700D03*
%TD*%
D13*
%TO.P,J4,1,1*%
%TO.N,GND*%
X62809600Y-2790599D03*
%TO.P,J4,2,2*%
%TO.N,V24in*%
X60309600Y-2790599D03*
%TD*%
D14*
%TO.P,J5,1,Pin_1*%
%TO.N,V24in*%
X55387000Y-3095000D03*
%TD*%
D12*
%TO.P,J6,1,1*%
%TO.N,GND*%
X7020300Y-26317801D03*
%TO.P,J6,2,2*%
%TO.N,Net-(D4-A)*%
X7020300Y-24817799D03*
%TD*%
D10*
%TO.P,J13,1,Pin_1*%
%TO.N,Net-(J13-Pin_1)*%
X58048200Y-23459600D03*
%TD*%
%TO.P,J11,1,Pin_1*%
%TO.N,GND*%
X67426600Y-6997800D03*
%TD*%
D15*
%TO.P,LS1,1,1*%
%TO.N,3V3*%
X28425200Y-24068300D03*
D16*
%TO.P,LS1,2,2*%
%TO.N,Net-(U3-PA1)*%
X32425200Y-24068300D03*
%TD*%
D10*
%TO.P,J12,1,Pin_1*%
%TO.N,Net-(J12-Pin_1)*%
X62705400Y-27175800D03*
%TD*%
D12*
%TO.P,JP3,1,A*%
%TO.N,Net-(J12-Pin_1)*%
X42628302Y-27533700D03*
%TO.P,JP3,2,B*%
%TO.N,Net-(JP1-B)*%
X41128300Y-27533700D03*
%TD*%
%TO.P,JP2,1,A*%
%TO.N,/T12+*%
X60565301Y-14629299D03*
%TO.P,JP2,2,B*%
%TO.N,Net-(J13-Pin_1)*%
X60565301Y-16129301D03*
%TD*%
D10*
%TO.P,J10,1,Pin_1*%
%TO.N,GND*%
X71173200Y-7004800D03*
%TD*%
%TO.P,J9,1,Pin_1*%
%TO.N,Net-(J8-P1)*%
X62868400Y-11938800D03*
%TD*%
D14*
%TO.P,J7,1,Pin_1*%
%TO.N,GND*%
X67760000Y-3115200D03*
%TD*%
D10*
%TO.P,J2,1,Pin_1*%
%TO.N,SWD_CLK*%
X15215000Y-2585000D03*
D11*
%TO.P,J2,2,Pin_2*%
%TO.N,SWDIO*%
X17755000Y-2585000D03*
%TO.P,J2,3,Pin_3*%
%TO.N,GND*%
X20295000Y-2585000D03*
%TO.P,J2,4,Pin_4*%
%TO.N,3V3*%
X22835000Y-2585000D03*
%TD*%
D10*
%TO.P,J3,1,Pin_1*%
%TO.N,/T12+*%
X62873200Y-8335200D03*
%TD*%
D17*
%TO.P,J8,1,P1*%
%TO.N,Net-(J8-P1)*%
X67672147Y-15440197D03*
%TO.P,J8,2,P2*%
%TO.N,Net-(J12-Pin_1)*%
X66749438Y-18280003D03*
%TO.P,J8,3,P3*%
%TO.N,GND*%
X69165121Y-20035100D03*
%TO.P,J8,4,P3*%
X71580804Y-18280003D03*
%TO.P,J8,5,P5*%
%TO.N,/T12+*%
X70658095Y-15440197D03*
%TD*%
D18*
%TO.P,SW1,1,1*%
%TO.N,ENC_PB*%
X9314400Y-6504000D03*
%TO.P,SW1,2,2*%
%TO.N,GND*%
X4314400Y-6504000D03*
%TO.P,SW1,3,A*%
%TO.N,ENC_B*%
X9314400Y-21003996D03*
%TO.P,SW1,4,B*%
%TO.N,GND*%
X6814400Y-21003996D03*
%TO.P,SW1,5,C*%
%TO.N,ENC_A*%
X4314400Y-21003996D03*
D19*
%TO.P,SW1,6,GND*%
%TO.N,GND*%
X12514401Y-13503999D03*
%TO.P,SW1,7,GND*%
X1114399Y-13503999D03*
%TD*%
D20*
%TO.N,GND*%
X38476000Y-11096000D03*
X2120000Y-10430000D03*
X70005000Y-2910000D03*
X39892000Y-16260000D03*
X9955000Y-13810000D03*
X11155000Y-5910000D03*
X38476000Y-10080000D03*
X32578750Y-6110000D03*
X32380000Y-14144000D03*
X24360000Y-14820000D03*
X37460000Y-10080000D03*
X67230000Y-24810000D03*
X34812000Y-16260000D03*
X24355000Y-4660000D03*
X22230000Y-4410000D03*
X38876000Y-16260000D03*
X31152500Y-6085000D03*
X35828000Y-16260000D03*
X12600000Y-7000000D03*
X69580000Y-8860000D03*
X33396000Y-10080000D03*
X36444000Y-10080000D03*
X46000000Y-2900000D03*
X72030000Y-5160000D03*
X3280000Y-3710000D03*
X26155000Y-2760000D03*
X38505000Y-23160000D03*
X25800000Y-22475000D03*
X10900000Y-16460000D03*
X34055000Y-23835000D03*
X65905000Y-22910000D03*
X63755000Y-13785000D03*
X23090000Y-12280000D03*
X4420000Y-8410000D03*
X20680000Y-4110000D03*
X38476000Y-15160000D03*
X33396000Y-12112000D03*
X37460000Y-14144000D03*
X31400000Y-14650000D03*
X44855000Y-24835000D03*
X5525000Y-15525000D03*
X34412000Y-10080000D03*
X54755000Y-985000D03*
X48830000Y-28260000D03*
X62825000Y-4325000D03*
X1910000Y-6220000D03*
X60830000Y-28310000D03*
X38476000Y-13128000D03*
X24360000Y-13550000D03*
X40908000Y-16260000D03*
X59400000Y-13010000D03*
X53555000Y-13910000D03*
X24360000Y-11010000D03*
X65655000Y-6885000D03*
X65680000Y-14610000D03*
X63600000Y-17835000D03*
X38476000Y-14144000D03*
X34005000Y-6110000D03*
X5080000Y-26935000D03*
X11005000Y-3385000D03*
X16805000Y-9260000D03*
X43500000Y-19500000D03*
X33396000Y-13128000D03*
X39999400Y-8326200D03*
X64980000Y-19285000D03*
X32380000Y-10080000D03*
X19400000Y-6450000D03*
X63600000Y-16035000D03*
X7655000Y-18960000D03*
X6630000Y-6260000D03*
X7280000Y-3710000D03*
X41000000Y-5300000D03*
X23380000Y-5935000D03*
X48805000Y-17560000D03*
X72580000Y-12360000D03*
X32380000Y-15160000D03*
X71305000Y-10835000D03*
X44980000Y-28285000D03*
X24360000Y-12280000D03*
X7950000Y-15525000D03*
X5525000Y-16950000D03*
X21820000Y-12280000D03*
X35428000Y-10080000D03*
X15680000Y-23985000D03*
X17420000Y-6440000D03*
X37860000Y-16260000D03*
X33796000Y-16260000D03*
X72555000Y-10635000D03*
X6130000Y-14185000D03*
X55830000Y-24535000D03*
X26380000Y-8810000D03*
X47430000Y-24885000D03*
X19280000Y-13550000D03*
X21820000Y-11010000D03*
X50130000Y-1060000D03*
X9905000Y-27860000D03*
X2255000Y-23060000D03*
X20550000Y-16090000D03*
X65730000Y-16460000D03*
X66655000Y-1285000D03*
X50305000Y-16310000D03*
X37460000Y-11096000D03*
X23090000Y-16090000D03*
X71305000Y-24060000D03*
X1350000Y-8380000D03*
X40205000Y-13535000D03*
X35855000Y-19510000D03*
X31155000Y-7135000D03*
X65780000Y-27810000D03*
X20550000Y-13550000D03*
X32780000Y-16260000D03*
X31880000Y-22085000D03*
X4655000Y-24185000D03*
X13105000Y-1385000D03*
X61800000Y-24400000D03*
X33880000Y-17735000D03*
X21820000Y-16090000D03*
X33396000Y-11096000D03*
X21820000Y-14820000D03*
X21820000Y-13550000D03*
X65955000Y-21010000D03*
X30330000Y-20410000D03*
X53455000Y-28235000D03*
X61680000Y-19460000D03*
X38888000Y-17140000D03*
X20550000Y-12280000D03*
X63500000Y-22800000D03*
X12980000Y-4585000D03*
X37460000Y-13128000D03*
X61805000Y-13785000D03*
X2500000Y-16390000D03*
X20550000Y-14820000D03*
X46000000Y-1000000D03*
X13555000Y-16835000D03*
X58930000Y-1035000D03*
X34275000Y-21400000D03*
X36444000Y-11096000D03*
X32380000Y-11096000D03*
X19280000Y-16090000D03*
X32380000Y-13128000D03*
X23250000Y-24100000D03*
X35675000Y-22125000D03*
X18080000Y-24085000D03*
X42000000Y-21100000D03*
X44400000Y-22675000D03*
X36844000Y-16260000D03*
X37460000Y-15160000D03*
X28300000Y-6100000D03*
X27605000Y-17635000D03*
X44380000Y-16460000D03*
X68705000Y-23085000D03*
X40920000Y-17140000D03*
X23090000Y-14820000D03*
X61755000Y-17085000D03*
X52455000Y-17860000D03*
X11005000Y-7735000D03*
X19280000Y-11010000D03*
X62925000Y-1175000D03*
X43500000Y-21100000D03*
X44500000Y-4900000D03*
X34412000Y-12112000D03*
X72655000Y-14160000D03*
X31400000Y-13634000D03*
X35428000Y-11096000D03*
X32380000Y-12112000D03*
X31055000Y-25135000D03*
X1755000Y-20385000D03*
X36000000Y-6600000D03*
X11080000Y-22710000D03*
X15180000Y-26010000D03*
X25825000Y-24225000D03*
X57080000Y-28235000D03*
X30250000Y-13600000D03*
X60900000Y-26500000D03*
X39904000Y-17140000D03*
X6000000Y-18950000D03*
X71980000Y-21610000D03*
X29726250Y-6085000D03*
X66600000Y-5050000D03*
X61355000Y-1185000D03*
X19280000Y-14820000D03*
X29030000Y-19060000D03*
X53830000Y-24560000D03*
X20550000Y-11010000D03*
X56475000Y-11850000D03*
X21155000Y-24035000D03*
X68055000Y-8985000D03*
X23005000Y-21735000D03*
X24360000Y-16090000D03*
X23090000Y-11010000D03*
X21280000Y-6085000D03*
X70980000Y-8885000D03*
X12680000Y-25885000D03*
X9605000Y-1360000D03*
X70005000Y-11110000D03*
X35955000Y-17735000D03*
X7905000Y-23110000D03*
X60900000Y-5625000D03*
X29580000Y-11150000D03*
X63900000Y-24700000D03*
X44600000Y-20300000D03*
X46655000Y-16385000D03*
X38476000Y-12112000D03*
X41800000Y-4500000D03*
X59230000Y-18410000D03*
X34230000Y-19535000D03*
X64980000Y-2135000D03*
X19280000Y-12280000D03*
X7950000Y-16950000D03*
X41730000Y-24835000D03*
X16275000Y-13550000D03*
X35428000Y-12112000D03*
X36444000Y-13128000D03*
X34412000Y-11096000D03*
X42305000Y-22685000D03*
X69030000Y-5835000D03*
X69905000Y-26135000D03*
X36444000Y-12112000D03*
X12855000Y-20685000D03*
X68005000Y-27285000D03*
X72605000Y-8835000D03*
X56980000Y-18435000D03*
X63600000Y-20785000D03*
X62825000Y-5860000D03*
X34412000Y-13128000D03*
X35428000Y-13128000D03*
X37460000Y-12112000D03*
X65630000Y-26110000D03*
X5930000Y-1910000D03*
X18055000Y-17610000D03*
X15655000Y-20760000D03*
X65650000Y-3750000D03*
X61655000Y-21535000D03*
X46000000Y-4500000D03*
X71230000Y-12485000D03*
X60105000Y-23235000D03*
X23090000Y-13550000D03*
X13705000Y-22560000D03*
%TO.N,3V3*%
X3605000Y-9560000D03*
X29270000Y-8630000D03*
X30250000Y-8650000D03*
X16880000Y-18410000D03*
X16680000Y-25835000D03*
X15005000Y-6535000D03*
X25730000Y-20585000D03*
X29205000Y-7510000D03*
X31210000Y-8690000D03*
%TD*%
D21*
%TO.N,3V3*%
X29220000Y-8690000D02*
X29270000Y-8630000D01*
X15005000Y-6535000D02*
X15005000Y-16460000D01*
X16905000Y-18360000D02*
X16905000Y-18385000D01*
X25730000Y-20585000D02*
X17430000Y-20585000D01*
X16905000Y-18435000D02*
X16905000Y-20060000D01*
X29205000Y-7510000D02*
X29205000Y-8625000D01*
X31210000Y-8690000D02*
X31350000Y-8690000D01*
X29180000Y-8650000D02*
X29220000Y-8690000D01*
X16905000Y-18385000D02*
X16880000Y-18410000D01*
X11980000Y-9560000D02*
X3605000Y-9560000D01*
X16905000Y-20060000D02*
X16905000Y-25610000D01*
X15980000Y-7510000D02*
X15005000Y-6535000D01*
X16880000Y-18410000D02*
X16905000Y-18435000D01*
X16905000Y-25610000D02*
X16680000Y-25835000D01*
X29205000Y-7510000D02*
X15980000Y-7510000D01*
X17430000Y-20585000D02*
X16905000Y-20060000D01*
X29270000Y-8630000D02*
X30250000Y-8650000D01*
X15005000Y-16460000D02*
X16905000Y-18360000D01*
X15005000Y-6535000D02*
X11980000Y-9560000D01*
X29205000Y-8625000D02*
X29180000Y-8650000D01*
X30250000Y-8650000D02*
X31210000Y-8690000D01*
%TD*%
%TA.AperFunction,Conductor*%
%TO.N,GND*%
G36*
X66069573Y-492835D02*
G01*
X66586926Y-510510D01*
X66591160Y-510801D01*
X67105015Y-563627D01*
X67109218Y-564205D01*
X67618291Y-651980D01*
X67622429Y-652839D01*
X68124321Y-775148D01*
X68128413Y-776294D01*
X68620789Y-932569D01*
X68624794Y-933992D01*
X69053118Y-1102903D01*
X69105330Y-1123493D01*
X69109244Y-1125193D01*
X69575726Y-1347043D01*
X69579511Y-1349004D01*
X69955202Y-1560245D01*
X70029785Y-1602181D01*
X70033430Y-1604398D01*
X70073987Y-1631000D01*
X70465349Y-1887695D01*
X70468836Y-1890156D01*
X70880431Y-2202279D01*
X70883741Y-2204972D01*
X71273073Y-2544453D01*
X71276192Y-2547366D01*
X71641447Y-2912622D01*
X71644360Y-2915741D01*
X71685910Y-2963392D01*
X71983848Y-3305084D01*
X71986523Y-3308370D01*
X72162113Y-3539922D01*
X72298654Y-3719979D01*
X72301115Y-3723466D01*
X72584411Y-4155385D01*
X72586629Y-4159031D01*
X72839802Y-4609301D01*
X72841765Y-4613090D01*
X73063616Y-5079577D01*
X73065316Y-5083492D01*
X73254808Y-5564011D01*
X73256238Y-5568032D01*
X73412508Y-6060397D01*
X73413659Y-6064506D01*
X73535959Y-6566372D01*
X73536827Y-6570551D01*
X73624594Y-7079587D01*
X73625175Y-7083814D01*
X73677999Y-7597647D01*
X73678291Y-7601905D01*
X73683891Y-7765824D01*
X73694599Y-8079300D01*
X73695985Y-8119848D01*
X73696021Y-8121982D01*
X73696021Y-21073219D01*
X73695985Y-21075353D01*
X73678312Y-21592696D01*
X73678020Y-21596954D01*
X73625196Y-22110788D01*
X73624615Y-22115015D01*
X73536848Y-22624052D01*
X73535980Y-22628231D01*
X73413679Y-23130098D01*
X73412528Y-23134207D01*
X73256257Y-23626574D01*
X73254827Y-23630595D01*
X73065336Y-24111115D01*
X73063636Y-24115030D01*
X72841784Y-24581518D01*
X72839821Y-24585307D01*
X72586647Y-25035579D01*
X72584429Y-25039225D01*
X72301132Y-25471145D01*
X72298671Y-25474632D01*
X71986549Y-25886230D01*
X71983856Y-25889540D01*
X71644375Y-26278873D01*
X71641462Y-26281992D01*
X71276206Y-26647249D01*
X71273087Y-26650162D01*
X70883754Y-26989643D01*
X70880444Y-26992336D01*
X70468848Y-27304460D01*
X70465361Y-27306921D01*
X70033441Y-27590218D01*
X70029795Y-27592436D01*
X69579525Y-27845612D01*
X69575736Y-27847575D01*
X69109247Y-28069428D01*
X69105333Y-28071128D01*
X68775180Y-28201325D01*
X68624807Y-28260624D01*
X68620793Y-28262052D01*
X68128426Y-28418322D01*
X68124317Y-28419473D01*
X67622450Y-28541776D01*
X67618272Y-28542644D01*
X67109236Y-28630412D01*
X67105008Y-28630993D01*
X66591173Y-28683818D01*
X66586915Y-28684110D01*
X66070189Y-28701764D01*
X66068055Y-28701800D01*
X8157600Y-28701800D01*
X8155466Y-28701764D01*
X7638121Y-28684092D01*
X7633864Y-28683800D01*
X7120032Y-28630978D01*
X7115804Y-28630397D01*
X6606765Y-28542630D01*
X6602586Y-28541762D01*
X6100718Y-28419462D01*
X6096609Y-28418311D01*
X5604242Y-28262041D01*
X5600221Y-28260611D01*
X5119701Y-28071120D01*
X5115786Y-28069420D01*
X4649297Y-27847569D01*
X4645508Y-27845606D01*
X4195236Y-27592432D01*
X4191590Y-27590214D01*
X3759670Y-27306918D01*
X3756183Y-27304457D01*
X3558213Y-27154333D01*
X3344572Y-26992324D01*
X3341286Y-26989650D01*
X2957961Y-26655409D01*
X2951941Y-26650160D01*
X2948822Y-26647247D01*
X2583565Y-26281991D01*
X2580652Y-26278872D01*
X2241171Y-25889539D01*
X2238478Y-25886229D01*
X1926354Y-25474632D01*
X1923893Y-25471145D01*
X1640596Y-25039225D01*
X1638378Y-25035579D01*
X1515926Y-24817799D01*
X6087591Y-24817799D01*
X6107973Y-25011722D01*
X6168225Y-25197160D01*
X6168227Y-25197164D01*
X6168228Y-25197166D01*
X6265723Y-25366032D01*
X6396196Y-25510937D01*
X6430900Y-25536151D01*
X6541203Y-25616292D01*
X6553945Y-25625549D01*
X6732077Y-25704858D01*
X6750586Y-25708792D01*
X6781783Y-25725731D01*
X7005553Y-25949501D01*
X6971812Y-25949501D01*
X6878142Y-25974600D01*
X6794159Y-26023088D01*
X6725587Y-26091660D01*
X6677099Y-26175643D01*
X6652000Y-26269313D01*
X6652000Y-26303054D01*
X6286582Y-25937636D01*
X6262014Y-25980189D01*
X6262013Y-25980190D01*
X6208392Y-26145222D01*
X6190253Y-26317801D01*
X6208392Y-26490379D01*
X6262011Y-26655406D01*
X6262013Y-26655409D01*
X6286582Y-26697964D01*
X6652000Y-26332546D01*
X6652000Y-26366289D01*
X6677099Y-26459959D01*
X6725587Y-26543942D01*
X6794159Y-26612514D01*
X6878142Y-26661002D01*
X6971812Y-26686101D01*
X7005553Y-26686101D01*
X6639688Y-27051963D01*
X6639688Y-27051964D01*
X6763789Y-27107218D01*
X6763806Y-27107224D01*
X6933536Y-27143301D01*
X7107064Y-27143301D01*
X7276793Y-27107224D01*
X7276810Y-27107218D01*
X7400910Y-27051964D01*
X7400910Y-27051963D01*
X7035047Y-26686101D01*
X7068788Y-26686101D01*
X7162458Y-26661002D01*
X7246441Y-26612514D01*
X7315013Y-26543942D01*
X7363501Y-26459959D01*
X7388600Y-26366289D01*
X7388600Y-26332548D01*
X7754017Y-26697965D01*
X7778585Y-26655413D01*
X7778588Y-26655407D01*
X7832207Y-26490379D01*
X7850346Y-26317801D01*
X7832207Y-26145222D01*
X7778588Y-25980194D01*
X7778585Y-25980188D01*
X7754016Y-25937636D01*
X7388600Y-26303052D01*
X7388600Y-26269313D01*
X7363501Y-26175643D01*
X7315013Y-26091660D01*
X7246441Y-26023088D01*
X7162458Y-25974600D01*
X7068788Y-25949501D01*
X7035045Y-25949501D01*
X7258815Y-25725731D01*
X7290012Y-25708792D01*
X7308523Y-25704858D01*
X7486655Y-25625549D01*
X7644404Y-25510937D01*
X7774877Y-25366032D01*
X7872372Y-25197166D01*
X7932627Y-25011720D01*
X7953009Y-24817799D01*
X7932627Y-24623878D01*
X7920095Y-24585307D01*
X7872374Y-24438437D01*
X7872373Y-24438435D01*
X7872372Y-24438432D01*
X7774877Y-24269566D01*
X7644404Y-24124661D01*
X7566829Y-24068299D01*
X7486660Y-24010052D01*
X7486657Y-24010050D01*
X7486655Y-24010049D01*
X7362417Y-23954735D01*
X7308526Y-23930741D01*
X7308523Y-23930740D01*
X7308521Y-23930739D01*
X7308519Y-23930739D01*
X7117795Y-23890199D01*
X6922805Y-23890199D01*
X6732077Y-23930739D01*
X6598001Y-23990434D01*
X6553946Y-24010049D01*
X6553944Y-24010049D01*
X6553940Y-24010052D01*
X6396197Y-24124660D01*
X6396195Y-24124661D01*
X6265722Y-24269567D01*
X6168225Y-24438437D01*
X6107973Y-24623875D01*
X6087591Y-24817799D01*
X1515926Y-24817799D01*
X1385200Y-24585304D01*
X1383239Y-24581519D01*
X1161387Y-24115030D01*
X1159687Y-24111116D01*
X1159687Y-24111115D01*
X970181Y-23630563D01*
X968771Y-23626599D01*
X812490Y-23134200D01*
X811342Y-23130099D01*
X810408Y-23126267D01*
X689041Y-22628231D01*
X688173Y-22624053D01*
X680456Y-22579294D01*
X600402Y-22114998D01*
X599825Y-22110799D01*
X547000Y-21596940D01*
X546710Y-21592712D01*
X529057Y-21075967D01*
X529021Y-21073833D01*
X529021Y-20646009D01*
X2993100Y-20646009D01*
X2993100Y-21361982D01*
X2993101Y-21361998D01*
X3025634Y-21567398D01*
X3025634Y-21567399D01*
X3089902Y-21765197D01*
X3089903Y-21765200D01*
X3122600Y-21829370D01*
X3184323Y-21950508D01*
X3184326Y-21950512D01*
X3306568Y-22118764D01*
X3306575Y-22118772D01*
X3453623Y-22265820D01*
X3453631Y-22265827D01*
X3621888Y-22388073D01*
X3807197Y-22482493D01*
X4004995Y-22546761D01*
X4091567Y-22560472D01*
X4210397Y-22579294D01*
X4210403Y-22579294D01*
X4210411Y-22579296D01*
X4210413Y-22579296D01*
X4418387Y-22579296D01*
X4418389Y-22579296D01*
X4623805Y-22546761D01*
X4821603Y-22482493D01*
X5006912Y-22388073D01*
X5175169Y-22265827D01*
X5322231Y-22118765D01*
X5444477Y-21950508D01*
X5538897Y-21765199D01*
X5558636Y-21704446D01*
X5589702Y-21668072D01*
X5637390Y-21664319D01*
X5673765Y-21695385D01*
X5677518Y-21704446D01*
X5684522Y-21726004D01*
X5684523Y-21726007D01*
X5771647Y-21896996D01*
X5884452Y-22052258D01*
X6020137Y-22187943D01*
X6175399Y-22300748D01*
X6346388Y-22387872D01*
X6346391Y-22387873D01*
X6528899Y-22447173D01*
X6528906Y-22447175D01*
X6564399Y-22452797D01*
X6564400Y-22452797D01*
X6564400Y-21587761D01*
X6629177Y-21614593D01*
X6751858Y-21638996D01*
X6876942Y-21638996D01*
X6999623Y-21614593D01*
X7064400Y-21587761D01*
X7064400Y-22452797D01*
X7099893Y-22447175D01*
X7099900Y-22447173D01*
X7282408Y-22387873D01*
X7282411Y-22387872D01*
X7453400Y-22300748D01*
X7608662Y-22187943D01*
X7744347Y-22052258D01*
X7857152Y-21896996D01*
X7944276Y-21726007D01*
X7944276Y-21726005D01*
X7951280Y-21704449D01*
X7982346Y-21668073D01*
X8030033Y-21664318D01*
X8066409Y-21695384D01*
X8070163Y-21704446D01*
X8089902Y-21765197D01*
X8089903Y-21765200D01*
X8122600Y-21829370D01*
X8184323Y-21950508D01*
X8184326Y-21950512D01*
X8306568Y-22118764D01*
X8306575Y-22118772D01*
X8453623Y-22265820D01*
X8453631Y-22265827D01*
X8621888Y-22388073D01*
X8807197Y-22482493D01*
X9004995Y-22546761D01*
X9091567Y-22560472D01*
X9210397Y-22579294D01*
X9210403Y-22579294D01*
X9210411Y-22579296D01*
X9210413Y-22579296D01*
X9418387Y-22579296D01*
X9418389Y-22579296D01*
X9623805Y-22546761D01*
X9821603Y-22482493D01*
X10006912Y-22388073D01*
X10175169Y-22265827D01*
X10322231Y-22118765D01*
X10444477Y-21950508D01*
X10538897Y-21765199D01*
X10603165Y-21567401D01*
X10635700Y-21361985D01*
X10635700Y-20646007D01*
X10603165Y-20440591D01*
X10538897Y-20242793D01*
X10444477Y-20057484D01*
X10322231Y-19889227D01*
X10322224Y-19889219D01*
X10175176Y-19742171D01*
X10175168Y-19742164D01*
X10006916Y-19619922D01*
X10006912Y-19619919D01*
X9879881Y-19555193D01*
X9821604Y-19525499D01*
X9821601Y-19525498D01*
X9623803Y-19461230D01*
X9418402Y-19428697D01*
X9418390Y-19428696D01*
X9418389Y-19428696D01*
X9210411Y-19428696D01*
X9210409Y-19428696D01*
X9210397Y-19428697D01*
X9004997Y-19461230D01*
X9004996Y-19461230D01*
X8807198Y-19525498D01*
X8807195Y-19525499D01*
X8689827Y-19585302D01*
X8621888Y-19619919D01*
X8621885Y-19619920D01*
X8621883Y-19619922D01*
X8453631Y-19742164D01*
X8453623Y-19742171D01*
X8306575Y-19889219D01*
X8306568Y-19889227D01*
X8184326Y-20057479D01*
X8089903Y-20242791D01*
X8089902Y-20242795D01*
X8070163Y-20303545D01*
X8039096Y-20339919D01*
X7991408Y-20343672D01*
X7955034Y-20312605D01*
X7951281Y-20303543D01*
X7944279Y-20281994D01*
X7944276Y-20281984D01*
X7857152Y-20110995D01*
X7744347Y-19955733D01*
X7608662Y-19820048D01*
X7453400Y-19707243D01*
X7282411Y-19620119D01*
X7282408Y-19620118D01*
X7099902Y-19560818D01*
X7099887Y-19560815D01*
X7064400Y-19555193D01*
X7064400Y-20420230D01*
X6999623Y-20393399D01*
X6876942Y-20368996D01*
X6751858Y-20368996D01*
X6629177Y-20393399D01*
X6564400Y-20420230D01*
X6564400Y-19555194D01*
X6564399Y-19555193D01*
X6528912Y-19560815D01*
X6528897Y-19560818D01*
X6346391Y-19620118D01*
X6346388Y-19620119D01*
X6175399Y-19707243D01*
X6020137Y-19820048D01*
X5884452Y-19955733D01*
X5771647Y-20110995D01*
X5684523Y-20281984D01*
X5684522Y-20281988D01*
X5677518Y-20303545D01*
X5646451Y-20339919D01*
X5598763Y-20343672D01*
X5562389Y-20312605D01*
X5558636Y-20303544D01*
X5542495Y-20253867D01*
X5538897Y-20242793D01*
X5444477Y-20057484D01*
X5322231Y-19889227D01*
X5322224Y-19889219D01*
X5175176Y-19742171D01*
X5175168Y-19742164D01*
X5006916Y-19619922D01*
X5006912Y-19619919D01*
X4879881Y-19555193D01*
X4821604Y-19525499D01*
X4821601Y-19525498D01*
X4623803Y-19461230D01*
X4418402Y-19428697D01*
X4418390Y-19428696D01*
X4418389Y-19428696D01*
X4210411Y-19428696D01*
X4210409Y-19428696D01*
X4210397Y-19428697D01*
X4004997Y-19461230D01*
X4004996Y-19461230D01*
X3807198Y-19525498D01*
X3807195Y-19525499D01*
X3689827Y-19585302D01*
X3621888Y-19619919D01*
X3621885Y-19619920D01*
X3621883Y-19619922D01*
X3453631Y-19742164D01*
X3453623Y-19742171D01*
X3306575Y-19889219D01*
X3306568Y-19889227D01*
X3184326Y-20057479D01*
X3089903Y-20242791D01*
X3089902Y-20242794D01*
X3025634Y-20440592D01*
X3025634Y-20440593D01*
X2993101Y-20645993D01*
X2993100Y-20646009D01*
X529021Y-20646009D01*
X529021Y-15801699D01*
X547327Y-15757505D01*
X591521Y-15739199D01*
X864399Y-15739199D01*
X864399Y-14750233D01*
X1014448Y-14773999D01*
X1214350Y-14773999D01*
X1364399Y-14750233D01*
X1364399Y-15739199D01*
X2594913Y-15739199D01*
X2594913Y-15739198D01*
X2654183Y-15727409D01*
X2654185Y-15727408D01*
X2721397Y-15682497D01*
X2766308Y-15615285D01*
X2766309Y-15615283D01*
X2778098Y-15556013D01*
X2778099Y-15556013D01*
X2778099Y-13753999D01*
X2360633Y-13753999D01*
X2384399Y-13603950D01*
X2384399Y-13404048D01*
X2360633Y-13253999D01*
X2778099Y-13253999D01*
X2778099Y-11451985D01*
X2778098Y-11451984D01*
X2766309Y-11392714D01*
X2766308Y-11392712D01*
X2721397Y-11325500D01*
X2654185Y-11280589D01*
X2654183Y-11280588D01*
X2594913Y-11268799D01*
X1364399Y-11268799D01*
X1364399Y-12257764D01*
X1214350Y-12233999D01*
X1014448Y-12233999D01*
X864399Y-12257764D01*
X864399Y-11268799D01*
X591521Y-11268799D01*
X547327Y-11250493D01*
X529021Y-11206299D01*
X529021Y-9486150D01*
X2855200Y-9486150D01*
X2855200Y-9633849D01*
X2884013Y-9778707D01*
X2884014Y-9778710D01*
X2940534Y-9915161D01*
X2940537Y-9915166D01*
X3022591Y-10037969D01*
X3127030Y-10142408D01*
X3249833Y-10224462D01*
X3249838Y-10224465D01*
X3318063Y-10252725D01*
X3386291Y-10280986D01*
X3531151Y-10309800D01*
X12053849Y-10309800D01*
X12198709Y-10280986D01*
X12255230Y-10257574D01*
X12335163Y-10224465D01*
X12457970Y-10142408D01*
X14148506Y-8451872D01*
X14192700Y-8433566D01*
X14236894Y-8451872D01*
X14255200Y-8496066D01*
X14255200Y-11319710D01*
X14236894Y-11363904D01*
X14192700Y-11382210D01*
X14148506Y-11363904D01*
X14140734Y-11354434D01*
X14121400Y-11325500D01*
X14054187Y-11280589D01*
X14054185Y-11280588D01*
X13994915Y-11268799D01*
X12764401Y-11268799D01*
X12764401Y-12257764D01*
X12614352Y-12233999D01*
X12414450Y-12233999D01*
X12264401Y-12257764D01*
X12264401Y-11268799D01*
X11033887Y-11268799D01*
X10974616Y-11280588D01*
X10974614Y-11280589D01*
X10907402Y-11325500D01*
X10862491Y-11392712D01*
X10862490Y-11392714D01*
X10850701Y-11451984D01*
X10850701Y-13253999D01*
X11268167Y-13253999D01*
X11244401Y-13404048D01*
X11244401Y-13603950D01*
X11268167Y-13753999D01*
X10850701Y-13753999D01*
X10850701Y-15556013D01*
X10862490Y-15615283D01*
X10862491Y-15615285D01*
X10907402Y-15682497D01*
X10974614Y-15727408D01*
X10974616Y-15727409D01*
X11033886Y-15739198D01*
X11033887Y-15739199D01*
X12264401Y-15739199D01*
X12264401Y-14750233D01*
X12414450Y-14773999D01*
X12614352Y-14773999D01*
X12764401Y-14750233D01*
X12764401Y-15739199D01*
X13994915Y-15739199D01*
X13994915Y-15739198D01*
X14054185Y-15727409D01*
X14054187Y-15727408D01*
X14121399Y-15682497D01*
X14140733Y-15653564D01*
X14180507Y-15626988D01*
X14227423Y-15636320D01*
X14253999Y-15676094D01*
X14255200Y-15688287D01*
X14255200Y-16386151D01*
X14255200Y-16533849D01*
X14284014Y-16678708D01*
X14340535Y-16815163D01*
X14422592Y-16937970D01*
X15286528Y-17801906D01*
X16136894Y-18652271D01*
X16155200Y-18696465D01*
X16155200Y-25273534D01*
X16136894Y-25317728D01*
X16097593Y-25357028D01*
X16097591Y-25357030D01*
X16019013Y-25474632D01*
X16015535Y-25479837D01*
X15959014Y-25616292D01*
X15930200Y-25761151D01*
X15930200Y-25908849D01*
X15959014Y-26053708D01*
X16015535Y-26190163D01*
X16015536Y-26190164D01*
X16097591Y-26312969D01*
X16202030Y-26417408D01*
X16283183Y-26471633D01*
X16309759Y-26511407D01*
X16300427Y-26558323D01*
X16260653Y-26584899D01*
X16248460Y-26586100D01*
X16105805Y-26586100D01*
X15915077Y-26626640D01*
X15781528Y-26686101D01*
X15736946Y-26705950D01*
X15736944Y-26705950D01*
X15736940Y-26705953D01*
X15579197Y-26820561D01*
X15579195Y-26820562D01*
X15448722Y-26965468D01*
X15351225Y-27134338D01*
X15290973Y-27319776D01*
X15270591Y-27513700D01*
X15290973Y-27707623D01*
X15351225Y-27893061D01*
X15351227Y-27893065D01*
X15351228Y-27893067D01*
X15448723Y-28061933D01*
X15579196Y-28206838D01*
X15736945Y-28321450D01*
X15915077Y-28400759D01*
X16105805Y-28441300D01*
X16300795Y-28441300D01*
X16491523Y-28400759D01*
X16669655Y-28321450D01*
X16827404Y-28206838D01*
X16906855Y-28118598D01*
X16950030Y-28098006D01*
X16995122Y-28113973D01*
X16999741Y-28118592D01*
X17079198Y-28206838D01*
X17236947Y-28321450D01*
X17415079Y-28400759D01*
X17605807Y-28441300D01*
X17800797Y-28441300D01*
X17991525Y-28400759D01*
X18169657Y-28321450D01*
X18327406Y-28206838D01*
X18457879Y-28061933D01*
X18555374Y-27893067D01*
X18615629Y-27707621D01*
X18633909Y-27533700D01*
X40195591Y-27533700D01*
X40215973Y-27727623D01*
X40276225Y-27913061D01*
X40276227Y-27913065D01*
X40276228Y-27913067D01*
X40373723Y-28081933D01*
X40504196Y-28226838D01*
X40551780Y-28261410D01*
X40647699Y-28331100D01*
X40661945Y-28341450D01*
X40840077Y-28420759D01*
X41030805Y-28461300D01*
X41225795Y-28461300D01*
X41416523Y-28420759D01*
X41594655Y-28341450D01*
X41752404Y-28226838D01*
X41831855Y-28138598D01*
X41875030Y-28118006D01*
X41920122Y-28133973D01*
X41924741Y-28138592D01*
X42004198Y-28226838D01*
X42051782Y-28261410D01*
X42147701Y-28331100D01*
X42161947Y-28341450D01*
X42340079Y-28420759D01*
X42530807Y-28461300D01*
X42725797Y-28461300D01*
X42916525Y-28420759D01*
X43094657Y-28341450D01*
X43252406Y-28226838D01*
X43382879Y-28081933D01*
X43480374Y-27913067D01*
X43540629Y-27727621D01*
X43561011Y-27533700D01*
X43540629Y-27339779D01*
X43480374Y-27154333D01*
X43382879Y-26985467D01*
X43252406Y-26840562D01*
X43217521Y-26815216D01*
X43094662Y-26725953D01*
X43094659Y-26725951D01*
X43094657Y-26725950D01*
X42948781Y-26661002D01*
X42916528Y-26646642D01*
X42916525Y-26646641D01*
X42916523Y-26646640D01*
X42916521Y-26646640D01*
X42725797Y-26606100D01*
X42530807Y-26606100D01*
X42340079Y-26646640D01*
X42224803Y-26697965D01*
X42161948Y-26725950D01*
X42161946Y-26725950D01*
X42161942Y-26725953D01*
X42004199Y-26840561D01*
X42004192Y-26840567D01*
X41924747Y-26928800D01*
X41881572Y-26949393D01*
X41836480Y-26933425D01*
X41831855Y-26928800D01*
X41752405Y-26840562D01*
X41752404Y-26840561D01*
X41594660Y-26725953D01*
X41594657Y-26725951D01*
X41594655Y-26725950D01*
X41448779Y-26661002D01*
X41416526Y-26646642D01*
X41416523Y-26646641D01*
X41416521Y-26646640D01*
X41416519Y-26646640D01*
X41225795Y-26606100D01*
X41030805Y-26606100D01*
X40840077Y-26646640D01*
X40724801Y-26697965D01*
X40661946Y-26725950D01*
X40661944Y-26725950D01*
X40661940Y-26725953D01*
X40504197Y-26840561D01*
X40504195Y-26840562D01*
X40373722Y-26985468D01*
X40276225Y-27154338D01*
X40215973Y-27339776D01*
X40195591Y-27533700D01*
X18633909Y-27533700D01*
X18636011Y-27513700D01*
X18615629Y-27319779D01*
X18561874Y-27154338D01*
X18555376Y-27134338D01*
X18555375Y-27134336D01*
X18555374Y-27134333D01*
X18457879Y-26965467D01*
X18327406Y-26820562D01*
X18197189Y-26725953D01*
X18169662Y-26705953D01*
X18169659Y-26705951D01*
X18169657Y-26705950D01*
X18036444Y-26646640D01*
X17991528Y-26626642D01*
X17991525Y-26626641D01*
X17991523Y-26626640D01*
X17991521Y-26626640D01*
X17800797Y-26586100D01*
X17605807Y-26586100D01*
X17415079Y-26626640D01*
X17281530Y-26686101D01*
X17236948Y-26705950D01*
X17236946Y-26705950D01*
X17236942Y-26705953D01*
X17079199Y-26820561D01*
X17079192Y-26820567D01*
X16999747Y-26908800D01*
X16956572Y-26929393D01*
X16911480Y-26913425D01*
X16906855Y-26908800D01*
X16827405Y-26820562D01*
X16827404Y-26820561D01*
X16669660Y-26705953D01*
X16669657Y-26705951D01*
X16669655Y-26705950D01*
X16666163Y-26704395D01*
X16633237Y-26669698D01*
X16634489Y-26621879D01*
X16669188Y-26588951D01*
X16691586Y-26584800D01*
X16753849Y-26584800D01*
X16898708Y-26555986D01*
X17035163Y-26499465D01*
X17157970Y-26417408D01*
X17295157Y-26280221D01*
X61550100Y-26280221D01*
X61550100Y-28071378D01*
X61553062Y-28096907D01*
X61553062Y-28096909D01*
X61599166Y-28201325D01*
X61679875Y-28282034D01*
X61784291Y-28328138D01*
X61809821Y-28331100D01*
X63600978Y-28331099D01*
X63626509Y-28328138D01*
X63730925Y-28282034D01*
X63811634Y-28201325D01*
X63857738Y-28096909D01*
X63860700Y-28071379D01*
X63860699Y-26280222D01*
X63857738Y-26254691D01*
X63811634Y-26150275D01*
X63730925Y-26069566D01*
X63626509Y-26023462D01*
X63626507Y-26023461D01*
X63604328Y-26020888D01*
X63600979Y-26020500D01*
X63600978Y-26020500D01*
X61809821Y-26020500D01*
X61784290Y-26023462D01*
X61784289Y-26023462D01*
X61679873Y-26069567D01*
X61599167Y-26150273D01*
X61553061Y-26254692D01*
X61550100Y-26280221D01*
X17295157Y-26280221D01*
X17487408Y-26087970D01*
X17569465Y-25965164D01*
X17625986Y-25828708D01*
X17654800Y-25683849D01*
X17654800Y-25536151D01*
X17654800Y-23336921D01*
X27434100Y-23336921D01*
X27434100Y-24799678D01*
X27437062Y-24825207D01*
X27437062Y-24825209D01*
X27483166Y-24929625D01*
X27563875Y-25010334D01*
X27668291Y-25056438D01*
X27693821Y-25059400D01*
X29156578Y-25059399D01*
X29182109Y-25056438D01*
X29286525Y-25010334D01*
X29367234Y-24929625D01*
X29413338Y-24825209D01*
X29416300Y-24799679D01*
X29416299Y-24068299D01*
X31429304Y-24068299D01*
X31429304Y-24068300D01*
X31448439Y-24262588D01*
X31448440Y-24262590D01*
X31501782Y-24438437D01*
X31505113Y-24449416D01*
X31597139Y-24621584D01*
X31597147Y-24621595D01*
X31720993Y-24772503D01*
X31720996Y-24772506D01*
X31754107Y-24799679D01*
X31871910Y-24896357D01*
X31871913Y-24896358D01*
X31871915Y-24896360D01*
X32044083Y-24988386D01*
X32044087Y-24988388D01*
X32230910Y-25045060D01*
X32425200Y-25064196D01*
X32619490Y-25045060D01*
X32806313Y-24988388D01*
X32978490Y-24896357D01*
X33129405Y-24772505D01*
X33253257Y-24621590D01*
X33345288Y-24449413D01*
X33401960Y-24262590D01*
X33421096Y-24068300D01*
X33401960Y-23874010D01*
X33345288Y-23687187D01*
X33315039Y-23630595D01*
X33253260Y-23515015D01*
X33253258Y-23515013D01*
X33253257Y-23515010D01*
X33129405Y-23364095D01*
X33096294Y-23336922D01*
X32978495Y-23240247D01*
X32978493Y-23240246D01*
X32978490Y-23240243D01*
X32978488Y-23240241D01*
X32978484Y-23240239D01*
X32806316Y-23148213D01*
X32619488Y-23091539D01*
X32425200Y-23072404D01*
X32230911Y-23091539D01*
X32044083Y-23148213D01*
X31871915Y-23240239D01*
X31871904Y-23240247D01*
X31720996Y-23364093D01*
X31720993Y-23364096D01*
X31597147Y-23515004D01*
X31597139Y-23515015D01*
X31505113Y-23687183D01*
X31448439Y-23874011D01*
X31429304Y-24068299D01*
X29416299Y-24068299D01*
X29416299Y-23336922D01*
X29413338Y-23311391D01*
X29367234Y-23206975D01*
X29286525Y-23126266D01*
X29182109Y-23080162D01*
X29182107Y-23080161D01*
X29159928Y-23077588D01*
X29156579Y-23077200D01*
X29156578Y-23077200D01*
X27693821Y-23077200D01*
X27668290Y-23080162D01*
X27668289Y-23080162D01*
X27563873Y-23126267D01*
X27483167Y-23206973D01*
X27437061Y-23311392D01*
X27434100Y-23336921D01*
X17654800Y-23336921D01*
X17654800Y-22564021D01*
X56892900Y-22564021D01*
X56892900Y-24355178D01*
X56895862Y-24380707D01*
X56895862Y-24380709D01*
X56941966Y-24485125D01*
X57022675Y-24565834D01*
X57127091Y-24611938D01*
X57152621Y-24614900D01*
X58943778Y-24614899D01*
X58969309Y-24611938D01*
X59073725Y-24565834D01*
X59154434Y-24485125D01*
X59200538Y-24380709D01*
X59203500Y-24355179D01*
X59203499Y-22564022D01*
X59200538Y-22538491D01*
X59154434Y-22434075D01*
X59073725Y-22353366D01*
X58969309Y-22307262D01*
X58969307Y-22307261D01*
X58947128Y-22304688D01*
X58943779Y-22304300D01*
X58943778Y-22304300D01*
X57152621Y-22304300D01*
X57127090Y-22307262D01*
X57127089Y-22307262D01*
X57022673Y-22353367D01*
X56941967Y-22434073D01*
X56895861Y-22538492D01*
X56892900Y-22564021D01*
X17654800Y-22564021D01*
X17654800Y-21397300D01*
X17673106Y-21353106D01*
X17717300Y-21334800D01*
X25803849Y-21334800D01*
X25948709Y-21305986D01*
X26085164Y-21249464D01*
X26207970Y-21167408D01*
X26312408Y-21062970D01*
X26394464Y-20940164D01*
X26450986Y-20803709D01*
X26479800Y-20658849D01*
X26479800Y-20511151D01*
X26450986Y-20366291D01*
X26399832Y-20242795D01*
X26394465Y-20229838D01*
X26394462Y-20229833D01*
X26312408Y-20107030D01*
X26207969Y-20002591D01*
X26085166Y-19920537D01*
X26085161Y-19920534D01*
X25948710Y-19864014D01*
X25948707Y-19864013D01*
X25803849Y-19835200D01*
X17766466Y-19835200D01*
X17722272Y-19816894D01*
X17673106Y-19767728D01*
X17654800Y-19723534D01*
X17654800Y-18436946D01*
X17654801Y-18436925D01*
X17654801Y-18286151D01*
X17625986Y-18141292D01*
X17610845Y-18104739D01*
X17579820Y-18029837D01*
X17569465Y-18004837D01*
X17520817Y-17932030D01*
X17487408Y-17882030D01*
X17382970Y-17777592D01*
X17380792Y-17775414D01*
X17380781Y-17775404D01*
X16839801Y-17234424D01*
X65444138Y-17234424D01*
X65444138Y-19325581D01*
X65447100Y-19351112D01*
X65447100Y-19351113D01*
X65467457Y-19397217D01*
X65493204Y-19455528D01*
X65573913Y-19536237D01*
X65678329Y-19582341D01*
X65703859Y-19585303D01*
X67795016Y-19585302D01*
X67820547Y-19582341D01*
X67820554Y-19582338D01*
X67874176Y-19558662D01*
X67921998Y-19557556D01*
X67956595Y-19590591D01*
X67961921Y-19615836D01*
X67961921Y-20884746D01*
X68487542Y-20359124D01*
X68500480Y-20390358D01*
X68582558Y-20513197D01*
X68687024Y-20617663D01*
X68809863Y-20699741D01*
X68841095Y-20712678D01*
X68315474Y-21238299D01*
X68315475Y-21238300D01*
X70014767Y-21238300D01*
X70014767Y-21238299D01*
X69489146Y-20712678D01*
X69520379Y-20699741D01*
X69643218Y-20617663D01*
X69747684Y-20513197D01*
X69829762Y-20390358D01*
X69842699Y-20359125D01*
X70368320Y-20884746D01*
X70368321Y-20884746D01*
X70368321Y-19415700D01*
X70253197Y-19300576D01*
X69842698Y-19711074D01*
X69829762Y-19679842D01*
X69747684Y-19557003D01*
X69643218Y-19452537D01*
X69520379Y-19370459D01*
X69489145Y-19357521D01*
X70014767Y-18831900D01*
X68145103Y-18831900D01*
X68129429Y-18835018D01*
X68082513Y-18825685D01*
X68055938Y-18785911D01*
X68054737Y-18773725D01*
X68054737Y-18195671D01*
X68073043Y-18151478D01*
X68117237Y-18133172D01*
X68161431Y-18151478D01*
X68167113Y-18158008D01*
X68277444Y-18304112D01*
X68277449Y-18304117D01*
X68277453Y-18304122D01*
X68388834Y-18405659D01*
X68441661Y-18453818D01*
X68441662Y-18453819D01*
X68441666Y-18453822D01*
X68630591Y-18570799D01*
X68837793Y-18651070D01*
X69056217Y-18691900D01*
X69056220Y-18691900D01*
X69278422Y-18691900D01*
X69278425Y-18691900D01*
X69496849Y-18651070D01*
X69704051Y-18570799D01*
X69892976Y-18453822D01*
X70057189Y-18304122D01*
X70191099Y-18126796D01*
X70259156Y-17990117D01*
X70295242Y-17958717D01*
X70342963Y-17962029D01*
X70374364Y-17998115D01*
X70377604Y-18017977D01*
X70377604Y-18899403D01*
X70492727Y-19014526D01*
X70903225Y-18604027D01*
X70916163Y-18635261D01*
X70998241Y-18758100D01*
X71102707Y-18862566D01*
X71225546Y-18944644D01*
X71256778Y-18957581D01*
X70731157Y-19483202D01*
X70731158Y-19483203D01*
X72430450Y-19483203D01*
X72430450Y-19483202D01*
X71904829Y-18957581D01*
X71936062Y-18944644D01*
X72058901Y-18862566D01*
X72163367Y-18758100D01*
X72245445Y-18635261D01*
X72258382Y-18604028D01*
X72784003Y-19129649D01*
X72784004Y-19129649D01*
X72784004Y-17430355D01*
X72784003Y-17430355D01*
X72258381Y-17955976D01*
X72245445Y-17924745D01*
X72163367Y-17801906D01*
X72058901Y-17697440D01*
X71936062Y-17615362D01*
X71904828Y-17602424D01*
X72430450Y-17076803D01*
X70731157Y-17076803D01*
X71256779Y-17602424D01*
X71225546Y-17615362D01*
X71102707Y-17697440D01*
X70998241Y-17801906D01*
X70916163Y-17924745D01*
X70903225Y-17955977D01*
X70380400Y-17433151D01*
X70362361Y-17394724D01*
X70350956Y-17271647D01*
X70350954Y-17271636D01*
X70333102Y-17208894D01*
X70290145Y-17057916D01*
X70191099Y-16859004D01*
X70191096Y-16859000D01*
X70181022Y-16845659D01*
X70168999Y-16799360D01*
X70193236Y-16758119D01*
X70230899Y-16745496D01*
X71703673Y-16745496D01*
X71729204Y-16742535D01*
X71833620Y-16696431D01*
X71914329Y-16615722D01*
X71960433Y-16511306D01*
X71963395Y-16485776D01*
X71963394Y-14394619D01*
X71960433Y-14369088D01*
X71914329Y-14264672D01*
X71833620Y-14183963D01*
X71729204Y-14137859D01*
X71729202Y-14137858D01*
X71707023Y-14135285D01*
X71703674Y-14134897D01*
X71703673Y-14134897D01*
X69612516Y-14134897D01*
X69586985Y-14137859D01*
X69586984Y-14137859D01*
X69482568Y-14183964D01*
X69401862Y-14264670D01*
X69355756Y-14369089D01*
X69352795Y-14394618D01*
X69352795Y-16232536D01*
X69334489Y-16276730D01*
X69290295Y-16295036D01*
X69278811Y-16293972D01*
X69278429Y-16293900D01*
X69278425Y-16293900D01*
X69056217Y-16293900D01*
X69056210Y-16293900D01*
X69051425Y-16294795D01*
X69004620Y-16284917D01*
X68978509Y-16244837D01*
X68977446Y-16233358D01*
X68977446Y-14394618D01*
X68977102Y-14391657D01*
X68974485Y-14369088D01*
X68928381Y-14264672D01*
X68847672Y-14183963D01*
X68743256Y-14137859D01*
X68743254Y-14137858D01*
X68721075Y-14135285D01*
X68717726Y-14134897D01*
X68717725Y-14134897D01*
X66626568Y-14134897D01*
X66601037Y-14137859D01*
X66601036Y-14137859D01*
X66496620Y-14183964D01*
X66415914Y-14264670D01*
X66369808Y-14369089D01*
X66366847Y-14394618D01*
X66366847Y-16485775D01*
X66369809Y-16511306D01*
X66369809Y-16511307D01*
X66390166Y-16557411D01*
X66415913Y-16615722D01*
X66496622Y-16696431D01*
X66601038Y-16742535D01*
X66626568Y-16745497D01*
X68103743Y-16745496D01*
X68147937Y-16763802D01*
X68166243Y-16807996D01*
X68153620Y-16845660D01*
X68143543Y-16859004D01*
X68054831Y-17037160D01*
X68018745Y-17068561D01*
X67971024Y-17065249D01*
X67954689Y-17053495D01*
X67924964Y-17023770D01*
X67924963Y-17023769D01*
X67820547Y-16977665D01*
X67820545Y-16977664D01*
X67798366Y-16975091D01*
X67795017Y-16974703D01*
X67795016Y-16974703D01*
X65703859Y-16974703D01*
X65678328Y-16977665D01*
X65678327Y-16977665D01*
X65573911Y-17023770D01*
X65493205Y-17104476D01*
X65447099Y-17208895D01*
X65444138Y-17234424D01*
X16839801Y-17234424D01*
X15773106Y-16167728D01*
X15754800Y-16123534D01*
X15754800Y-14629299D01*
X59632592Y-14629299D01*
X59652974Y-14823222D01*
X59713226Y-15008660D01*
X59713228Y-15008664D01*
X59713229Y-15008666D01*
X59810724Y-15177532D01*
X59941197Y-15322437D01*
X59941200Y-15322440D01*
X59949868Y-15328738D01*
X59974861Y-15369525D01*
X59963692Y-15416038D01*
X59949868Y-15429862D01*
X59941200Y-15436159D01*
X59810723Y-15581069D01*
X59713226Y-15749939D01*
X59652974Y-15935377D01*
X59632592Y-16129301D01*
X59652974Y-16323224D01*
X59713226Y-16508662D01*
X59713228Y-16508666D01*
X59713229Y-16508668D01*
X59810724Y-16677534D01*
X59941197Y-16822439D01*
X60098946Y-16937051D01*
X60277078Y-17016360D01*
X60467806Y-17056901D01*
X60662796Y-17056901D01*
X60853524Y-17016360D01*
X61031656Y-16937051D01*
X61189405Y-16822439D01*
X61319878Y-16677534D01*
X61417373Y-16508668D01*
X61477628Y-16323222D01*
X61498010Y-16129301D01*
X61477628Y-15935380D01*
X61473830Y-15923693D01*
X61417375Y-15749939D01*
X61417374Y-15749937D01*
X61417373Y-15749934D01*
X61319878Y-15581068D01*
X61189405Y-15436163D01*
X61180734Y-15429863D01*
X61155741Y-15389078D01*
X61166907Y-15342564D01*
X61180735Y-15328736D01*
X61189405Y-15322437D01*
X61319878Y-15177532D01*
X61417373Y-15008666D01*
X61477628Y-14823220D01*
X61498010Y-14629299D01*
X61477628Y-14435378D01*
X61464384Y-14394618D01*
X61417375Y-14249937D01*
X61417374Y-14249935D01*
X61417373Y-14249932D01*
X61319878Y-14081066D01*
X61189405Y-13936161D01*
X61154520Y-13910815D01*
X61031661Y-13821552D01*
X61031658Y-13821550D01*
X61031656Y-13821549D01*
X60907418Y-13766235D01*
X60853527Y-13742241D01*
X60853524Y-13742240D01*
X60853522Y-13742239D01*
X60853520Y-13742239D01*
X60662796Y-13701699D01*
X60467806Y-13701699D01*
X60277078Y-13742239D01*
X60144223Y-13801391D01*
X60098947Y-13821549D01*
X60098945Y-13821549D01*
X60098941Y-13821552D01*
X59941198Y-13936160D01*
X59941196Y-13936161D01*
X59810723Y-14081067D01*
X59713226Y-14249937D01*
X59652974Y-14435375D01*
X59632592Y-14629299D01*
X15754800Y-14629299D01*
X15754800Y-11043221D01*
X61713100Y-11043221D01*
X61713100Y-12834378D01*
X61713564Y-12838374D01*
X61716062Y-12859909D01*
X61762166Y-12964325D01*
X61842875Y-13045034D01*
X61947291Y-13091138D01*
X61972821Y-13094100D01*
X63763978Y-13094099D01*
X63789509Y-13091138D01*
X63893925Y-13045034D01*
X63974634Y-12964325D01*
X64020738Y-12859909D01*
X64023700Y-12834379D01*
X64023699Y-11043222D01*
X64020738Y-11017691D01*
X63974634Y-10913275D01*
X63893925Y-10832566D01*
X63789509Y-10786462D01*
X63789507Y-10786461D01*
X63767328Y-10783888D01*
X63763979Y-10783500D01*
X63763978Y-10783500D01*
X61972821Y-10783500D01*
X61947290Y-10786462D01*
X61947289Y-10786462D01*
X61842873Y-10832567D01*
X61762167Y-10913273D01*
X61716061Y-11017692D01*
X61713100Y-11043221D01*
X15754800Y-11043221D01*
X15754800Y-8305851D01*
X15773106Y-8261657D01*
X15817300Y-8243351D01*
X15829492Y-8244551D01*
X15906151Y-8259800D01*
X28392700Y-8259800D01*
X28436894Y-8278106D01*
X28455200Y-8322300D01*
X28455200Y-8444310D01*
X28453999Y-8456503D01*
X28451058Y-8471292D01*
X28430200Y-8576151D01*
X28430200Y-8723849D01*
X28459014Y-8868708D01*
X28515535Y-9005163D01*
X28515536Y-9005164D01*
X28597591Y-9127969D01*
X28659430Y-9189808D01*
X28663845Y-9194716D01*
X28683254Y-9218732D01*
X28683258Y-9218736D01*
X28711683Y-9242423D01*
X28715866Y-9246243D01*
X28742031Y-9272408D01*
X28767706Y-9289563D01*
X28772994Y-9293516D01*
X28796717Y-9313285D01*
X28796722Y-9313289D01*
X28829224Y-9330977D01*
X28834067Y-9333905D01*
X28864833Y-9354463D01*
X28864837Y-9354465D01*
X28893369Y-9366283D01*
X28899328Y-9369129D01*
X28926453Y-9383891D01*
X28926458Y-9383892D01*
X28926459Y-9383893D01*
X28961777Y-9394896D01*
X28967105Y-9396825D01*
X28990415Y-9406480D01*
X29001292Y-9410986D01*
X29031582Y-9417011D01*
X29037973Y-9418637D01*
X29067465Y-9427826D01*
X29104263Y-9431729D01*
X29109837Y-9432577D01*
X29146152Y-9439801D01*
X29177043Y-9439801D01*
X29183636Y-9440150D01*
X29214337Y-9443407D01*
X29214337Y-9443406D01*
X29214338Y-9443407D01*
X29251177Y-9440057D01*
X29256835Y-9439801D01*
X29293850Y-9439801D01*
X29293850Y-9439800D01*
X29324156Y-9433771D01*
X29330652Y-9432832D01*
X29361429Y-9430035D01*
X29396926Y-9419557D01*
X29402411Y-9418205D01*
X29438708Y-9410986D01*
X29467244Y-9399165D01*
X29473453Y-9396969D01*
X29503085Y-9388224D01*
X29503087Y-9388222D01*
X29504926Y-9387680D01*
X29523890Y-9385137D01*
X30226087Y-9399467D01*
X30227365Y-9399507D01*
X31115882Y-9436528D01*
X31125466Y-9437674D01*
X31136151Y-9439800D01*
X31193087Y-9439800D01*
X31195689Y-9439854D01*
X31252569Y-9442224D01*
X31252569Y-9442223D01*
X31252570Y-9442224D01*
X31263330Y-9440545D01*
X31272960Y-9439800D01*
X31423849Y-9439800D01*
X31568709Y-9410986D01*
X31705164Y-9354464D01*
X31827970Y-9272408D01*
X31932408Y-9167970D01*
X32014464Y-9045164D01*
X32070986Y-8908709D01*
X32099800Y-8763849D01*
X32099800Y-8616151D01*
X32070986Y-8471291D01*
X32014464Y-8334836D01*
X31932408Y-8212030D01*
X31827970Y-8107592D01*
X31785625Y-8079298D01*
X31705166Y-8025537D01*
X31705161Y-8025534D01*
X31568710Y-7969014D01*
X31568707Y-7969013D01*
X31423849Y-7940200D01*
X31226929Y-7940200D01*
X31224327Y-7940146D01*
X30352455Y-7903818D01*
X30341621Y-7902411D01*
X30339132Y-7901863D01*
X30273916Y-7900531D01*
X30272592Y-7900490D01*
X30207428Y-7897775D01*
X30204912Y-7898168D01*
X30194011Y-7898901D01*
X30016025Y-7895268D01*
X29972213Y-7876064D01*
X29954800Y-7832781D01*
X29954800Y-7439621D01*
X61717900Y-7439621D01*
X61717900Y-9230778D01*
X61720862Y-9256307D01*
X61720862Y-9256309D01*
X61766966Y-9360725D01*
X61847675Y-9441434D01*
X61952091Y-9487538D01*
X61977621Y-9490500D01*
X63768778Y-9490499D01*
X63794309Y-9487538D01*
X63898725Y-9441434D01*
X63979434Y-9360725D01*
X64025538Y-9256309D01*
X64028500Y-9230779D01*
X64028499Y-7439622D01*
X64025538Y-7414091D01*
X63979434Y-7309675D01*
X63898725Y-7228966D01*
X63794309Y-7182862D01*
X63794307Y-7182861D01*
X63772128Y-7180288D01*
X63768779Y-7179900D01*
X63768778Y-7179900D01*
X61977621Y-7179900D01*
X61952090Y-7182862D01*
X61952089Y-7182862D01*
X61859881Y-7223576D01*
X61854368Y-7226011D01*
X61847673Y-7228967D01*
X61766967Y-7309673D01*
X61720861Y-7414092D01*
X61717900Y-7439621D01*
X29954800Y-7439621D01*
X29954800Y-7436151D01*
X29925986Y-7291291D01*
X29881073Y-7182862D01*
X29869465Y-7154838D01*
X29869462Y-7154833D01*
X29787408Y-7032030D01*
X29682969Y-6927591D01*
X29560166Y-6845537D01*
X29560161Y-6845534D01*
X29423710Y-6789014D01*
X29423707Y-6789013D01*
X29278849Y-6760200D01*
X16316466Y-6760200D01*
X16272272Y-6741894D01*
X15658163Y-6127785D01*
X66373400Y-6127785D01*
X66373400Y-6747800D01*
X66993588Y-6747800D01*
X66960675Y-6804807D01*
X66926600Y-6931974D01*
X66926600Y-7063626D01*
X66960675Y-7190793D01*
X66993588Y-7247800D01*
X66373400Y-7247800D01*
X66373400Y-7867814D01*
X66385189Y-7927084D01*
X66385190Y-7927086D01*
X66430101Y-7994298D01*
X66497313Y-8039209D01*
X66497315Y-8039210D01*
X66556585Y-8050999D01*
X66556586Y-8051000D01*
X67176600Y-8051000D01*
X67176600Y-7430812D01*
X67233607Y-7463725D01*
X67360774Y-7497800D01*
X67492426Y-7497800D01*
X67619593Y-7463725D01*
X67676600Y-7430812D01*
X67676600Y-8051000D01*
X68296614Y-8051000D01*
X68296614Y-8050999D01*
X68355884Y-8039210D01*
X68355886Y-8039209D01*
X68423098Y-7994298D01*
X68468009Y-7927086D01*
X68468010Y-7927084D01*
X68479799Y-7867814D01*
X68479800Y-7867814D01*
X68479800Y-7247800D01*
X67859612Y-7247800D01*
X67892525Y-7190793D01*
X67926600Y-7063626D01*
X67926600Y-6931974D01*
X67892525Y-6804807D01*
X67859612Y-6747800D01*
X68479800Y-6747800D01*
X68479800Y-6134785D01*
X70120000Y-6134785D01*
X70120000Y-6754800D01*
X70740188Y-6754800D01*
X70707275Y-6811807D01*
X70673200Y-6938974D01*
X70673200Y-7070626D01*
X70707275Y-7197793D01*
X70740188Y-7254800D01*
X70120000Y-7254800D01*
X70120000Y-7874814D01*
X70131789Y-7934084D01*
X70131790Y-7934086D01*
X70176701Y-8001298D01*
X70243913Y-8046209D01*
X70243915Y-8046210D01*
X70303185Y-8057999D01*
X70303186Y-8058000D01*
X70923200Y-8058000D01*
X70923200Y-7437812D01*
X70980207Y-7470725D01*
X71107374Y-7504800D01*
X71239026Y-7504800D01*
X71366193Y-7470725D01*
X71423200Y-7437812D01*
X71423200Y-8058000D01*
X72043214Y-8058000D01*
X72043214Y-8057999D01*
X72102484Y-8046210D01*
X72102486Y-8046209D01*
X72169698Y-8001298D01*
X72214609Y-7934086D01*
X72214610Y-7934084D01*
X72226399Y-7874814D01*
X72226400Y-7874814D01*
X72226400Y-7254800D01*
X71606212Y-7254800D01*
X71639125Y-7197793D01*
X71673200Y-7070626D01*
X71673200Y-6938974D01*
X71639125Y-6811807D01*
X71606212Y-6754800D01*
X72226400Y-6754800D01*
X72226400Y-6134786D01*
X72226399Y-6134785D01*
X72214610Y-6075515D01*
X72214609Y-6075513D01*
X72169698Y-6008301D01*
X72102486Y-5963390D01*
X72102484Y-5963389D01*
X72043214Y-5951600D01*
X71423200Y-5951600D01*
X71423200Y-6571788D01*
X71366193Y-6538875D01*
X71239026Y-6504800D01*
X71107374Y-6504800D01*
X70980207Y-6538875D01*
X70923200Y-6571788D01*
X70923200Y-5951600D01*
X70303186Y-5951600D01*
X70243915Y-5963389D01*
X70243913Y-5963390D01*
X70176701Y-6008301D01*
X70131790Y-6075513D01*
X70131789Y-6075515D01*
X70120000Y-6134785D01*
X68479800Y-6134785D01*
X68479800Y-6127786D01*
X68479799Y-6127785D01*
X68468010Y-6068515D01*
X68468009Y-6068513D01*
X68423098Y-6001301D01*
X68355886Y-5956390D01*
X68355884Y-5956389D01*
X68296614Y-5944600D01*
X67676600Y-5944600D01*
X67676600Y-6564788D01*
X67619593Y-6531875D01*
X67492426Y-6497800D01*
X67360774Y-6497800D01*
X67233607Y-6531875D01*
X67176600Y-6564788D01*
X67176600Y-5944600D01*
X66556586Y-5944600D01*
X66497315Y-5956389D01*
X66497313Y-5956390D01*
X66430101Y-6001301D01*
X66385190Y-6068513D01*
X66385189Y-6068515D01*
X66373400Y-6127785D01*
X15658163Y-6127785D01*
X15482969Y-5952591D01*
X15360164Y-5870536D01*
X15360163Y-5870535D01*
X15280231Y-5837425D01*
X15223709Y-5814014D01*
X15078849Y-5785200D01*
X14931151Y-5785200D01*
X14786290Y-5814014D01*
X14729769Y-5837425D01*
X14649836Y-5870535D01*
X14649835Y-5870536D01*
X14527030Y-5952591D01*
X14527028Y-5952593D01*
X11687728Y-8791894D01*
X11643534Y-8810200D01*
X3531151Y-8810200D01*
X3386292Y-8839013D01*
X3386289Y-8839014D01*
X3249838Y-8895534D01*
X3249833Y-8895537D01*
X3127030Y-8977591D01*
X3022591Y-9082030D01*
X2940537Y-9204833D01*
X2940534Y-9204838D01*
X2884014Y-9341289D01*
X2884013Y-9341292D01*
X2855200Y-9486150D01*
X529021Y-9486150D01*
X529021Y-8121380D01*
X529057Y-8119246D01*
X536954Y-7888073D01*
X546729Y-7601891D01*
X547021Y-7597647D01*
X551687Y-7552262D01*
X599847Y-7083791D01*
X600422Y-7079607D01*
X688194Y-6570545D01*
X689061Y-6566372D01*
X719502Y-6441458D01*
X789542Y-6154049D01*
X3095200Y-6154049D01*
X3095200Y-6254000D01*
X3730635Y-6254000D01*
X3703803Y-6318777D01*
X3679400Y-6441458D01*
X3679400Y-6566542D01*
X3703803Y-6689223D01*
X3730635Y-6754000D01*
X3095200Y-6754000D01*
X3095200Y-6853950D01*
X3095201Y-6853966D01*
X3125220Y-7043494D01*
X3125220Y-7043495D01*
X3184522Y-7226008D01*
X3184523Y-7226011D01*
X3271647Y-7397000D01*
X3384452Y-7552262D01*
X3520137Y-7687947D01*
X3675399Y-7800752D01*
X3846388Y-7887876D01*
X3846391Y-7887877D01*
X4028899Y-7947177D01*
X4028906Y-7947179D01*
X4064399Y-7952801D01*
X4064400Y-7952801D01*
X4064400Y-7087765D01*
X4129177Y-7114597D01*
X4251858Y-7139000D01*
X4376942Y-7139000D01*
X4499623Y-7114597D01*
X4564400Y-7087765D01*
X4564400Y-7952801D01*
X4599893Y-7947179D01*
X4599900Y-7947177D01*
X4782408Y-7887877D01*
X4782411Y-7887876D01*
X4953400Y-7800752D01*
X5108662Y-7687947D01*
X5244347Y-7552262D01*
X5357152Y-7397000D01*
X5444276Y-7226011D01*
X5444277Y-7226008D01*
X5503579Y-7043495D01*
X5503579Y-7043494D01*
X5533598Y-6853966D01*
X5533600Y-6853950D01*
X5533600Y-6754000D01*
X4898165Y-6754000D01*
X4924997Y-6689223D01*
X4949400Y-6566542D01*
X4949400Y-6441458D01*
X4924997Y-6318777D01*
X4898165Y-6254000D01*
X5533600Y-6254000D01*
X5533600Y-6154049D01*
X5533598Y-6154033D01*
X5532328Y-6146013D01*
X7993100Y-6146013D01*
X7993100Y-6861986D01*
X7993101Y-6862002D01*
X8025634Y-7067402D01*
X8025634Y-7067403D01*
X8089902Y-7265201D01*
X8089903Y-7265204D01*
X8103196Y-7291292D01*
X8184323Y-7450512D01*
X8184326Y-7450516D01*
X8306568Y-7618768D01*
X8306575Y-7618776D01*
X8453623Y-7765824D01*
X8453631Y-7765831D01*
X8621888Y-7888077D01*
X8807197Y-7982497D01*
X9004995Y-8046765D01*
X9091567Y-8060476D01*
X9210397Y-8079298D01*
X9210403Y-8079298D01*
X9210411Y-8079300D01*
X9210413Y-8079300D01*
X9418387Y-8079300D01*
X9418389Y-8079300D01*
X9623805Y-8046765D01*
X9821603Y-7982497D01*
X10006912Y-7888077D01*
X10175169Y-7765831D01*
X10322231Y-7618769D01*
X10444477Y-7450512D01*
X10538897Y-7265203D01*
X10603165Y-7067405D01*
X10635700Y-6861989D01*
X10635700Y-6146011D01*
X10632813Y-6127786D01*
X10606775Y-5963389D01*
X10603165Y-5940595D01*
X10538897Y-5742797D01*
X10444477Y-5557488D01*
X10322231Y-5389231D01*
X10322224Y-5389223D01*
X10175176Y-5242175D01*
X10175168Y-5242168D01*
X10006916Y-5119926D01*
X10006912Y-5119923D01*
X9879881Y-5055197D01*
X9821604Y-5025503D01*
X9821601Y-5025502D01*
X9623803Y-4961234D01*
X9418402Y-4928701D01*
X9418390Y-4928700D01*
X9418389Y-4928700D01*
X9210411Y-4928700D01*
X9210409Y-4928700D01*
X9210397Y-4928701D01*
X9004997Y-4961234D01*
X9004996Y-4961234D01*
X8807198Y-5025502D01*
X8807195Y-5025503D01*
X8678854Y-5090897D01*
X8621888Y-5119923D01*
X8621885Y-5119924D01*
X8621883Y-5119926D01*
X8453631Y-5242168D01*
X8453623Y-5242175D01*
X8306575Y-5389223D01*
X8306568Y-5389231D01*
X8184326Y-5557483D01*
X8184324Y-5557485D01*
X8184323Y-5557488D01*
X8179981Y-5566010D01*
X8089903Y-5742795D01*
X8089902Y-5742798D01*
X8025634Y-5940596D01*
X8025634Y-5940597D01*
X7993101Y-6145997D01*
X7993100Y-6146013D01*
X5532328Y-6146013D01*
X5503579Y-5964505D01*
X5503579Y-5964504D01*
X5444277Y-5781991D01*
X5444276Y-5781988D01*
X5357152Y-5610999D01*
X5244347Y-5455737D01*
X5108662Y-5320052D01*
X4953400Y-5207247D01*
X4782411Y-5120123D01*
X4782408Y-5120122D01*
X4599902Y-5060822D01*
X4599887Y-5060819D01*
X4564400Y-5055197D01*
X4564400Y-5920234D01*
X4499623Y-5893403D01*
X4376942Y-5869000D01*
X4251858Y-5869000D01*
X4129177Y-5893403D01*
X4064400Y-5920234D01*
X4064400Y-5055198D01*
X4064399Y-5055197D01*
X4028912Y-5060819D01*
X4028897Y-5060822D01*
X3846391Y-5120122D01*
X3846388Y-5120123D01*
X3675399Y-5207247D01*
X3520137Y-5320052D01*
X3384452Y-5455737D01*
X3271647Y-5610999D01*
X3184523Y-5781988D01*
X3184522Y-5781991D01*
X3125220Y-5964504D01*
X3125220Y-5964505D01*
X3095201Y-6154033D01*
X3095200Y-6154049D01*
X789542Y-6154049D01*
X811367Y-6064488D01*
X812514Y-6060397D01*
X968786Y-5568024D01*
X970214Y-5564010D01*
X1012912Y-5455737D01*
X1159706Y-5083490D01*
X1161406Y-5079577D01*
X1161545Y-5079285D01*
X1383265Y-4613073D01*
X1385212Y-4609315D01*
X1638403Y-4159015D01*
X1640604Y-4155398D01*
X1923918Y-3723454D01*
X1926362Y-3719991D01*
X2238517Y-3308352D01*
X2241163Y-3305101D01*
X2580680Y-2915726D01*
X2583565Y-2912637D01*
X2948852Y-2547352D01*
X2951941Y-2544467D01*
X3341317Y-2204950D01*
X3344568Y-2202304D01*
X3756206Y-1890150D01*
X3759670Y-1887706D01*
X4061981Y-1689421D01*
X14059700Y-1689421D01*
X14059700Y-3480578D01*
X14062662Y-3506107D01*
X14062662Y-3506109D01*
X14108766Y-3610525D01*
X14189475Y-3691234D01*
X14293891Y-3737338D01*
X14319421Y-3740300D01*
X16110578Y-3740299D01*
X16136109Y-3737338D01*
X16240525Y-3691234D01*
X16321234Y-3610525D01*
X16367338Y-3506109D01*
X16370300Y-3480579D01*
X16370299Y-2584996D01*
X16594751Y-2584996D01*
X16594751Y-2585003D01*
X16614504Y-2798187D01*
X16614506Y-2798198D01*
X16647493Y-2914133D01*
X16673100Y-3004130D01*
X16768536Y-3195792D01*
X16868028Y-3327540D01*
X16884890Y-3349870D01*
X16897566Y-3366655D01*
X16963893Y-3427120D01*
X17055789Y-3510895D01*
X17055790Y-3510896D01*
X17055794Y-3510899D01*
X17237833Y-3623612D01*
X17437483Y-3700957D01*
X17647946Y-3740300D01*
X17647949Y-3740300D01*
X17862051Y-3740300D01*
X17862054Y-3740300D01*
X18072517Y-3700957D01*
X18272167Y-3623612D01*
X18454206Y-3510899D01*
X18612434Y-3366655D01*
X18741464Y-3195792D01*
X18836900Y-3004130D01*
X18895494Y-2798195D01*
X18908947Y-2653013D01*
X18915249Y-2585003D01*
X18915249Y-2584996D01*
X18895495Y-2371812D01*
X18895493Y-2371801D01*
X18885022Y-2335000D01*
X19270246Y-2335000D01*
X19861988Y-2335000D01*
X19829075Y-2392007D01*
X19795000Y-2519174D01*
X19795000Y-2650826D01*
X19829075Y-2777993D01*
X19861988Y-2835000D01*
X19270246Y-2835000D01*
X19317261Y-2989990D01*
X19317262Y-2989993D01*
X19415055Y-3172952D01*
X19415059Y-3172958D01*
X19546672Y-3333327D01*
X19707041Y-3464940D01*
X19707047Y-3464944D01*
X19890006Y-3562737D01*
X19890009Y-3562738D01*
X20045000Y-3609753D01*
X20045000Y-3018012D01*
X20102007Y-3050925D01*
X20229174Y-3085000D01*
X20360826Y-3085000D01*
X20487993Y-3050925D01*
X20545000Y-3018012D01*
X20545000Y-3609753D01*
X20699990Y-3562738D01*
X20699993Y-3562737D01*
X20882952Y-3464944D01*
X20882958Y-3464940D01*
X21043327Y-3333327D01*
X21174940Y-3172958D01*
X21174944Y-3172952D01*
X21272737Y-2989993D01*
X21272738Y-2989990D01*
X21319754Y-2835000D01*
X20728012Y-2835000D01*
X20760925Y-2777993D01*
X20795000Y-2650826D01*
X20795000Y-2584996D01*
X21674751Y-2584996D01*
X21674751Y-2585003D01*
X21694504Y-2798187D01*
X21694506Y-2798198D01*
X21727493Y-2914133D01*
X21753100Y-3004130D01*
X21848536Y-3195792D01*
X21948028Y-3327540D01*
X21964890Y-3349870D01*
X21977566Y-3366655D01*
X22043893Y-3427120D01*
X22135789Y-3510895D01*
X22135790Y-3510896D01*
X22135794Y-3510899D01*
X22317833Y-3623612D01*
X22517483Y-3700957D01*
X22727946Y-3740300D01*
X22727949Y-3740300D01*
X22942051Y-3740300D01*
X22942054Y-3740300D01*
X23152517Y-3700957D01*
X23352167Y-3623612D01*
X23534206Y-3510899D01*
X23692434Y-3366655D01*
X23821464Y-3195792D01*
X23916900Y-3004130D01*
X23975494Y-2798195D01*
X23976597Y-2786296D01*
X30465872Y-2786296D01*
X30465872Y-2786303D01*
X30485625Y-2999487D01*
X30485627Y-2999498D01*
X30541478Y-3195791D01*
X30544221Y-3205430D01*
X30639657Y-3397092D01*
X30721983Y-3506109D01*
X30767870Y-3566874D01*
X30768687Y-3567955D01*
X30823118Y-3617575D01*
X30926910Y-3712195D01*
X30926911Y-3712196D01*
X30926915Y-3712199D01*
X31108954Y-3824912D01*
X31308604Y-3902257D01*
X31519067Y-3941600D01*
X31519070Y-3941600D01*
X31733172Y-3941600D01*
X31733175Y-3941600D01*
X31943638Y-3902257D01*
X32143288Y-3824912D01*
X32325327Y-3712199D01*
X32483555Y-3567955D01*
X32612585Y-3397092D01*
X32708021Y-3205430D01*
X32766615Y-2999495D01*
X32766815Y-2997335D01*
X32786370Y-2786303D01*
X32786370Y-2786296D01*
X33005872Y-2786296D01*
X33005872Y-2786303D01*
X33025625Y-2999487D01*
X33025627Y-2999498D01*
X33081478Y-3195791D01*
X33084221Y-3205430D01*
X33179657Y-3397092D01*
X33261983Y-3506109D01*
X33307870Y-3566874D01*
X33308687Y-3567955D01*
X33363118Y-3617575D01*
X33466910Y-3712195D01*
X33466911Y-3712196D01*
X33466915Y-3712199D01*
X33648954Y-3824912D01*
X33848604Y-3902257D01*
X34059067Y-3941600D01*
X34059070Y-3941600D01*
X34273172Y-3941600D01*
X34273175Y-3941600D01*
X34483638Y-3902257D01*
X34683288Y-3824912D01*
X34865327Y-3712199D01*
X35023555Y-3567955D01*
X35152585Y-3397092D01*
X35248021Y-3205430D01*
X35306615Y-2999495D01*
X35306815Y-2997335D01*
X35326370Y-2786303D01*
X35326370Y-2786296D01*
X35545872Y-2786296D01*
X35545872Y-2786303D01*
X35565625Y-2999487D01*
X35565627Y-2999498D01*
X35621478Y-3195791D01*
X35624221Y-3205430D01*
X35719657Y-3397092D01*
X35801983Y-3506109D01*
X35847870Y-3566874D01*
X35848687Y-3567955D01*
X35903118Y-3617575D01*
X36006910Y-3712195D01*
X36006911Y-3712196D01*
X36006915Y-3712199D01*
X36188954Y-3824912D01*
X36388604Y-3902257D01*
X36599067Y-3941600D01*
X36599070Y-3941600D01*
X36813172Y-3941600D01*
X36813175Y-3941600D01*
X37023638Y-3902257D01*
X37223288Y-3824912D01*
X37405327Y-3712199D01*
X37563555Y-3567955D01*
X37692585Y-3397092D01*
X37788021Y-3205430D01*
X37846615Y-2999495D01*
X37846815Y-2997335D01*
X37866370Y-2786303D01*
X37866370Y-2786296D01*
X38085872Y-2786296D01*
X38085872Y-2786303D01*
X38105625Y-2999487D01*
X38105627Y-2999498D01*
X38161478Y-3195791D01*
X38164221Y-3205430D01*
X38259657Y-3397092D01*
X38341983Y-3506109D01*
X38387870Y-3566874D01*
X38388687Y-3567955D01*
X38443118Y-3617575D01*
X38546910Y-3712195D01*
X38546911Y-3712196D01*
X38546915Y-3712199D01*
X38728954Y-3824912D01*
X38928604Y-3902257D01*
X39139067Y-3941600D01*
X39139070Y-3941600D01*
X39353172Y-3941600D01*
X39353175Y-3941600D01*
X39563638Y-3902257D01*
X39763288Y-3824912D01*
X39945327Y-3712199D01*
X40103555Y-3567955D01*
X40232585Y-3397092D01*
X40328021Y-3205430D01*
X40386615Y-2999495D01*
X40386815Y-2997335D01*
X40406370Y-2786303D01*
X40406370Y-2786296D01*
X40625872Y-2786296D01*
X40625872Y-2786303D01*
X40645625Y-2999487D01*
X40645627Y-2999498D01*
X40701478Y-3195791D01*
X40704221Y-3205430D01*
X40799657Y-3397092D01*
X40881983Y-3506109D01*
X40927870Y-3566874D01*
X40928687Y-3567955D01*
X40983118Y-3617575D01*
X41086910Y-3712195D01*
X41086911Y-3712196D01*
X41086915Y-3712199D01*
X41268954Y-3824912D01*
X41468604Y-3902257D01*
X41679067Y-3941600D01*
X41679070Y-3941600D01*
X41893172Y-3941600D01*
X41893175Y-3941600D01*
X42103638Y-3902257D01*
X42303288Y-3824912D01*
X42485327Y-3712199D01*
X42643555Y-3567955D01*
X42772585Y-3397092D01*
X42868021Y-3205430D01*
X42926615Y-2999495D01*
X42926815Y-2997335D01*
X42946370Y-2786303D01*
X42946370Y-2786296D01*
X42926616Y-2573112D01*
X42926614Y-2573101D01*
X42888609Y-2439529D01*
X42868021Y-2367170D01*
X42772585Y-2175508D01*
X42643555Y-2004645D01*
X42546629Y-1916285D01*
X43272921Y-1916285D01*
X43272921Y-2536300D01*
X43893109Y-2536300D01*
X43860196Y-2593307D01*
X43826121Y-2720474D01*
X43826121Y-2852126D01*
X43860196Y-2979293D01*
X43893109Y-3036300D01*
X43272921Y-3036300D01*
X43272921Y-3656314D01*
X43284710Y-3715584D01*
X43284711Y-3715586D01*
X43329622Y-3782798D01*
X43396834Y-3827709D01*
X43396836Y-3827710D01*
X43456106Y-3839499D01*
X43456107Y-3839500D01*
X44076121Y-3839500D01*
X44076121Y-3219312D01*
X44133128Y-3252225D01*
X44260295Y-3286300D01*
X44391947Y-3286300D01*
X44519114Y-3252225D01*
X44576121Y-3219312D01*
X44576121Y-3839500D01*
X45196135Y-3839500D01*
X45196135Y-3839499D01*
X45255405Y-3827710D01*
X45255407Y-3827709D01*
X45322619Y-3782798D01*
X45367530Y-3715586D01*
X45367531Y-3715584D01*
X45379320Y-3656314D01*
X45379321Y-3656314D01*
X45379321Y-3095000D01*
X53933736Y-3095000D01*
X53953557Y-3334199D01*
X54012478Y-3566874D01*
X54059841Y-3674850D01*
X54108893Y-3786679D01*
X54108895Y-3786682D01*
X54143403Y-3839500D01*
X54240171Y-3987613D01*
X54394615Y-4155385D01*
X54402732Y-4164202D01*
X54402735Y-4164205D01*
X54592138Y-4311623D01*
X54592145Y-4311627D01*
X54714859Y-4378036D01*
X54803231Y-4425860D01*
X54803239Y-4425863D01*
X54803242Y-4425864D01*
X55030238Y-4503793D01*
X55030240Y-4503793D01*
X55030245Y-4503795D01*
X55266990Y-4543300D01*
X55266993Y-4543300D01*
X55507007Y-4543300D01*
X55507010Y-4543300D01*
X55743755Y-4503795D01*
X55970769Y-4425860D01*
X56181860Y-4311624D01*
X56371269Y-4164201D01*
X56533829Y-3987613D01*
X56665108Y-3786677D01*
X56761522Y-3566874D01*
X56820443Y-3334199D01*
X56840264Y-3095000D01*
X56820443Y-2855801D01*
X56803931Y-2790598D01*
X59249897Y-2790598D01*
X59249897Y-2790599D01*
X59270258Y-2997335D01*
X59282078Y-3036300D01*
X59330562Y-3196130D01*
X59366784Y-3263897D01*
X59428485Y-3379332D01*
X59428489Y-3379338D01*
X59560277Y-3539922D01*
X59720861Y-3671710D01*
X59720863Y-3671711D01*
X59720866Y-3671713D01*
X59757384Y-3691232D01*
X59904069Y-3769637D01*
X60102862Y-3829940D01*
X60309600Y-3850302D01*
X60516338Y-3829940D01*
X60715131Y-3769637D01*
X60898339Y-3671710D01*
X61058923Y-3539922D01*
X61190711Y-3379338D01*
X61288638Y-3196130D01*
X61348941Y-2997337D01*
X61369303Y-2790599D01*
X61369303Y-2790598D01*
X61852491Y-2790598D01*
X61852491Y-2790599D01*
X61870881Y-2977320D01*
X61925348Y-3156870D01*
X61982622Y-3264023D01*
X62330474Y-2916171D01*
X62348054Y-2981778D01*
X62413261Y-3094720D01*
X62505479Y-3186938D01*
X62618421Y-3252145D01*
X62684027Y-3269724D01*
X62336174Y-3617575D01*
X62336175Y-3617576D01*
X62443326Y-3674850D01*
X62622878Y-3729317D01*
X62809600Y-3747708D01*
X62996321Y-3729317D01*
X63175873Y-3674850D01*
X63283023Y-3617576D01*
X63283024Y-3617575D01*
X62935172Y-3269724D01*
X63000779Y-3252145D01*
X63113721Y-3186938D01*
X63205939Y-3094720D01*
X63271146Y-2981778D01*
X63288725Y-2916171D01*
X63636576Y-3264023D01*
X63636577Y-3264022D01*
X63693851Y-3156872D01*
X63706493Y-3115197D01*
X66408658Y-3115197D01*
X66408658Y-3115202D01*
X66429187Y-3349854D01*
X66429190Y-3349870D01*
X66490153Y-3577386D01*
X66589701Y-3790867D01*
X66647802Y-3873843D01*
X67270504Y-3251140D01*
X67286619Y-3311281D01*
X67353498Y-3427120D01*
X67448080Y-3521702D01*
X67563919Y-3588581D01*
X67624057Y-3604694D01*
X67001355Y-4227396D01*
X67084329Y-4285497D01*
X67297813Y-4385046D01*
X67525329Y-4446009D01*
X67525345Y-4446012D01*
X67759998Y-4466542D01*
X67760002Y-4466542D01*
X67994654Y-4446012D01*
X67994670Y-4446009D01*
X68222186Y-4385046D01*
X68435672Y-4285496D01*
X68435676Y-4285494D01*
X68518643Y-4227397D01*
X68518644Y-4227397D01*
X67895942Y-3604695D01*
X67956081Y-3588581D01*
X68071920Y-3521702D01*
X68166502Y-3427120D01*
X68233381Y-3311281D01*
X68249495Y-3251142D01*
X68872197Y-3873844D01*
X68872197Y-3873843D01*
X68930294Y-3790876D01*
X68930296Y-3790872D01*
X69029846Y-3577386D01*
X69090809Y-3349870D01*
X69090812Y-3349854D01*
X69111342Y-3115202D01*
X69111342Y-3115197D01*
X69090812Y-2880545D01*
X69090809Y-2880529D01*
X69029846Y-2653013D01*
X68930297Y-2439529D01*
X68872196Y-2356555D01*
X68249494Y-2979257D01*
X68233381Y-2919119D01*
X68166502Y-2803280D01*
X68071920Y-2708698D01*
X67956081Y-2641819D01*
X67895940Y-2625704D01*
X68518643Y-2003002D01*
X68435667Y-1944901D01*
X68222186Y-1845353D01*
X67994670Y-1784390D01*
X67994654Y-1784387D01*
X67760002Y-1763858D01*
X67759998Y-1763858D01*
X67525345Y-1784387D01*
X67525329Y-1784390D01*
X67297813Y-1845353D01*
X67084329Y-1944902D01*
X67001355Y-2003001D01*
X67001354Y-2003001D01*
X67624057Y-2625704D01*
X67563919Y-2641819D01*
X67448080Y-2708698D01*
X67353498Y-2803280D01*
X67286619Y-2919119D01*
X67270504Y-2979257D01*
X66647801Y-2356554D01*
X66647801Y-2356555D01*
X66589702Y-2439529D01*
X66490153Y-2653013D01*
X66429190Y-2880529D01*
X66429187Y-2880545D01*
X66408658Y-3115197D01*
X63706493Y-3115197D01*
X63748318Y-2977320D01*
X63766709Y-2790599D01*
X63766709Y-2790598D01*
X63748318Y-2603877D01*
X63693851Y-2424325D01*
X63636577Y-2317174D01*
X63636576Y-2317173D01*
X63288724Y-2665025D01*
X63271146Y-2599420D01*
X63205939Y-2486478D01*
X63113721Y-2394260D01*
X63000779Y-2329053D01*
X62935171Y-2311473D01*
X63283024Y-1963621D01*
X63175871Y-1906347D01*
X62996321Y-1851880D01*
X62809600Y-1833490D01*
X62622878Y-1851880D01*
X62443324Y-1906348D01*
X62336174Y-1963621D01*
X62684026Y-2311473D01*
X62618421Y-2329053D01*
X62505479Y-2394260D01*
X62413261Y-2486478D01*
X62348054Y-2599420D01*
X62330474Y-2665025D01*
X61982622Y-2317173D01*
X61925349Y-2424323D01*
X61870881Y-2603877D01*
X61852491Y-2790598D01*
X61369303Y-2790598D01*
X61348941Y-2583861D01*
X61288638Y-2385068D01*
X61199750Y-2218771D01*
X61190714Y-2201865D01*
X61190710Y-2201859D01*
X61169084Y-2175508D01*
X61058923Y-2041276D01*
X60898339Y-1909488D01*
X60898333Y-1909484D01*
X60729613Y-1819302D01*
X60715131Y-1811561D01*
X60588070Y-1773017D01*
X60516336Y-1751257D01*
X60309600Y-1730896D01*
X60102863Y-1751257D01*
X59993650Y-1784387D01*
X59904069Y-1811561D01*
X59904067Y-1811561D01*
X59904067Y-1811562D01*
X59720866Y-1909484D01*
X59720860Y-1909488D01*
X59560277Y-2041276D01*
X59428489Y-2201859D01*
X59428485Y-2201865D01*
X59330563Y-2385066D01*
X59330562Y-2385068D01*
X59308802Y-2456800D01*
X59270258Y-2583862D01*
X59249897Y-2790598D01*
X56803931Y-2790598D01*
X56761522Y-2623126D01*
X56665108Y-2403323D01*
X56533829Y-2202387D01*
X56371269Y-2025799D01*
X56371268Y-2025798D01*
X56371267Y-2025797D01*
X56371264Y-2025794D01*
X56181861Y-1878376D01*
X56181854Y-1878372D01*
X55970775Y-1764143D01*
X55970772Y-1764141D01*
X55970769Y-1764140D01*
X55970765Y-1764138D01*
X55970757Y-1764135D01*
X55743761Y-1686206D01*
X55743193Y-1686111D01*
X55507010Y-1646700D01*
X55266990Y-1646700D01*
X55125309Y-1670342D01*
X55030238Y-1686206D01*
X54803242Y-1764135D01*
X54803224Y-1764143D01*
X54592145Y-1878372D01*
X54592138Y-1878376D01*
X54402735Y-2025794D01*
X54402732Y-2025797D01*
X54240174Y-2202383D01*
X54240170Y-2202388D01*
X54108895Y-2403317D01*
X54108893Y-2403320D01*
X54019464Y-2607200D01*
X54012478Y-2623126D01*
X53953557Y-2855801D01*
X53933736Y-3095000D01*
X45379321Y-3095000D01*
X45379321Y-3036300D01*
X44759133Y-3036300D01*
X44792046Y-2979293D01*
X44826121Y-2852126D01*
X44826121Y-2720474D01*
X44792046Y-2593307D01*
X44759133Y-2536300D01*
X45379321Y-2536300D01*
X45379321Y-1916286D01*
X45379320Y-1916285D01*
X45367531Y-1857015D01*
X45367530Y-1857013D01*
X45322619Y-1789801D01*
X45255407Y-1744890D01*
X45255405Y-1744889D01*
X45196135Y-1733100D01*
X44576121Y-1733100D01*
X44576121Y-2353288D01*
X44519114Y-2320375D01*
X44391947Y-2286300D01*
X44260295Y-2286300D01*
X44133128Y-2320375D01*
X44076121Y-2353288D01*
X44076121Y-1733100D01*
X43456107Y-1733100D01*
X43396836Y-1744889D01*
X43396834Y-1744890D01*
X43329622Y-1789801D01*
X43284711Y-1857013D01*
X43284710Y-1857015D01*
X43272921Y-1916285D01*
X42546629Y-1916285D01*
X42539173Y-1909488D01*
X42485331Y-1860404D01*
X42485328Y-1860402D01*
X42485327Y-1860401D01*
X42303288Y-1747688D01*
X42303286Y-1747687D01*
X42103635Y-1670342D01*
X41893177Y-1631000D01*
X41893175Y-1631000D01*
X41679067Y-1631000D01*
X41679064Y-1631000D01*
X41468606Y-1670342D01*
X41268955Y-1747687D01*
X41086910Y-1860404D01*
X40973688Y-1963621D01*
X40930491Y-2003001D01*
X40928685Y-2004647D01*
X40928683Y-2004649D01*
X40799657Y-2175508D01*
X40704221Y-2367169D01*
X40645627Y-2573101D01*
X40645625Y-2573112D01*
X40625872Y-2786296D01*
X40406370Y-2786296D01*
X40386616Y-2573112D01*
X40386614Y-2573101D01*
X40348609Y-2439529D01*
X40328021Y-2367170D01*
X40232585Y-2175508D01*
X40103555Y-2004645D01*
X39999173Y-1909488D01*
X39945331Y-1860404D01*
X39945328Y-1860402D01*
X39945327Y-1860401D01*
X39763288Y-1747688D01*
X39763286Y-1747687D01*
X39563635Y-1670342D01*
X39353177Y-1631000D01*
X39353175Y-1631000D01*
X39139067Y-1631000D01*
X39139064Y-1631000D01*
X38928606Y-1670342D01*
X38728955Y-1747687D01*
X38546910Y-1860404D01*
X38433688Y-1963621D01*
X38390491Y-2003001D01*
X38388685Y-2004647D01*
X38388683Y-2004649D01*
X38259657Y-2175508D01*
X38164221Y-2367169D01*
X38105627Y-2573101D01*
X38105625Y-2573112D01*
X38085872Y-2786296D01*
X37866370Y-2786296D01*
X37846616Y-2573112D01*
X37846614Y-2573101D01*
X37808609Y-2439529D01*
X37788021Y-2367170D01*
X37692585Y-2175508D01*
X37563555Y-2004645D01*
X37459173Y-1909488D01*
X37405331Y-1860404D01*
X37405328Y-1860402D01*
X37405327Y-1860401D01*
X37223288Y-1747688D01*
X37223286Y-1747687D01*
X37023635Y-1670342D01*
X36813177Y-1631000D01*
X36813175Y-1631000D01*
X36599067Y-1631000D01*
X36599064Y-1631000D01*
X36388606Y-1670342D01*
X36188955Y-1747687D01*
X36006910Y-1860404D01*
X35893688Y-1963621D01*
X35850491Y-2003001D01*
X35848685Y-2004647D01*
X35848683Y-2004649D01*
X35719657Y-2175508D01*
X35624221Y-2367169D01*
X35565627Y-2573101D01*
X35565625Y-2573112D01*
X35545872Y-2786296D01*
X35326370Y-2786296D01*
X35306616Y-2573112D01*
X35306614Y-2573101D01*
X35268609Y-2439529D01*
X35248021Y-2367170D01*
X35152585Y-2175508D01*
X35023555Y-2004645D01*
X34919173Y-1909488D01*
X34865331Y-1860404D01*
X34865328Y-1860402D01*
X34865327Y-1860401D01*
X34683288Y-1747688D01*
X34683286Y-1747687D01*
X34483635Y-1670342D01*
X34273177Y-1631000D01*
X34273175Y-1631000D01*
X34059067Y-1631000D01*
X34059064Y-1631000D01*
X33848606Y-1670342D01*
X33648955Y-1747687D01*
X33466910Y-1860404D01*
X33353688Y-1963621D01*
X33310491Y-2003001D01*
X33308685Y-2004647D01*
X33308683Y-2004649D01*
X33179657Y-2175508D01*
X33084221Y-2367169D01*
X33025627Y-2573101D01*
X33025625Y-2573112D01*
X33005872Y-2786296D01*
X32786370Y-2786296D01*
X32766616Y-2573112D01*
X32766614Y-2573101D01*
X32728609Y-2439529D01*
X32708021Y-2367170D01*
X32612585Y-2175508D01*
X32483555Y-2004645D01*
X32379173Y-1909488D01*
X32325331Y-1860404D01*
X32325328Y-1860402D01*
X32325327Y-1860401D01*
X32143288Y-1747688D01*
X32143286Y-1747687D01*
X31943635Y-1670342D01*
X31733177Y-1631000D01*
X31733175Y-1631000D01*
X31519067Y-1631000D01*
X31519064Y-1631000D01*
X31308606Y-1670342D01*
X31108955Y-1747687D01*
X30926910Y-1860404D01*
X30813688Y-1963621D01*
X30770491Y-2003001D01*
X30768685Y-2004647D01*
X30768683Y-2004649D01*
X30639657Y-2175508D01*
X30544221Y-2367169D01*
X30485627Y-2573101D01*
X30485625Y-2573112D01*
X30465872Y-2786296D01*
X23976597Y-2786296D01*
X23988947Y-2653013D01*
X23995249Y-2585003D01*
X23995249Y-2584996D01*
X23975495Y-2371812D01*
X23975493Y-2371801D01*
X23953726Y-2295299D01*
X23916900Y-2165870D01*
X23821464Y-1974208D01*
X23692434Y-1803345D01*
X23593171Y-1712855D01*
X23534210Y-1659104D01*
X23534207Y-1659102D01*
X23534206Y-1659101D01*
X23352167Y-1546388D01*
X23352165Y-1546387D01*
X23152514Y-1469042D01*
X22942056Y-1429700D01*
X22942054Y-1429700D01*
X22727946Y-1429700D01*
X22727943Y-1429700D01*
X22517485Y-1469042D01*
X22317834Y-1546387D01*
X22135789Y-1659104D01*
X21977564Y-1803347D01*
X21977562Y-1803349D01*
X21848536Y-1974208D01*
X21753100Y-2165869D01*
X21694506Y-2371801D01*
X21694504Y-2371812D01*
X21674751Y-2584996D01*
X20795000Y-2584996D01*
X20795000Y-2519174D01*
X20760925Y-2392007D01*
X20728012Y-2335000D01*
X21319754Y-2335000D01*
X21272738Y-2180009D01*
X21272737Y-2180006D01*
X21174944Y-1997047D01*
X21174940Y-1997041D01*
X21043327Y-1836672D01*
X20882958Y-1705059D01*
X20882952Y-1705055D01*
X20699993Y-1607263D01*
X20545000Y-1560245D01*
X20545000Y-2151988D01*
X20487993Y-2119075D01*
X20360826Y-2085000D01*
X20229174Y-2085000D01*
X20102007Y-2119075D01*
X20045000Y-2151988D01*
X20045000Y-1560245D01*
X20044999Y-1560245D01*
X19890006Y-1607263D01*
X19707047Y-1705055D01*
X19707041Y-1705059D01*
X19546672Y-1836672D01*
X19415059Y-1997041D01*
X19415055Y-1997047D01*
X19317262Y-2180006D01*
X19317261Y-2180009D01*
X19270246Y-2335000D01*
X18885022Y-2335000D01*
X18873726Y-2295299D01*
X18836900Y-2165870D01*
X18741464Y-1974208D01*
X18612434Y-1803345D01*
X18513171Y-1712855D01*
X18454210Y-1659104D01*
X18454207Y-1659102D01*
X18454206Y-1659101D01*
X18272167Y-1546388D01*
X18272165Y-1546387D01*
X18072514Y-1469042D01*
X17862056Y-1429700D01*
X17862054Y-1429700D01*
X17647946Y-1429700D01*
X17647943Y-1429700D01*
X17437485Y-1469042D01*
X17237834Y-1546387D01*
X17055789Y-1659104D01*
X16897564Y-1803347D01*
X16897562Y-1803349D01*
X16768536Y-1974208D01*
X16673100Y-2165869D01*
X16614506Y-2371801D01*
X16614504Y-2371812D01*
X16594751Y-2584996D01*
X16370299Y-2584996D01*
X16370299Y-1689422D01*
X16367338Y-1663891D01*
X16321234Y-1559475D01*
X16240525Y-1478766D01*
X16136109Y-1432662D01*
X16136107Y-1432661D01*
X16113928Y-1430088D01*
X16110579Y-1429700D01*
X16110578Y-1429700D01*
X14319421Y-1429700D01*
X14293890Y-1432662D01*
X14293889Y-1432662D01*
X14189473Y-1478767D01*
X14108767Y-1559473D01*
X14062661Y-1663892D01*
X14059700Y-1689421D01*
X4061981Y-1689421D01*
X4191615Y-1604394D01*
X4195232Y-1602193D01*
X4645533Y-1349003D01*
X4649291Y-1347057D01*
X5115806Y-1125192D01*
X5119697Y-1123503D01*
X5600235Y-934004D01*
X5604242Y-932579D01*
X6096638Y-776301D01*
X6100699Y-775163D01*
X6602602Y-652854D01*
X6606758Y-651991D01*
X7115823Y-564220D01*
X7120019Y-563644D01*
X7633882Y-510818D01*
X7638106Y-510529D01*
X8156094Y-492835D01*
X8158201Y-492800D01*
X8222412Y-492800D01*
X66002628Y-492800D01*
X66067440Y-492800D01*
X66069573Y-492835D01*
G37*
%TD.AperFunction*%
%TD*%
D22*
X66068521Y7700D02*
G75*
G02*
X74196500Y-8120300I-21J-8128000D01*
G01*
X28521Y-8120300D02*
X28521Y-21074300D01*
X8156521Y-29202300D02*
X66068521Y-29202300D01*
X74196521Y-21074300D02*
X74196521Y-8120300D01*
X8156521Y-29202300D02*
G75*
G02*
X28500Y-21074300I-21J8128000D01*
G01*
X28521Y-8120300D02*
G75*
G02*
X8156521Y7679I8127979J0D01*
G01*
X69865821Y-17492900D02*
G75*
G02*
X68468821Y-17492900I-698500J0D01*
G01*
X68468821Y-17492900D02*
G75*
G02*
X69865821Y-17492900I698500J0D01*
G01*
X74196521Y-21074300D02*
G75*
G02*
X66068521Y-29202321I-8128021J0D01*
G01*
X66068521Y7700D02*
X8156521Y7700D01*
M02*
