%TF.GenerationSoftware,KiCad,Pcbnew,8.99.0-unknown*%
%TF.CreationDate,2024-05-01T22:11:16-04:00*%
%TF.ProjectId,solderingStationPCB,736f6c64-6572-4696-9e67-53746174696f,rev?*%
%TF.SameCoordinates,PX33f2570PY4a915b0*%
%TF.FileFunction,Soldermask,Top*%
%TF.FilePolarity,Negative*%
%FSLAX46Y46*%
G04 Gerber Fmt 4.6, Leading zero omitted, Abs format (unit mm)*
G04 Created by KiCad (PCBNEW 8.99.0-unknown) date 2024-05-01 22:11:16*
%MOMM*%
%LPD*%
G01*
G04 APERTURE LIST*
G04 Aperture macros list*
%AMRoundRect*
0 Rectangle with rounded corners*
0 $1 Rounding radius*
0 $2 $3 $4 $5 $6 $7 $8 $9 X,Y pos of 4 corners*
0 Add a 4 corners polygon primitive as box body*
4,1,4,$2,$3,$4,$5,$6,$7,$8,$9,$2,$3,0*
0 Add four circle primitives for the rounded corners*
1,1,$1+$1,$2,$3*
1,1,$1+$1,$4,$5*
1,1,$1+$1,$6,$7*
1,1,$1+$1,$8,$9*
0 Add four rect primitives between the rounded corners*
20,1,$1+$1,$2,$3,$4,$5,0*
20,1,$1+$1,$4,$5,$6,$7,0*
20,1,$1+$1,$6,$7,$8,$9,0*
20,1,$1+$1,$8,$9,$2,$3,0*%
G04 Aperture macros list end*
%ADD10R,1.700000X1.700000*%
%ADD11O,1.700000X1.700000*%
%ADD12RoundRect,0.250000X-0.475000X0.337500X-0.475000X-0.337500X0.475000X-0.337500X0.475000X0.337500X0*%
%ADD13C,1.244600*%
%ADD14RoundRect,0.250000X-0.450000X0.350000X-0.450000X-0.350000X0.450000X-0.350000X0.450000X0.350000X0*%
%ADD15C,1.498600*%
%ADD16RoundRect,0.250000X0.337500X0.475000X-0.337500X0.475000X-0.337500X-0.475000X0.337500X-0.475000X0*%
%ADD17R,1.500000X2.000000*%
%ADD18R,3.800000X2.000000*%
%ADD19RoundRect,0.250000X0.475000X-0.337500X0.475000X0.337500X-0.475000X0.337500X-0.475000X-0.337500X0*%
%ADD20RoundRect,0.225000X0.375000X-0.225000X0.375000X0.225000X-0.375000X0.225000X-0.375000X-0.225000X0*%
%ADD21R,0.650000X1.560000*%
%ADD22RoundRect,0.250000X-0.337500X-0.475000X0.337500X-0.475000X0.337500X0.475000X-0.337500X0.475000X0*%
%ADD23R,0.800000X1.900000*%
%ADD24C,2.286000*%
%ADD25RoundRect,0.250000X0.400000X0.625000X-0.400000X0.625000X-0.400000X-0.625000X0.400000X-0.625000X0*%
%ADD26RoundRect,0.225000X0.225000X0.375000X-0.225000X0.375000X-0.225000X-0.375000X0.225000X-0.375000X0*%
%ADD27RoundRect,0.250000X0.350000X0.450000X-0.350000X0.450000X-0.350000X-0.450000X0.350000X-0.450000X0*%
%ADD28R,1.371600X1.371600*%
%ADD29C,1.371600*%
%ADD30RoundRect,0.250000X-0.350000X-0.450000X0.350000X-0.450000X0.350000X0.450000X-0.350000X0.450000X0*%
%ADD31R,1.143000X3.200400*%
%ADD32RoundRect,0.250000X0.450000X-0.350000X0.450000X0.350000X-0.450000X0.350000X-0.450000X-0.350000X0*%
%ADD33RoundRect,0.250000X0.650000X-0.412500X0.650000X0.412500X-0.650000X0.412500X-0.650000X-0.412500X0*%
%ADD34RoundRect,0.250000X-0.650000X0.412500X-0.650000X-0.412500X0.650000X-0.412500X0.650000X0.412500X0*%
%ADD35RoundRect,0.102000X-0.750000X-0.350000X0.750000X-0.350000X0.750000X0.350000X-0.750000X0.350000X0*%
%ADD36RoundRect,0.075000X0.075000X-0.662500X0.075000X0.662500X-0.075000X0.662500X-0.075000X-0.662500X0*%
%ADD37RoundRect,0.075000X0.662500X-0.075000X0.662500X0.075000X-0.662500X0.075000X-0.662500X-0.075000X0*%
%ADD38RoundRect,0.150000X0.512500X0.150000X-0.512500X0.150000X-0.512500X-0.150000X0.512500X-0.150000X0*%
%ADD39RoundRect,0.250000X-0.625000X0.400000X-0.625000X-0.400000X0.625000X-0.400000X0.625000X0.400000X0*%
%ADD40RoundRect,0.250000X0.450000X-0.325000X0.450000X0.325000X-0.450000X0.325000X-0.450000X-0.325000X0*%
%ADD41RoundRect,0.250000X-1.000000X-0.650000X1.000000X-0.650000X1.000000X0.650000X-1.000000X0.650000X0*%
%ADD42R,2.000000X2.000000*%
%ADD43O,2.032000X2.540000*%
%ADD44R,2.921000X4.064000*%
%TA.AperFunction,Profile*%
%ADD45C,0.050000*%
%TD*%
G04 APERTURE END LIST*
D10*
%TO.C,J1*%
X44326121Y-2786300D03*
D11*
X41786121Y-2786300D03*
X39246121Y-2786300D03*
X36706121Y-2786300D03*
X34166121Y-2786300D03*
X31626121Y-2786300D03*
%TD*%
D12*
%TO.C,C22*%
X17888800Y-20647300D03*
X17888800Y-22722300D03*
%TD*%
D13*
%TO.C,JP1*%
X16203300Y-27513700D03*
X17703302Y-27513700D03*
%TD*%
D14*
%TO.C,R18*%
X37055000Y-22985000D03*
X37055000Y-24985000D03*
%TD*%
%TO.C,R6*%
X20166000Y-25362600D03*
X20166000Y-27362600D03*
%TD*%
%TO.C,R10*%
X7853600Y-11657600D03*
X7853600Y-13657600D03*
%TD*%
D15*
%TO.C,J4*%
X62809600Y-2790599D03*
X60309600Y-2790599D03*
%TD*%
D16*
%TO.C,C19*%
X24097300Y-20741400D03*
X22022300Y-20741400D03*
%TD*%
D17*
%TO.C,U4*%
X37542000Y-8341800D03*
X35242000Y-8341800D03*
D18*
X35242000Y-14641800D03*
D17*
X32942000Y-8341800D03*
%TD*%
D19*
%TO.C,C3*%
X42312400Y-13631100D03*
X42312400Y-11556100D03*
%TD*%
D12*
%TO.C,C13*%
X30610200Y-10042900D03*
X30610200Y-12117900D03*
%TD*%
D20*
%TO.C,D3*%
X15584300Y-22386700D03*
X15584300Y-19086700D03*
%TD*%
D16*
%TO.C,C2*%
X49642100Y-2916000D03*
X47567100Y-2916000D03*
%TD*%
%TO.C,C6*%
X51756500Y-24033800D03*
X49681500Y-24033800D03*
%TD*%
D21*
%TO.C,U1*%
X44320600Y-14052600D03*
X45270600Y-14052600D03*
X46220600Y-14052600D03*
X46220600Y-11352600D03*
X45270600Y-11352600D03*
X44320600Y-11352600D03*
%TD*%
D22*
%TO.C,C9*%
X48049900Y-14603000D03*
X50124900Y-14603000D03*
%TD*%
D23*
%TO.C,Q2*%
X56832200Y-16295800D03*
X58732200Y-16295800D03*
X57782200Y-13295800D03*
%TD*%
D24*
%TO.C,J5*%
X55387000Y-3095000D03*
%TD*%
D22*
%TO.C,C10*%
X2165100Y-18381800D03*
X4240100Y-18381800D03*
%TD*%
D13*
%TO.C,J6*%
X7020300Y-26317801D03*
X7020300Y-24817799D03*
%TD*%
D25*
%TO.C,R5*%
X60017000Y-20446000D03*
X56917000Y-20446000D03*
%TD*%
D14*
%TO.C,R4*%
X55033600Y-16048200D03*
X55033600Y-18048200D03*
%TD*%
D12*
%TO.C,C8*%
X52093200Y-1049300D03*
X52093200Y-3124300D03*
%TD*%
D14*
%TO.C,R8*%
X22276000Y-25339600D03*
X22276000Y-27339600D03*
%TD*%
D26*
%TO.C,D4*%
X13200000Y-24060000D03*
X9900000Y-24060000D03*
%TD*%
D25*
%TO.C,R1*%
X55130200Y-14039200D03*
X52030200Y-14039200D03*
%TD*%
D27*
%TO.C,TH1*%
X14048000Y-27429800D03*
X12048000Y-27429800D03*
%TD*%
D10*
%TO.C,J13*%
X58048200Y-23459600D03*
%TD*%
%TO.C,J11*%
X67426600Y-6997800D03*
%TD*%
D14*
%TO.C,R14*%
X42319200Y-15465800D03*
X42319200Y-17465800D03*
%TD*%
D19*
%TO.C,C5*%
X19959200Y-22710900D03*
X19959200Y-20635900D03*
%TD*%
D14*
%TO.C,R16*%
X46202000Y-19932600D03*
X46202000Y-21932600D03*
%TD*%
D28*
%TO.C,LS1*%
X28425200Y-24068300D03*
D29*
X32425200Y-24068300D03*
%TD*%
D10*
%TO.C,J12*%
X62705400Y-27175800D03*
%TD*%
D16*
%TO.C,C11*%
X11363300Y-18370400D03*
X9288300Y-18370400D03*
%TD*%
D30*
%TO.C,R17*%
X37530000Y-18510000D03*
X39530000Y-18510000D03*
%TD*%
D13*
%TO.C,JP3*%
X42628302Y-27533700D03*
X41128300Y-27533700D03*
%TD*%
%TO.C,JP2*%
X60565301Y-14629299D03*
X60565301Y-16129301D03*
%TD*%
D31*
%TO.C,L1*%
X45593500Y-7872100D03*
X42545500Y-7872100D03*
%TD*%
D32*
%TO.C,R13*%
X52755000Y-21675000D03*
X52755000Y-19675000D03*
%TD*%
D19*
%TO.C,C12*%
X48128600Y-12613500D03*
X48128600Y-10538500D03*
%TD*%
D33*
%TO.C,C1*%
X39999400Y-9888700D03*
X39999400Y-6763700D03*
%TD*%
D34*
%TO.C,C4*%
X40018800Y-11746900D03*
X40018800Y-14871900D03*
%TD*%
D14*
%TO.C,R11*%
X4344400Y-11661200D03*
X4344400Y-13661200D03*
%TD*%
D22*
%TO.C,C18*%
X16320500Y-7452000D03*
X18395500Y-7452000D03*
%TD*%
D35*
%TO.C,Q1*%
X54752200Y-7364200D03*
X54752200Y-8634200D03*
X54752200Y-9904200D03*
X54752200Y-11174200D03*
X60052200Y-11174200D03*
X60052200Y-9904200D03*
X60052200Y-8634200D03*
X60052200Y-7364200D03*
%TD*%
D10*
%TO.C,J10*%
X71173200Y-7004800D03*
%TD*%
%TO.C,J9*%
X62868400Y-11938800D03*
%TD*%
D19*
%TO.C,C21*%
X15396000Y-17348900D03*
X15396000Y-15273900D03*
%TD*%
D16*
%TO.C,C17*%
X24089100Y-22753000D03*
X22014100Y-22753000D03*
%TD*%
D24*
%TO.C,J7*%
X67760000Y-3115200D03*
%TD*%
D36*
%TO.C,U3*%
X19164200Y-17755700D03*
X19664200Y-17755700D03*
X20164200Y-17755700D03*
X20664200Y-17755700D03*
X21164200Y-17755700D03*
X21664200Y-17755700D03*
X22164200Y-17755700D03*
X22664200Y-17755700D03*
X23164200Y-17755700D03*
X23664200Y-17755700D03*
X24164200Y-17755700D03*
X24664200Y-17755700D03*
D37*
X26076700Y-16343200D03*
X26076700Y-15843200D03*
X26076700Y-15343200D03*
X26076700Y-14843200D03*
X26076700Y-14343200D03*
X26076700Y-13843200D03*
X26076700Y-13343200D03*
X26076700Y-12843200D03*
X26076700Y-12343200D03*
X26076700Y-11843200D03*
X26076700Y-11343200D03*
X26076700Y-10843200D03*
D36*
X24664200Y-9430700D03*
X24164200Y-9430700D03*
X23664200Y-9430700D03*
X23164200Y-9430700D03*
X22664200Y-9430700D03*
X22164200Y-9430700D03*
X21664200Y-9430700D03*
X21164200Y-9430700D03*
X20664200Y-9430700D03*
X20164200Y-9430700D03*
X19664200Y-9430700D03*
X19164200Y-9430700D03*
D37*
X17751700Y-10843200D03*
X17751700Y-11343200D03*
X17751700Y-11843200D03*
X17751700Y-12343200D03*
X17751700Y-12843200D03*
X17751700Y-13343200D03*
X17751700Y-13843200D03*
X17751700Y-14343200D03*
X17751700Y-14843200D03*
X17751700Y-15343200D03*
X17751700Y-15843200D03*
X17751700Y-16343200D03*
%TD*%
D38*
%TO.C,U2*%
X50652500Y-22235000D03*
X50652500Y-21285000D03*
X50652500Y-20335000D03*
X48377500Y-20335000D03*
X48377500Y-22235000D03*
%TD*%
D39*
%TO.C,R2*%
X52513400Y-8616400D03*
X52513400Y-11716400D03*
%TD*%
D10*
%TO.C,J2*%
X15215000Y-2585000D03*
D11*
X17755000Y-2585000D03*
X20295000Y-2585000D03*
X22835000Y-2585000D03*
%TD*%
D30*
%TO.C,R12*%
X37559200Y-20498800D03*
X39559200Y-20498800D03*
%TD*%
D14*
%TO.C,R7*%
X24273600Y-25339400D03*
X24273600Y-27339400D03*
%TD*%
D32*
%TO.C,R15*%
X50069400Y-11338600D03*
X50069400Y-9338600D03*
%TD*%
D22*
%TO.C,C14*%
X16339700Y-5459000D03*
X18414700Y-5459000D03*
%TD*%
D14*
%TO.C,R3*%
X39081600Y-25197600D03*
X39081600Y-27197600D03*
%TD*%
D12*
%TO.C,C20*%
X28536600Y-10049700D03*
X28536600Y-12124700D03*
%TD*%
D30*
%TO.C,R9*%
X5819600Y-9238000D03*
X7819600Y-9238000D03*
%TD*%
D40*
%TO.C,D2*%
X54874700Y-22186500D03*
X54874700Y-20136500D03*
%TD*%
D10*
%TO.C,J3*%
X62873200Y-8335200D03*
%TD*%
D41*
%TO.C,D1*%
X48219800Y-5851600D03*
X52219800Y-5851600D03*
%TD*%
D42*
%TO.C,J8*%
X67672147Y-15440197D03*
X66749438Y-18280003D03*
X69165121Y-20035100D03*
X71580804Y-18280003D03*
X70658095Y-15440197D03*
%TD*%
D43*
%TO.C,SW1*%
X9314400Y-6504000D03*
X4314400Y-6504000D03*
X9314400Y-21003996D03*
X6814400Y-21003996D03*
X4314400Y-21003996D03*
D44*
X12514401Y-13503999D03*
X1114399Y-13503999D03*
%TD*%
D45*
X66068521Y7700D02*
G75*
G02*
X74196500Y-8120300I-21J-8128000D01*
G01*
X28521Y-8120300D02*
X28521Y-21074300D01*
X8156521Y-29202300D02*
X66068521Y-29202300D01*
X74196521Y-21074300D02*
X74196521Y-8120300D01*
X8156521Y-29202300D02*
G75*
G02*
X28500Y-21074300I-21J8128000D01*
G01*
X28521Y-8120300D02*
G75*
G02*
X8156521Y7679I8127979J0D01*
G01*
X69865821Y-17492900D02*
G75*
G02*
X68468821Y-17492900I-698500J0D01*
G01*
X68468821Y-17492900D02*
G75*
G02*
X69865821Y-17492900I698500J0D01*
G01*
X74196521Y-21074300D02*
G75*
G02*
X66068521Y-29202321I-8128021J0D01*
G01*
X66068521Y7700D02*
X8156521Y7700D01*
M02*
