%TF.GenerationSoftware,KiCad,Pcbnew,8.99.0-unknown*%
%TF.CreationDate,2024-05-01T22:11:16-04:00*%
%TF.ProjectId,solderingStationPCB,736f6c64-6572-4696-9e67-53746174696f,rev?*%
%TF.SameCoordinates,PX33f2570PY4a915b0*%
%TF.FileFunction,Legend,Top*%
%TF.FilePolarity,Positive*%
%FSLAX46Y46*%
G04 Gerber Fmt 4.6, Leading zero omitted, Abs format (unit mm)*
G04 Created by KiCad (PCBNEW 8.99.0-unknown) date 2024-05-01 22:11:16*
%MOMM*%
%LPD*%
G01*
G04 APERTURE LIST*
%ADD10C,0.050000*%
%ADD11C,0.150000*%
%ADD12C,0.120000*%
%ADD13C,0.152400*%
%ADD14C,0.508000*%
%ADD15C,0.127000*%
%ADD16C,0.200000*%
%TA.AperFunction,Profile*%
%ADD17C,0.050000*%
%TD*%
G04 APERTURE END LIST*
D10*
X68519621Y-15412774D02*
G75*
G02*
X66792421Y-15412774I-863600J0D01*
G01*
X66792421Y-15412774D02*
G75*
G02*
X68519621Y-15412774I863600J0D01*
G01*
X70030921Y-20064077D02*
G75*
G02*
X68303721Y-20064077I-863600J0D01*
G01*
X68303721Y-20064077D02*
G75*
G02*
X70030921Y-20064077I863600J0D01*
G01*
X67585586Y-18287437D02*
G75*
G02*
X65858386Y-18287437I-863600J0D01*
G01*
X65858386Y-18287437D02*
G75*
G02*
X67585586Y-18287437I863600J0D01*
G01*
X71542221Y-15412774D02*
G75*
G02*
X69815021Y-15412774I-863600J0D01*
G01*
X69815021Y-15412774D02*
G75*
G02*
X71542221Y-15412774I863600J0D01*
G01*
X72476256Y-18287437D02*
G75*
G02*
X70749056Y-18287437I-863600J0D01*
G01*
X70749056Y-18287437D02*
G75*
G02*
X72476256Y-18287437I863600J0D01*
G01*
D11*
X28712787Y-3331119D02*
X28712787Y-4045404D01*
X28712787Y-4045404D02*
X28665168Y-4188261D01*
X28665168Y-4188261D02*
X28569930Y-4283500D01*
X28569930Y-4283500D02*
X28427073Y-4331119D01*
X28427073Y-4331119D02*
X28331835Y-4331119D01*
X29712787Y-4331119D02*
X29141359Y-4331119D01*
X29427073Y-4331119D02*
X29427073Y-3331119D01*
X29427073Y-3331119D02*
X29331835Y-3473976D01*
X29331835Y-3473976D02*
X29236597Y-3569214D01*
X29236597Y-3569214D02*
X29141359Y-3616833D01*
X17065942Y-19664380D02*
X17018323Y-19712000D01*
X17018323Y-19712000D02*
X16875466Y-19759619D01*
X16875466Y-19759619D02*
X16780228Y-19759619D01*
X16780228Y-19759619D02*
X16637371Y-19712000D01*
X16637371Y-19712000D02*
X16542133Y-19616761D01*
X16542133Y-19616761D02*
X16494514Y-19521523D01*
X16494514Y-19521523D02*
X16446895Y-19331047D01*
X16446895Y-19331047D02*
X16446895Y-19188190D01*
X16446895Y-19188190D02*
X16494514Y-18997714D01*
X16494514Y-18997714D02*
X16542133Y-18902476D01*
X16542133Y-18902476D02*
X16637371Y-18807238D01*
X16637371Y-18807238D02*
X16780228Y-18759619D01*
X16780228Y-18759619D02*
X16875466Y-18759619D01*
X16875466Y-18759619D02*
X17018323Y-18807238D01*
X17018323Y-18807238D02*
X17065942Y-18854857D01*
X17446895Y-18854857D02*
X17494514Y-18807238D01*
X17494514Y-18807238D02*
X17589752Y-18759619D01*
X17589752Y-18759619D02*
X17827847Y-18759619D01*
X17827847Y-18759619D02*
X17923085Y-18807238D01*
X17923085Y-18807238D02*
X17970704Y-18854857D01*
X17970704Y-18854857D02*
X18018323Y-18950095D01*
X18018323Y-18950095D02*
X18018323Y-19045333D01*
X18018323Y-19045333D02*
X17970704Y-19188190D01*
X17970704Y-19188190D02*
X17399276Y-19759619D01*
X17399276Y-19759619D02*
X18018323Y-19759619D01*
X18399276Y-18854857D02*
X18446895Y-18807238D01*
X18446895Y-18807238D02*
X18542133Y-18759619D01*
X18542133Y-18759619D02*
X18780228Y-18759619D01*
X18780228Y-18759619D02*
X18875466Y-18807238D01*
X18875466Y-18807238D02*
X18923085Y-18854857D01*
X18923085Y-18854857D02*
X18970704Y-18950095D01*
X18970704Y-18950095D02*
X18970704Y-19045333D01*
X18970704Y-19045333D02*
X18923085Y-19188190D01*
X18923085Y-19188190D02*
X18351657Y-19759619D01*
X18351657Y-19759619D02*
X18970704Y-19759619D01*
X15809967Y-25568519D02*
X15809967Y-26282804D01*
X15809967Y-26282804D02*
X15762348Y-26425661D01*
X15762348Y-26425661D02*
X15667110Y-26520900D01*
X15667110Y-26520900D02*
X15524253Y-26568519D01*
X15524253Y-26568519D02*
X15429015Y-26568519D01*
X16286158Y-26568519D02*
X16286158Y-25568519D01*
X16286158Y-25568519D02*
X16667110Y-25568519D01*
X16667110Y-25568519D02*
X16762348Y-25616138D01*
X16762348Y-25616138D02*
X16809967Y-25663757D01*
X16809967Y-25663757D02*
X16857586Y-25758995D01*
X16857586Y-25758995D02*
X16857586Y-25901852D01*
X16857586Y-25901852D02*
X16809967Y-25997090D01*
X16809967Y-25997090D02*
X16762348Y-26044709D01*
X16762348Y-26044709D02*
X16667110Y-26092328D01*
X16667110Y-26092328D02*
X16286158Y-26092328D01*
X17809967Y-26568519D02*
X17238539Y-26568519D01*
X17524253Y-26568519D02*
X17524253Y-25568519D01*
X17524253Y-25568519D02*
X17429015Y-25711376D01*
X17429015Y-25711376D02*
X17333777Y-25806614D01*
X17333777Y-25806614D02*
X17238539Y-25854233D01*
X38692142Y-23639819D02*
X38358809Y-23163628D01*
X38120714Y-23639819D02*
X38120714Y-22639819D01*
X38120714Y-22639819D02*
X38501666Y-22639819D01*
X38501666Y-22639819D02*
X38596904Y-22687438D01*
X38596904Y-22687438D02*
X38644523Y-22735057D01*
X38644523Y-22735057D02*
X38692142Y-22830295D01*
X38692142Y-22830295D02*
X38692142Y-22973152D01*
X38692142Y-22973152D02*
X38644523Y-23068390D01*
X38644523Y-23068390D02*
X38596904Y-23116009D01*
X38596904Y-23116009D02*
X38501666Y-23163628D01*
X38501666Y-23163628D02*
X38120714Y-23163628D01*
X39644523Y-23639819D02*
X39073095Y-23639819D01*
X39358809Y-23639819D02*
X39358809Y-22639819D01*
X39358809Y-22639819D02*
X39263571Y-22782676D01*
X39263571Y-22782676D02*
X39168333Y-22877914D01*
X39168333Y-22877914D02*
X39073095Y-22925533D01*
X40215952Y-23068390D02*
X40120714Y-23020771D01*
X40120714Y-23020771D02*
X40073095Y-22973152D01*
X40073095Y-22973152D02*
X40025476Y-22877914D01*
X40025476Y-22877914D02*
X40025476Y-22830295D01*
X40025476Y-22830295D02*
X40073095Y-22735057D01*
X40073095Y-22735057D02*
X40120714Y-22687438D01*
X40120714Y-22687438D02*
X40215952Y-22639819D01*
X40215952Y-22639819D02*
X40406428Y-22639819D01*
X40406428Y-22639819D02*
X40501666Y-22687438D01*
X40501666Y-22687438D02*
X40549285Y-22735057D01*
X40549285Y-22735057D02*
X40596904Y-22830295D01*
X40596904Y-22830295D02*
X40596904Y-22877914D01*
X40596904Y-22877914D02*
X40549285Y-22973152D01*
X40549285Y-22973152D02*
X40501666Y-23020771D01*
X40501666Y-23020771D02*
X40406428Y-23068390D01*
X40406428Y-23068390D02*
X40215952Y-23068390D01*
X40215952Y-23068390D02*
X40120714Y-23116009D01*
X40120714Y-23116009D02*
X40073095Y-23163628D01*
X40073095Y-23163628D02*
X40025476Y-23258866D01*
X40025476Y-23258866D02*
X40025476Y-23449342D01*
X40025476Y-23449342D02*
X40073095Y-23544580D01*
X40073095Y-23544580D02*
X40120714Y-23592200D01*
X40120714Y-23592200D02*
X40215952Y-23639819D01*
X40215952Y-23639819D02*
X40406428Y-23639819D01*
X40406428Y-23639819D02*
X40501666Y-23592200D01*
X40501666Y-23592200D02*
X40549285Y-23544580D01*
X40549285Y-23544580D02*
X40596904Y-23449342D01*
X40596904Y-23449342D02*
X40596904Y-23258866D01*
X40596904Y-23258866D02*
X40549285Y-23163628D01*
X40549285Y-23163628D02*
X40501666Y-23116009D01*
X40501666Y-23116009D02*
X40406428Y-23068390D01*
X19020819Y-25939266D02*
X18544628Y-26272599D01*
X19020819Y-26510694D02*
X18020819Y-26510694D01*
X18020819Y-26510694D02*
X18020819Y-26129742D01*
X18020819Y-26129742D02*
X18068438Y-26034504D01*
X18068438Y-26034504D02*
X18116057Y-25986885D01*
X18116057Y-25986885D02*
X18211295Y-25939266D01*
X18211295Y-25939266D02*
X18354152Y-25939266D01*
X18354152Y-25939266D02*
X18449390Y-25986885D01*
X18449390Y-25986885D02*
X18497009Y-26034504D01*
X18497009Y-26034504D02*
X18544628Y-26129742D01*
X18544628Y-26129742D02*
X18544628Y-26510694D01*
X18020819Y-25082123D02*
X18020819Y-25272599D01*
X18020819Y-25272599D02*
X18068438Y-25367837D01*
X18068438Y-25367837D02*
X18116057Y-25415456D01*
X18116057Y-25415456D02*
X18258914Y-25510694D01*
X18258914Y-25510694D02*
X18449390Y-25558313D01*
X18449390Y-25558313D02*
X18830342Y-25558313D01*
X18830342Y-25558313D02*
X18925580Y-25510694D01*
X18925580Y-25510694D02*
X18973200Y-25463075D01*
X18973200Y-25463075D02*
X19020819Y-25367837D01*
X19020819Y-25367837D02*
X19020819Y-25177361D01*
X19020819Y-25177361D02*
X18973200Y-25082123D01*
X18973200Y-25082123D02*
X18925580Y-25034504D01*
X18925580Y-25034504D02*
X18830342Y-24986885D01*
X18830342Y-24986885D02*
X18592247Y-24986885D01*
X18592247Y-24986885D02*
X18497009Y-25034504D01*
X18497009Y-25034504D02*
X18449390Y-25082123D01*
X18449390Y-25082123D02*
X18401771Y-25177361D01*
X18401771Y-25177361D02*
X18401771Y-25367837D01*
X18401771Y-25367837D02*
X18449390Y-25463075D01*
X18449390Y-25463075D02*
X18497009Y-25510694D01*
X18497009Y-25510694D02*
X18592247Y-25558313D01*
X9958419Y-13300457D02*
X9482228Y-13633790D01*
X9958419Y-13871885D02*
X8958419Y-13871885D01*
X8958419Y-13871885D02*
X8958419Y-13490933D01*
X8958419Y-13490933D02*
X9006038Y-13395695D01*
X9006038Y-13395695D02*
X9053657Y-13348076D01*
X9053657Y-13348076D02*
X9148895Y-13300457D01*
X9148895Y-13300457D02*
X9291752Y-13300457D01*
X9291752Y-13300457D02*
X9386990Y-13348076D01*
X9386990Y-13348076D02*
X9434609Y-13395695D01*
X9434609Y-13395695D02*
X9482228Y-13490933D01*
X9482228Y-13490933D02*
X9482228Y-13871885D01*
X9958419Y-12348076D02*
X9958419Y-12919504D01*
X9958419Y-12633790D02*
X8958419Y-12633790D01*
X8958419Y-12633790D02*
X9101276Y-12729028D01*
X9101276Y-12729028D02*
X9196514Y-12824266D01*
X9196514Y-12824266D02*
X9244133Y-12919504D01*
X8958419Y-11729028D02*
X8958419Y-11633790D01*
X8958419Y-11633790D02*
X9006038Y-11538552D01*
X9006038Y-11538552D02*
X9053657Y-11490933D01*
X9053657Y-11490933D02*
X9148895Y-11443314D01*
X9148895Y-11443314D02*
X9339371Y-11395695D01*
X9339371Y-11395695D02*
X9577466Y-11395695D01*
X9577466Y-11395695D02*
X9767942Y-11443314D01*
X9767942Y-11443314D02*
X9863180Y-11490933D01*
X9863180Y-11490933D02*
X9910800Y-11538552D01*
X9910800Y-11538552D02*
X9958419Y-11633790D01*
X9958419Y-11633790D02*
X9958419Y-11729028D01*
X9958419Y-11729028D02*
X9910800Y-11824266D01*
X9910800Y-11824266D02*
X9863180Y-11871885D01*
X9863180Y-11871885D02*
X9767942Y-11919504D01*
X9767942Y-11919504D02*
X9577466Y-11967123D01*
X9577466Y-11967123D02*
X9339371Y-11967123D01*
X9339371Y-11967123D02*
X9148895Y-11919504D01*
X9148895Y-11919504D02*
X9053657Y-11871885D01*
X9053657Y-11871885D02*
X9006038Y-11824266D01*
X9006038Y-11824266D02*
X8958419Y-11729028D01*
X56386266Y-5185418D02*
X56386266Y-5899703D01*
X56386266Y-5899703D02*
X56338647Y-6042560D01*
X56338647Y-6042560D02*
X56243409Y-6137799D01*
X56243409Y-6137799D02*
X56100552Y-6185418D01*
X56100552Y-6185418D02*
X56005314Y-6185418D01*
X57291028Y-5518751D02*
X57291028Y-6185418D01*
X57052933Y-5137799D02*
X56814838Y-5852084D01*
X56814838Y-5852084D02*
X57433885Y-5852084D01*
X25736942Y-20980980D02*
X25689323Y-21028600D01*
X25689323Y-21028600D02*
X25546466Y-21076219D01*
X25546466Y-21076219D02*
X25451228Y-21076219D01*
X25451228Y-21076219D02*
X25308371Y-21028600D01*
X25308371Y-21028600D02*
X25213133Y-20933361D01*
X25213133Y-20933361D02*
X25165514Y-20838123D01*
X25165514Y-20838123D02*
X25117895Y-20647647D01*
X25117895Y-20647647D02*
X25117895Y-20504790D01*
X25117895Y-20504790D02*
X25165514Y-20314314D01*
X25165514Y-20314314D02*
X25213133Y-20219076D01*
X25213133Y-20219076D02*
X25308371Y-20123838D01*
X25308371Y-20123838D02*
X25451228Y-20076219D01*
X25451228Y-20076219D02*
X25546466Y-20076219D01*
X25546466Y-20076219D02*
X25689323Y-20123838D01*
X25689323Y-20123838D02*
X25736942Y-20171457D01*
X26689323Y-21076219D02*
X26117895Y-21076219D01*
X26403609Y-21076219D02*
X26403609Y-20076219D01*
X26403609Y-20076219D02*
X26308371Y-20219076D01*
X26308371Y-20219076D02*
X26213133Y-20314314D01*
X26213133Y-20314314D02*
X26117895Y-20361933D01*
X27165514Y-21076219D02*
X27355990Y-21076219D01*
X27355990Y-21076219D02*
X27451228Y-21028600D01*
X27451228Y-21028600D02*
X27498847Y-20980980D01*
X27498847Y-20980980D02*
X27594085Y-20838123D01*
X27594085Y-20838123D02*
X27641704Y-20647647D01*
X27641704Y-20647647D02*
X27641704Y-20266695D01*
X27641704Y-20266695D02*
X27594085Y-20171457D01*
X27594085Y-20171457D02*
X27546466Y-20123838D01*
X27546466Y-20123838D02*
X27451228Y-20076219D01*
X27451228Y-20076219D02*
X27260752Y-20076219D01*
X27260752Y-20076219D02*
X27165514Y-20123838D01*
X27165514Y-20123838D02*
X27117895Y-20171457D01*
X27117895Y-20171457D02*
X27070276Y-20266695D01*
X27070276Y-20266695D02*
X27070276Y-20504790D01*
X27070276Y-20504790D02*
X27117895Y-20600028D01*
X27117895Y-20600028D02*
X27165514Y-20647647D01*
X27165514Y-20647647D02*
X27260752Y-20695266D01*
X27260752Y-20695266D02*
X27451228Y-20695266D01*
X27451228Y-20695266D02*
X27546466Y-20647647D01*
X27546466Y-20647647D02*
X27594085Y-20600028D01*
X27594085Y-20600028D02*
X27641704Y-20504790D01*
X35700095Y-5946619D02*
X35700095Y-6756142D01*
X35700095Y-6756142D02*
X35747714Y-6851380D01*
X35747714Y-6851380D02*
X35795333Y-6899000D01*
X35795333Y-6899000D02*
X35890571Y-6946619D01*
X35890571Y-6946619D02*
X36081047Y-6946619D01*
X36081047Y-6946619D02*
X36176285Y-6899000D01*
X36176285Y-6899000D02*
X36223904Y-6851380D01*
X36223904Y-6851380D02*
X36271523Y-6756142D01*
X36271523Y-6756142D02*
X36271523Y-5946619D01*
X37176285Y-6279952D02*
X37176285Y-6946619D01*
X36938190Y-5899000D02*
X36700095Y-6613285D01*
X36700095Y-6613285D02*
X37319142Y-6613285D01*
X42445733Y-13113180D02*
X42398114Y-13160800D01*
X42398114Y-13160800D02*
X42255257Y-13208419D01*
X42255257Y-13208419D02*
X42160019Y-13208419D01*
X42160019Y-13208419D02*
X42017162Y-13160800D01*
X42017162Y-13160800D02*
X41921924Y-13065561D01*
X41921924Y-13065561D02*
X41874305Y-12970323D01*
X41874305Y-12970323D02*
X41826686Y-12779847D01*
X41826686Y-12779847D02*
X41826686Y-12636990D01*
X41826686Y-12636990D02*
X41874305Y-12446514D01*
X41874305Y-12446514D02*
X41921924Y-12351276D01*
X41921924Y-12351276D02*
X42017162Y-12256038D01*
X42017162Y-12256038D02*
X42160019Y-12208419D01*
X42160019Y-12208419D02*
X42255257Y-12208419D01*
X42255257Y-12208419D02*
X42398114Y-12256038D01*
X42398114Y-12256038D02*
X42445733Y-12303657D01*
X42779067Y-12208419D02*
X43398114Y-12208419D01*
X43398114Y-12208419D02*
X43064781Y-12589371D01*
X43064781Y-12589371D02*
X43207638Y-12589371D01*
X43207638Y-12589371D02*
X43302876Y-12636990D01*
X43302876Y-12636990D02*
X43350495Y-12684609D01*
X43350495Y-12684609D02*
X43398114Y-12779847D01*
X43398114Y-12779847D02*
X43398114Y-13017942D01*
X43398114Y-13017942D02*
X43350495Y-13113180D01*
X43350495Y-13113180D02*
X43302876Y-13160800D01*
X43302876Y-13160800D02*
X43207638Y-13208419D01*
X43207638Y-13208419D02*
X42921924Y-13208419D01*
X42921924Y-13208419D02*
X42826686Y-13160800D01*
X42826686Y-13160800D02*
X42779067Y-13113180D01*
X32649780Y-11723257D02*
X32697400Y-11770876D01*
X32697400Y-11770876D02*
X32745019Y-11913733D01*
X32745019Y-11913733D02*
X32745019Y-12008971D01*
X32745019Y-12008971D02*
X32697400Y-12151828D01*
X32697400Y-12151828D02*
X32602161Y-12247066D01*
X32602161Y-12247066D02*
X32506923Y-12294685D01*
X32506923Y-12294685D02*
X32316447Y-12342304D01*
X32316447Y-12342304D02*
X32173590Y-12342304D01*
X32173590Y-12342304D02*
X31983114Y-12294685D01*
X31983114Y-12294685D02*
X31887876Y-12247066D01*
X31887876Y-12247066D02*
X31792638Y-12151828D01*
X31792638Y-12151828D02*
X31745019Y-12008971D01*
X31745019Y-12008971D02*
X31745019Y-11913733D01*
X31745019Y-11913733D02*
X31792638Y-11770876D01*
X31792638Y-11770876D02*
X31840257Y-11723257D01*
X32745019Y-10770876D02*
X32745019Y-11342304D01*
X32745019Y-11056590D02*
X31745019Y-11056590D01*
X31745019Y-11056590D02*
X31887876Y-11151828D01*
X31887876Y-11151828D02*
X31983114Y-11247066D01*
X31983114Y-11247066D02*
X32030733Y-11342304D01*
X31745019Y-10437542D02*
X31745019Y-9818495D01*
X31745019Y-9818495D02*
X32125971Y-10151828D01*
X32125971Y-10151828D02*
X32125971Y-10008971D01*
X32125971Y-10008971D02*
X32173590Y-9913733D01*
X32173590Y-9913733D02*
X32221209Y-9866114D01*
X32221209Y-9866114D02*
X32316447Y-9818495D01*
X32316447Y-9818495D02*
X32554542Y-9818495D01*
X32554542Y-9818495D02*
X32649780Y-9866114D01*
X32649780Y-9866114D02*
X32697400Y-9913733D01*
X32697400Y-9913733D02*
X32745019Y-10008971D01*
X32745019Y-10008971D02*
X32745019Y-10294685D01*
X32745019Y-10294685D02*
X32697400Y-10389923D01*
X32697400Y-10389923D02*
X32649780Y-10437542D01*
X14039119Y-21474794D02*
X13039119Y-21474794D01*
X13039119Y-21474794D02*
X13039119Y-21236699D01*
X13039119Y-21236699D02*
X13086738Y-21093842D01*
X13086738Y-21093842D02*
X13181976Y-20998604D01*
X13181976Y-20998604D02*
X13277214Y-20950985D01*
X13277214Y-20950985D02*
X13467690Y-20903366D01*
X13467690Y-20903366D02*
X13610547Y-20903366D01*
X13610547Y-20903366D02*
X13801023Y-20950985D01*
X13801023Y-20950985D02*
X13896261Y-20998604D01*
X13896261Y-20998604D02*
X13991500Y-21093842D01*
X13991500Y-21093842D02*
X14039119Y-21236699D01*
X14039119Y-21236699D02*
X14039119Y-21474794D01*
X13039119Y-20570032D02*
X13039119Y-19950985D01*
X13039119Y-19950985D02*
X13420071Y-20284318D01*
X13420071Y-20284318D02*
X13420071Y-20141461D01*
X13420071Y-20141461D02*
X13467690Y-20046223D01*
X13467690Y-20046223D02*
X13515309Y-19998604D01*
X13515309Y-19998604D02*
X13610547Y-19950985D01*
X13610547Y-19950985D02*
X13848642Y-19950985D01*
X13848642Y-19950985D02*
X13943880Y-19998604D01*
X13943880Y-19998604D02*
X13991500Y-20046223D01*
X13991500Y-20046223D02*
X14039119Y-20141461D01*
X14039119Y-20141461D02*
X14039119Y-20427175D01*
X14039119Y-20427175D02*
X13991500Y-20522413D01*
X13991500Y-20522413D02*
X13943880Y-20570032D01*
X47887933Y-1875580D02*
X47840314Y-1923200D01*
X47840314Y-1923200D02*
X47697457Y-1970819D01*
X47697457Y-1970819D02*
X47602219Y-1970819D01*
X47602219Y-1970819D02*
X47459362Y-1923200D01*
X47459362Y-1923200D02*
X47364124Y-1827961D01*
X47364124Y-1827961D02*
X47316505Y-1732723D01*
X47316505Y-1732723D02*
X47268886Y-1542247D01*
X47268886Y-1542247D02*
X47268886Y-1399390D01*
X47268886Y-1399390D02*
X47316505Y-1208914D01*
X47316505Y-1208914D02*
X47364124Y-1113676D01*
X47364124Y-1113676D02*
X47459362Y-1018438D01*
X47459362Y-1018438D02*
X47602219Y-970819D01*
X47602219Y-970819D02*
X47697457Y-970819D01*
X47697457Y-970819D02*
X47840314Y-1018438D01*
X47840314Y-1018438D02*
X47887933Y-1066057D01*
X48268886Y-1066057D02*
X48316505Y-1018438D01*
X48316505Y-1018438D02*
X48411743Y-970819D01*
X48411743Y-970819D02*
X48649838Y-970819D01*
X48649838Y-970819D02*
X48745076Y-1018438D01*
X48745076Y-1018438D02*
X48792695Y-1066057D01*
X48792695Y-1066057D02*
X48840314Y-1161295D01*
X48840314Y-1161295D02*
X48840314Y-1256533D01*
X48840314Y-1256533D02*
X48792695Y-1399390D01*
X48792695Y-1399390D02*
X48221267Y-1970819D01*
X48221267Y-1970819D02*
X48840314Y-1970819D01*
X50522333Y-26083380D02*
X50474714Y-26131000D01*
X50474714Y-26131000D02*
X50331857Y-26178619D01*
X50331857Y-26178619D02*
X50236619Y-26178619D01*
X50236619Y-26178619D02*
X50093762Y-26131000D01*
X50093762Y-26131000D02*
X49998524Y-26035761D01*
X49998524Y-26035761D02*
X49950905Y-25940523D01*
X49950905Y-25940523D02*
X49903286Y-25750047D01*
X49903286Y-25750047D02*
X49903286Y-25607190D01*
X49903286Y-25607190D02*
X49950905Y-25416714D01*
X49950905Y-25416714D02*
X49998524Y-25321476D01*
X49998524Y-25321476D02*
X50093762Y-25226238D01*
X50093762Y-25226238D02*
X50236619Y-25178619D01*
X50236619Y-25178619D02*
X50331857Y-25178619D01*
X50331857Y-25178619D02*
X50474714Y-25226238D01*
X50474714Y-25226238D02*
X50522333Y-25273857D01*
X51379476Y-25178619D02*
X51189000Y-25178619D01*
X51189000Y-25178619D02*
X51093762Y-25226238D01*
X51093762Y-25226238D02*
X51046143Y-25273857D01*
X51046143Y-25273857D02*
X50950905Y-25416714D01*
X50950905Y-25416714D02*
X50903286Y-25607190D01*
X50903286Y-25607190D02*
X50903286Y-25988142D01*
X50903286Y-25988142D02*
X50950905Y-26083380D01*
X50950905Y-26083380D02*
X50998524Y-26131000D01*
X50998524Y-26131000D02*
X51093762Y-26178619D01*
X51093762Y-26178619D02*
X51284238Y-26178619D01*
X51284238Y-26178619D02*
X51379476Y-26131000D01*
X51379476Y-26131000D02*
X51427095Y-26083380D01*
X51427095Y-26083380D02*
X51474714Y-25988142D01*
X51474714Y-25988142D02*
X51474714Y-25750047D01*
X51474714Y-25750047D02*
X51427095Y-25654809D01*
X51427095Y-25654809D02*
X51379476Y-25607190D01*
X51379476Y-25607190D02*
X51284238Y-25559571D01*
X51284238Y-25559571D02*
X51093762Y-25559571D01*
X51093762Y-25559571D02*
X50998524Y-25607190D01*
X50998524Y-25607190D02*
X50950905Y-25654809D01*
X50950905Y-25654809D02*
X50903286Y-25750047D01*
X41825419Y-13464504D02*
X42634942Y-13464504D01*
X42634942Y-13464504D02*
X42730180Y-13416885D01*
X42730180Y-13416885D02*
X42777800Y-13369266D01*
X42777800Y-13369266D02*
X42825419Y-13274028D01*
X42825419Y-13274028D02*
X42825419Y-13083552D01*
X42825419Y-13083552D02*
X42777800Y-12988314D01*
X42777800Y-12988314D02*
X42730180Y-12940695D01*
X42730180Y-12940695D02*
X42634942Y-12893076D01*
X42634942Y-12893076D02*
X41825419Y-12893076D01*
X42825419Y-11893076D02*
X42825419Y-12464504D01*
X42825419Y-12178790D02*
X41825419Y-12178790D01*
X41825419Y-12178790D02*
X41968276Y-12274028D01*
X41968276Y-12274028D02*
X42063514Y-12369266D01*
X42063514Y-12369266D02*
X42111133Y-12464504D01*
X48800737Y-16192576D02*
X48753118Y-16240196D01*
X48753118Y-16240196D02*
X48610261Y-16287815D01*
X48610261Y-16287815D02*
X48515023Y-16287815D01*
X48515023Y-16287815D02*
X48372166Y-16240196D01*
X48372166Y-16240196D02*
X48276928Y-16144957D01*
X48276928Y-16144957D02*
X48229309Y-16049719D01*
X48229309Y-16049719D02*
X48181690Y-15859243D01*
X48181690Y-15859243D02*
X48181690Y-15716386D01*
X48181690Y-15716386D02*
X48229309Y-15525910D01*
X48229309Y-15525910D02*
X48276928Y-15430672D01*
X48276928Y-15430672D02*
X48372166Y-15335434D01*
X48372166Y-15335434D02*
X48515023Y-15287815D01*
X48515023Y-15287815D02*
X48610261Y-15287815D01*
X48610261Y-15287815D02*
X48753118Y-15335434D01*
X48753118Y-15335434D02*
X48800737Y-15383053D01*
X49276928Y-16287815D02*
X49467404Y-16287815D01*
X49467404Y-16287815D02*
X49562642Y-16240196D01*
X49562642Y-16240196D02*
X49610261Y-16192576D01*
X49610261Y-16192576D02*
X49705499Y-16049719D01*
X49705499Y-16049719D02*
X49753118Y-15859243D01*
X49753118Y-15859243D02*
X49753118Y-15478291D01*
X49753118Y-15478291D02*
X49705499Y-15383053D01*
X49705499Y-15383053D02*
X49657880Y-15335434D01*
X49657880Y-15335434D02*
X49562642Y-15287815D01*
X49562642Y-15287815D02*
X49372166Y-15287815D01*
X49372166Y-15287815D02*
X49276928Y-15335434D01*
X49276928Y-15335434D02*
X49229309Y-15383053D01*
X49229309Y-15383053D02*
X49181690Y-15478291D01*
X49181690Y-15478291D02*
X49181690Y-15716386D01*
X49181690Y-15716386D02*
X49229309Y-15811624D01*
X49229309Y-15811624D02*
X49276928Y-15859243D01*
X49276928Y-15859243D02*
X49372166Y-15906862D01*
X49372166Y-15906862D02*
X49562642Y-15906862D01*
X49562642Y-15906862D02*
X49657880Y-15859243D01*
X49657880Y-15859243D02*
X49705499Y-15811624D01*
X49705499Y-15811624D02*
X49753118Y-15716386D01*
X58326961Y-15345857D02*
X58231723Y-15298238D01*
X58231723Y-15298238D02*
X58136485Y-15203000D01*
X58136485Y-15203000D02*
X57993628Y-15060142D01*
X57993628Y-15060142D02*
X57898390Y-15012523D01*
X57898390Y-15012523D02*
X57803152Y-15012523D01*
X57850771Y-15250619D02*
X57755533Y-15203000D01*
X57755533Y-15203000D02*
X57660295Y-15107761D01*
X57660295Y-15107761D02*
X57612676Y-14917285D01*
X57612676Y-14917285D02*
X57612676Y-14583952D01*
X57612676Y-14583952D02*
X57660295Y-14393476D01*
X57660295Y-14393476D02*
X57755533Y-14298238D01*
X57755533Y-14298238D02*
X57850771Y-14250619D01*
X57850771Y-14250619D02*
X58041247Y-14250619D01*
X58041247Y-14250619D02*
X58136485Y-14298238D01*
X58136485Y-14298238D02*
X58231723Y-14393476D01*
X58231723Y-14393476D02*
X58279342Y-14583952D01*
X58279342Y-14583952D02*
X58279342Y-14917285D01*
X58279342Y-14917285D02*
X58231723Y-15107761D01*
X58231723Y-15107761D02*
X58136485Y-15203000D01*
X58136485Y-15203000D02*
X58041247Y-15250619D01*
X58041247Y-15250619D02*
X57850771Y-15250619D01*
X58660295Y-14345857D02*
X58707914Y-14298238D01*
X58707914Y-14298238D02*
X58803152Y-14250619D01*
X58803152Y-14250619D02*
X59041247Y-14250619D01*
X59041247Y-14250619D02*
X59136485Y-14298238D01*
X59136485Y-14298238D02*
X59184104Y-14345857D01*
X59184104Y-14345857D02*
X59231723Y-14441095D01*
X59231723Y-14441095D02*
X59231723Y-14536333D01*
X59231723Y-14536333D02*
X59184104Y-14679190D01*
X59184104Y-14679190D02*
X58612676Y-15250619D01*
X58612676Y-15250619D02*
X59231723Y-15250619D01*
X53473666Y-721819D02*
X53473666Y-1436104D01*
X53473666Y-1436104D02*
X53426047Y-1578961D01*
X53426047Y-1578961D02*
X53330809Y-1674200D01*
X53330809Y-1674200D02*
X53187952Y-1721819D01*
X53187952Y-1721819D02*
X53092714Y-1721819D01*
X54426047Y-721819D02*
X53949857Y-721819D01*
X53949857Y-721819D02*
X53902238Y-1198009D01*
X53902238Y-1198009D02*
X53949857Y-1150390D01*
X53949857Y-1150390D02*
X54045095Y-1102771D01*
X54045095Y-1102771D02*
X54283190Y-1102771D01*
X54283190Y-1102771D02*
X54378428Y-1150390D01*
X54378428Y-1150390D02*
X54426047Y-1198009D01*
X54426047Y-1198009D02*
X54473666Y-1293247D01*
X54473666Y-1293247D02*
X54473666Y-1531342D01*
X54473666Y-1531342D02*
X54426047Y-1626580D01*
X54426047Y-1626580D02*
X54378428Y-1674200D01*
X54378428Y-1674200D02*
X54283190Y-1721819D01*
X54283190Y-1721819D02*
X54045095Y-1721819D01*
X54045095Y-1721819D02*
X53949857Y-1674200D01*
X53949857Y-1674200D02*
X53902238Y-1626580D01*
X2559742Y-17061380D02*
X2512123Y-17109000D01*
X2512123Y-17109000D02*
X2369266Y-17156619D01*
X2369266Y-17156619D02*
X2274028Y-17156619D01*
X2274028Y-17156619D02*
X2131171Y-17109000D01*
X2131171Y-17109000D02*
X2035933Y-17013761D01*
X2035933Y-17013761D02*
X1988314Y-16918523D01*
X1988314Y-16918523D02*
X1940695Y-16728047D01*
X1940695Y-16728047D02*
X1940695Y-16585190D01*
X1940695Y-16585190D02*
X1988314Y-16394714D01*
X1988314Y-16394714D02*
X2035933Y-16299476D01*
X2035933Y-16299476D02*
X2131171Y-16204238D01*
X2131171Y-16204238D02*
X2274028Y-16156619D01*
X2274028Y-16156619D02*
X2369266Y-16156619D01*
X2369266Y-16156619D02*
X2512123Y-16204238D01*
X2512123Y-16204238D02*
X2559742Y-16251857D01*
X3512123Y-17156619D02*
X2940695Y-17156619D01*
X3226409Y-17156619D02*
X3226409Y-16156619D01*
X3226409Y-16156619D02*
X3131171Y-16299476D01*
X3131171Y-16299476D02*
X3035933Y-16394714D01*
X3035933Y-16394714D02*
X2940695Y-16442333D01*
X4131171Y-16156619D02*
X4226409Y-16156619D01*
X4226409Y-16156619D02*
X4321647Y-16204238D01*
X4321647Y-16204238D02*
X4369266Y-16251857D01*
X4369266Y-16251857D02*
X4416885Y-16347095D01*
X4416885Y-16347095D02*
X4464504Y-16537571D01*
X4464504Y-16537571D02*
X4464504Y-16775666D01*
X4464504Y-16775666D02*
X4416885Y-16966142D01*
X4416885Y-16966142D02*
X4369266Y-17061380D01*
X4369266Y-17061380D02*
X4321647Y-17109000D01*
X4321647Y-17109000D02*
X4226409Y-17156619D01*
X4226409Y-17156619D02*
X4131171Y-17156619D01*
X4131171Y-17156619D02*
X4035933Y-17109000D01*
X4035933Y-17109000D02*
X3988314Y-17061380D01*
X3988314Y-17061380D02*
X3940695Y-16966142D01*
X3940695Y-16966142D02*
X3893076Y-16775666D01*
X3893076Y-16775666D02*
X3893076Y-16537571D01*
X3893076Y-16537571D02*
X3940695Y-16347095D01*
X3940695Y-16347095D02*
X3988314Y-16251857D01*
X3988314Y-16251857D02*
X4035933Y-16204238D01*
X4035933Y-16204238D02*
X4131171Y-16156619D01*
X3276966Y-25062619D02*
X3276966Y-25776904D01*
X3276966Y-25776904D02*
X3229347Y-25919761D01*
X3229347Y-25919761D02*
X3134109Y-26015000D01*
X3134109Y-26015000D02*
X2991252Y-26062619D01*
X2991252Y-26062619D02*
X2896014Y-26062619D01*
X4181728Y-25062619D02*
X3991252Y-25062619D01*
X3991252Y-25062619D02*
X3896014Y-25110238D01*
X3896014Y-25110238D02*
X3848395Y-25157857D01*
X3848395Y-25157857D02*
X3753157Y-25300714D01*
X3753157Y-25300714D02*
X3705538Y-25491190D01*
X3705538Y-25491190D02*
X3705538Y-25872142D01*
X3705538Y-25872142D02*
X3753157Y-25967380D01*
X3753157Y-25967380D02*
X3800776Y-26015000D01*
X3800776Y-26015000D02*
X3896014Y-26062619D01*
X3896014Y-26062619D02*
X4086490Y-26062619D01*
X4086490Y-26062619D02*
X4181728Y-26015000D01*
X4181728Y-26015000D02*
X4229347Y-25967380D01*
X4229347Y-25967380D02*
X4276966Y-25872142D01*
X4276966Y-25872142D02*
X4276966Y-25634047D01*
X4276966Y-25634047D02*
X4229347Y-25538809D01*
X4229347Y-25538809D02*
X4181728Y-25491190D01*
X4181728Y-25491190D02*
X4086490Y-25443571D01*
X4086490Y-25443571D02*
X3896014Y-25443571D01*
X3896014Y-25443571D02*
X3800776Y-25491190D01*
X3800776Y-25491190D02*
X3753157Y-25538809D01*
X3753157Y-25538809D02*
X3705538Y-25634047D01*
X58220333Y-19770819D02*
X57887000Y-19294628D01*
X57648905Y-19770819D02*
X57648905Y-18770819D01*
X57648905Y-18770819D02*
X58029857Y-18770819D01*
X58029857Y-18770819D02*
X58125095Y-18818438D01*
X58125095Y-18818438D02*
X58172714Y-18866057D01*
X58172714Y-18866057D02*
X58220333Y-18961295D01*
X58220333Y-18961295D02*
X58220333Y-19104152D01*
X58220333Y-19104152D02*
X58172714Y-19199390D01*
X58172714Y-19199390D02*
X58125095Y-19247009D01*
X58125095Y-19247009D02*
X58029857Y-19294628D01*
X58029857Y-19294628D02*
X57648905Y-19294628D01*
X59125095Y-18770819D02*
X58648905Y-18770819D01*
X58648905Y-18770819D02*
X58601286Y-19247009D01*
X58601286Y-19247009D02*
X58648905Y-19199390D01*
X58648905Y-19199390D02*
X58744143Y-19151771D01*
X58744143Y-19151771D02*
X58982238Y-19151771D01*
X58982238Y-19151771D02*
X59077476Y-19199390D01*
X59077476Y-19199390D02*
X59125095Y-19247009D01*
X59125095Y-19247009D02*
X59172714Y-19342247D01*
X59172714Y-19342247D02*
X59172714Y-19580342D01*
X59172714Y-19580342D02*
X59125095Y-19675580D01*
X59125095Y-19675580D02*
X59077476Y-19723200D01*
X59077476Y-19723200D02*
X58982238Y-19770819D01*
X58982238Y-19770819D02*
X58744143Y-19770819D01*
X58744143Y-19770819D02*
X58648905Y-19723200D01*
X58648905Y-19723200D02*
X58601286Y-19675580D01*
X54198419Y-17144866D02*
X53722228Y-17478199D01*
X54198419Y-17716294D02*
X53198419Y-17716294D01*
X53198419Y-17716294D02*
X53198419Y-17335342D01*
X53198419Y-17335342D02*
X53246038Y-17240104D01*
X53246038Y-17240104D02*
X53293657Y-17192485D01*
X53293657Y-17192485D02*
X53388895Y-17144866D01*
X53388895Y-17144866D02*
X53531752Y-17144866D01*
X53531752Y-17144866D02*
X53626990Y-17192485D01*
X53626990Y-17192485D02*
X53674609Y-17240104D01*
X53674609Y-17240104D02*
X53722228Y-17335342D01*
X53722228Y-17335342D02*
X53722228Y-17716294D01*
X53531752Y-16287723D02*
X54198419Y-16287723D01*
X53150800Y-16525818D02*
X53865085Y-16763913D01*
X53865085Y-16763913D02*
X53865085Y-16144866D01*
X50316534Y-1656379D02*
X50268915Y-1703999D01*
X50268915Y-1703999D02*
X50126058Y-1751618D01*
X50126058Y-1751618D02*
X50030820Y-1751618D01*
X50030820Y-1751618D02*
X49887963Y-1703999D01*
X49887963Y-1703999D02*
X49792725Y-1608760D01*
X49792725Y-1608760D02*
X49745106Y-1513522D01*
X49745106Y-1513522D02*
X49697487Y-1323046D01*
X49697487Y-1323046D02*
X49697487Y-1180189D01*
X49697487Y-1180189D02*
X49745106Y-989713D01*
X49745106Y-989713D02*
X49792725Y-894475D01*
X49792725Y-894475D02*
X49887963Y-799237D01*
X49887963Y-799237D02*
X50030820Y-751618D01*
X50030820Y-751618D02*
X50126058Y-751618D01*
X50126058Y-751618D02*
X50268915Y-799237D01*
X50268915Y-799237D02*
X50316534Y-846856D01*
X50887963Y-1180189D02*
X50792725Y-1132570D01*
X50792725Y-1132570D02*
X50745106Y-1084951D01*
X50745106Y-1084951D02*
X50697487Y-989713D01*
X50697487Y-989713D02*
X50697487Y-942094D01*
X50697487Y-942094D02*
X50745106Y-846856D01*
X50745106Y-846856D02*
X50792725Y-799237D01*
X50792725Y-799237D02*
X50887963Y-751618D01*
X50887963Y-751618D02*
X51078439Y-751618D01*
X51078439Y-751618D02*
X51173677Y-799237D01*
X51173677Y-799237D02*
X51221296Y-846856D01*
X51221296Y-846856D02*
X51268915Y-942094D01*
X51268915Y-942094D02*
X51268915Y-989713D01*
X51268915Y-989713D02*
X51221296Y-1084951D01*
X51221296Y-1084951D02*
X51173677Y-1132570D01*
X51173677Y-1132570D02*
X51078439Y-1180189D01*
X51078439Y-1180189D02*
X50887963Y-1180189D01*
X50887963Y-1180189D02*
X50792725Y-1227808D01*
X50792725Y-1227808D02*
X50745106Y-1275427D01*
X50745106Y-1275427D02*
X50697487Y-1370665D01*
X50697487Y-1370665D02*
X50697487Y-1561141D01*
X50697487Y-1561141D02*
X50745106Y-1656379D01*
X50745106Y-1656379D02*
X50792725Y-1703999D01*
X50792725Y-1703999D02*
X50887963Y-1751618D01*
X50887963Y-1751618D02*
X51078439Y-1751618D01*
X51078439Y-1751618D02*
X51173677Y-1703999D01*
X51173677Y-1703999D02*
X51221296Y-1656379D01*
X51221296Y-1656379D02*
X51268915Y-1561141D01*
X51268915Y-1561141D02*
X51268915Y-1370665D01*
X51268915Y-1370665D02*
X51221296Y-1275427D01*
X51221296Y-1275427D02*
X51173677Y-1227808D01*
X51173677Y-1227808D02*
X51078439Y-1180189D01*
X21749334Y-24684418D02*
X21416001Y-24208227D01*
X21177906Y-24684418D02*
X21177906Y-23684418D01*
X21177906Y-23684418D02*
X21558858Y-23684418D01*
X21558858Y-23684418D02*
X21654096Y-23732037D01*
X21654096Y-23732037D02*
X21701715Y-23779656D01*
X21701715Y-23779656D02*
X21749334Y-23874894D01*
X21749334Y-23874894D02*
X21749334Y-24017751D01*
X21749334Y-24017751D02*
X21701715Y-24112989D01*
X21701715Y-24112989D02*
X21654096Y-24160608D01*
X21654096Y-24160608D02*
X21558858Y-24208227D01*
X21558858Y-24208227D02*
X21177906Y-24208227D01*
X22320763Y-24112989D02*
X22225525Y-24065370D01*
X22225525Y-24065370D02*
X22177906Y-24017751D01*
X22177906Y-24017751D02*
X22130287Y-23922513D01*
X22130287Y-23922513D02*
X22130287Y-23874894D01*
X22130287Y-23874894D02*
X22177906Y-23779656D01*
X22177906Y-23779656D02*
X22225525Y-23732037D01*
X22225525Y-23732037D02*
X22320763Y-23684418D01*
X22320763Y-23684418D02*
X22511239Y-23684418D01*
X22511239Y-23684418D02*
X22606477Y-23732037D01*
X22606477Y-23732037D02*
X22654096Y-23779656D01*
X22654096Y-23779656D02*
X22701715Y-23874894D01*
X22701715Y-23874894D02*
X22701715Y-23922513D01*
X22701715Y-23922513D02*
X22654096Y-24017751D01*
X22654096Y-24017751D02*
X22606477Y-24065370D01*
X22606477Y-24065370D02*
X22511239Y-24112989D01*
X22511239Y-24112989D02*
X22320763Y-24112989D01*
X22320763Y-24112989D02*
X22225525Y-24160608D01*
X22225525Y-24160608D02*
X22177906Y-24208227D01*
X22177906Y-24208227D02*
X22130287Y-24303465D01*
X22130287Y-24303465D02*
X22130287Y-24493941D01*
X22130287Y-24493941D02*
X22177906Y-24589179D01*
X22177906Y-24589179D02*
X22225525Y-24636799D01*
X22225525Y-24636799D02*
X22320763Y-24684418D01*
X22320763Y-24684418D02*
X22511239Y-24684418D01*
X22511239Y-24684418D02*
X22606477Y-24636799D01*
X22606477Y-24636799D02*
X22654096Y-24589179D01*
X22654096Y-24589179D02*
X22701715Y-24493941D01*
X22701715Y-24493941D02*
X22701715Y-24303465D01*
X22701715Y-24303465D02*
X22654096Y-24208227D01*
X22654096Y-24208227D02*
X22606477Y-24160608D01*
X22606477Y-24160608D02*
X22511239Y-24112989D01*
X10781905Y-24584819D02*
X10781905Y-23584819D01*
X10781905Y-23584819D02*
X11020000Y-23584819D01*
X11020000Y-23584819D02*
X11162857Y-23632438D01*
X11162857Y-23632438D02*
X11258095Y-23727676D01*
X11258095Y-23727676D02*
X11305714Y-23822914D01*
X11305714Y-23822914D02*
X11353333Y-24013390D01*
X11353333Y-24013390D02*
X11353333Y-24156247D01*
X11353333Y-24156247D02*
X11305714Y-24346723D01*
X11305714Y-24346723D02*
X11258095Y-24441961D01*
X11258095Y-24441961D02*
X11162857Y-24537200D01*
X11162857Y-24537200D02*
X11020000Y-24584819D01*
X11020000Y-24584819D02*
X10781905Y-24584819D01*
X12210476Y-23918152D02*
X12210476Y-24584819D01*
X11972381Y-23537200D02*
X11734286Y-24251485D01*
X11734286Y-24251485D02*
X12353333Y-24251485D01*
X53945019Y-13815866D02*
X53468828Y-14149199D01*
X53945019Y-14387294D02*
X52945019Y-14387294D01*
X52945019Y-14387294D02*
X52945019Y-14006342D01*
X52945019Y-14006342D02*
X52992638Y-13911104D01*
X52992638Y-13911104D02*
X53040257Y-13863485D01*
X53040257Y-13863485D02*
X53135495Y-13815866D01*
X53135495Y-13815866D02*
X53278352Y-13815866D01*
X53278352Y-13815866D02*
X53373590Y-13863485D01*
X53373590Y-13863485D02*
X53421209Y-13911104D01*
X53421209Y-13911104D02*
X53468828Y-14006342D01*
X53468828Y-14006342D02*
X53468828Y-14387294D01*
X53945019Y-12863485D02*
X53945019Y-13434913D01*
X53945019Y-13149199D02*
X52945019Y-13149199D01*
X52945019Y-13149199D02*
X53087876Y-13244437D01*
X53087876Y-13244437D02*
X53183114Y-13339675D01*
X53183114Y-13339675D02*
X53230733Y-13434913D01*
X8992286Y-27294619D02*
X9563714Y-27294619D01*
X9278000Y-28294619D02*
X9278000Y-27294619D01*
X9897048Y-28294619D02*
X9897048Y-27294619D01*
X9897048Y-27770809D02*
X10468476Y-27770809D01*
X10468476Y-28294619D02*
X10468476Y-27294619D01*
X11468476Y-28294619D02*
X10897048Y-28294619D01*
X11182762Y-28294619D02*
X11182762Y-27294619D01*
X11182762Y-27294619D02*
X11087524Y-27437476D01*
X11087524Y-27437476D02*
X10992286Y-27532714D01*
X10992286Y-27532714D02*
X10897048Y-27580333D01*
X59923019Y-23939123D02*
X60637304Y-23939123D01*
X60637304Y-23939123D02*
X60780161Y-23986742D01*
X60780161Y-23986742D02*
X60875400Y-24081980D01*
X60875400Y-24081980D02*
X60923019Y-24224837D01*
X60923019Y-24224837D02*
X60923019Y-24320075D01*
X60923019Y-22939123D02*
X60923019Y-23510551D01*
X60923019Y-23224837D02*
X59923019Y-23224837D01*
X59923019Y-23224837D02*
X60065876Y-23320075D01*
X60065876Y-23320075D02*
X60161114Y-23415313D01*
X60161114Y-23415313D02*
X60208733Y-23510551D01*
X59923019Y-22605789D02*
X59923019Y-21986742D01*
X59923019Y-21986742D02*
X60303971Y-22320075D01*
X60303971Y-22320075D02*
X60303971Y-22177218D01*
X60303971Y-22177218D02*
X60351590Y-22081980D01*
X60351590Y-22081980D02*
X60399209Y-22034361D01*
X60399209Y-22034361D02*
X60494447Y-21986742D01*
X60494447Y-21986742D02*
X60732542Y-21986742D01*
X60732542Y-21986742D02*
X60827780Y-22034361D01*
X60827780Y-22034361D02*
X60875400Y-22081980D01*
X60875400Y-22081980D02*
X60923019Y-22177218D01*
X60923019Y-22177218D02*
X60923019Y-22462932D01*
X60923019Y-22462932D02*
X60875400Y-22558170D01*
X60875400Y-22558170D02*
X60827780Y-22605789D01*
X66837076Y-8932619D02*
X66837076Y-9646904D01*
X66837076Y-9646904D02*
X66789457Y-9789761D01*
X66789457Y-9789761D02*
X66694219Y-9885000D01*
X66694219Y-9885000D02*
X66551362Y-9932619D01*
X66551362Y-9932619D02*
X66456124Y-9932619D01*
X67837076Y-9932619D02*
X67265648Y-9932619D01*
X67551362Y-9932619D02*
X67551362Y-8932619D01*
X67551362Y-8932619D02*
X67456124Y-9075476D01*
X67456124Y-9075476D02*
X67360886Y-9170714D01*
X67360886Y-9170714D02*
X67265648Y-9218333D01*
X68789457Y-9932619D02*
X68218029Y-9932619D01*
X68503743Y-9932619D02*
X68503743Y-8932619D01*
X68503743Y-8932619D02*
X68408505Y-9075476D01*
X68408505Y-9075476D02*
X68313267Y-9170714D01*
X68313267Y-9170714D02*
X68218029Y-9218333D01*
X44424019Y-17108657D02*
X43947828Y-17441990D01*
X44424019Y-17680085D02*
X43424019Y-17680085D01*
X43424019Y-17680085D02*
X43424019Y-17299133D01*
X43424019Y-17299133D02*
X43471638Y-17203895D01*
X43471638Y-17203895D02*
X43519257Y-17156276D01*
X43519257Y-17156276D02*
X43614495Y-17108657D01*
X43614495Y-17108657D02*
X43757352Y-17108657D01*
X43757352Y-17108657D02*
X43852590Y-17156276D01*
X43852590Y-17156276D02*
X43900209Y-17203895D01*
X43900209Y-17203895D02*
X43947828Y-17299133D01*
X43947828Y-17299133D02*
X43947828Y-17680085D01*
X44424019Y-16156276D02*
X44424019Y-16727704D01*
X44424019Y-16441990D02*
X43424019Y-16441990D01*
X43424019Y-16441990D02*
X43566876Y-16537228D01*
X43566876Y-16537228D02*
X43662114Y-16632466D01*
X43662114Y-16632466D02*
X43709733Y-16727704D01*
X43757352Y-15299133D02*
X44424019Y-15299133D01*
X43376400Y-15537228D02*
X44090685Y-15775323D01*
X44090685Y-15775323D02*
X44090685Y-15156276D01*
X19812533Y-19802980D02*
X19764914Y-19850600D01*
X19764914Y-19850600D02*
X19622057Y-19898219D01*
X19622057Y-19898219D02*
X19526819Y-19898219D01*
X19526819Y-19898219D02*
X19383962Y-19850600D01*
X19383962Y-19850600D02*
X19288724Y-19755361D01*
X19288724Y-19755361D02*
X19241105Y-19660123D01*
X19241105Y-19660123D02*
X19193486Y-19469647D01*
X19193486Y-19469647D02*
X19193486Y-19326790D01*
X19193486Y-19326790D02*
X19241105Y-19136314D01*
X19241105Y-19136314D02*
X19288724Y-19041076D01*
X19288724Y-19041076D02*
X19383962Y-18945838D01*
X19383962Y-18945838D02*
X19526819Y-18898219D01*
X19526819Y-18898219D02*
X19622057Y-18898219D01*
X19622057Y-18898219D02*
X19764914Y-18945838D01*
X19764914Y-18945838D02*
X19812533Y-18993457D01*
X20717295Y-18898219D02*
X20241105Y-18898219D01*
X20241105Y-18898219D02*
X20193486Y-19374409D01*
X20193486Y-19374409D02*
X20241105Y-19326790D01*
X20241105Y-19326790D02*
X20336343Y-19279171D01*
X20336343Y-19279171D02*
X20574438Y-19279171D01*
X20574438Y-19279171D02*
X20669676Y-19326790D01*
X20669676Y-19326790D02*
X20717295Y-19374409D01*
X20717295Y-19374409D02*
X20764914Y-19469647D01*
X20764914Y-19469647D02*
X20764914Y-19707742D01*
X20764914Y-19707742D02*
X20717295Y-19802980D01*
X20717295Y-19802980D02*
X20669676Y-19850600D01*
X20669676Y-19850600D02*
X20574438Y-19898219D01*
X20574438Y-19898219D02*
X20336343Y-19898219D01*
X20336343Y-19898219D02*
X20241105Y-19850600D01*
X20241105Y-19850600D02*
X20193486Y-19802980D01*
X45116819Y-21545457D02*
X44640628Y-21878790D01*
X45116819Y-22116885D02*
X44116819Y-22116885D01*
X44116819Y-22116885D02*
X44116819Y-21735933D01*
X44116819Y-21735933D02*
X44164438Y-21640695D01*
X44164438Y-21640695D02*
X44212057Y-21593076D01*
X44212057Y-21593076D02*
X44307295Y-21545457D01*
X44307295Y-21545457D02*
X44450152Y-21545457D01*
X44450152Y-21545457D02*
X44545390Y-21593076D01*
X44545390Y-21593076D02*
X44593009Y-21640695D01*
X44593009Y-21640695D02*
X44640628Y-21735933D01*
X44640628Y-21735933D02*
X44640628Y-22116885D01*
X45116819Y-20593076D02*
X45116819Y-21164504D01*
X45116819Y-20878790D02*
X44116819Y-20878790D01*
X44116819Y-20878790D02*
X44259676Y-20974028D01*
X44259676Y-20974028D02*
X44354914Y-21069266D01*
X44354914Y-21069266D02*
X44402533Y-21164504D01*
X44116819Y-19735933D02*
X44116819Y-19926409D01*
X44116819Y-19926409D02*
X44164438Y-20021647D01*
X44164438Y-20021647D02*
X44212057Y-20069266D01*
X44212057Y-20069266D02*
X44354914Y-20164504D01*
X44354914Y-20164504D02*
X44545390Y-20212123D01*
X44545390Y-20212123D02*
X44926342Y-20212123D01*
X44926342Y-20212123D02*
X45021580Y-20164504D01*
X45021580Y-20164504D02*
X45069200Y-20116885D01*
X45069200Y-20116885D02*
X45116819Y-20021647D01*
X45116819Y-20021647D02*
X45116819Y-19831171D01*
X45116819Y-19831171D02*
X45069200Y-19735933D01*
X45069200Y-19735933D02*
X45021580Y-19688314D01*
X45021580Y-19688314D02*
X44926342Y-19640695D01*
X44926342Y-19640695D02*
X44688247Y-19640695D01*
X44688247Y-19640695D02*
X44593009Y-19688314D01*
X44593009Y-19688314D02*
X44545390Y-19735933D01*
X44545390Y-19735933D02*
X44497771Y-19831171D01*
X44497771Y-19831171D02*
X44497771Y-20021647D01*
X44497771Y-20021647D02*
X44545390Y-20116885D01*
X44545390Y-20116885D02*
X44593009Y-20164504D01*
X44593009Y-20164504D02*
X44688247Y-20212123D01*
X29782342Y-24523119D02*
X29306152Y-24523119D01*
X29306152Y-24523119D02*
X29306152Y-23523119D01*
X30068057Y-24475500D02*
X30210914Y-24523119D01*
X30210914Y-24523119D02*
X30449009Y-24523119D01*
X30449009Y-24523119D02*
X30544247Y-24475500D01*
X30544247Y-24475500D02*
X30591866Y-24427880D01*
X30591866Y-24427880D02*
X30639485Y-24332642D01*
X30639485Y-24332642D02*
X30639485Y-24237404D01*
X30639485Y-24237404D02*
X30591866Y-24142166D01*
X30591866Y-24142166D02*
X30544247Y-24094547D01*
X30544247Y-24094547D02*
X30449009Y-24046928D01*
X30449009Y-24046928D02*
X30258533Y-23999309D01*
X30258533Y-23999309D02*
X30163295Y-23951690D01*
X30163295Y-23951690D02*
X30115676Y-23904071D01*
X30115676Y-23904071D02*
X30068057Y-23808833D01*
X30068057Y-23808833D02*
X30068057Y-23713595D01*
X30068057Y-23713595D02*
X30115676Y-23618357D01*
X30115676Y-23618357D02*
X30163295Y-23570738D01*
X30163295Y-23570738D02*
X30258533Y-23523119D01*
X30258533Y-23523119D02*
X30496628Y-23523119D01*
X30496628Y-23523119D02*
X30639485Y-23570738D01*
X31591866Y-24523119D02*
X31020438Y-24523119D01*
X31306152Y-24523119D02*
X31306152Y-23523119D01*
X31306152Y-23523119D02*
X31210914Y-23665976D01*
X31210914Y-23665976D02*
X31115676Y-23761214D01*
X31115676Y-23761214D02*
X31020438Y-23808833D01*
X64595876Y-26390619D02*
X64595876Y-27104904D01*
X64595876Y-27104904D02*
X64548257Y-27247761D01*
X64548257Y-27247761D02*
X64453019Y-27343000D01*
X64453019Y-27343000D02*
X64310162Y-27390619D01*
X64310162Y-27390619D02*
X64214924Y-27390619D01*
X65595876Y-27390619D02*
X65024448Y-27390619D01*
X65310162Y-27390619D02*
X65310162Y-26390619D01*
X65310162Y-26390619D02*
X65214924Y-26533476D01*
X65214924Y-26533476D02*
X65119686Y-26628714D01*
X65119686Y-26628714D02*
X65024448Y-26676333D01*
X65976829Y-26485857D02*
X66024448Y-26438238D01*
X66024448Y-26438238D02*
X66119686Y-26390619D01*
X66119686Y-26390619D02*
X66357781Y-26390619D01*
X66357781Y-26390619D02*
X66453019Y-26438238D01*
X66453019Y-26438238D02*
X66500638Y-26485857D01*
X66500638Y-26485857D02*
X66548257Y-26581095D01*
X66548257Y-26581095D02*
X66548257Y-26676333D01*
X66548257Y-26676333D02*
X66500638Y-26819190D01*
X66500638Y-26819190D02*
X65929210Y-27390619D01*
X65929210Y-27390619D02*
X66548257Y-27390619D01*
X9142942Y-17179980D02*
X9095323Y-17227600D01*
X9095323Y-17227600D02*
X8952466Y-17275219D01*
X8952466Y-17275219D02*
X8857228Y-17275219D01*
X8857228Y-17275219D02*
X8714371Y-17227600D01*
X8714371Y-17227600D02*
X8619133Y-17132361D01*
X8619133Y-17132361D02*
X8571514Y-17037123D01*
X8571514Y-17037123D02*
X8523895Y-16846647D01*
X8523895Y-16846647D02*
X8523895Y-16703790D01*
X8523895Y-16703790D02*
X8571514Y-16513314D01*
X8571514Y-16513314D02*
X8619133Y-16418076D01*
X8619133Y-16418076D02*
X8714371Y-16322838D01*
X8714371Y-16322838D02*
X8857228Y-16275219D01*
X8857228Y-16275219D02*
X8952466Y-16275219D01*
X8952466Y-16275219D02*
X9095323Y-16322838D01*
X9095323Y-16322838D02*
X9142942Y-16370457D01*
X10095323Y-17275219D02*
X9523895Y-17275219D01*
X9809609Y-17275219D02*
X9809609Y-16275219D01*
X9809609Y-16275219D02*
X9714371Y-16418076D01*
X9714371Y-16418076D02*
X9619133Y-16513314D01*
X9619133Y-16513314D02*
X9523895Y-16560933D01*
X11047704Y-17275219D02*
X10476276Y-17275219D01*
X10761990Y-17275219D02*
X10761990Y-16275219D01*
X10761990Y-16275219D02*
X10666752Y-16418076D01*
X10666752Y-16418076D02*
X10571514Y-16513314D01*
X10571514Y-16513314D02*
X10476276Y-16560933D01*
X34867142Y-18924819D02*
X34533809Y-18448628D01*
X34295714Y-18924819D02*
X34295714Y-17924819D01*
X34295714Y-17924819D02*
X34676666Y-17924819D01*
X34676666Y-17924819D02*
X34771904Y-17972438D01*
X34771904Y-17972438D02*
X34819523Y-18020057D01*
X34819523Y-18020057D02*
X34867142Y-18115295D01*
X34867142Y-18115295D02*
X34867142Y-18258152D01*
X34867142Y-18258152D02*
X34819523Y-18353390D01*
X34819523Y-18353390D02*
X34771904Y-18401009D01*
X34771904Y-18401009D02*
X34676666Y-18448628D01*
X34676666Y-18448628D02*
X34295714Y-18448628D01*
X35819523Y-18924819D02*
X35248095Y-18924819D01*
X35533809Y-18924819D02*
X35533809Y-17924819D01*
X35533809Y-17924819D02*
X35438571Y-18067676D01*
X35438571Y-18067676D02*
X35343333Y-18162914D01*
X35343333Y-18162914D02*
X35248095Y-18210533D01*
X36152857Y-17924819D02*
X36819523Y-17924819D01*
X36819523Y-17924819D02*
X36390952Y-18924819D01*
X40904967Y-25678519D02*
X40904967Y-26392804D01*
X40904967Y-26392804D02*
X40857348Y-26535661D01*
X40857348Y-26535661D02*
X40762110Y-26630900D01*
X40762110Y-26630900D02*
X40619253Y-26678519D01*
X40619253Y-26678519D02*
X40524015Y-26678519D01*
X41381158Y-26678519D02*
X41381158Y-25678519D01*
X41381158Y-25678519D02*
X41762110Y-25678519D01*
X41762110Y-25678519D02*
X41857348Y-25726138D01*
X41857348Y-25726138D02*
X41904967Y-25773757D01*
X41904967Y-25773757D02*
X41952586Y-25868995D01*
X41952586Y-25868995D02*
X41952586Y-26011852D01*
X41952586Y-26011852D02*
X41904967Y-26107090D01*
X41904967Y-26107090D02*
X41857348Y-26154709D01*
X41857348Y-26154709D02*
X41762110Y-26202328D01*
X41762110Y-26202328D02*
X41381158Y-26202328D01*
X42285920Y-25678519D02*
X42904967Y-25678519D01*
X42904967Y-25678519D02*
X42571634Y-26059471D01*
X42571634Y-26059471D02*
X42714491Y-26059471D01*
X42714491Y-26059471D02*
X42809729Y-26107090D01*
X42809729Y-26107090D02*
X42857348Y-26154709D01*
X42857348Y-26154709D02*
X42904967Y-26249947D01*
X42904967Y-26249947D02*
X42904967Y-26488042D01*
X42904967Y-26488042D02*
X42857348Y-26583280D01*
X42857348Y-26583280D02*
X42809729Y-26630900D01*
X42809729Y-26630900D02*
X42714491Y-26678519D01*
X42714491Y-26678519D02*
X42428777Y-26678519D01*
X42428777Y-26678519D02*
X42333539Y-26630900D01*
X42333539Y-26630900D02*
X42285920Y-26583280D01*
X61463120Y-16539033D02*
X62177405Y-16539033D01*
X62177405Y-16539033D02*
X62320262Y-16586652D01*
X62320262Y-16586652D02*
X62415501Y-16681890D01*
X62415501Y-16681890D02*
X62463120Y-16824747D01*
X62463120Y-16824747D02*
X62463120Y-16919985D01*
X62463120Y-16062842D02*
X61463120Y-16062842D01*
X61463120Y-16062842D02*
X61463120Y-15681890D01*
X61463120Y-15681890D02*
X61510739Y-15586652D01*
X61510739Y-15586652D02*
X61558358Y-15539033D01*
X61558358Y-15539033D02*
X61653596Y-15491414D01*
X61653596Y-15491414D02*
X61796453Y-15491414D01*
X61796453Y-15491414D02*
X61891691Y-15539033D01*
X61891691Y-15539033D02*
X61939310Y-15586652D01*
X61939310Y-15586652D02*
X61986929Y-15681890D01*
X61986929Y-15681890D02*
X61986929Y-16062842D01*
X61558358Y-15110461D02*
X61510739Y-15062842D01*
X61510739Y-15062842D02*
X61463120Y-14967604D01*
X61463120Y-14967604D02*
X61463120Y-14729509D01*
X61463120Y-14729509D02*
X61510739Y-14634271D01*
X61510739Y-14634271D02*
X61558358Y-14586652D01*
X61558358Y-14586652D02*
X61653596Y-14539033D01*
X61653596Y-14539033D02*
X61748834Y-14539033D01*
X61748834Y-14539033D02*
X61891691Y-14586652D01*
X61891691Y-14586652D02*
X62463120Y-15158080D01*
X62463120Y-15158080D02*
X62463120Y-14539033D01*
X44236166Y-7417280D02*
X44712356Y-7417280D01*
X44712356Y-7417280D02*
X44712356Y-8417280D01*
X43379023Y-7417280D02*
X43950451Y-7417280D01*
X43664737Y-7417280D02*
X43664737Y-8417280D01*
X43664737Y-8417280D02*
X43759975Y-8274423D01*
X43759975Y-8274423D02*
X43855213Y-8179185D01*
X43855213Y-8179185D02*
X43950451Y-8131566D01*
X50852142Y-18939819D02*
X50518809Y-18463628D01*
X50280714Y-18939819D02*
X50280714Y-17939819D01*
X50280714Y-17939819D02*
X50661666Y-17939819D01*
X50661666Y-17939819D02*
X50756904Y-17987438D01*
X50756904Y-17987438D02*
X50804523Y-18035057D01*
X50804523Y-18035057D02*
X50852142Y-18130295D01*
X50852142Y-18130295D02*
X50852142Y-18273152D01*
X50852142Y-18273152D02*
X50804523Y-18368390D01*
X50804523Y-18368390D02*
X50756904Y-18416009D01*
X50756904Y-18416009D02*
X50661666Y-18463628D01*
X50661666Y-18463628D02*
X50280714Y-18463628D01*
X51804523Y-18939819D02*
X51233095Y-18939819D01*
X51518809Y-18939819D02*
X51518809Y-17939819D01*
X51518809Y-17939819D02*
X51423571Y-18082676D01*
X51423571Y-18082676D02*
X51328333Y-18177914D01*
X51328333Y-18177914D02*
X51233095Y-18225533D01*
X52137857Y-17939819D02*
X52756904Y-17939819D01*
X52756904Y-17939819D02*
X52423571Y-18320771D01*
X52423571Y-18320771D02*
X52566428Y-18320771D01*
X52566428Y-18320771D02*
X52661666Y-18368390D01*
X52661666Y-18368390D02*
X52709285Y-18416009D01*
X52709285Y-18416009D02*
X52756904Y-18511247D01*
X52756904Y-18511247D02*
X52756904Y-18749342D01*
X52756904Y-18749342D02*
X52709285Y-18844580D01*
X52709285Y-18844580D02*
X52661666Y-18892200D01*
X52661666Y-18892200D02*
X52566428Y-18939819D01*
X52566428Y-18939819D02*
X52280714Y-18939819D01*
X52280714Y-18939819D02*
X52185476Y-18892200D01*
X52185476Y-18892200D02*
X52137857Y-18844580D01*
X47318180Y-9938857D02*
X47365800Y-9986476D01*
X47365800Y-9986476D02*
X47413419Y-10129333D01*
X47413419Y-10129333D02*
X47413419Y-10224571D01*
X47413419Y-10224571D02*
X47365800Y-10367428D01*
X47365800Y-10367428D02*
X47270561Y-10462666D01*
X47270561Y-10462666D02*
X47175323Y-10510285D01*
X47175323Y-10510285D02*
X46984847Y-10557904D01*
X46984847Y-10557904D02*
X46841990Y-10557904D01*
X46841990Y-10557904D02*
X46651514Y-10510285D01*
X46651514Y-10510285D02*
X46556276Y-10462666D01*
X46556276Y-10462666D02*
X46461038Y-10367428D01*
X46461038Y-10367428D02*
X46413419Y-10224571D01*
X46413419Y-10224571D02*
X46413419Y-10129333D01*
X46413419Y-10129333D02*
X46461038Y-9986476D01*
X46461038Y-9986476D02*
X46508657Y-9938857D01*
X47413419Y-8986476D02*
X47413419Y-9557904D01*
X47413419Y-9272190D02*
X46413419Y-9272190D01*
X46413419Y-9272190D02*
X46556276Y-9367428D01*
X46556276Y-9367428D02*
X46651514Y-9462666D01*
X46651514Y-9462666D02*
X46699133Y-9557904D01*
X46508657Y-8605523D02*
X46461038Y-8557904D01*
X46461038Y-8557904D02*
X46413419Y-8462666D01*
X46413419Y-8462666D02*
X46413419Y-8224571D01*
X46413419Y-8224571D02*
X46461038Y-8129333D01*
X46461038Y-8129333D02*
X46508657Y-8081714D01*
X46508657Y-8081714D02*
X46603895Y-8034095D01*
X46603895Y-8034095D02*
X46699133Y-8034095D01*
X46699133Y-8034095D02*
X46841990Y-8081714D01*
X46841990Y-8081714D02*
X47413419Y-8653142D01*
X47413419Y-8653142D02*
X47413419Y-8034095D01*
X40348980Y-8432866D02*
X40396600Y-8480485D01*
X40396600Y-8480485D02*
X40444219Y-8623342D01*
X40444219Y-8623342D02*
X40444219Y-8718580D01*
X40444219Y-8718580D02*
X40396600Y-8861437D01*
X40396600Y-8861437D02*
X40301361Y-8956675D01*
X40301361Y-8956675D02*
X40206123Y-9004294D01*
X40206123Y-9004294D02*
X40015647Y-9051913D01*
X40015647Y-9051913D02*
X39872790Y-9051913D01*
X39872790Y-9051913D02*
X39682314Y-9004294D01*
X39682314Y-9004294D02*
X39587076Y-8956675D01*
X39587076Y-8956675D02*
X39491838Y-8861437D01*
X39491838Y-8861437D02*
X39444219Y-8718580D01*
X39444219Y-8718580D02*
X39444219Y-8623342D01*
X39444219Y-8623342D02*
X39491838Y-8480485D01*
X39491838Y-8480485D02*
X39539457Y-8432866D01*
X40444219Y-7480485D02*
X40444219Y-8051913D01*
X40444219Y-7766199D02*
X39444219Y-7766199D01*
X39444219Y-7766199D02*
X39587076Y-7861437D01*
X39587076Y-7861437D02*
X39682314Y-7956675D01*
X39682314Y-7956675D02*
X39729933Y-8051913D01*
X40428380Y-13496066D02*
X40476000Y-13543685D01*
X40476000Y-13543685D02*
X40523619Y-13686542D01*
X40523619Y-13686542D02*
X40523619Y-13781780D01*
X40523619Y-13781780D02*
X40476000Y-13924637D01*
X40476000Y-13924637D02*
X40380761Y-14019875D01*
X40380761Y-14019875D02*
X40285523Y-14067494D01*
X40285523Y-14067494D02*
X40095047Y-14115113D01*
X40095047Y-14115113D02*
X39952190Y-14115113D01*
X39952190Y-14115113D02*
X39761714Y-14067494D01*
X39761714Y-14067494D02*
X39666476Y-14019875D01*
X39666476Y-14019875D02*
X39571238Y-13924637D01*
X39571238Y-13924637D02*
X39523619Y-13781780D01*
X39523619Y-13781780D02*
X39523619Y-13686542D01*
X39523619Y-13686542D02*
X39571238Y-13543685D01*
X39571238Y-13543685D02*
X39618857Y-13496066D01*
X39856952Y-12638923D02*
X40523619Y-12638923D01*
X39476000Y-12877018D02*
X40190285Y-13115113D01*
X40190285Y-13115113D02*
X40190285Y-12496066D01*
X6449219Y-13304057D02*
X5973028Y-13637390D01*
X6449219Y-13875485D02*
X5449219Y-13875485D01*
X5449219Y-13875485D02*
X5449219Y-13494533D01*
X5449219Y-13494533D02*
X5496838Y-13399295D01*
X5496838Y-13399295D02*
X5544457Y-13351676D01*
X5544457Y-13351676D02*
X5639695Y-13304057D01*
X5639695Y-13304057D02*
X5782552Y-13304057D01*
X5782552Y-13304057D02*
X5877790Y-13351676D01*
X5877790Y-13351676D02*
X5925409Y-13399295D01*
X5925409Y-13399295D02*
X5973028Y-13494533D01*
X5973028Y-13494533D02*
X5973028Y-13875485D01*
X6449219Y-12351676D02*
X6449219Y-12923104D01*
X6449219Y-12637390D02*
X5449219Y-12637390D01*
X5449219Y-12637390D02*
X5592076Y-12732628D01*
X5592076Y-12732628D02*
X5687314Y-12827866D01*
X5687314Y-12827866D02*
X5734933Y-12923104D01*
X6449219Y-11399295D02*
X6449219Y-11970723D01*
X6449219Y-11685009D02*
X5449219Y-11685009D01*
X5449219Y-11685009D02*
X5592076Y-11780247D01*
X5592076Y-11780247D02*
X5687314Y-11875485D01*
X5687314Y-11875485D02*
X5734933Y-11970723D01*
X20015142Y-7831580D02*
X19967523Y-7879200D01*
X19967523Y-7879200D02*
X19824666Y-7926819D01*
X19824666Y-7926819D02*
X19729428Y-7926819D01*
X19729428Y-7926819D02*
X19586571Y-7879200D01*
X19586571Y-7879200D02*
X19491333Y-7783961D01*
X19491333Y-7783961D02*
X19443714Y-7688723D01*
X19443714Y-7688723D02*
X19396095Y-7498247D01*
X19396095Y-7498247D02*
X19396095Y-7355390D01*
X19396095Y-7355390D02*
X19443714Y-7164914D01*
X19443714Y-7164914D02*
X19491333Y-7069676D01*
X19491333Y-7069676D02*
X19586571Y-6974438D01*
X19586571Y-6974438D02*
X19729428Y-6926819D01*
X19729428Y-6926819D02*
X19824666Y-6926819D01*
X19824666Y-6926819D02*
X19967523Y-6974438D01*
X19967523Y-6974438D02*
X20015142Y-7022057D01*
X20967523Y-7926819D02*
X20396095Y-7926819D01*
X20681809Y-7926819D02*
X20681809Y-6926819D01*
X20681809Y-6926819D02*
X20586571Y-7069676D01*
X20586571Y-7069676D02*
X20491333Y-7164914D01*
X20491333Y-7164914D02*
X20396095Y-7212533D01*
X21538952Y-7355390D02*
X21443714Y-7307771D01*
X21443714Y-7307771D02*
X21396095Y-7260152D01*
X21396095Y-7260152D02*
X21348476Y-7164914D01*
X21348476Y-7164914D02*
X21348476Y-7117295D01*
X21348476Y-7117295D02*
X21396095Y-7022057D01*
X21396095Y-7022057D02*
X21443714Y-6974438D01*
X21443714Y-6974438D02*
X21538952Y-6926819D01*
X21538952Y-6926819D02*
X21729428Y-6926819D01*
X21729428Y-6926819D02*
X21824666Y-6974438D01*
X21824666Y-6974438D02*
X21872285Y-7022057D01*
X21872285Y-7022057D02*
X21919904Y-7117295D01*
X21919904Y-7117295D02*
X21919904Y-7164914D01*
X21919904Y-7164914D02*
X21872285Y-7260152D01*
X21872285Y-7260152D02*
X21824666Y-7307771D01*
X21824666Y-7307771D02*
X21729428Y-7355390D01*
X21729428Y-7355390D02*
X21538952Y-7355390D01*
X21538952Y-7355390D02*
X21443714Y-7403009D01*
X21443714Y-7403009D02*
X21396095Y-7450628D01*
X21396095Y-7450628D02*
X21348476Y-7545866D01*
X21348476Y-7545866D02*
X21348476Y-7736342D01*
X21348476Y-7736342D02*
X21396095Y-7831580D01*
X21396095Y-7831580D02*
X21443714Y-7879200D01*
X21443714Y-7879200D02*
X21538952Y-7926819D01*
X21538952Y-7926819D02*
X21729428Y-7926819D01*
X21729428Y-7926819D02*
X21824666Y-7879200D01*
X21824666Y-7879200D02*
X21872285Y-7831580D01*
X21872285Y-7831580D02*
X21919904Y-7736342D01*
X21919904Y-7736342D02*
X21919904Y-7545866D01*
X21919904Y-7545866D02*
X21872285Y-7450628D01*
X21872285Y-7450628D02*
X21824666Y-7403009D01*
X21824666Y-7403009D02*
X21729428Y-7355390D01*
X57415961Y-8594257D02*
X57320723Y-8546638D01*
X57320723Y-8546638D02*
X57225485Y-8451400D01*
X57225485Y-8451400D02*
X57082628Y-8308542D01*
X57082628Y-8308542D02*
X56987390Y-8260923D01*
X56987390Y-8260923D02*
X56892152Y-8260923D01*
X56939771Y-8499019D02*
X56844533Y-8451400D01*
X56844533Y-8451400D02*
X56749295Y-8356161D01*
X56749295Y-8356161D02*
X56701676Y-8165685D01*
X56701676Y-8165685D02*
X56701676Y-7832352D01*
X56701676Y-7832352D02*
X56749295Y-7641876D01*
X56749295Y-7641876D02*
X56844533Y-7546638D01*
X56844533Y-7546638D02*
X56939771Y-7499019D01*
X56939771Y-7499019D02*
X57130247Y-7499019D01*
X57130247Y-7499019D02*
X57225485Y-7546638D01*
X57225485Y-7546638D02*
X57320723Y-7641876D01*
X57320723Y-7641876D02*
X57368342Y-7832352D01*
X57368342Y-7832352D02*
X57368342Y-8165685D01*
X57368342Y-8165685D02*
X57320723Y-8356161D01*
X57320723Y-8356161D02*
X57225485Y-8451400D01*
X57225485Y-8451400D02*
X57130247Y-8499019D01*
X57130247Y-8499019D02*
X56939771Y-8499019D01*
X58320723Y-8499019D02*
X57749295Y-8499019D01*
X58035009Y-8499019D02*
X58035009Y-7499019D01*
X58035009Y-7499019D02*
X57939771Y-7641876D01*
X57939771Y-7641876D02*
X57844533Y-7737114D01*
X57844533Y-7737114D02*
X57749295Y-7784733D01*
X71543676Y-8759619D02*
X71543676Y-9473904D01*
X71543676Y-9473904D02*
X71496057Y-9616761D01*
X71496057Y-9616761D02*
X71400819Y-9712000D01*
X71400819Y-9712000D02*
X71257962Y-9759619D01*
X71257962Y-9759619D02*
X71162724Y-9759619D01*
X72543676Y-9759619D02*
X71972248Y-9759619D01*
X72257962Y-9759619D02*
X72257962Y-8759619D01*
X72257962Y-8759619D02*
X72162724Y-8902476D01*
X72162724Y-8902476D02*
X72067486Y-8997714D01*
X72067486Y-8997714D02*
X71972248Y-9045333D01*
X73162724Y-8759619D02*
X73257962Y-8759619D01*
X73257962Y-8759619D02*
X73353200Y-8807238D01*
X73353200Y-8807238D02*
X73400819Y-8854857D01*
X73400819Y-8854857D02*
X73448438Y-8950095D01*
X73448438Y-8950095D02*
X73496057Y-9140571D01*
X73496057Y-9140571D02*
X73496057Y-9378666D01*
X73496057Y-9378666D02*
X73448438Y-9569142D01*
X73448438Y-9569142D02*
X73400819Y-9664380D01*
X73400819Y-9664380D02*
X73353200Y-9712000D01*
X73353200Y-9712000D02*
X73257962Y-9759619D01*
X73257962Y-9759619D02*
X73162724Y-9759619D01*
X73162724Y-9759619D02*
X73067486Y-9712000D01*
X73067486Y-9712000D02*
X73019867Y-9664380D01*
X73019867Y-9664380D02*
X72972248Y-9569142D01*
X72972248Y-9569142D02*
X72924629Y-9378666D01*
X72924629Y-9378666D02*
X72924629Y-9140571D01*
X72924629Y-9140571D02*
X72972248Y-8950095D01*
X72972248Y-8950095D02*
X73019867Y-8854857D01*
X73019867Y-8854857D02*
X73067486Y-8807238D01*
X73067486Y-8807238D02*
X73162724Y-8759619D01*
X64835066Y-11683619D02*
X64835066Y-12397904D01*
X64835066Y-12397904D02*
X64787447Y-12540761D01*
X64787447Y-12540761D02*
X64692209Y-12636000D01*
X64692209Y-12636000D02*
X64549352Y-12683619D01*
X64549352Y-12683619D02*
X64454114Y-12683619D01*
X65358876Y-12683619D02*
X65549352Y-12683619D01*
X65549352Y-12683619D02*
X65644590Y-12636000D01*
X65644590Y-12636000D02*
X65692209Y-12588380D01*
X65692209Y-12588380D02*
X65787447Y-12445523D01*
X65787447Y-12445523D02*
X65835066Y-12255047D01*
X65835066Y-12255047D02*
X65835066Y-11874095D01*
X65835066Y-11874095D02*
X65787447Y-11778857D01*
X65787447Y-11778857D02*
X65739828Y-11731238D01*
X65739828Y-11731238D02*
X65644590Y-11683619D01*
X65644590Y-11683619D02*
X65454114Y-11683619D01*
X65454114Y-11683619D02*
X65358876Y-11731238D01*
X65358876Y-11731238D02*
X65311257Y-11778857D01*
X65311257Y-11778857D02*
X65263638Y-11874095D01*
X65263638Y-11874095D02*
X65263638Y-12112190D01*
X65263638Y-12112190D02*
X65311257Y-12207428D01*
X65311257Y-12207428D02*
X65358876Y-12255047D01*
X65358876Y-12255047D02*
X65454114Y-12302666D01*
X65454114Y-12302666D02*
X65644590Y-12302666D01*
X65644590Y-12302666D02*
X65739828Y-12255047D01*
X65739828Y-12255047D02*
X65787447Y-12207428D01*
X65787447Y-12207428D02*
X65835066Y-12112190D01*
X13985580Y-17754257D02*
X14033200Y-17801876D01*
X14033200Y-17801876D02*
X14080819Y-17944733D01*
X14080819Y-17944733D02*
X14080819Y-18039971D01*
X14080819Y-18039971D02*
X14033200Y-18182828D01*
X14033200Y-18182828D02*
X13937961Y-18278066D01*
X13937961Y-18278066D02*
X13842723Y-18325685D01*
X13842723Y-18325685D02*
X13652247Y-18373304D01*
X13652247Y-18373304D02*
X13509390Y-18373304D01*
X13509390Y-18373304D02*
X13318914Y-18325685D01*
X13318914Y-18325685D02*
X13223676Y-18278066D01*
X13223676Y-18278066D02*
X13128438Y-18182828D01*
X13128438Y-18182828D02*
X13080819Y-18039971D01*
X13080819Y-18039971D02*
X13080819Y-17944733D01*
X13080819Y-17944733D02*
X13128438Y-17801876D01*
X13128438Y-17801876D02*
X13176057Y-17754257D01*
X13176057Y-17373304D02*
X13128438Y-17325685D01*
X13128438Y-17325685D02*
X13080819Y-17230447D01*
X13080819Y-17230447D02*
X13080819Y-16992352D01*
X13080819Y-16992352D02*
X13128438Y-16897114D01*
X13128438Y-16897114D02*
X13176057Y-16849495D01*
X13176057Y-16849495D02*
X13271295Y-16801876D01*
X13271295Y-16801876D02*
X13366533Y-16801876D01*
X13366533Y-16801876D02*
X13509390Y-16849495D01*
X13509390Y-16849495D02*
X14080819Y-17420923D01*
X14080819Y-17420923D02*
X14080819Y-16801876D01*
X14080819Y-15849495D02*
X14080819Y-16420923D01*
X14080819Y-16135209D02*
X13080819Y-16135209D01*
X13080819Y-16135209D02*
X13223676Y-16230447D01*
X13223676Y-16230447D02*
X13318914Y-16325685D01*
X13318914Y-16325685D02*
X13366533Y-16420923D01*
X25504142Y-23104980D02*
X25456523Y-23152600D01*
X25456523Y-23152600D02*
X25313666Y-23200219D01*
X25313666Y-23200219D02*
X25218428Y-23200219D01*
X25218428Y-23200219D02*
X25075571Y-23152600D01*
X25075571Y-23152600D02*
X24980333Y-23057361D01*
X24980333Y-23057361D02*
X24932714Y-22962123D01*
X24932714Y-22962123D02*
X24885095Y-22771647D01*
X24885095Y-22771647D02*
X24885095Y-22628790D01*
X24885095Y-22628790D02*
X24932714Y-22438314D01*
X24932714Y-22438314D02*
X24980333Y-22343076D01*
X24980333Y-22343076D02*
X25075571Y-22247838D01*
X25075571Y-22247838D02*
X25218428Y-22200219D01*
X25218428Y-22200219D02*
X25313666Y-22200219D01*
X25313666Y-22200219D02*
X25456523Y-22247838D01*
X25456523Y-22247838D02*
X25504142Y-22295457D01*
X26456523Y-23200219D02*
X25885095Y-23200219D01*
X26170809Y-23200219D02*
X26170809Y-22200219D01*
X26170809Y-22200219D02*
X26075571Y-22343076D01*
X26075571Y-22343076D02*
X25980333Y-22438314D01*
X25980333Y-22438314D02*
X25885095Y-22485933D01*
X26789857Y-22200219D02*
X27456523Y-22200219D01*
X27456523Y-22200219D02*
X27027952Y-23200219D01*
X70106666Y-3372019D02*
X70106666Y-4086304D01*
X70106666Y-4086304D02*
X70059047Y-4229161D01*
X70059047Y-4229161D02*
X69963809Y-4324400D01*
X69963809Y-4324400D02*
X69820952Y-4372019D01*
X69820952Y-4372019D02*
X69725714Y-4372019D01*
X70487619Y-3372019D02*
X71154285Y-3372019D01*
X71154285Y-3372019D02*
X70725714Y-4372019D01*
X15519019Y-14355104D02*
X16328542Y-14355104D01*
X16328542Y-14355104D02*
X16423780Y-14307485D01*
X16423780Y-14307485D02*
X16471400Y-14259866D01*
X16471400Y-14259866D02*
X16519019Y-14164628D01*
X16519019Y-14164628D02*
X16519019Y-13974152D01*
X16519019Y-13974152D02*
X16471400Y-13878914D01*
X16471400Y-13878914D02*
X16423780Y-13831295D01*
X16423780Y-13831295D02*
X16328542Y-13783676D01*
X16328542Y-13783676D02*
X15519019Y-13783676D01*
X15519019Y-13402723D02*
X15519019Y-12783676D01*
X15519019Y-12783676D02*
X15899971Y-13117009D01*
X15899971Y-13117009D02*
X15899971Y-12974152D01*
X15899971Y-12974152D02*
X15947590Y-12878914D01*
X15947590Y-12878914D02*
X15995209Y-12831295D01*
X15995209Y-12831295D02*
X16090447Y-12783676D01*
X16090447Y-12783676D02*
X16328542Y-12783676D01*
X16328542Y-12783676D02*
X16423780Y-12831295D01*
X16423780Y-12831295D02*
X16471400Y-12878914D01*
X16471400Y-12878914D02*
X16519019Y-12974152D01*
X16519019Y-12974152D02*
X16519019Y-13259866D01*
X16519019Y-13259866D02*
X16471400Y-13355104D01*
X16471400Y-13355104D02*
X16423780Y-13402723D01*
X47973095Y-18449819D02*
X47973095Y-19259342D01*
X47973095Y-19259342D02*
X48020714Y-19354580D01*
X48020714Y-19354580D02*
X48068333Y-19402200D01*
X48068333Y-19402200D02*
X48163571Y-19449819D01*
X48163571Y-19449819D02*
X48354047Y-19449819D01*
X48354047Y-19449819D02*
X48449285Y-19402200D01*
X48449285Y-19402200D02*
X48496904Y-19354580D01*
X48496904Y-19354580D02*
X48544523Y-19259342D01*
X48544523Y-19259342D02*
X48544523Y-18449819D01*
X48973095Y-18545057D02*
X49020714Y-18497438D01*
X49020714Y-18497438D02*
X49115952Y-18449819D01*
X49115952Y-18449819D02*
X49354047Y-18449819D01*
X49354047Y-18449819D02*
X49449285Y-18497438D01*
X49449285Y-18497438D02*
X49496904Y-18545057D01*
X49496904Y-18545057D02*
X49544523Y-18640295D01*
X49544523Y-18640295D02*
X49544523Y-18735533D01*
X49544523Y-18735533D02*
X49496904Y-18878390D01*
X49496904Y-18878390D02*
X48925476Y-19449819D01*
X48925476Y-19449819D02*
X49544523Y-19449819D01*
X53028219Y-10343066D02*
X52552028Y-10676399D01*
X53028219Y-10914494D02*
X52028219Y-10914494D01*
X52028219Y-10914494D02*
X52028219Y-10533542D01*
X52028219Y-10533542D02*
X52075838Y-10438304D01*
X52075838Y-10438304D02*
X52123457Y-10390685D01*
X52123457Y-10390685D02*
X52218695Y-10343066D01*
X52218695Y-10343066D02*
X52361552Y-10343066D01*
X52361552Y-10343066D02*
X52456790Y-10390685D01*
X52456790Y-10390685D02*
X52504409Y-10438304D01*
X52504409Y-10438304D02*
X52552028Y-10533542D01*
X52552028Y-10533542D02*
X52552028Y-10914494D01*
X52123457Y-9962113D02*
X52075838Y-9914494D01*
X52075838Y-9914494D02*
X52028219Y-9819256D01*
X52028219Y-9819256D02*
X52028219Y-9581161D01*
X52028219Y-9581161D02*
X52075838Y-9485923D01*
X52075838Y-9485923D02*
X52123457Y-9438304D01*
X52123457Y-9438304D02*
X52218695Y-9390685D01*
X52218695Y-9390685D02*
X52313933Y-9390685D01*
X52313933Y-9390685D02*
X52456790Y-9438304D01*
X52456790Y-9438304D02*
X53028219Y-10009732D01*
X53028219Y-10009732D02*
X53028219Y-9390685D01*
X11981666Y-2039819D02*
X11981666Y-2754104D01*
X11981666Y-2754104D02*
X11934047Y-2896961D01*
X11934047Y-2896961D02*
X11838809Y-2992200D01*
X11838809Y-2992200D02*
X11695952Y-3039819D01*
X11695952Y-3039819D02*
X11600714Y-3039819D01*
X12410238Y-2135057D02*
X12457857Y-2087438D01*
X12457857Y-2087438D02*
X12553095Y-2039819D01*
X12553095Y-2039819D02*
X12791190Y-2039819D01*
X12791190Y-2039819D02*
X12886428Y-2087438D01*
X12886428Y-2087438D02*
X12934047Y-2135057D01*
X12934047Y-2135057D02*
X12981666Y-2230295D01*
X12981666Y-2230295D02*
X12981666Y-2325533D01*
X12981666Y-2325533D02*
X12934047Y-2468390D01*
X12934047Y-2468390D02*
X12362619Y-3039819D01*
X12362619Y-3039819D02*
X12981666Y-3039819D01*
X34826342Y-20727819D02*
X34493009Y-20251628D01*
X34254914Y-20727819D02*
X34254914Y-19727819D01*
X34254914Y-19727819D02*
X34635866Y-19727819D01*
X34635866Y-19727819D02*
X34731104Y-19775438D01*
X34731104Y-19775438D02*
X34778723Y-19823057D01*
X34778723Y-19823057D02*
X34826342Y-19918295D01*
X34826342Y-19918295D02*
X34826342Y-20061152D01*
X34826342Y-20061152D02*
X34778723Y-20156390D01*
X34778723Y-20156390D02*
X34731104Y-20204009D01*
X34731104Y-20204009D02*
X34635866Y-20251628D01*
X34635866Y-20251628D02*
X34254914Y-20251628D01*
X35778723Y-20727819D02*
X35207295Y-20727819D01*
X35493009Y-20727819D02*
X35493009Y-19727819D01*
X35493009Y-19727819D02*
X35397771Y-19870676D01*
X35397771Y-19870676D02*
X35302533Y-19965914D01*
X35302533Y-19965914D02*
X35207295Y-20013533D01*
X36159676Y-19823057D02*
X36207295Y-19775438D01*
X36207295Y-19775438D02*
X36302533Y-19727819D01*
X36302533Y-19727819D02*
X36540628Y-19727819D01*
X36540628Y-19727819D02*
X36635866Y-19775438D01*
X36635866Y-19775438D02*
X36683485Y-19823057D01*
X36683485Y-19823057D02*
X36731104Y-19918295D01*
X36731104Y-19918295D02*
X36731104Y-20013533D01*
X36731104Y-20013533D02*
X36683485Y-20156390D01*
X36683485Y-20156390D02*
X36112057Y-20727819D01*
X36112057Y-20727819D02*
X36731104Y-20727819D01*
X25806934Y-28654218D02*
X25473601Y-28178027D01*
X25235506Y-28654218D02*
X25235506Y-27654218D01*
X25235506Y-27654218D02*
X25616458Y-27654218D01*
X25616458Y-27654218D02*
X25711696Y-27701837D01*
X25711696Y-27701837D02*
X25759315Y-27749456D01*
X25759315Y-27749456D02*
X25806934Y-27844694D01*
X25806934Y-27844694D02*
X25806934Y-27987551D01*
X25806934Y-27987551D02*
X25759315Y-28082789D01*
X25759315Y-28082789D02*
X25711696Y-28130408D01*
X25711696Y-28130408D02*
X25616458Y-28178027D01*
X25616458Y-28178027D02*
X25235506Y-28178027D01*
X26140268Y-27654218D02*
X26806934Y-27654218D01*
X26806934Y-27654218D02*
X26378363Y-28654218D01*
X49236542Y-8763419D02*
X48903209Y-8287228D01*
X48665114Y-8763419D02*
X48665114Y-7763419D01*
X48665114Y-7763419D02*
X49046066Y-7763419D01*
X49046066Y-7763419D02*
X49141304Y-7811038D01*
X49141304Y-7811038D02*
X49188923Y-7858657D01*
X49188923Y-7858657D02*
X49236542Y-7953895D01*
X49236542Y-7953895D02*
X49236542Y-8096752D01*
X49236542Y-8096752D02*
X49188923Y-8191990D01*
X49188923Y-8191990D02*
X49141304Y-8239609D01*
X49141304Y-8239609D02*
X49046066Y-8287228D01*
X49046066Y-8287228D02*
X48665114Y-8287228D01*
X50188923Y-8763419D02*
X49617495Y-8763419D01*
X49903209Y-8763419D02*
X49903209Y-7763419D01*
X49903209Y-7763419D02*
X49807971Y-7906276D01*
X49807971Y-7906276D02*
X49712733Y-8001514D01*
X49712733Y-8001514D02*
X49617495Y-8049133D01*
X51093685Y-7763419D02*
X50617495Y-7763419D01*
X50617495Y-7763419D02*
X50569876Y-8239609D01*
X50569876Y-8239609D02*
X50617495Y-8191990D01*
X50617495Y-8191990D02*
X50712733Y-8144371D01*
X50712733Y-8144371D02*
X50950828Y-8144371D01*
X50950828Y-8144371D02*
X51046066Y-8191990D01*
X51046066Y-8191990D02*
X51093685Y-8239609D01*
X51093685Y-8239609D02*
X51141304Y-8334847D01*
X51141304Y-8334847D02*
X51141304Y-8572942D01*
X51141304Y-8572942D02*
X51093685Y-8668180D01*
X51093685Y-8668180D02*
X51046066Y-8715800D01*
X51046066Y-8715800D02*
X50950828Y-8763419D01*
X50950828Y-8763419D02*
X50712733Y-8763419D01*
X50712733Y-8763419D02*
X50617495Y-8715800D01*
X50617495Y-8715800D02*
X50569876Y-8668180D01*
X20014342Y-5888580D02*
X19966723Y-5936200D01*
X19966723Y-5936200D02*
X19823866Y-5983819D01*
X19823866Y-5983819D02*
X19728628Y-5983819D01*
X19728628Y-5983819D02*
X19585771Y-5936200D01*
X19585771Y-5936200D02*
X19490533Y-5840961D01*
X19490533Y-5840961D02*
X19442914Y-5745723D01*
X19442914Y-5745723D02*
X19395295Y-5555247D01*
X19395295Y-5555247D02*
X19395295Y-5412390D01*
X19395295Y-5412390D02*
X19442914Y-5221914D01*
X19442914Y-5221914D02*
X19490533Y-5126676D01*
X19490533Y-5126676D02*
X19585771Y-5031438D01*
X19585771Y-5031438D02*
X19728628Y-4983819D01*
X19728628Y-4983819D02*
X19823866Y-4983819D01*
X19823866Y-4983819D02*
X19966723Y-5031438D01*
X19966723Y-5031438D02*
X20014342Y-5079057D01*
X20966723Y-5983819D02*
X20395295Y-5983819D01*
X20681009Y-5983819D02*
X20681009Y-4983819D01*
X20681009Y-4983819D02*
X20585771Y-5126676D01*
X20585771Y-5126676D02*
X20490533Y-5221914D01*
X20490533Y-5221914D02*
X20395295Y-5269533D01*
X21823866Y-5317152D02*
X21823866Y-5983819D01*
X21585771Y-4936200D02*
X21347676Y-5650485D01*
X21347676Y-5650485D02*
X21966723Y-5650485D01*
X36954934Y-27562418D02*
X36621601Y-27086227D01*
X36383506Y-27562418D02*
X36383506Y-26562418D01*
X36383506Y-26562418D02*
X36764458Y-26562418D01*
X36764458Y-26562418D02*
X36859696Y-26610037D01*
X36859696Y-26610037D02*
X36907315Y-26657656D01*
X36907315Y-26657656D02*
X36954934Y-26752894D01*
X36954934Y-26752894D02*
X36954934Y-26895751D01*
X36954934Y-26895751D02*
X36907315Y-26990989D01*
X36907315Y-26990989D02*
X36859696Y-27038608D01*
X36859696Y-27038608D02*
X36764458Y-27086227D01*
X36764458Y-27086227D02*
X36383506Y-27086227D01*
X37288268Y-26562418D02*
X37907315Y-26562418D01*
X37907315Y-26562418D02*
X37573982Y-26943370D01*
X37573982Y-26943370D02*
X37716839Y-26943370D01*
X37716839Y-26943370D02*
X37812077Y-26990989D01*
X37812077Y-26990989D02*
X37859696Y-27038608D01*
X37859696Y-27038608D02*
X37907315Y-27133846D01*
X37907315Y-27133846D02*
X37907315Y-27371941D01*
X37907315Y-27371941D02*
X37859696Y-27467179D01*
X37859696Y-27467179D02*
X37812077Y-27514799D01*
X37812077Y-27514799D02*
X37716839Y-27562418D01*
X37716839Y-27562418D02*
X37431125Y-27562418D01*
X37431125Y-27562418D02*
X37335887Y-27514799D01*
X37335887Y-27514799D02*
X37288268Y-27467179D01*
X30576180Y-11730057D02*
X30623800Y-11777676D01*
X30623800Y-11777676D02*
X30671419Y-11920533D01*
X30671419Y-11920533D02*
X30671419Y-12015771D01*
X30671419Y-12015771D02*
X30623800Y-12158628D01*
X30623800Y-12158628D02*
X30528561Y-12253866D01*
X30528561Y-12253866D02*
X30433323Y-12301485D01*
X30433323Y-12301485D02*
X30242847Y-12349104D01*
X30242847Y-12349104D02*
X30099990Y-12349104D01*
X30099990Y-12349104D02*
X29909514Y-12301485D01*
X29909514Y-12301485D02*
X29814276Y-12253866D01*
X29814276Y-12253866D02*
X29719038Y-12158628D01*
X29719038Y-12158628D02*
X29671419Y-12015771D01*
X29671419Y-12015771D02*
X29671419Y-11920533D01*
X29671419Y-11920533D02*
X29719038Y-11777676D01*
X29719038Y-11777676D02*
X29766657Y-11730057D01*
X29766657Y-11349104D02*
X29719038Y-11301485D01*
X29719038Y-11301485D02*
X29671419Y-11206247D01*
X29671419Y-11206247D02*
X29671419Y-10968152D01*
X29671419Y-10968152D02*
X29719038Y-10872914D01*
X29719038Y-10872914D02*
X29766657Y-10825295D01*
X29766657Y-10825295D02*
X29861895Y-10777676D01*
X29861895Y-10777676D02*
X29957133Y-10777676D01*
X29957133Y-10777676D02*
X30099990Y-10825295D01*
X30099990Y-10825295D02*
X30671419Y-11396723D01*
X30671419Y-11396723D02*
X30671419Y-10777676D01*
X29671419Y-10158628D02*
X29671419Y-10063390D01*
X29671419Y-10063390D02*
X29719038Y-9968152D01*
X29719038Y-9968152D02*
X29766657Y-9920533D01*
X29766657Y-9920533D02*
X29861895Y-9872914D01*
X29861895Y-9872914D02*
X30052371Y-9825295D01*
X30052371Y-9825295D02*
X30290466Y-9825295D01*
X30290466Y-9825295D02*
X30480942Y-9872914D01*
X30480942Y-9872914D02*
X30576180Y-9920533D01*
X30576180Y-9920533D02*
X30623800Y-9968152D01*
X30623800Y-9968152D02*
X30671419Y-10063390D01*
X30671419Y-10063390D02*
X30671419Y-10158628D01*
X30671419Y-10158628D02*
X30623800Y-10253866D01*
X30623800Y-10253866D02*
X30576180Y-10301485D01*
X30576180Y-10301485D02*
X30480942Y-10349104D01*
X30480942Y-10349104D02*
X30290466Y-10396723D01*
X30290466Y-10396723D02*
X30052371Y-10396723D01*
X30052371Y-10396723D02*
X29861895Y-10349104D01*
X29861895Y-10349104D02*
X29766657Y-10301485D01*
X29766657Y-10301485D02*
X29719038Y-10253866D01*
X29719038Y-10253866D02*
X29671419Y-10158628D01*
X6652933Y-8042819D02*
X6319600Y-7566628D01*
X6081505Y-8042819D02*
X6081505Y-7042819D01*
X6081505Y-7042819D02*
X6462457Y-7042819D01*
X6462457Y-7042819D02*
X6557695Y-7090438D01*
X6557695Y-7090438D02*
X6605314Y-7138057D01*
X6605314Y-7138057D02*
X6652933Y-7233295D01*
X6652933Y-7233295D02*
X6652933Y-7376152D01*
X6652933Y-7376152D02*
X6605314Y-7471390D01*
X6605314Y-7471390D02*
X6557695Y-7519009D01*
X6557695Y-7519009D02*
X6462457Y-7566628D01*
X6462457Y-7566628D02*
X6081505Y-7566628D01*
X7129124Y-8042819D02*
X7319600Y-8042819D01*
X7319600Y-8042819D02*
X7414838Y-7995200D01*
X7414838Y-7995200D02*
X7462457Y-7947580D01*
X7462457Y-7947580D02*
X7557695Y-7804723D01*
X7557695Y-7804723D02*
X7605314Y-7614247D01*
X7605314Y-7614247D02*
X7605314Y-7233295D01*
X7605314Y-7233295D02*
X7557695Y-7138057D01*
X7557695Y-7138057D02*
X7510076Y-7090438D01*
X7510076Y-7090438D02*
X7414838Y-7042819D01*
X7414838Y-7042819D02*
X7224362Y-7042819D01*
X7224362Y-7042819D02*
X7129124Y-7090438D01*
X7129124Y-7090438D02*
X7081505Y-7138057D01*
X7081505Y-7138057D02*
X7033886Y-7233295D01*
X7033886Y-7233295D02*
X7033886Y-7471390D01*
X7033886Y-7471390D02*
X7081505Y-7566628D01*
X7081505Y-7566628D02*
X7129124Y-7614247D01*
X7129124Y-7614247D02*
X7224362Y-7661866D01*
X7224362Y-7661866D02*
X7414838Y-7661866D01*
X7414838Y-7661866D02*
X7510076Y-7614247D01*
X7510076Y-7614247D02*
X7557695Y-7566628D01*
X7557695Y-7566628D02*
X7605314Y-7471390D01*
X54136605Y-23926319D02*
X54136605Y-22926319D01*
X54136605Y-22926319D02*
X54374700Y-22926319D01*
X54374700Y-22926319D02*
X54517557Y-22973938D01*
X54517557Y-22973938D02*
X54612795Y-23069176D01*
X54612795Y-23069176D02*
X54660414Y-23164414D01*
X54660414Y-23164414D02*
X54708033Y-23354890D01*
X54708033Y-23354890D02*
X54708033Y-23497747D01*
X54708033Y-23497747D02*
X54660414Y-23688223D01*
X54660414Y-23688223D02*
X54612795Y-23783461D01*
X54612795Y-23783461D02*
X54517557Y-23878700D01*
X54517557Y-23878700D02*
X54374700Y-23926319D01*
X54374700Y-23926319D02*
X54136605Y-23926319D01*
X55088986Y-23021557D02*
X55136605Y-22973938D01*
X55136605Y-22973938D02*
X55231843Y-22926319D01*
X55231843Y-22926319D02*
X55469938Y-22926319D01*
X55469938Y-22926319D02*
X55565176Y-22973938D01*
X55565176Y-22973938D02*
X55612795Y-23021557D01*
X55612795Y-23021557D02*
X55660414Y-23116795D01*
X55660414Y-23116795D02*
X55660414Y-23212033D01*
X55660414Y-23212033D02*
X55612795Y-23354890D01*
X55612795Y-23354890D02*
X55041367Y-23926319D01*
X55041367Y-23926319D02*
X55660414Y-23926319D01*
X64759866Y-8400019D02*
X64759866Y-9114304D01*
X64759866Y-9114304D02*
X64712247Y-9257161D01*
X64712247Y-9257161D02*
X64617009Y-9352400D01*
X64617009Y-9352400D02*
X64474152Y-9400019D01*
X64474152Y-9400019D02*
X64378914Y-9400019D01*
X65140819Y-8400019D02*
X65759866Y-8400019D01*
X65759866Y-8400019D02*
X65426533Y-8780971D01*
X65426533Y-8780971D02*
X65569390Y-8780971D01*
X65569390Y-8780971D02*
X65664628Y-8828590D01*
X65664628Y-8828590D02*
X65712247Y-8876209D01*
X65712247Y-8876209D02*
X65759866Y-8971447D01*
X65759866Y-8971447D02*
X65759866Y-9209542D01*
X65759866Y-9209542D02*
X65712247Y-9304780D01*
X65712247Y-9304780D02*
X65664628Y-9352400D01*
X65664628Y-9352400D02*
X65569390Y-9400019D01*
X65569390Y-9400019D02*
X65283676Y-9400019D01*
X65283676Y-9400019D02*
X65188438Y-9352400D01*
X65188438Y-9352400D02*
X65140819Y-9304780D01*
X49521705Y-4996419D02*
X49521705Y-3996419D01*
X49521705Y-3996419D02*
X49759800Y-3996419D01*
X49759800Y-3996419D02*
X49902657Y-4044038D01*
X49902657Y-4044038D02*
X49997895Y-4139276D01*
X49997895Y-4139276D02*
X50045514Y-4234514D01*
X50045514Y-4234514D02*
X50093133Y-4424990D01*
X50093133Y-4424990D02*
X50093133Y-4567847D01*
X50093133Y-4567847D02*
X50045514Y-4758323D01*
X50045514Y-4758323D02*
X49997895Y-4853561D01*
X49997895Y-4853561D02*
X49902657Y-4948800D01*
X49902657Y-4948800D02*
X49759800Y-4996419D01*
X49759800Y-4996419D02*
X49521705Y-4996419D01*
X51045514Y-4996419D02*
X50474086Y-4996419D01*
X50759800Y-4996419D02*
X50759800Y-3996419D01*
X50759800Y-3996419D02*
X50664562Y-4139276D01*
X50664562Y-4139276D02*
X50569324Y-4234514D01*
X50569324Y-4234514D02*
X50474086Y-4282133D01*
D12*
%TO.C,J1*%
X30296121Y-1456300D02*
X30296121Y-4116300D01*
X43056121Y-1456300D02*
X30296121Y-1456300D01*
X43056121Y-1456300D02*
X43056121Y-4116300D01*
X43056121Y-4116300D02*
X30296121Y-4116300D01*
X44326121Y-1456300D02*
X45656121Y-1456300D01*
X45656121Y-1456300D02*
X45656121Y-2786300D01*
%TO.C,C22*%
X17153800Y-21423548D02*
X17153800Y-21946052D01*
X18623800Y-21423548D02*
X18623800Y-21946052D01*
%TO.C,R18*%
X36320000Y-23757936D02*
X36320000Y-24212064D01*
X37790000Y-23757936D02*
X37790000Y-24212064D01*
%TO.C,R6*%
X19431000Y-26135536D02*
X19431000Y-26589664D01*
X20901000Y-26135536D02*
X20901000Y-26589664D01*
%TO.C,R10*%
X7118600Y-12430536D02*
X7118600Y-12884664D01*
X8588600Y-12430536D02*
X8588600Y-12884664D01*
D13*
%TO.C,J4*%
X57732600Y-323200D02*
X57732600Y-6317600D01*
X57732600Y-6317600D02*
X65386600Y-6317600D01*
X65386600Y-323200D02*
X57732600Y-323200D01*
X65386600Y-6317600D02*
X65386600Y-323200D01*
D14*
X67545600Y-2790599D02*
G75*
G02*
X66783600Y-2790599I-381000J0D01*
G01*
X66783600Y-2790599D02*
G75*
G02*
X67545600Y-2790599I381000J0D01*
G01*
D12*
%TO.C,C19*%
X23321052Y-20006400D02*
X22798548Y-20006400D01*
X23321052Y-21476400D02*
X22798548Y-21476400D01*
%TO.C,U4*%
X31832000Y-9641800D02*
X31832000Y-13401800D01*
X31832000Y-13401800D02*
X33092000Y-13401800D01*
X38652000Y-7391800D02*
X38652000Y-13401800D01*
X38652000Y-13401800D02*
X37392000Y-13401800D01*
%TO.C,C3*%
X41577400Y-12854852D02*
X41577400Y-12332348D01*
X43047400Y-12854852D02*
X43047400Y-12332348D01*
%TO.C,C13*%
X29875200Y-10819148D02*
X29875200Y-11341652D01*
X31345200Y-10819148D02*
X31345200Y-11341652D01*
%TO.C,D3*%
X14584300Y-23096700D02*
X14584300Y-19086700D01*
X14584300Y-23096700D02*
X16584300Y-23096700D01*
X16584300Y-23096700D02*
X16584300Y-19086700D01*
%TO.C,C2*%
X48865852Y-2181000D02*
X48343348Y-2181000D01*
X48865852Y-3651000D02*
X48343348Y-3651000D01*
%TO.C,C6*%
X50980252Y-23298800D02*
X50457748Y-23298800D01*
X50980252Y-24768800D02*
X50457748Y-24768800D01*
%TO.C,U1*%
X43660600Y-11802600D02*
X43660600Y-14752600D01*
X46880600Y-13602600D02*
X46880600Y-11802600D01*
%TO.C,C9*%
X48826148Y-13868000D02*
X49348652Y-13868000D01*
X48826148Y-15338000D02*
X49348652Y-15338000D01*
%TO.C,Q2*%
X56202200Y-14035800D02*
X56202200Y-17195800D01*
X56202200Y-14035800D02*
X57132200Y-14035800D01*
X59362200Y-14035800D02*
X58432200Y-14035800D01*
X59362200Y-14035800D02*
X59362200Y-15495800D01*
%TO.C,J5*%
X57087000Y-3095000D02*
G75*
G02*
X53687000Y-3095000I-1700000J0D01*
G01*
X53687000Y-3095000D02*
G75*
G02*
X57087000Y-3095000I1700000J0D01*
G01*
%TO.C,C10*%
X2941348Y-17646800D02*
X3463852Y-17646800D01*
X2941348Y-19116800D02*
X3463852Y-19116800D01*
D13*
%TO.C,J6*%
X4693300Y-23192900D02*
X4693300Y-27942700D01*
X4693300Y-27942700D02*
X8452500Y-27942700D01*
X8452500Y-23192900D02*
X4693300Y-23192900D01*
X8452500Y-27942700D02*
X8452500Y-23192900D01*
D14*
X7401300Y-29720700D02*
G75*
G02*
X6639300Y-29720700I-381000J0D01*
G01*
X6639300Y-29720700D02*
G75*
G02*
X7401300Y-29720700I381000J0D01*
G01*
D12*
%TO.C,R5*%
X59194064Y-19536000D02*
X57739936Y-19536000D01*
X59194064Y-21356000D02*
X57739936Y-21356000D01*
%TO.C,R4*%
X54298600Y-16821136D02*
X54298600Y-17275264D01*
X55768600Y-16821136D02*
X55768600Y-17275264D01*
%TO.C,C8*%
X51358200Y-1825548D02*
X51358200Y-2348052D01*
X52828200Y-1825548D02*
X52828200Y-2348052D01*
%TO.C,R8*%
X21541000Y-26112536D02*
X21541000Y-26566664D01*
X23011000Y-26112536D02*
X23011000Y-26566664D01*
%TO.C,D4*%
X13910000Y-23060000D02*
X9900000Y-23060000D01*
X13910000Y-25060000D02*
X9900000Y-25060000D01*
X13910000Y-25060000D02*
X13910000Y-23060000D01*
%TO.C,R1*%
X54307264Y-13129200D02*
X52853136Y-13129200D01*
X54307264Y-14949200D02*
X52853136Y-14949200D01*
%TO.C,TH1*%
X13275064Y-26694800D02*
X12820936Y-26694800D01*
X13275064Y-28164800D02*
X12820936Y-28164800D01*
%TO.C,J13*%
X56718200Y-24669600D02*
X56718200Y-24789600D01*
X56718200Y-24789600D02*
X59378200Y-24789600D01*
X58048200Y-22129600D02*
X59378200Y-22129600D01*
X59378200Y-22129600D02*
X59378200Y-23459600D01*
X59378200Y-24669600D02*
X59378200Y-24789600D01*
%TO.C,J11*%
X66096600Y-5667800D02*
X66096600Y-8327800D01*
X66216600Y-5667800D02*
X66096600Y-5667800D01*
X66216600Y-8327800D02*
X66096600Y-8327800D01*
X68756600Y-6997800D02*
X68756600Y-8327800D01*
X68756600Y-8327800D02*
X67426600Y-8327800D01*
%TO.C,R14*%
X41584200Y-16238736D02*
X41584200Y-16692864D01*
X43054200Y-16238736D02*
X43054200Y-16692864D01*
%TO.C,C5*%
X19224200Y-21934652D02*
X19224200Y-21412148D01*
X20694200Y-21934652D02*
X20694200Y-21412148D01*
%TO.C,R16*%
X45467000Y-20705536D02*
X45467000Y-21159664D01*
X46937000Y-20705536D02*
X46937000Y-21159664D01*
D13*
%TO.C,LS1*%
X24151400Y-24068300D02*
X25421400Y-24068300D01*
X24786400Y-23433300D02*
X24786400Y-24703300D01*
X35302000Y-24068300D02*
G75*
G02*
X25548400Y-24068300I-4876800J0D01*
G01*
X25548400Y-24068300D02*
G75*
G02*
X35302000Y-24068300I4876800J0D01*
G01*
D12*
%TO.C,J12*%
X61375400Y-28385800D02*
X61375400Y-28505800D01*
X61375400Y-28505800D02*
X64035400Y-28505800D01*
X62705400Y-25845800D02*
X64035400Y-25845800D01*
X64035400Y-25845800D02*
X64035400Y-27175800D01*
X64035400Y-28385800D02*
X64035400Y-28505800D01*
%TO.C,C11*%
X10587052Y-17635400D02*
X10064548Y-17635400D01*
X10587052Y-19105400D02*
X10064548Y-19105400D01*
%TO.C,R17*%
X38302936Y-17775000D02*
X38757064Y-17775000D01*
X38302936Y-19245000D02*
X38757064Y-19245000D01*
D13*
%TO.C,L1*%
X41986700Y-5649600D02*
X41986700Y-5939160D01*
X41986700Y-9805040D02*
X41986700Y-10094600D01*
X41986700Y-10094600D02*
X46152300Y-10094600D01*
X46152300Y-5649600D02*
X41986700Y-5649600D01*
X46152300Y-5939160D02*
X46152300Y-5649600D01*
X46152300Y-10094600D02*
X46152300Y-9805040D01*
D12*
%TO.C,R13*%
X52020000Y-20902064D02*
X52020000Y-20447936D01*
X53490000Y-20902064D02*
X53490000Y-20447936D01*
%TO.C,C12*%
X47393600Y-11837252D02*
X47393600Y-11314748D01*
X48863600Y-11837252D02*
X48863600Y-11314748D01*
%TO.C,C1*%
X39089400Y-9037452D02*
X39089400Y-7614948D01*
X40909400Y-9037452D02*
X40909400Y-7614948D01*
%TO.C,C4*%
X39108800Y-12598148D02*
X39108800Y-14020652D01*
X40928800Y-12598148D02*
X40928800Y-14020652D01*
%TO.C,R11*%
X3609400Y-12434136D02*
X3609400Y-12888264D01*
X5079400Y-12434136D02*
X5079400Y-12888264D01*
%TO.C,C18*%
X17096748Y-6717000D02*
X17619252Y-6717000D01*
X17096748Y-8187000D02*
X17619252Y-8187000D01*
D15*
%TO.C,Q1*%
X55852200Y-6819200D02*
X58952200Y-6819200D01*
X55852200Y-11719200D02*
X58952200Y-11719200D01*
D16*
X53443200Y-7272200D02*
G75*
G02*
X53243200Y-7272200I-100000J0D01*
G01*
X53243200Y-7272200D02*
G75*
G02*
X53443200Y-7272200I100000J0D01*
G01*
D12*
%TO.C,J10*%
X69843200Y-5674800D02*
X69843200Y-8334800D01*
X69963200Y-5674800D02*
X69843200Y-5674800D01*
X69963200Y-8334800D02*
X69843200Y-8334800D01*
X72503200Y-7004800D02*
X72503200Y-8334800D01*
X72503200Y-8334800D02*
X71173200Y-8334800D01*
%TO.C,J9*%
X61538400Y-13148800D02*
X61538400Y-13268800D01*
X61538400Y-13268800D02*
X64198400Y-13268800D01*
X62868400Y-10608800D02*
X64198400Y-10608800D01*
X64198400Y-10608800D02*
X64198400Y-11938800D01*
X64198400Y-13148800D02*
X64198400Y-13268800D01*
%TO.C,C21*%
X14661000Y-16572652D02*
X14661000Y-16050148D01*
X16131000Y-16572652D02*
X16131000Y-16050148D01*
%TO.C,C17*%
X23312852Y-22018000D02*
X22790348Y-22018000D01*
X23312852Y-23488000D02*
X22790348Y-23488000D01*
%TO.C,J7*%
X69460000Y-3115200D02*
G75*
G02*
X66060000Y-3115200I-1700000J0D01*
G01*
X66060000Y-3115200D02*
G75*
G02*
X69460000Y-3115200I1700000J0D01*
G01*
%TO.C,U3*%
X18304200Y-9983200D02*
X18754200Y-9983200D01*
X18304200Y-10433200D02*
X18304200Y-9983200D01*
X18304200Y-16753200D02*
X18304200Y-17203200D01*
X18304200Y-17203200D02*
X18754200Y-17203200D01*
X25524200Y-9983200D02*
X25074200Y-9983200D01*
X25524200Y-10433200D02*
X25524200Y-9983200D01*
X25524200Y-16753200D02*
X25524200Y-17203200D01*
X25524200Y-17203200D02*
X25074200Y-17203200D01*
X18754200Y-17793200D02*
X18284200Y-18133200D01*
X18284200Y-17453200D01*
X18754200Y-17793200D01*
G36*
X18754200Y-17793200D02*
G01*
X18284200Y-18133200D01*
X18284200Y-17453200D01*
X18754200Y-17793200D01*
G37*
%TO.C,U2*%
X49515000Y-19725000D02*
X48715000Y-19725000D01*
X49515000Y-19725000D02*
X50315000Y-19725000D01*
X49515000Y-22845000D02*
X48715000Y-22845000D01*
X49515000Y-22845000D02*
X50315000Y-22845000D01*
X51055000Y-23125000D02*
X50575000Y-23125000D01*
X50815000Y-22795000D01*
X51055000Y-23125000D01*
G36*
X51055000Y-23125000D02*
G01*
X50575000Y-23125000D01*
X50815000Y-22795000D01*
X51055000Y-23125000D01*
G37*
%TO.C,R2*%
X51603400Y-9439336D02*
X51603400Y-10893464D01*
X53423400Y-9439336D02*
X53423400Y-10893464D01*
%TO.C,J2*%
X13885000Y-3915000D02*
X13885000Y-2585000D01*
X15215000Y-3915000D02*
X13885000Y-3915000D01*
X16485000Y-1255000D02*
X24165000Y-1255000D01*
X16485000Y-3915000D02*
X16485000Y-1255000D01*
X16485000Y-3915000D02*
X24165000Y-3915000D01*
X24165000Y-3915000D02*
X24165000Y-1255000D01*
%TO.C,R12*%
X38332136Y-19763800D02*
X38786264Y-19763800D01*
X38332136Y-21233800D02*
X38786264Y-21233800D01*
%TO.C,R7*%
X23538600Y-26112336D02*
X23538600Y-26566464D01*
X25008600Y-26112336D02*
X25008600Y-26566464D01*
%TO.C,R15*%
X49334400Y-10565664D02*
X49334400Y-10111536D01*
X50804400Y-10565664D02*
X50804400Y-10111536D01*
%TO.C,C14*%
X17115948Y-4724000D02*
X17638452Y-4724000D01*
X17115948Y-6194000D02*
X17638452Y-6194000D01*
%TO.C,R3*%
X38346600Y-25970536D02*
X38346600Y-26424664D01*
X39816600Y-25970536D02*
X39816600Y-26424664D01*
%TO.C,C20*%
X27801600Y-10825948D02*
X27801600Y-11348452D01*
X29271600Y-10825948D02*
X29271600Y-11348452D01*
%TO.C,R9*%
X6592536Y-8503000D02*
X7046664Y-8503000D01*
X6592536Y-9973000D02*
X7046664Y-9973000D01*
%TO.C,D2*%
X53914700Y-20161500D02*
X53914700Y-23021500D01*
X53914700Y-23021500D02*
X55834700Y-23021500D01*
X55834700Y-23021500D02*
X55834700Y-20161500D01*
%TO.C,J3*%
X61543200Y-7005200D02*
X62873200Y-7005200D01*
X61543200Y-8335200D02*
X61543200Y-7005200D01*
X64083200Y-7005200D02*
X64203200Y-7005200D01*
X64083200Y-9665200D02*
X64203200Y-9665200D01*
X64203200Y-9665200D02*
X64203200Y-7005200D01*
%TO.C,D1*%
X46709800Y-4201600D02*
X46709800Y-7501600D01*
X46709800Y-4201600D02*
X52219800Y-4201600D01*
X46709800Y-7501600D02*
X52219800Y-7501600D01*
%TD*%
D17*
X66068521Y7700D02*
G75*
G02*
X74196500Y-8120300I-21J-8128000D01*
G01*
X28521Y-8120300D02*
X28521Y-21074300D01*
X8156521Y-29202300D02*
X66068521Y-29202300D01*
X74196521Y-21074300D02*
X74196521Y-8120300D01*
X8156521Y-29202300D02*
G75*
G02*
X28500Y-21074300I-21J8128000D01*
G01*
X28521Y-8120300D02*
G75*
G02*
X8156521Y7679I8127979J0D01*
G01*
X69865821Y-17492900D02*
G75*
G02*
X68468821Y-17492900I-698500J0D01*
G01*
X68468821Y-17492900D02*
G75*
G02*
X69865821Y-17492900I698500J0D01*
G01*
X74196521Y-21074300D02*
G75*
G02*
X66068521Y-29202321I-8128021J0D01*
G01*
X66068521Y7700D02*
X8156521Y7700D01*
M02*
