%TF.GenerationSoftware,KiCad,Pcbnew,8.99.0-unknown*%
%TF.CreationDate,2024-06-21T09:57:36-04:00*%
%TF.ProjectId,faceEdgeCuts,66616365-4564-4676-9543-7574732e6b69,rev?*%
%TF.SameCoordinates,Original*%
%TF.FileFunction,Profile,NP*%
%FSLAX46Y46*%
G04 Gerber Fmt 4.6, Leading zero omitted, Abs format (unit mm)*
G04 Created by KiCad (PCBNEW 8.99.0-unknown) date 2024-06-21 09:57:36*
%MOMM*%
%LPD*%
G01*
G04 APERTURE LIST*
%TA.AperFunction,Profile*%
%ADD10C,0.050000*%
%TD*%
G04 APERTURE END LIST*
D10*
X99827500Y-139398800D02*
G75*
G02*
X100589500Y-140160800I0J-762000D01*
G01*
X125354500Y-134433100D02*
G75*
G02*
X121925500Y-134433100I-1714500J0D01*
G01*
X121925500Y-134433100D02*
G75*
G02*
X125354500Y-134433100I1714500J0D01*
G01*
X49586300Y-147476000D02*
X54539300Y-147476000D01*
X126497500Y-165764000D02*
G75*
G02*
X124465500Y-167796000I-2032000J0D01*
G01*
X49586300Y-158779000D02*
G75*
G02*
X49586300Y-147476000I2803410J5651500D01*
G01*
X39502500Y-132236000D02*
G75*
G02*
X41534500Y-130204000I2032000J0D01*
G01*
X117505900Y-149000000D02*
G75*
G02*
X110520900Y-149000000I-3492500J0D01*
G01*
X110520900Y-149000000D02*
G75*
G02*
X117505900Y-149000000I3492500J0D01*
G01*
X100589500Y-157940800D02*
X100589500Y-140160800D01*
X54539300Y-147476000D02*
G75*
G02*
X54539300Y-158779000I-2803410J-5651500D01*
G01*
X66299500Y-158702800D02*
G75*
G02*
X65537500Y-157940800I0J762000D01*
G01*
X54539300Y-158779000D02*
X49586300Y-158779000D01*
X126497500Y-132236000D02*
X126497500Y-165764000D01*
X65537500Y-140160800D02*
G75*
G02*
X66299500Y-139398800I762000J0D01*
G01*
X125354500Y-163566900D02*
G75*
G02*
X121925500Y-163566900I-1714500J0D01*
G01*
X121925500Y-163566900D02*
G75*
G02*
X125354500Y-163566900I1714500J0D01*
G01*
X44074500Y-134433100D02*
G75*
G02*
X40645500Y-134433100I-1714500J0D01*
G01*
X40645500Y-134433100D02*
G75*
G02*
X44074500Y-134433100I1714500J0D01*
G01*
X124465500Y-167796000D02*
X41534500Y-167796000D01*
X44074500Y-163566900D02*
G75*
G02*
X40645500Y-163566900I-1714500J0D01*
G01*
X40645500Y-163566900D02*
G75*
G02*
X44074500Y-163566900I1714500J0D01*
G01*
X39502500Y-165764000D02*
X39502500Y-132236000D01*
X124465500Y-130204000D02*
G75*
G02*
X126497500Y-132236000I0J-2032000D01*
G01*
X41534500Y-167796000D02*
G75*
G02*
X39502500Y-165764000I0J2032000D01*
G01*
X65537500Y-140160800D02*
X65537500Y-157940800D01*
X100589500Y-157940800D02*
G75*
G02*
X99827500Y-158702800I-762000J0D01*
G01*
X99827500Y-139398800D02*
X66299500Y-139398800D01*
X66299500Y-158702800D02*
X99827500Y-158702800D01*
X41534500Y-130204000D02*
X124465500Y-130204000D01*
M02*
