%TF.GenerationSoftware,KiCad,Pcbnew,8.99.0-unknown*%
%TF.CreationDate,2024-06-21T09:57:36-04:00*%
%TF.ProjectId,faceEdgeCuts,66616365-4564-4676-9543-7574732e6b69,rev?*%
%TF.SameCoordinates,Original*%
%TF.FileFunction,Legend,Top*%
%TF.FilePolarity,Positive*%
%FSLAX46Y46*%
G04 Gerber Fmt 4.6, Leading zero omitted, Abs format (unit mm)*
G04 Created by KiCad (PCBNEW 8.99.0-unknown) date 2024-06-21 09:57:36*
%MOMM*%
%LPD*%
G01*
G04 APERTURE LIST*
%ADD10C,0.457200*%
G04 APERTURE END LIST*
D10*
X55889360Y-133425377D02*
X56373169Y-133425377D01*
X56373169Y-133425377D02*
X56615074Y-133546329D01*
X56615074Y-133546329D02*
X56856979Y-133788234D01*
X56856979Y-133788234D02*
X56977931Y-134272044D01*
X56977931Y-134272044D02*
X56977931Y-135118710D01*
X56977931Y-135118710D02*
X56856979Y-135602520D01*
X56856979Y-135602520D02*
X56615074Y-135844425D01*
X56615074Y-135844425D02*
X56373169Y-135965377D01*
X56373169Y-135965377D02*
X55889360Y-135965377D01*
X55889360Y-135965377D02*
X55647455Y-135844425D01*
X55647455Y-135844425D02*
X55405550Y-135602520D01*
X55405550Y-135602520D02*
X55284598Y-135118710D01*
X55284598Y-135118710D02*
X55284598Y-134272044D01*
X55284598Y-134272044D02*
X55405550Y-133788234D01*
X55405550Y-133788234D02*
X55647455Y-133546329D01*
X55647455Y-133546329D02*
X55889360Y-133425377D01*
X58066502Y-134272044D02*
X58066502Y-136812044D01*
X58066502Y-134392996D02*
X58308407Y-134272044D01*
X58308407Y-134272044D02*
X58792217Y-134272044D01*
X58792217Y-134272044D02*
X59034121Y-134392996D01*
X59034121Y-134392996D02*
X59155074Y-134513948D01*
X59155074Y-134513948D02*
X59276026Y-134755853D01*
X59276026Y-134755853D02*
X59276026Y-135481567D01*
X59276026Y-135481567D02*
X59155074Y-135723472D01*
X59155074Y-135723472D02*
X59034121Y-135844425D01*
X59034121Y-135844425D02*
X58792217Y-135965377D01*
X58792217Y-135965377D02*
X58308407Y-135965377D01*
X58308407Y-135965377D02*
X58066502Y-135844425D01*
X61332216Y-135844425D02*
X61090312Y-135965377D01*
X61090312Y-135965377D02*
X60606502Y-135965377D01*
X60606502Y-135965377D02*
X60364597Y-135844425D01*
X60364597Y-135844425D02*
X60243645Y-135602520D01*
X60243645Y-135602520D02*
X60243645Y-134634901D01*
X60243645Y-134634901D02*
X60364597Y-134392996D01*
X60364597Y-134392996D02*
X60606502Y-134272044D01*
X60606502Y-134272044D02*
X61090312Y-134272044D01*
X61090312Y-134272044D02*
X61332216Y-134392996D01*
X61332216Y-134392996D02*
X61453169Y-134634901D01*
X61453169Y-134634901D02*
X61453169Y-134876805D01*
X61453169Y-134876805D02*
X60243645Y-135118710D01*
X62541740Y-134272044D02*
X62541740Y-135965377D01*
X62541740Y-134513948D02*
X62662693Y-134392996D01*
X62662693Y-134392996D02*
X62904598Y-134272044D01*
X62904598Y-134272044D02*
X63267455Y-134272044D01*
X63267455Y-134272044D02*
X63509359Y-134392996D01*
X63509359Y-134392996D02*
X63630312Y-134634901D01*
X63630312Y-134634901D02*
X63630312Y-135965377D01*
X64839835Y-134997758D02*
X66775074Y-134997758D01*
X67621740Y-133425377D02*
X69073169Y-133425377D01*
X68347455Y-135965377D02*
X68347455Y-133425377D01*
X71250312Y-135965377D02*
X69798883Y-135965377D01*
X70524597Y-135965377D02*
X70524597Y-133425377D01*
X70524597Y-133425377D02*
X70282693Y-133788234D01*
X70282693Y-133788234D02*
X70040788Y-134030139D01*
X70040788Y-134030139D02*
X69798883Y-134151091D01*
X72217931Y-133667282D02*
X72338883Y-133546329D01*
X72338883Y-133546329D02*
X72580788Y-133425377D01*
X72580788Y-133425377D02*
X73185550Y-133425377D01*
X73185550Y-133425377D02*
X73427455Y-133546329D01*
X73427455Y-133546329D02*
X73548407Y-133667282D01*
X73548407Y-133667282D02*
X73669360Y-133909186D01*
X73669360Y-133909186D02*
X73669360Y-134151091D01*
X73669360Y-134151091D02*
X73548407Y-134513948D01*
X73548407Y-134513948D02*
X72096979Y-135965377D01*
X72096979Y-135965377D02*
X73669360Y-135965377D01*
X74757931Y-134997758D02*
X76693170Y-134997758D01*
X77781741Y-135844425D02*
X78144598Y-135965377D01*
X78144598Y-135965377D02*
X78749360Y-135965377D01*
X78749360Y-135965377D02*
X78991265Y-135844425D01*
X78991265Y-135844425D02*
X79112217Y-135723472D01*
X79112217Y-135723472D02*
X79233170Y-135481567D01*
X79233170Y-135481567D02*
X79233170Y-135239663D01*
X79233170Y-135239663D02*
X79112217Y-134997758D01*
X79112217Y-134997758D02*
X78991265Y-134876805D01*
X78991265Y-134876805D02*
X78749360Y-134755853D01*
X78749360Y-134755853D02*
X78265551Y-134634901D01*
X78265551Y-134634901D02*
X78023646Y-134513948D01*
X78023646Y-134513948D02*
X77902693Y-134392996D01*
X77902693Y-134392996D02*
X77781741Y-134151091D01*
X77781741Y-134151091D02*
X77781741Y-133909186D01*
X77781741Y-133909186D02*
X77902693Y-133667282D01*
X77902693Y-133667282D02*
X78023646Y-133546329D01*
X78023646Y-133546329D02*
X78265551Y-133425377D01*
X78265551Y-133425377D02*
X78870312Y-133425377D01*
X78870312Y-133425377D02*
X79233170Y-133546329D01*
X80684599Y-135965377D02*
X80442694Y-135844425D01*
X80442694Y-135844425D02*
X80321741Y-135723472D01*
X80321741Y-135723472D02*
X80200789Y-135481567D01*
X80200789Y-135481567D02*
X80200789Y-134755853D01*
X80200789Y-134755853D02*
X80321741Y-134513948D01*
X80321741Y-134513948D02*
X80442694Y-134392996D01*
X80442694Y-134392996D02*
X80684599Y-134272044D01*
X80684599Y-134272044D02*
X81047456Y-134272044D01*
X81047456Y-134272044D02*
X81289360Y-134392996D01*
X81289360Y-134392996D02*
X81410313Y-134513948D01*
X81410313Y-134513948D02*
X81531265Y-134755853D01*
X81531265Y-134755853D02*
X81531265Y-135481567D01*
X81531265Y-135481567D02*
X81410313Y-135723472D01*
X81410313Y-135723472D02*
X81289360Y-135844425D01*
X81289360Y-135844425D02*
X81047456Y-135965377D01*
X81047456Y-135965377D02*
X80684599Y-135965377D01*
X82982694Y-135965377D02*
X82740789Y-135844425D01*
X82740789Y-135844425D02*
X82619836Y-135602520D01*
X82619836Y-135602520D02*
X82619836Y-133425377D01*
X85038884Y-135965377D02*
X85038884Y-133425377D01*
X85038884Y-135844425D02*
X84796979Y-135965377D01*
X84796979Y-135965377D02*
X84313170Y-135965377D01*
X84313170Y-135965377D02*
X84071265Y-135844425D01*
X84071265Y-135844425D02*
X83950312Y-135723472D01*
X83950312Y-135723472D02*
X83829360Y-135481567D01*
X83829360Y-135481567D02*
X83829360Y-134755853D01*
X83829360Y-134755853D02*
X83950312Y-134513948D01*
X83950312Y-134513948D02*
X84071265Y-134392996D01*
X84071265Y-134392996D02*
X84313170Y-134272044D01*
X84313170Y-134272044D02*
X84796979Y-134272044D01*
X84796979Y-134272044D02*
X85038884Y-134392996D01*
X87216026Y-135844425D02*
X86974122Y-135965377D01*
X86974122Y-135965377D02*
X86490312Y-135965377D01*
X86490312Y-135965377D02*
X86248407Y-135844425D01*
X86248407Y-135844425D02*
X86127455Y-135602520D01*
X86127455Y-135602520D02*
X86127455Y-134634901D01*
X86127455Y-134634901D02*
X86248407Y-134392996D01*
X86248407Y-134392996D02*
X86490312Y-134272044D01*
X86490312Y-134272044D02*
X86974122Y-134272044D01*
X86974122Y-134272044D02*
X87216026Y-134392996D01*
X87216026Y-134392996D02*
X87336979Y-134634901D01*
X87336979Y-134634901D02*
X87336979Y-134876805D01*
X87336979Y-134876805D02*
X86127455Y-135118710D01*
X88425550Y-135965377D02*
X88425550Y-134272044D01*
X88425550Y-134755853D02*
X88546503Y-134513948D01*
X88546503Y-134513948D02*
X88667455Y-134392996D01*
X88667455Y-134392996D02*
X88909360Y-134272044D01*
X88909360Y-134272044D02*
X89151265Y-134272044D01*
X89997931Y-135965377D02*
X89997931Y-134272044D01*
X89997931Y-133425377D02*
X89876979Y-133546329D01*
X89876979Y-133546329D02*
X89997931Y-133667282D01*
X89997931Y-133667282D02*
X90118884Y-133546329D01*
X90118884Y-133546329D02*
X89997931Y-133425377D01*
X89997931Y-133425377D02*
X89997931Y-133667282D01*
X91207455Y-134272044D02*
X91207455Y-135965377D01*
X91207455Y-134513948D02*
X91328408Y-134392996D01*
X91328408Y-134392996D02*
X91570313Y-134272044D01*
X91570313Y-134272044D02*
X91933170Y-134272044D01*
X91933170Y-134272044D02*
X92175074Y-134392996D01*
X92175074Y-134392996D02*
X92296027Y-134634901D01*
X92296027Y-134634901D02*
X92296027Y-135965377D01*
X94594122Y-134272044D02*
X94594122Y-136328234D01*
X94594122Y-136328234D02*
X94473169Y-136570139D01*
X94473169Y-136570139D02*
X94352217Y-136691091D01*
X94352217Y-136691091D02*
X94110312Y-136812044D01*
X94110312Y-136812044D02*
X93747455Y-136812044D01*
X93747455Y-136812044D02*
X93505550Y-136691091D01*
X94594122Y-135844425D02*
X94352217Y-135965377D01*
X94352217Y-135965377D02*
X93868408Y-135965377D01*
X93868408Y-135965377D02*
X93626503Y-135844425D01*
X93626503Y-135844425D02*
X93505550Y-135723472D01*
X93505550Y-135723472D02*
X93384598Y-135481567D01*
X93384598Y-135481567D02*
X93384598Y-134755853D01*
X93384598Y-134755853D02*
X93505550Y-134513948D01*
X93505550Y-134513948D02*
X93626503Y-134392996D01*
X93626503Y-134392996D02*
X93868408Y-134272044D01*
X93868408Y-134272044D02*
X94352217Y-134272044D01*
X94352217Y-134272044D02*
X94594122Y-134392996D01*
X95803645Y-134997758D02*
X97738884Y-134997758D01*
X98827455Y-135844425D02*
X99190312Y-135965377D01*
X99190312Y-135965377D02*
X99795074Y-135965377D01*
X99795074Y-135965377D02*
X100036979Y-135844425D01*
X100036979Y-135844425D02*
X100157931Y-135723472D01*
X100157931Y-135723472D02*
X100278884Y-135481567D01*
X100278884Y-135481567D02*
X100278884Y-135239663D01*
X100278884Y-135239663D02*
X100157931Y-134997758D01*
X100157931Y-134997758D02*
X100036979Y-134876805D01*
X100036979Y-134876805D02*
X99795074Y-134755853D01*
X99795074Y-134755853D02*
X99311265Y-134634901D01*
X99311265Y-134634901D02*
X99069360Y-134513948D01*
X99069360Y-134513948D02*
X98948407Y-134392996D01*
X98948407Y-134392996D02*
X98827455Y-134151091D01*
X98827455Y-134151091D02*
X98827455Y-133909186D01*
X98827455Y-133909186D02*
X98948407Y-133667282D01*
X98948407Y-133667282D02*
X99069360Y-133546329D01*
X99069360Y-133546329D02*
X99311265Y-133425377D01*
X99311265Y-133425377D02*
X99916026Y-133425377D01*
X99916026Y-133425377D02*
X100278884Y-133546329D01*
X101004598Y-134272044D02*
X101972217Y-134272044D01*
X101367455Y-133425377D02*
X101367455Y-135602520D01*
X101367455Y-135602520D02*
X101488408Y-135844425D01*
X101488408Y-135844425D02*
X101730313Y-135965377D01*
X101730313Y-135965377D02*
X101972217Y-135965377D01*
X103907456Y-135965377D02*
X103907456Y-134634901D01*
X103907456Y-134634901D02*
X103786503Y-134392996D01*
X103786503Y-134392996D02*
X103544599Y-134272044D01*
X103544599Y-134272044D02*
X103060789Y-134272044D01*
X103060789Y-134272044D02*
X102818884Y-134392996D01*
X103907456Y-135844425D02*
X103665551Y-135965377D01*
X103665551Y-135965377D02*
X103060789Y-135965377D01*
X103060789Y-135965377D02*
X102818884Y-135844425D01*
X102818884Y-135844425D02*
X102697932Y-135602520D01*
X102697932Y-135602520D02*
X102697932Y-135360615D01*
X102697932Y-135360615D02*
X102818884Y-135118710D01*
X102818884Y-135118710D02*
X103060789Y-134997758D01*
X103060789Y-134997758D02*
X103665551Y-134997758D01*
X103665551Y-134997758D02*
X103907456Y-134876805D01*
X104754122Y-134272044D02*
X105721741Y-134272044D01*
X105116979Y-133425377D02*
X105116979Y-135602520D01*
X105116979Y-135602520D02*
X105237932Y-135844425D01*
X105237932Y-135844425D02*
X105479837Y-135965377D01*
X105479837Y-135965377D02*
X105721741Y-135965377D01*
X106568408Y-135965377D02*
X106568408Y-134272044D01*
X106568408Y-133425377D02*
X106447456Y-133546329D01*
X106447456Y-133546329D02*
X106568408Y-133667282D01*
X106568408Y-133667282D02*
X106689361Y-133546329D01*
X106689361Y-133546329D02*
X106568408Y-133425377D01*
X106568408Y-133425377D02*
X106568408Y-133667282D01*
X108140790Y-135965377D02*
X107898885Y-135844425D01*
X107898885Y-135844425D02*
X107777932Y-135723472D01*
X107777932Y-135723472D02*
X107656980Y-135481567D01*
X107656980Y-135481567D02*
X107656980Y-134755853D01*
X107656980Y-134755853D02*
X107777932Y-134513948D01*
X107777932Y-134513948D02*
X107898885Y-134392996D01*
X107898885Y-134392996D02*
X108140790Y-134272044D01*
X108140790Y-134272044D02*
X108503647Y-134272044D01*
X108503647Y-134272044D02*
X108745551Y-134392996D01*
X108745551Y-134392996D02*
X108866504Y-134513948D01*
X108866504Y-134513948D02*
X108987456Y-134755853D01*
X108987456Y-134755853D02*
X108987456Y-135481567D01*
X108987456Y-135481567D02*
X108866504Y-135723472D01*
X108866504Y-135723472D02*
X108745551Y-135844425D01*
X108745551Y-135844425D02*
X108503647Y-135965377D01*
X108503647Y-135965377D02*
X108140790Y-135965377D01*
X110076027Y-134272044D02*
X110076027Y-135965377D01*
X110076027Y-134513948D02*
X110196980Y-134392996D01*
X110196980Y-134392996D02*
X110438885Y-134272044D01*
X110438885Y-134272044D02*
X110801742Y-134272044D01*
X110801742Y-134272044D02*
X111043646Y-134392996D01*
X111043646Y-134392996D02*
X111164599Y-134634901D01*
X111164599Y-134634901D02*
X111164599Y-135965377D01*
M02*
